<svg xmlns="http://www.w3.org/2000/svg" viewBox="0 0 298.48 91"><defs><style>.cls-1{fill:#9dc4ff;}.cls-2{font-size:62px;fill:#9cff8f;font-family:AmericanTypewriter-Light, American Typewriter;font-weight:300;}</style></defs><title>Continue</title><g id="Layer_2" data-name="Layer 2"><g id="Layer_1-2" data-name="Layer 1"><path class="cls-1" d="M285.62,88.82c-.4.08-.16.3.88.2a4.82,4.82,0,0,0,.69-.41A11.62,11.62,0,0,1,285.62,88.82Z"/><path class="cls-1" d="M292.43,87.28c.23-.23.47-.46.67-.68a5.79,5.79,0,0,0,.46-.66c.22-.37.22-.57-.17-.42a5.06,5.06,0,0,1-.86,1.08l-1,1.06c-.9.56-1.71.71-1.58.52a5.53,5.53,0,0,1-1,.37,4.66,4.66,0,0,0-1.1.39,7.06,7.06,0,0,0,4.52-1.89C292.73,86.87,292.47,87.17,292.43,87.28Z"/><path class="cls-1" d="M274,1l.68,0Z"/><path class="cls-1" d="M208.34.84a2.25,2.25,0,0,0,.74-.07C208.61.79,208.23.81,208.34.84Z"/><path class="cls-1" d="M197.13.48l.66,0A2.52,2.52,0,0,0,197.13.48Z"/><path class="cls-1" d="M274,1l-1.76-.1C272.13,1,273.15,1,274,1Z"/><path class="cls-1" d="M296.77,74.41a8.06,8.06,0,0,0,.08,1l0-.89Z"/><path class="cls-1" d="M298.24,11.91a2.6,2.6,0,0,1,.06.56c.05.16.1.31.16.46A8.81,8.81,0,0,0,298.24,11.91Z"/><path class="cls-1" d="M298.4,34.21a1.22,1.22,0,0,0-.39-.87,3.5,3.5,0,0,1,.19,1.09C298.26,34.44,298.32,34.38,298.4,34.21Z"/><path class="cls-1" d="M297.91,69.43l0,.63C297.93,69.9,297.92,69.62,297.91,69.43Z"/><path class="cls-1" d="M287.15.79a.76.76,0,0,0-.21-.13S287,.74,287.15.79Z"/><path class="cls-1" d="M259.87,88.17s0,0,0,0S260,88.17,259.87,88.17Z"/><path class="cls-1" d="M285.62,89.56h-.36a.34.34,0,0,0-.08.16Z"/><path class="cls-1" d="M176.62.12h.09C177.25.09,176.94.1,176.62.12Z"/><path class="cls-1" d="M.45,20c.26-2.13.33,3.48.61.27C1,20.57.62,17.36.45,20Z"/><path class="cls-1" d="M296.8,73.84v-.91C296.79,73.34,296.79,73.62,296.8,73.84Z"/><path class="cls-1" d="M1.06,20.28h0l0-.34Z"/><path class="cls-1" d="M129.34.29a2.36,2.36,0,0,0,.48.12S129.7.34,129.34.29Z"/><path class="cls-1" d="M164.56.69l-.87,0Z"/><path class="cls-1" d="M111.05.68a8.61,8.61,0,0,0-1.28,0l.2,0A5.1,5.1,0,0,1,111.05.68Z"/><path class="cls-1" d="M92,.68l.35.06H93Z"/><path class="cls-1" d="M202,88.3a3.8,3.8,0,0,1,.88.26C202.61,88.36,205.4,88.28,202,88.3Z"/><path class="cls-1" d="M296.93,74.4a1.08,1.08,0,0,1-.13-.56l0,.63S296.9,74.54,296.93,74.4Z"/><path class="cls-1" d="M110.28,2.9l-3,0C108.1,2.89,109.2,2.9,110.28,2.9Z"/><path class="cls-1" d="M65.48,88.34l.69,0A3.6,3.6,0,0,0,65.48,88.34Z"/><path class="cls-1" d="M98.28,2.9a13,13,0,0,0-1.7-.19,2.15,2.15,0,0,0-.35.07Z"/><path class="cls-1" d="M202.91,88.56h0Z"/><path class="cls-1" d="M222.83,87.89c-2.89,0-1.36.36-2,.57-3.44.11-1.59-.27-2.76-.46-2.15.1-3.79.44-5.4.43-.12-.07-.43-.09-.06-.16-2.27.29-6.74,0-9.39.38a1.06,1.06,0,0,1-.34-.09c.43.18.49.37.4.51a10.94,10.94,0,0,1-2.88,0,3.56,3.56,0,0,0,1.23-.17l-1.35.11c-1.22-.35,1.84-.12,1.84-.38-2.64.11-5.71.4-7.73.3-.43-.34,4.73-.11,2-.41l3.13.12c-2.4-.53,1.9,0-.3-.53-4.12-.1-4.61.17-8.71.07-.93.19.3.28-.62.47-5.84.34-4.6-.85-8.89-.4a10.21,10.21,0,0,1-4.6.43l1-.39c-4,0-2.27.56-6.45.3.74-.15,3.13-.13,2.53-.17-2.7-.31-1.91.21-4,.21l-.43-.34c-4.25.06-8.92.3-13.63.36.26-.1,1.07-.2,0-.31-5.93.17-12.66,0-18.38-.24l-2.18.29c-.51,0-.94-.13-.39-.19-2.23-.11-.12.19-1.19.3-1.27,0-1.68-.16-.87-.25a139.67,139.67,0,0,1-15.35.22l.81-.09c-3.23-.12-3.64.6-6.64.33l.58,0c-7-.13-14.75.14-20.09-.3-1,.42-6.93-.19-7.38.4-4-.29-2.86-.4-8.49-.6-1.5,0-2.24.37-4.1.43l0-.3-2.52.32-1.35-.37-1.74.08c.69,0,1.48.14,1.37.23a30.72,30.72,0,0,1-6.71-.38l-6.44.26a11.18,11.18,0,0,1,2.07-.24c-3.44.31-.62-.33-3.78,0,.43.07-.23.19-.3.25a70.28,70.28,0,0,0-7.79-.11l.5-.21c-4.78-.06-10.08.1-15.44.09,1.92.1,1.48.47-.09.51l-.63-.33c-1,.2,1.64.12-.44.37-2,0-1.35-.37-.2-.48l-2.44.12c-.14-.1.43-.15.58-.28-1,.21-4.21-.32-5.65,0l-.14-.1c-2.68,0-4.63,0-6.45.06-.48,0-.87,0-1.27,0a8,8,0,0,1-1.19-.12c-.41,0-.81-.19-1.24-.28s-.85-.27-1.29-.49c-.18.23-1.55-.49-2.6-1.1a11.54,11.54,0,0,1-3.78-8.61c-.14-2.72-.24-.8-.41-2,.26-.2.23-4.06.42-2.06,0-4.64-.05-5.93-.26-11.8-.11.63-.15,1.35-.24,1,0-1.07.11-2.43.23-2.27l0,.28c-.39-6.6.75-15.22.21-20.47l0,.3-.28-5.45c0-2.5.19,1.51.35-.35-.43-5.87.06-9.28-.22-14.11A23.57,23.57,0,0,0,3,16.73c.06-1.47-.06-3.29.11-4.74A10.31,10.31,0,0,1,4.67,7.7,8.28,8.28,0,0,1,7.5,5H7.18a2.7,2.7,0,0,1,1-.7c.29-.13.58-.17,1-.34C9,3.85,8,4.37,8.58,4a9.83,9.83,0,0,1,3.55-1.2,6,6,0,0,1,.95-.09c.31,0,.63,0,1,0H16.2l8.57.11L42,3.1c4.15,0,2.35-.92,7.58-.49l-1.48.33c8.37-.4,17.11,0,25.31-.32a5.1,5.1,0,0,1-1.3.17,27.87,27.87,0,0,0,6.43-.18c1.27,0,.29.17,1.08.27,1.73.14,4.36-.3,5.28-.06.16,0-.49.07-.81.09,1.13-.11,5.27,0,4.19-.25,3.08.14,5.88-.12,8.34,0,1.6-.31,5.26.14,5.77-.29-.22.45,5.39.36,7.34.15-.65.14,1.69.14.93.33,2.22,0,4.25-.09,3.86-.32,4.09.54,8.22-.44,10.52.26,6.59-.25,12.7-.41,18.63-.52-.22.45-6.56.05-6.31.52,5.63-.19,8.88-.57,14.45-.46,1.45.06-.82.19-1.3.27,5.62-.19,10.86,0,15.86-.21a4.74,4.74,0,0,1-1.06.13c1,0,2.29.06,2.18-.14l-1,0c-1.57-.29,3.92-.62,4.09-.78-1.67.59,4.94.15,2.28.89.65,0,1.47-.13,1.32-.27,1,0,1.27.12.29.28,3.53-.11,2.28-.33,5.47-.33,0,.1-.65.14-1,.26a34.6,34.6,0,0,1,5.95-.31c-.17.06.15.14-.66.14,4.64,0,7.91-.52,13-.33-1.51.43,1.73.14,2,.52L202,2.44l-1.1-.19c2.4,0,4.52-.26,6.58-.14l-1.78.15,4.49-.07-2.54-.14c2.42-.19-.26-.47,2.93-.37-.65,0,2.4,0,3.65.23h0a25.06,25.06,0,0,1,4.18-.15c.46.12-.37.41-.07.49,1.17-.31,5.62-.09,7.1-.42-.49.08-.52.28-.35.32l1-.26c1.11.08,1.27.12,1.09.28,3.34.05-1.06-.47,2.91-.27-.31,0-.17.06-.81.1,4,.1,7.69-.16,11.35,0,1.08.38-3.19.09-2,.41,5.28-.07,10.93-.45,16-.36l-1,0c.71-.53,3.8.26,6.39,0-.64,0-.83.29-.66.23,3.5.09,7.15-.13,12.45-.29l-.66.13c2.07.12,5.43.07,7.66.13.66-.13,1.94-.11,1.16-.31a43.48,43.48,0,0,0,5,.27,14,14,0,0,1,4.55.65,9.79,9.79,0,0,1,6.28,5.93c-.28-.64-.91-1.37-.62-.91A11.15,11.15,0,0,1,297,12.39c.16-.41.09-.66,0-1.73a8.1,8.1,0,0,1,.6,3.31c-.22-2.31-.35,0-.5,1,.07-.17.15.17.22.09-.41,2.71.47.45.19,4.15l-.12-.19c.06,1.38.22,2.66.19,4.15-.27.62-.13-1.47-.35-1.57,0,2.1.51,4.14.24,6-.07-.89-.07-2.17-.15-3.06a22.23,22.23,0,0,0-.28,3.84V28.3l-.15,3.55L297,31c.7,2.62.13,5.34.58,8.88-.43-3.44-.25-.57-.55-.83-.08.9-.18,2.28-.26,1.89.24,1.67-.2,2.79.16,5.14-.1.11,0,1.79-.25,1.42.07,2.17.17-.52.29-.34.33,3.35-.41,7.88.05,12.7.19,4.15.52,4.92.68,8.78-.15,1.3-.35-1.07-.35-1.07a41.14,41.14,0,0,0,0,5.66c-.08-.4-.16,0-.27.61,0,1.59.36,1.07.22,3.16a8.68,8.68,0,0,1-.4-1.59,17.39,17.39,0,0,1-.14,5.49c-.3.42.08-1.14,0-1.8a11.23,11.23,0,0,1-.89,3.38c-.43,1.07-1,1.91-1.07,2.25a12.32,12.32,0,0,0,.85-1.06c-.39.67-.4.2-.15-.3A7.29,7.29,0,0,1,296.74,81c-.14.43-.25.87-.42,1.28a5.52,5.52,0,0,0,1.11-3.4c.05-1.53-.19-3.27-.15-4.66l.42,1.16-.35-2.85c.11-.6.34-1,.4.35.21-2-.15-1.76.08-3.47,0-.19.06-.1.08.07l-.13-1.94c.09.38.3-.33.24.87.24-3.49-.32-5.63,0-7l0,.3c-.14-4.85-.3-.47-.66-4.11l.75-2.44-.3-.48c0-.5,0-1.48.15-1.3-.2-1.86-.13.32-.33-.76.28-2.41-.13-6.64.36-7.18-.23-.86-.18,2.3-.34-.27.52-.73-.09-3,.15-5.16.27.67.13,2.75.37.56-.46-1.33.1-4.28,0-6.14-.36-.08-.15-4-.27-7.14.12.2.2-5.85.33-8.74l.06.08c-.38-.56-.27-3.53-.4-5.73.22.07.35.5.43,1.67v-1l-.05-1.08-.26-.93c-.08-.4-.22-.89-.42-1.56l.4.46a13.79,13.79,0,0,0-5.47-7.51c-.15,0,.34.61.44.91.05.14,0,.21-.22.13a3.8,3.8,0,0,1-.52-.27c-.24-.12-.56-.28-.95-.5-.05-.19-.06-.47.81,0l-.69-.35a7.83,7.83,0,0,1-.92-.45,13,13,0,0,1,1.45.49,2.42,2.42,0,0,0-1.09-.52,3.06,3.06,0,0,1-.93-.26c.1-.18-.86-.47-.63-.55.32.11,1.07.44,1.54.61A26.15,26.15,0,0,0,287.15.79c.11.15,0,.23-1.13.22-2.75,0-.94-.25-2.53-.36-.66.13-2.4,0-2.44.29A3.06,3.06,0,0,1,279.8.72c-1.41.13-6.58,0-5,.35l.36,0h-.23c-4.61.3-9.58-.16-14.16,0V1c-2.73.12-6.08.07-8,.28-.81,0-1.91-.18-1.56-.3a38.15,38.15,0,0,1-5.34,0c2.1-.18-.72-.16,2.15-.13a36.2,36.2,0,0,0-6.24,0c1-.26-2-.32-3.33-.25l1.9.18c-1.45,0-2.72,0-4,0l.7-.34c-5.55-.4-10,.69-14.24,0-1.47.23,3,.16,1.7.43-2.55,0-5.22-.52-6-.52-3.49-.19-3.26.48-6.92.36.47.12.91.43-1.83.55-2.55-.05-3.14-.5-1.52-.6.61,0,.9,0,.88.07.82,0,1.91-.09.9-.22l-.34.12c-1.26-.12-4.78-.11-3.95-.31-1.94.12-.83.2.6.26-3.28-.17-5.12,0-8.5-.12.54.06,1,.2.5.2-4.95-.14-2.18.23-5.53.28-1.91-.18.68-.43-2.7-.28-2.06-.12-.43-.32.39-.41A61,61,0,0,1,182.94.1l1.62-.1c-1,.06-1.76.06-2.57.05l.93.24a6.16,6.16,0,0,1-1.74-.14c-1,.16.75.4-1.2.61-1.26-.12-3.86.13-4.3-.19,4,.11-.44-.31,2.94-.36-.65,0-1.45,0-2.4,0-.14,0,.13-.07.4-.08-3.82-.28-1.76.35-5.71.35.5-.18-.92-.34-1.57-.3,1.6,0,.77.29-.7.43a33.8,33.8,0,0,0-4.08.09l1.51.06a20.24,20.24,0,0,1-3.55.21c-.15-.14,1.61-.09,1-.16-2,.32-4.44-.32-7.17-.11-1.27-.12-.13-.33-1.24-.41C152,.51,151.77,0,148.54.22c.93.24,1.1.18-1.18.42l5.31-.17-3.41.35c1.6,0,3.38-.15,4.34-.11-1.62.19-1.46.13-.69.33-2.19-.36-4.34.21-6.87,0l.08-.59c-3.81-.27-6.76.3-11.7.15l1.58.1c-.66.24-3.05,0-4.64.13.14-.2-.86-.27-1.54-.39.08.15-3.61,0-4.06.38L123.55.53c-4-.11-4.55.56-8.38.49,1.15-.21-.59-.35,2-.5a8.64,8.64,0,0,0-2.46.1c-.74-.13-3.55.26-4.72.07a6.44,6.44,0,0,1-2.16.28c-.15,0,0-.1,0-.1s-2.25.14-1,.35c-4-.61-11,.05-14.46-.48-2.79.07-6.16.13-8.7.14.17-.05,0-.09.49-.07C80.66.62,82,1.37,78,1.17c-2-.32,2.11-.17.85-.29-.56-.65-4.81.08-7.49-.3l.65,0C70,.33,67,.79,63.7.75c0,0,.16-.06,0-.1-2.29.33-6.62.44-9.84.53,1-.25,1.46-.13.85-.39-1.44,0,.42.41-2.46.49A15.6,15.6,0,0,1,49,.74l2.72,0c-1.39-.35-3.52,0-5,0l.18-.15c-4.16,0-4.22.44-8.69.41l.46.12c-2.44.39-2.05-.22-4.49.07L33.47.73c-1.61.09-5.65.38-8.54.45,1.64-.29,5-.44,7.12-.61a57.39,57.39,0,0,0-6.27.22A14.65,14.65,0,0,1,27.87.72a50.49,50.49,0,0,1-7.73.45c.28-.38-1.79-.43-4.23-.45-1.22,0-2.51-.06-3.77,0C11.53.82,11,.86,10.47,1l-1.24.2A14.23,14.23,0,0,0,2.3,7,12.56,12.56,0,0,0,.63,11.59a7.71,7.71,0,0,0-.14,1.26l0,.65v3c.6-2.33,0,1.92.63,1.52a15.41,15.41,0,0,1,0,2.25L.69,24.91C.52,26,.56,23.45.42,23.59.37,26.94.16,25,0,27.21c.22-.45.31,1.17.23,3.08L.51,27.6c.33,4.68-.51,4-.19,8.76L.13,34.87c.11,2.42,0,8.93.49,11.31-.07.43-.24,1-.29-.07C.26,51.89.86,59,.55,63.48L.4,63.05a15.77,15.77,0,0,1,.13,3.23c-.06-.07-.14-.44-.15.06a34.75,34.75,0,0,1,.17,4.3L.38,69.42a66.69,66.69,0,0,0,.15,7c0,.52.06,1,.13,1.56l.1.82.18.81c.1.55.32,1.08.48,1.64A15.85,15.85,0,0,0,2.15,83c-.2.08.14,1.26,1,2.52a12.44,12.44,0,0,0,3.22,3.25h-.1A12.42,12.42,0,0,0,11,90.63l1.19.16,1.17,0c.74,0,1.4,0,2.09-.07,2.73-.12,5.4-.27,8.44-.35,3.78.48,12.8.2,18.87.47-.92-.08.15-.35,1.23-.39,1.43.09,3.94-.31,3.72.1h-.51c1.07.4,4,.29,6.29.3l.38-.53c6,.77,15.67-.28,18.93.41,1.44-.13,3.23-.13,4.66-.26l-.07.28c4,.07,6,.11,10.94,0l-1,.2c2.79,0,3.52-.81,6.09-.83l.77.42c4.87,0,9.79.37,14.6,0-.08.06-.22.19-1,.2,2.29,0,8.86.29,8-.29.06.38,5,0,7.65-.13l-.41.28a27.8,27.8,0,0,1,5.39-.55c.73,0,.64.22-.34.15,2.45.15,1.91-.26,4.87-.12l-1.1.18a14,14,0,0,0,3.7-.28,19.83,19.83,0,0,1,5.14.32,9.83,9.83,0,0,1,3.2-.28c.2.09-.34.15-.61.18,4.21.19,6.26-.32,9.15,0a.71.71,0,0,0,.49.16c-3.34,0-6,0-5.78,0,0,.26,2.7.3.55.66a69.81,69.81,0,0,1,8.5-.49l.35.08-.27,0a11.15,11.15,0,0,0,1.66,0c.84,0,1.37.08,2.18.08a28.05,28.05,0,0,0,4.44.12c-.11-.28,1.65-.23,0-.46.22,0-.25,0-1.15,0-.2,0-.44,0-.57,0l.09,0h-3.34a14.29,14.29,0,0,1,3.66-.1c.69-.18,1.45-.37,1.88-.46,1.84.4,5.39.61,5.88.85,4.11-.16,9.69-.1,12.27-.63a4.1,4.1,0,0,1,1.78.23c-.67.06-1.48,0-1.84.12,2.33-.13,6.92,0,7.48-.42,2.94.17-1.66.34,2.39.28l-.55.11c8,.59,13-.94,21.77-.18a4.57,4.57,0,0,1-1-.13c10.06.33,20.73-.31,30.66.22a22,22,0,0,0,4.85-.31l.61.3,3-.35c4.17-.25,7.23.74,12.52.26l-.68-.2c1.89,0,6-.12,5.69.11a3.2,3.2,0,0,1,1.37-.11l.06.16,4.66-.27c3.61.12-.57.63,4.71.66,2-.06,5.59-.46,4.85-.57a5.62,5.62,0,0,1-2.08-.25l1.79-.09c.33-.46,1.71-.94-2.7-1.26l-3.07.28-1-.22,2.58,0a11.14,11.14,0,0,0-3.44.11,3.67,3.67,0,0,0-1.28-.25l-3,.44c-.37-.18,1.35-.36-.68-.46-1.41.21,1.36.41-1,.54a6.33,6.33,0,0,0-2.76-.2c-.24-.12.12-.2.81-.25-1.54.15-4.06.06-4.85.31-1.53-.26-5.18.07-5-.37a34.32,34.32,0,0,1-4.11.36c2.57-.53-5.27,0-4.59-.59-1.91.47-6.88.21-10.26.47a3.07,3.07,0,0,1,.86-.09c-1.9,0-2.45-.18-3.67-.27-.25.39-3.2.48-4.8.72-2.32-.38,1.42-.46.69-.82.11.31-4.05.31-3.26.58a8.1,8.1,0,0,1-2.45-.44c-.31.49-1.65.08-3.13.38-2.58-.24-.66-.45-3.49-.31C220.31,88.06,222.83,87.89,222.83,87.89Zm-67.3.85h1.39Zm-5.66,0h2.45c.2.1,0,.2-.58.2C152.05,88.88,150.71,88.82,149.87,88.74Zm12,2a3.58,3.58,0,0,1-1.31-.07l1.56,0,.11,0A1.28,1.28,0,0,1,161.83,90.69Z"/><path class="cls-1" d="M163.44,90.32l.37,0-.53-.06-.32.09Z"/><path class="cls-1" d="M274.81,1.07h-.12a1.31,1.31,0,0,1,.25,0Z"/><polygon class="cls-1" points="71.78 88.2 71.78 88.28 72.28 88.21 71.78 88.2"/><path class="cls-1" d="M297.07,15a1.72,1.72,0,0,0-.07.41A2.31,2.31,0,0,0,297.07,15Z"/><path class="cls-1" d="M297,28.45l-.1,1.9C297,29.53,297,28.93,297,28.45Z"/><path class="cls-1" d="M296.87,38.8a.49.49,0,0,0,.12.2v0Z"/><path class="cls-1" d="M165.27,2.57h-.4C163.94,2.63,164.57,2.61,165.27,2.57Z"/><path class="cls-1" d="M214.22,1.91c-.52.05-1,.1-1.57.13C213.52,2.06,214.2,2.07,214.22,1.91Z"/><path class="cls-1" d="M110.61,2.9h0Z"/><path class="cls-1" d="M210.37,2a19.2,19.2,0,0,0,2.28,0C211.93,2,211.09,2,210.37,2Z"/><path class="cls-1" d="M295.3,82.93l-.25.39s0,0,0,.07Z"/><path class="cls-1" d="M295.06,83.39a4,4,0,0,1-.26.45A1.38,1.38,0,0,0,295.06,83.39Z"/><path class="cls-1" d="M294.2,84.75c.22-.29.4-.61.6-.91A6.39,6.39,0,0,0,294.2,84.75Z"/><path class="cls-1" d="M296.87,69.94l-.1-.16C296.79,69.87,296.82,69.92,296.87,69.94Z"/><path class="cls-1" d="M296.84,65.78c0,1-.22,2.49-.15,3.88l.08.12C296.62,69.13,297,66.72,296.84,65.78Z"/><path class="cls-1" d="M298.1,48.41,298,51.9c.11-.61.25-1.42.28.17C298.62,47.67,298.06,53,298.1,48.41Z"/><path class="cls-1" d="M298.26,37.59c.05,1.88.16,0,.22.08C298.38,36.48,298.35,36.2,298.26,37.59Z"/><path class="cls-1" d="M250.41.84l.19-.25C249.16.63,250.59.69,250.41.84Z"/><polygon class="cls-1" points="235.47 2.17 236.88 2.33 237.55 2.09 235.47 2.17"/><polygon class="cls-1" points="226.65 0.34 227.28 0.31 224.87 0.4 226.65 0.34"/><path class="cls-1" d="M95.41.44l.43.31C96.82.69,97,.34,95.41.44Z"/><path class="cls-1" d="M38.75.76a10.58,10.58,0,0,0-3.2-.11C36.83.67,38.1.8,38.75.76Z"/><polygon class="cls-1" points="56.75 90.73 55.61 90.84 57.76 90.75 56.75 90.73"/><text class="cls-2" transform="translate(14.73 65.12)">Continue</text></g></g></svg>