<svg xmlns="http://www.w3.org/2000/svg" viewBox="0 0 695.28 621.49"><defs><style>.cls-1{fill:none;stroke-width:2px;}.cls-1,.cls-2,.cls-4,.cls-6{stroke:#000;stroke-miterlimit:10;}.cls-10,.cls-2{fill:#666;}.cls-2{stroke-width:5px;}.cls-3,.cls-6{fill:#ccc;}.cls-4{fill:#e6e6e6;stroke-width:6px;}.cls-5{fill:#fff;}.cls-6{stroke-width:3px;}.cls-7{font-size:57px;}.cls-11,.cls-7{font-family:AmericanTypewriter-Light, American Typewriter;font-weight:300;}.cls-8{letter-spacing:-0.03em;}.cls-9{letter-spacing:0.01em;}.cls-10{stroke:#999;stroke-linecap:round;stroke-linejoin:round;}.cls-11{font-size:19px;}.cls-12{letter-spacing:-0.03em;}</style></defs><title>GenericQuiz1</title><g id="Layer_2" data-name="Layer 2"><g id="Layer_1-2" data-name="Layer 1"><path class="cls-1" d="M631.17,605c-14.36-8.09-69.14,15.67-93.75-11.34s-97.49-51.57-97.49-51.57"/><path class="cls-2" d="M215.61,552.1c17.27-5.35,62.33-23.71,62.39-69.61H448.82c1.62,51.7,40.33,66.26,56.74,70.11a9.39,9.39,0,0,1,7.25,9.14v45.77a9.39,9.39,0,0,1-9.32,9.39l-285,2.09A9.4,9.4,0,0,1,209,609.6V561.07A9.39,9.39,0,0,1,215.61,552.1Z"/><path class="cls-3" d="M231.65,558c15.42-4.77,55.64-27.15,55.68-68.11H439.78c1.44,46.13,36,65.12,50.64,68.56a8.38,8.38,0,0,1,6.47,8.16V597.4a8.38,8.38,0,0,1-8.32,8.38l-254.39,1.86a8.37,8.37,0,0,1-8.44-8.37V566A8.39,8.39,0,0,1,231.65,558Z"/><rect class="cls-4" x="3" y="3" width="689.28" height="479.49" rx="12"/><rect class="cls-5" x="36.51" y="25.91" width="622.25" height="432.87" rx="12"/><path class="cls-6" d="M596.86,612.32c-.71-22.66,68.61-21.39,68.62-1.59,0,9.89-13.4,8.29-32.55,8.29S597.18,622.54,596.86,612.32Z"/><text class="cls-7" transform="translate(112.6 125.25)">lib.<tspan class="cls-8" x="78.77" y="0">b</tspan><tspan x="109.38" y="0">yu.edu/boo</tspan><tspan class="cls-9" x="407.03" y="0">k</tspan><tspan x="442.02" y="0">s</tspan></text><polygon class="cls-10" points="567.89 218.72 585.77 229.05 585.77 208.4 567.89 218.72"/><polygon class="cls-10" points="567.89 290.26 585.77 300.58 585.77 279.93 567.89 290.26"/><polygon class="cls-10" points="567.89 361.66 585.77 371.99 585.77 351.34 567.89 361.66"/><text class="cls-11" transform="translate(603.61 182.71) rotate(90)">Cli<tspan class="cls-12" x="23.5" y="0">c</tspan><tspan x="32.7" y="0">k one of these topics</tspan></text></g></g></svg>