<svg xmlns="http://www.w3.org/2000/svg" viewBox="0 0 945 621.97"><defs><style>.cls-1{fill:none;}.cls-1,.cls-2,.cls-3{stroke:#fff;stroke-width:3px;}.cls-1,.cls-2{stroke-linecap:round;stroke-linejoin:round;}.cls-2{fill:#666;}.cls-3{fill:#606060;stroke-miterlimit:10;}.cls-4{fill:#fff;}</style></defs><title>Monograph2</title><g id="Layer_2" data-name="Layer 2"><g id="Layer_1-2" data-name="Layer 1"><path class="cls-1" d="M458,22.62v555l25.15-20.82a10.59,10.59,0,0,0,3.85-8.18V3.27a1.76,1.76,0,0,0-2.86-1.38Z"/><path class="cls-2" d="M458,22.62H8.46a7,7,0,0,0-7,7V570.66a7,7,0,0,0,7,7H458Z"/><path class="cls-2" d="M487,2.55H936.54a7,7,0,0,1,7,7V550.59a7,7,0,0,1-7,7H487Z"/><path class="cls-3" d="M458,41.78V579.86c76.11,51.16,272.89,48,453.43,23.31l-4.72-527C697.44,91.22,491.29,110.34,458,41.78Z"/><path class="cls-1" d="M831.75,326c-111,14-210.82,10.19-295.41,0-6.6,0-12-6-12-13.46V156.41c0-7.4,5.4-13.46,12-13.46,81.75,16.21,181.92,14.55,295.41,0,6.6,0,12,6.06,12,13.46V312.5C843.75,319.91,838.35,326,831.75,326Z"/><path class="cls-1" d="M780.71,434.65c-73.47,6.4-139,6.8-193.33,0a12,12,0,0,1-12-12V390.56a12,12,0,0,1,12-12,1415.42,1415.42,0,0,0,193.33,0,12,12,0,0,1,12,12v32.09A12,12,0,0,1,780.71,434.65Z"/><path class="cls-1" d="M766.78,577.6c-83.65,7-105.39,7.47-167.29,0a13.47,13.47,0,0,1-13.67-13.17V529.2A13.47,13.47,0,0,1,599.49,516c71,4.76,91.41,4.92,167.29,0a13.47,13.47,0,0,1,13.67,13.17v35.23A13.47,13.47,0,0,1,766.78,577.6Z"/><path class="cls-4" d="M594.61,175.18l.22.51v-2.82c0-.71.18-1.05.52-1s.37.23.37.63c0,.2,0,.66-.05,1.4-.09,1.87-.14,3.25-.14,4.17,0,1.2,0,2.06.08,2.56.08.74.11,1.13.11,1.15,0,.45-.16.66-.48.62s-.56-.33-.56-.9c0-.42,0-.8,0-1.14.08-.66.11-1.05.11-1.18a7.86,7.86,0,0,0-2.07-5.58,8.49,8.49,0,0,0-5.52-2.57c-3.12-.32-5.46.58-7,2.72a14.41,14.41,0,0,0-2.52,8.82,14.72,14.72,0,0,0,2.55,9,9.64,9.64,0,0,0,7.06,3.9,7.44,7.44,0,0,0,5.77-1.44,7,7,0,0,0,2.29-5.31c0-1,.26-1.46.63-1.43s.56.3.55.8a8,8,0,0,1-2.62,6.32,8.52,8.52,0,0,1-6.77,1.85,10.53,10.53,0,0,1-7.74-4.32,16.17,16.17,0,0,1-2.83-9.89c0-3.92,1-7,2.91-9.12a8.55,8.55,0,0,1,7.73-2.74,8.92,8.92,0,0,1,5.74,2.57A12.75,12.75,0,0,1,594.61,175.18Z"/><path class="cls-4" d="M608.34,179a8.9,8.9,0,0,1,6.31,3.16,10.58,10.58,0,0,1,2.43,7.13,9,9,0,0,1-2.43,6.63,7.57,7.57,0,0,1-6.31,2.14,8.55,8.55,0,0,1-6.18-3.26,11.09,11.09,0,0,1-2.41-7.24,8.7,8.7,0,0,1,2.41-6.49A7.51,7.51,0,0,1,608.34,179Zm0,18.32a6.57,6.57,0,0,0,5.55-2,8.32,8.32,0,0,0,2.15-6,10.3,10.3,0,0,0-2.13-6.65,7.57,7.57,0,0,0-5.53-2.92,6.42,6.42,0,0,0-5.5,1.92,8.46,8.46,0,0,0-2.09,6,10.5,10.5,0,0,0,2.07,6.68A7.46,7.46,0,0,0,608.34,197.3Z"/><path class="cls-4" d="M625.16,182.08v2a6.31,6.31,0,0,1,3.29-3,8.85,8.85,0,0,1,3.53-.5,8,8,0,0,1,4.37,1.39,5.46,5.46,0,0,1,2.15,3.39,24.86,24.86,0,0,1,.3,4.56v2.74a26,26,0,0,0,.29,5.23c.2.6.77.93,1.71,1l.8,0,.8,0h.18c.54,0,.82.17.82.45s-.24.43-.71.41h-.11l-1.3-.17-1.55-.18-1-.05-.71,0-1.07-.05-1.52,0-1.3.05h-.15c-.44,0-.67-.18-.67-.45s.28-.42.82-.4h.15l.79,0,.8,0c1,.05,1.54-.22,1.73-.79a26.05,26.05,0,0,0,.27-5.22v-2.77c0-3.14-.34-5.2-1-6.2-1-1.43-2.65-2.2-5-2.33q-4.26-.24-6,3a9.89,9.89,0,0,0-.7,4.36v3.22a25.31,25.31,0,0,0,.29,5.24q.3.9,1.71,1l.78,0,.77,0h.19c.54,0,.81.19.82.46s-.22.43-.67.4h-.15l-1.3-.18-1.52-.21-1.11-.07-.67,0-1-.07h-1.56l-1.3,0h-.11c-.47,0-.71-.19-.7-.46s.27-.42.81-.39l.19,0,.78.05.77.05c1,.07,1.55-.19,1.75-.77a25.37,25.37,0,0,0,.29-5.2v-8.14c-.05-1.29-.23-2-.55-2.26a2,2,0,0,0-1-.24c-.14,0-.55,0-1.22,0h-1.11c-.49,0-.74-.21-.74-.53s.22-.47.66-.44c.18,0,.56.06,1.15.15.29.05.59.08.86.1l.7,0a5.73,5.73,0,0,0,.7,0,5.9,5.9,0,0,1,.71,0,.74.74,0,0,1,.65.3A3.89,3.89,0,0,1,625.16,182.08Z"/><path class="cls-4" d="M645.1,182.46l-.67.08-.63,0c-.62,0-.92-.2-.92-.52s.23-.47.7-.45l1.08.05a20.12,20.12,0,0,0,2.7.29c.47,0,.91,0,1.3,0l1.75-.05h1.22c.47,0,.71.17.71.46s-.25.51-.75.5h-.11a14.14,14.14,0,0,1-1.44-.11c-.43,0-.71-.08-.86-.08-.94,0-1.41.22-1.41.76a6.92,6.92,0,0,0,.56,1.8q2.73,6.76,5.45,13.51c.12.2.2.3.23.3s.26-.26.48-.8q2.84-6.85,5.67-13.74a1.73,1.73,0,0,0,.15-.63c0-.57-.49-.86-1.48-.89-.25,0-.63,0-1.15,0s-.9,0-1.15,0c-.45,0-.67-.17-.67-.47s.26-.51.78-.49,1.17.06,2.1.15,1.62.13,2.09.15c.77,0,1.65,0,2.64,0a4.93,4.93,0,0,1,1-.05c.42,0,.63.14.63.4s-.33.45-1,.44h-.74a1.93,1.93,0,0,0-1.43.43,6.8,6.8,0,0,0-1.13,2.1l-5.86,14c-.25.61-.54.91-.86.9s-.68-.4-1-1.18q-3-7.29-5.93-14.6a9.17,9.17,0,0,0-1-1.9A1.29,1.29,0,0,0,645.1,182.46Z"/><path class="cls-4" d="M681.28,190.16c0,.52-.12.82-.35.92a3,3,0,0,1-1.1.15q-6.57,0-13.13-.16c-.35,0-.57,0-.65.13a1.29,1.29,0,0,0-.13.74,8.78,8.78,0,0,0,2,6,6.83,6.83,0,0,0,5.29,2.36,6.64,6.64,0,0,0,5.53-2.43,6.08,6.08,0,0,0,1.11-2.1,7.7,7.7,0,0,1,.19-.93c.09-.41.28-.63.55-.62s.45.17.45.52a5.12,5.12,0,0,1-.41,1.66,7,7,0,0,1-2.84,3.44,8.17,8.17,0,0,1-4.55,1.2,7.87,7.87,0,0,1-6.08-2.65,9.81,9.81,0,0,1-2.3-6.78,10.06,10.06,0,0,1,2.39-7,7.76,7.76,0,0,1,6.18-2.62,7.54,7.54,0,0,1,5.57,2.39A8,8,0,0,1,681.28,190.16Zm-15.22-.51c0,.37.28.56.82.57q6.39.12,12.77.15c.42,0,.63-.19.63-.59a7.45,7.45,0,0,0-1.63-4.52,6.37,6.37,0,0,0-5.27-2.53,6.92,6.92,0,0,0-4.4,1.37,7.59,7.59,0,0,0-2.62,4A5.93,5.93,0,0,0,666.06,189.65Z"/><path class="cls-4" d="M689.63,183.94v2a7.05,7.05,0,0,1,3.3-3.2,9.42,9.42,0,0,1,3.53-.74,7.59,7.59,0,0,1,4.38,1.1,5,5,0,0,1,2.15,3.24,25.38,25.38,0,0,1,.3,4.54v2.74a24.48,24.48,0,0,0,.3,5.21c.19.59.76.87,1.7.85l.8,0h1c.55,0,.82.12.82.39s-.24.45-.7.46h-.12l-1.29-.08-1.56-.08-1,0h-.71l-1.07,0-1.53.13-1.29.14h-.15c-.45,0-.67-.13-.67-.4s.27-.45.82-.46h1.74c1,0,1.54-.32,1.73-.9a27.33,27.33,0,0,0,.27-5.24v-2.78q0-4.69-1-6.12c-1-1.37-2.66-2-5-2-2.85,0-4.83,1.17-6,3.42a10.24,10.24,0,0,0-.71,4.41v3.22a24.55,24.55,0,0,0,.3,5.21c.2.59.77.89,1.71.88h1.74c.55,0,.82.13.82.4s-.23.44-.67.45h-.15l-1.3-.1-1.52-.1h-2.82l-1.56.11-1.3.12h-.11c-.47,0-.7-.14-.7-.41s.27-.44.81-.44h1.75c1,0,1.54-.3,1.74-.89a24.6,24.6,0,0,0,.3-5.22v-8.14c0-1.28-.24-2-.56-2.22a2,2,0,0,0-1-.18l-1.22.08-1.11.07c-.5,0-.74-.16-.74-.48s.22-.48.66-.48c.17,0,.56,0,1.15.07.3,0,.59,0,.86,0h.7a6.6,6.6,0,0,0,.71-.06,6.28,6.28,0,0,1,.7-.06c.35,0,.56.09.65.26A3.51,3.51,0,0,1,689.63,183.94Z"/><path class="cls-4" d="M713,183.34c0,.15,0,.56,0,1.22v7.77a21.27,21.27,0,0,0,.45,5.24,2.81,2.81,0,0,0,3,2.28,3,3,0,0,0,2.67-1.37,9,9,0,0,0,.78-4.38v-1.48c0-.52.17-.78.5-.8s.5.24.5.76v.93a17.59,17.59,0,0,1-.37,4.08q-.7,2.88-4.08,3c-3,.1-4.45-2-4.45-6.22v-9.77a3.62,3.62,0,0,0-.17-1.45c-.11-.19-.41-.27-.91-.26-.15,0-.52,0-1.11.11l-.85.09c-.47,0-.71-.15-.71-.5s.22-.45.67-.46l.89,0c.4,0,.69,0,.89,0,.76,0,1.24-.27,1.41-.75a4.7,4.7,0,0,0,.15-1.44v-.19a12,12,0,0,1,.09-1.94.45.45,0,0,1,.43-.41c.27,0,.4.19.41.58v.08l-.12,1.78a8.24,8.24,0,0,0-.11,1.41c0,.54.37.8,1.09.78l1.24,0c.28,0,.7,0,1.26-.1s1-.09,1.26-.1c.5,0,.75.14.75.46s-.26.49-.81.51h-1.23c-.19,0-.6,0-1.22,0h-1.22C713.42,182.81,713.06,183,713,183.34Z"/><path class="cls-4" d="M739.45,198.06c2.81-.17,5.61-.34,8.42-.53a5.93,5.93,0,0,0,3.2-.79q.69-.62.69-2.7c0-.17,0-.34-.08-.51v-2.07l-.11-1.36V190c0-.79.18-1.19.56-1.22s.52.29.51,1v.15l-.11,1.45c-.07,1-.11,2-.11,3.08,0,.76,0,1.45.08,2.06q0,.45,0,.78c0,.52-.1.83-.31.95a2.61,2.61,0,0,1-1,.21l-.52,0c-.4,0-1.18,0-2.34,0l-4.44.1-4,.24-4.19.23-.85.08c-.3,0-.66,0-1.07.1l-.93.12h-.15c-.69,0-1-.12-1-.47s.31-.57.93-.6a.47.47,0,0,1,.22,0l1,0a9.57,9.57,0,0,0,1.23,0,1.4,1.4,0,0,0,1.4-.89,6.37,6.37,0,0,0,.15-1.79V177.68a3.59,3.59,0,0,0-.42-2,1.54,1.54,0,0,0-1.39-.46c-.17,0-.56.05-1.15.13q-.45.06-.93.09c-.55,0-.82-.12-.82-.44s.27-.5.78-.52h.15l.82,0q.48,0,1.5,0a13.76,13.76,0,0,0,1.5,0l1,0,2-.27,1-.13.85-.13h.11c.5,0,.74.1.74.4s-.26.53-.78.56c-.33,0-.63,0-.9,0-.58,0-1,0-1.19,0a1.68,1.68,0,0,0-1.54.8,3.86,3.86,0,0,0-.3,1.83v18.9c0,.84.2,1.34.6,1.49A4,4,0,0,0,739.45,198.06Z"/><path class="cls-4" d="M760.35,190.77a25.17,25.17,0,0,0,.29,5.19q.3.87,1.71.75l.78-.06.77-.07h.19c.54,0,.81.07.81.34s-.22.46-.66.5h-3l-1.07.09-.7,0-1,.08-1.56.23-1.29.21h-.11c-.47,0-.7-.08-.71-.35s.27-.47.82-.51h.18l.8-.06.8-.06c.93-.07,1.5-.42,1.7-1a25.83,25.83,0,0,0,.3-5.24v-8.14c-.06-1.28-.24-2-.56-2.18a1.85,1.85,0,0,0-1-.11c-.15,0-.56.07-1.22.17l-1,.15h-.11c-.49,0-.74-.11-.74-.43s.21-.5.63-.53h.11l1.12,0,1.77-.14a5.44,5.44,0,0,0,.67-.1,4.28,4.28,0,0,1,.67-.11c.39,0,.59.23.59.8ZM759.5,174a1.16,1.16,0,0,1,.94.33,1.24,1.24,0,0,1,.39.93,1.38,1.38,0,0,1-.39,1,1.32,1.32,0,0,1-.91.46,1.24,1.24,0,0,1-1-.31,1.18,1.18,0,0,1-.39-.91,1.42,1.42,0,0,1,.39-1A1.37,1.37,0,0,1,759.5,174Z"/><path class="cls-4" d="M775.37,196.4l-1.29,0-1.52,0-1.07.1-.7.06-1,.09-1.55.25-1.3.23h-.11c-.47,0-.71-.08-.7-.35s.27-.47.81-.51l.18,0,.8-.07.8-.07c.93-.08,1.5-.43,1.7-1a25.49,25.49,0,0,0,.29-5.26v-9.56c0-.67-.22-1-.66-.94a10.56,10.56,0,0,0-1.19.19,9.84,9.84,0,0,1-1.07.19c-.57.05-.85-.1-.85-.44s.21-.46.63-.5h.11l1.07,0a4.23,4.23,0,0,0,1.11,0h.08c.37,0,.59-.12.68-.25a2.29,2.29,0,0,0,.13-1q.07-6.28,5.77-6.82a4.73,4.73,0,0,1,2.94.52,2.13,2.13,0,0,1,1.17,1.92,1.58,1.58,0,0,1-1.52,1.81c-.82.08-1.22-.28-1.22-1.1s.33-1.14,1-1.2c.2,0,.3-.1.29-.22s-.23-.51-.7-.71a4.17,4.17,0,0,0-2.11-.27c-3.12.3-4.7,2.39-4.69,6.29a1.2,1.2,0,0,0,.14.73c.1.09.35.11.74.08l.19,0a1.06,1.06,0,0,1,.22-.06l3.4-.43c.62-.06.93.05.93.35s-.34.55-1,.61l-1.48.07-1.74.17a.5.5,0,0,1-.22-.09l-.26,0a1.14,1.14,0,0,0-.76.26,1.49,1.49,0,0,0-.16.86v9.55a24.55,24.55,0,0,0,.29,5.19c.2.57.76.82,1.7.73l.78-.08.78-.07.18,0c.55-.05.81.06.82.33s-.23.47-.67.51Z"/><path class="cls-4" d="M794.11,183.83c0,.52-.12.84-.35,1a3.17,3.17,0,0,1-1.09.27q-6.54.75-13.08,1.41a1.06,1.06,0,0,0-.65.21,1.37,1.37,0,0,0-.13.76,7.91,7.91,0,0,0,2,5.77,6,6,0,0,0,5.26,1.72,7.54,7.54,0,0,0,5.51-3.08,7,7,0,0,0,1.11-2.24c0-.07.06-.39.18-1s.29-.66.56-.69.44.12.44.47a5.27,5.27,0,0,1-.41,1.71,8.34,8.34,0,0,1-2.82,3.78,9.09,9.09,0,0,1-4.53,1.74,7,7,0,0,1-6.06-1.92,8.82,8.82,0,0,1-2.29-6.51,11.22,11.22,0,0,1,2.38-7.28,8.81,8.81,0,0,1,6.16-3.37,6.72,6.72,0,0,1,5.54,1.74A7.15,7.15,0,0,1,794.11,183.83ZM779,185.14c0,.37.27.52.81.47q6.36-.65,12.72-1.37a.6.6,0,0,0,.62-.66,6.59,6.59,0,0,0-1.62-4.33,5.6,5.6,0,0,0-5.25-1.9,7.65,7.65,0,0,0-4.38,1.89,8.74,8.74,0,0,0-2.6,4.28A5.85,5.85,0,0,0,779,185.14Z"/><path class="cls-4" d="M673.69,238.13a24.74,24.74,0,0,0,.3,5.22q.28.89,1.71.9h1.74c.54,0,.82.14.82.41s-.23.44-.67.44h-.15l-1.3-.12-1.52-.13H671.8l-1.56.09-1.3.09h-.11c-.47,0-.71-.14-.71-.42s.28-.43.82-.43h1.78c.94,0,1.51-.27,1.71-.86a24.55,24.55,0,0,0,.3-5.21v-5.81c0-1.8,0-2.58,0-2.33-.05-1.29-.24-2-.56-2.23a1.82,1.82,0,0,0-1-.2l-1.22.06-1,0h-.11c-.5,0-.75-.17-.75-.49s.21-.48.64-.47h.11l1.11.13,1.78,0a4.71,4.71,0,0,0,.67,0,5,5,0,0,1,.67-.05c.39,0,.59.29.59.86Zm-.85-16.89a1.3,1.3,0,0,1,.94.42,1.38,1.38,0,0,1,.39,1,1.24,1.24,0,0,1-.39.94,1.25,1.25,0,0,1-.91.38,1.35,1.35,0,0,1-1-.41,1.28,1.28,0,0,1-.39-.94,1.32,1.32,0,0,1,1.34-1.36Z"/><path class="cls-4" d="M685.16,228.35v2a6.94,6.94,0,0,1,3.3-3.19,9.37,9.37,0,0,1,3.53-.73,7.59,7.59,0,0,1,4.38,1.13,5,5,0,0,1,2.15,3.24,24.66,24.66,0,0,1,.3,4.55v2.74a24.87,24.87,0,0,0,.29,5.21c.2.59.77.88,1.71.86h.8l.8,0h.18c.54,0,.82.12.82.39s-.24.45-.71.46h-.11l-1.3-.09-1.56-.08H698l-1.08,0-1.52.13-1.3.12H694c-.44,0-.67-.13-.66-.4s.27-.45.81-.45h1.75c1,0,1.54-.31,1.72-.89a26.1,26.1,0,0,0,.28-5.24v-2.77c0-3.14-.34-5.18-1-6.13-1-1.37-2.65-2-5-2-2.85,0-4.84,1.15-6,3.4a10.18,10.18,0,0,0-.7,4.4v3.22a24.6,24.6,0,0,0,.3,5.22c.19.59.76.89,1.7.88h1.75c.54,0,.81.13.81.4s-.22.45-.66.45h-.15l-1.3-.11-1.52-.11h-2.82l-1.56.11-1.3.11h-.11c-.48,0-.71-.14-.71-.42s.28-.44.82-.43h1.74c1,0,1.55-.29,1.75-.88a25.7,25.7,0,0,0,.29-5.22v-5.81c0-1.77,0-2.55,0-2.33,0-1.28-.23-2-.55-2.22a1.94,1.94,0,0,0-1-.19l-1.22.07-1.12.07c-.49,0-.74-.16-.74-.48s.23-.48.67-.48c.18,0,.55,0,1.15.08a8.45,8.45,0,0,0,.85,0H683c.15,0,.38,0,.7-.05a6.6,6.6,0,0,1,.71-.06c.35,0,.56.09.65.26A3.51,3.51,0,0,1,685.16,228.35Z"/><path class="cls-4" d="M566.05,260.82c.08.17.15.34.22.51v-2.81c0-.72.18-1,.52-1s.37.24.37.64c0,.2,0,.66,0,1.4-.09,1.86-.13,3.25-.13,4.16,0,1.21,0,2.07.07,2.57.07.74.11,1.13.11,1.16q0,.66-.48.6c-.37,0-.55-.35-.55-.92s0-.8,0-1.14c.07-.66.11-1.05.11-1.17a8,8,0,0,0-2.07-5.65,8.7,8.7,0,0,0-5.5-2.74c-3.11-.41-5.44.42-7,2.52a14.08,14.08,0,0,0-2.51,8.74,15.11,15.11,0,0,0,2.54,9.06,10,10,0,0,0,7,4.11,7.23,7.23,0,0,0,5.75-1.26,6.75,6.75,0,0,0,2.29-5.24q.08-1.47.63-1.41c.37.05.55.32.55.81a7.66,7.66,0,0,1-2.62,6.24,8.32,8.32,0,0,1-6.75,1.66,11,11,0,0,1-7.72-4.57,16.59,16.59,0,0,1-2.81-10q0-5.88,2.89-9a8.34,8.34,0,0,1,7.71-2.5,9.26,9.26,0,0,1,5.73,2.75A12.72,12.72,0,0,1,566.05,260.82Z"/><path class="cls-4" d="M579.75,265a9.2,9.2,0,0,1,6.3,3.34,10.89,10.89,0,0,1,2.42,7.21,8.76,8.76,0,0,1-2.42,6.56,7.36,7.36,0,0,1-6.3,1.94,8.9,8.9,0,0,1-6.17-3.44,11.41,11.41,0,0,1-2.4-7.32,8.47,8.47,0,0,1,2.4-6.41A7.28,7.28,0,0,1,579.75,265Zm0,18.31a6.37,6.37,0,0,0,5.54-1.78,8.13,8.13,0,0,0,2.15-6,10.54,10.54,0,0,0-2.13-6.71,7.87,7.87,0,0,0-5.52-3.1,6.27,6.27,0,0,0-5.49,1.76,8.24,8.24,0,0,0-2.08,6,10.75,10.75,0,0,0,2.06,6.74A7.7,7.7,0,0,0,579.75,283.35Z"/><path class="cls-4" d="M592.13,259.75l1.7.16,1,.1.33,0a.7.7,0,0,1,.66.39,2.11,2.11,0,0,1,.08.78v17.23a26.07,26.07,0,0,0,.29,5.21c.2.62.78,1,1.74,1.07l.78.07.78.07h.18q.78.08.78.48c0,.3-.23.43-.67.39h-.11l-1.29-.23-1.52-.25-1.07-.1-.74-.07L594,285l-1.52,0-1.3,0H591c-.45-.05-.67-.21-.67-.48s.27-.41.81-.36h.15l.8.08.79.08c1,.09,1.55-.15,1.74-.72a23.92,23.92,0,0,0,.3-5.17V265.48a20.56,20.56,0,0,0-.22-4c-.15-.46-.58-.72-1.3-.79-.37,0-.77-.06-1.22-.08l-1.11,0c-.49,0-.74-.22-.74-.52s.21-.42.63-.38h.11Z"/><path class="cls-4" d="M610.71,268a8.86,8.86,0,0,1,6.31,3.14,10.57,10.57,0,0,1,2.43,7.12,9,9,0,0,1-2.43,6.64,7.58,7.58,0,0,1-6.31,2.16,8.52,8.52,0,0,1-6.18-3.25,11,11,0,0,1-2.41-7.23,8.7,8.7,0,0,1,2.41-6.49A7.53,7.53,0,0,1,610.71,268Zm0,18.32a6.64,6.64,0,0,0,5.56-2,8.37,8.37,0,0,0,2.14-6.05,10.27,10.27,0,0,0-2.13-6.64,7.55,7.55,0,0,0-5.53-2.92,6.5,6.5,0,0,0-5.5,1.94,8.46,8.46,0,0,0-2.09,6.06,10.48,10.48,0,0,0,2.07,6.67A7.44,7.44,0,0,0,610.71,286.29Z"/><path class="cls-4" d="M627.53,271v2a6.4,6.4,0,0,1,3.3-3,9.15,9.15,0,0,1,3.52-.51,8,8,0,0,1,4.37,1.39,5.42,5.42,0,0,1,2.16,3.38,26,26,0,0,1,.29,4.56v2.74a24.8,24.8,0,0,0,.3,5.23c.2.6.77.93,1.71,1l.79,0,.8,0H645c.55,0,.82.17.82.45s-.24.43-.7.41H645l-1.29-.16-1.56-.18-1-.05-.7,0-1.08-.05-1.52,0-1.3.05h-.15c-.44,0-.66-.17-.66-.44s.27-.43.81-.4h.15l.8,0,.8,0c1,0,1.53-.22,1.72-.79a26.6,26.6,0,0,0,.28-5.22v-2.78q0-4.69-1-6.19-1.49-2.15-5-2.32-4.26-.24-6,3a9.89,9.89,0,0,0-.7,4.36v3.22a26,26,0,0,0,.29,5.23q.3.91,1.71,1l.78.05.78,0h.18c.54,0,.82.18.82.45s-.23.43-.67.41h-.15l-1.29-.18-1.53-.2-1.11-.07-.66,0-1-.07-1.56,0-1.3,0h-.11c-.47,0-.7-.19-.7-.46s.27-.42.81-.39l.19,0c.17,0,.43,0,.78.05l.78.05q1.44.09,1.74-.78a24.67,24.67,0,0,0,.29-5.2V275c0-1.78,0-2.55,0-2.33,0-1.29-.23-2-.55-2.26a2,2,0,0,0-1-.24h-2.33c-.49,0-.74-.21-.74-.53s.22-.47.67-.44c.17,0,.55.06,1.15.15l.85.09.7,0a5.9,5.9,0,0,0,.71,0,5.73,5.73,0,0,1,.7,0c.35,0,.56.12.65.3A4.13,4.13,0,0,1,627.53,271Z"/><path class="cls-4" d="M652.52,282.05a25.5,25.5,0,0,0,.3,5.22c.19.6.76.91,1.71,1l.78,0,.77,0h.19c.54,0,.82.16.82.43s-.23.44-.67.43h-.15L655,289l-1.52-.16-1.08,0-.7,0-1,0-1.56.06-1.3.06h-.11c-.47,0-.7-.16-.7-.43s.27-.43.81-.41H648l.8,0,.79,0c.94,0,1.51-.24,1.71-.82a24.48,24.48,0,0,0,.3-5.21v-8.14c-.06-1.28-.24-2-.56-2.24a2,2,0,0,0-1-.22l-1.23,0-1,0h-.11c-.49,0-.74-.19-.74-.51s.21-.47.63-.45h.11l1.11.15,1.78.07.67,0a4.39,4.39,0,0,1,.67,0c.39,0,.59.3.59.87Zm-.85-16.91a1.35,1.35,0,0,1,1,.44,1.39,1.39,0,0,1,.38,1,1.23,1.23,0,0,1-.38.93,1.24,1.24,0,0,1-.91.36,1.42,1.42,0,0,1-1-.43,1.31,1.31,0,0,1-.39-.95,1.28,1.28,0,0,1,1.34-1.33Z"/><path class="cls-4" d="M671.93,285.91c0-.1,0-.2,0-.3l-.15.26a8.16,8.16,0,0,1-1.37,1.68,7.65,7.65,0,0,1-5.69,2.16,6.62,6.62,0,0,1-4.33-1.51,4.7,4.7,0,0,1-1.67-3.71,4.64,4.64,0,0,1,1.2-3.22,5.39,5.39,0,0,1,3.17-1.7,25.75,25.75,0,0,1,3.17-.3,9.41,9.41,0,0,0,4.37-1,3,3,0,0,0,1.34-2.67,3.66,3.66,0,0,0-1.46-3,6.26,6.26,0,0,0-3.85-1.19,7.32,7.32,0,0,0-4.12,1,3.08,3.08,0,0,0-1.63,2.67q0,.59.33.6s.12-.05.23-.15,0-.09.07-.22a1,1,0,0,1,1-.6c.75,0,1.12.42,1.12,1.21a1.41,1.41,0,0,1-.5,1.08,1.7,1.7,0,0,1-1.21.43,2,2,0,0,1-1.47-.68,2.2,2.2,0,0,1-.61-1.55,3.82,3.82,0,0,1,1.91-3.28,8,8,0,0,1,4.77-1.23,7.11,7.11,0,0,1,4.57,1.44,5.91,5.91,0,0,1,1.81,4.76v9.22c.08,2,.74,3,2,3s2-.9,2-2.72v-1.82c0-.71.14-1.07.48-1.07s.45.26.45.75v1.48q-.12,4.14-3,4.12c-1.8,0-2.76-1.12-2.89-3.29ZM664.84,289a6.9,6.9,0,0,0,7.09-7v-3.58c0-.25,0-.37-.15-.38a3.24,3.24,0,0,0-.41.44c-.79.95-2.55,1.5-5.27,1.61a14.55,14.55,0,0,0-3.54.48,4.25,4.25,0,0,0-1.95,1.32,4.19,4.19,0,0,0,.56,5.75A5.57,5.57,0,0,0,664.84,289Z"/><path class="cls-4" d="M679.83,264.26h3a.68.68,0,0,1,.67.34,2.31,2.31,0,0,1,.07.77v17.23a24.45,24.45,0,0,0,.3,5.18c.19.6.78.91,1.74.91h1.75c.52,0,.78.14.78.41s-.23.44-.67.44h-.11l-1.3-.1-1.52-.12h-2.9l-1.52.1-1.3.11h-.15c-.44,0-.67-.14-.67-.42s.28-.44.82-.43h1.75c1,0,1.54-.29,1.74-.88a24.43,24.43,0,0,0,.3-5.2V269.73a19.22,19.22,0,0,0-.23-4c-.14-.44-.58-.66-1.3-.66-.37,0-.77,0-1.22,0l-1.11.06q-.75,0-.75-.45c0-.3.22-.45.64-.44h1.18Z"/><path class="cls-4" d="M704.62,266.06v19.87a4.24,4.24,0,0,0,.31,1.77,1.51,1.51,0,0,0,1.54.71,10.6,10.6,0,0,0,1.19-.08,6.57,6.57,0,0,1,.92-.08c.53,0,.79.15.79.49s-.25.46-.78.47h-.11l-.81,0c-.2,0-.56,0-1.08-.05l-1-.09-1,0-1,0c-.28,0-.57,0-.9.05l-1.07.13c-.55.06-.89.09-1,.09l-.82.09h-.15c-.51,0-.77-.13-.77-.43s.26-.52.8-.53a8.45,8.45,0,0,1,.89,0,8.9,8.9,0,0,0,1.12,0,1.63,1.63,0,0,0,1.4-.56,3.79,3.79,0,0,0,.42-2V267.27a3.63,3.63,0,0,0-.25-1.44,1.26,1.26,0,0,0-1.24-.56,10.47,10.47,0,0,0-1.12.09,10.33,10.33,0,0,1-1.11.09h-.07q-.85,0-.84-.48c0-.36.24-.55.74-.55.32,0,.81,0,1.46.05s1.15,0,1.47,0l1.19,0a5,5,0,0,0,1.18-.17c.57,0,1,.37,1.3,1.16l8.05,21.83c.1.24.2.37.3.36s.19-.14.3-.41l8.2-22.13c.29-.83.7-1.25,1.22-1.27h.15l1.41,0h1c.47,0,1-.06,1.48-.12s.94-.1,1.26-.12c.5,0,.74.12.75.43s-.25.44-.76.46a8.8,8.8,0,0,1-1.13,0,9.37,9.37,0,0,0-1.17,0c-1.13,0-1.69.73-1.69,2v18.76a4.15,4.15,0,0,0,.3,1.77,1.54,1.54,0,0,0,1.58.67,9.15,9.15,0,0,0,1.15-.11,6.64,6.64,0,0,1,.92-.1c.53,0,.79.13.8.48s-.25.45-.75.48q-.22,0-1,0c-1.24-.07-2-.09-2.34-.08a2.33,2.33,0,0,1-.33,0h-.37l-1,.05c-.25,0-.9.09-2,.23-.51.07-.86.1-1,.11l-.82.11h-.15c-.52,0-.78-.12-.78-.41s.27-.53.81-.55h.87a7,7,0,0,0,1.13,0,1.56,1.56,0,0,0,1.5-.8,4.52,4.52,0,0,0,.29-1.79v-20c0-.29-.05-.44-.15-.43s-.13.06-.18.19l-.07.15q-4.25,11.25-8.47,22.48c-.29.74-.65,1.13-1.07,1.14s-.8-.35-1.07-1.08q-4.05-10.9-8.1-21.84c-.12-.34-.25-.51-.37-.51S704.63,265.65,704.62,266.06Z"/><path class="cls-4" d="M749.31,276.76c0,.52-.12.84-.35.95a3,3,0,0,1-1.09.22q-6.57.44-13.13.79a1,1,0,0,0-.64.18,1.22,1.22,0,0,0-.13.75,8.19,8.19,0,0,0,2,5.86,6.3,6.3,0,0,0,5.28,2,7.14,7.14,0,0,0,5.52-2.83,6.35,6.35,0,0,0,1.11-2.18c0-.07.07-.39.19-.94s.28-.64.55-.66.45.14.45.48a5.16,5.16,0,0,1-.41,1.7,7.77,7.77,0,0,1-2.83,3.64,8.71,8.71,0,0,1-4.54,1.53,7.32,7.32,0,0,1-6.08-2.21,9.21,9.21,0,0,1-2.3-6.62,10.74,10.74,0,0,1,2.39-7.17,8.36,8.36,0,0,1,6.17-3.07,7,7,0,0,1,5.56,2A7.5,7.5,0,0,1,749.31,276.76Zm-15.2.58c0,.37.28.54.82.52q6.38-.35,12.75-.77a.57.57,0,0,0,.63-.63,6.91,6.91,0,0,0-1.63-4.41,5.89,5.89,0,0,0-5.26-2.15,7.49,7.49,0,0,0-4.4,1.68,8.32,8.32,0,0,0-2.61,4.16A6.06,6.06,0,0,0,734.11,277.34Z"/><path class="cls-4" d="M768.27,283.69l-.52-.47L763,278c-.3-.32-.5-.47-.6-.47s-.29.2-.59.57l-5.22,6.48a1.37,1.37,0,0,0-.33.8c0,.37.38.53,1.14.47.3,0,.64-.06,1-.12l1.26-.17c.57-.05.85.1.85.45s-.23.5-.7.54h-.11l-1.37,0a29.7,29.7,0,0,0-3.08.12,16.05,16.05,0,0,0-2.44.33,9.2,9.2,0,0,1-1.11.19c-.45,0-.67-.1-.67-.4s.27-.57.82-.61a6.48,6.48,0,0,1,.89,0,1.18,1.18,0,0,1,.25,0l.23,0a2.65,2.65,0,0,0,1.81-1.1c.25-.3.5-.6.74-.91q2.75-3.41,5.48-6.84a1.31,1.31,0,0,0,.34-.62c0-.1-.11-.27-.34-.53l-5.22-5.89a2,2,0,0,0-1.81-.76l-.6,0-.59.05h-.11c-.54,0-.81-.09-.81-.37s.29-.45.88-.49h1.15c1.29,0,2.19,0,2.71-.06s1.45-.16,2.66-.35c.62-.1,1-.15,1.11-.16.45,0,.67.08.67.35s-.21.46-.63.5l-.85.06-.82.07-.66.05c-.74.06-1.11.28-1.11.68s.3.74.92,1.41l3.63,4c.3.32.5.48.59.47s.3-.19.6-.57l4-5a3.56,3.56,0,0,0,.78-1.18c0-.37-.37-.52-1.11-.46-.23,0-.57.07-1,.15a9.53,9.53,0,0,1-1,.14c-.49,0-.74-.1-.74-.42s.26-.5.78-.54.71-.05,1-.05h1.3c.29,0,.64,0,1-.06q1.59-.13,3.18-.39l1-.17c.52,0,.78.05.78.3s-.27.5-.81.56l-.5,0-.39,0-.26,0c-.87.08-1.92.9-3.18,2.47l-4.3,5.36a1.18,1.18,0,0,0-.33.59,1.09,1.09,0,0,0,.33.56l5.89,6.37a2.85,2.85,0,0,0,2.22,1.17l.66-.06.67-.06c.52-.05.78.07.78.37s-.27.47-.82.52h-1.25c-1.09,0-1.9,0-2.45.08a24.06,24.06,0,0,0-2.74.39c-.61.13-1,.19-1.1.2-.58.05-.86-.07-.86-.37s.27-.46.82-.51l1-.09.82-.07.37,0c.71-.07,1.07-.29,1.07-.69A1.39,1.39,0,0,0,768.27,283.69Z"/><path class="cls-4" d="M780.55,277.74a25.12,25.12,0,0,0,.29,5.18c.2.58.77.81,1.71.72l.77-.08.78-.09.18,0c.55-.05.81.05.82.33s-.22.46-.67.51l-.15,0-1.29,0-1.52.05-1.07.1-.7.08-1,.1-1.55.26-1.29.24h-.11c-.47.05-.71-.07-.71-.34s.28-.47.82-.52l.18,0,.8-.08.79-.07c.94-.1,1.51-.45,1.7-1.06a25.11,25.11,0,0,0,.3-5.25v-8.14c-.05-1.27-.24-2-.56-2.16a1.78,1.78,0,0,0-1-.09c-.15,0-.55.08-1.22.19l-1,.17h-.11c-.49.05-.74-.08-.74-.41s.21-.5.63-.54h1.22l1.78-.18a4.3,4.3,0,0,0,.66-.12,4.6,4.6,0,0,1,.67-.12c.39,0,.59.22.59.79ZM779.7,261a1.14,1.14,0,0,1,.94.31,1.22,1.22,0,0,1,.39.92,1.51,1.51,0,0,1-1.29,1.47,1.21,1.21,0,0,1-1-.29,1.18,1.18,0,0,1-.39-.91,1.48,1.48,0,0,1,.39-1A1.43,1.43,0,0,1,779.7,261Z"/><path class="cls-4" d="M799.8,269.59c.32,0,.52,0,.62.11a2.39,2.39,0,0,1,.22.23.54.54,0,0,0,.3.07c.34,0,.52-.41.52-1.1a3.41,3.41,0,0,0-1.68-3,5.91,5.91,0,0,0-4.08-.82,8.25,8.25,0,0,0-5.73,3.09,10.53,10.53,0,0,0-2.14,6.79,8.27,8.27,0,0,0,2,6,6.34,6.34,0,0,0,5.56,1.67,6.85,6.85,0,0,0,5-2.75,6,6,0,0,0,1.25-3.11c0-.62.2-.95.52-1s.52.17.52.64a6.62,6.62,0,0,1-1.92,4.38,8.06,8.06,0,0,1-5.28,2.56,7.42,7.42,0,0,1-6.35-1.85,8.49,8.49,0,0,1-2.4-6.49,11.14,11.14,0,0,1,2.43-7.29,9.32,9.32,0,0,1,6.36-3.43,6.84,6.84,0,0,1,4.83,1,4.16,4.16,0,0,1,2,3.62,3.36,3.36,0,0,1-.65,2,2.29,2.29,0,0,1-1.6,1c-1,.12-1.44-.27-1.44-1.16A1.12,1.12,0,0,1,799.8,269.59Z"/><path class="cls-4" d="M814.18,262a7.2,7.2,0,0,1,6.28,1.78,8.7,8.7,0,0,1,2.41,6.6,11,11,0,0,1-2.41,7.16,9.49,9.49,0,0,1-6.28,3.52,6.9,6.9,0,0,1-6.16-1.91,9.15,9.15,0,0,1-2.4-6.72,10.65,10.65,0,0,1,2.4-7A9.42,9.42,0,0,1,814.18,262Zm0,18.32a8.22,8.22,0,0,0,5.52-3.17,10.09,10.09,0,0,0,2.14-6.5,8.54,8.54,0,0,0-2.12-6.19,6.06,6.06,0,0,0-5.5-1.72,8.1,8.1,0,0,0-5.48,3.12,10.25,10.25,0,0,0-2.08,6.51,8.7,8.7,0,0,0,2.06,6.22A6,6,0,0,0,814.18,280.3Z"/><path class="cls-4" d="M539.38,303.69l.3-.75,4.55-11.06c.19-.5.42-.72.66-.69s.48.29.64.76l3.39,9.88a45,45,0,0,0,1.7,4.5,1.23,1.23,0,0,0,1,.74l.46,0,.45,0c.35.05.53.17.53.35a.23.23,0,0,1-.15.23.56.56,0,0,1-.35,0,6.08,6.08,0,0,1-.76-.18,11.88,11.88,0,0,0-1.69-.36,10.35,10.35,0,0,0-1.42-.13l-1,0-.11,0c-.42-.06-.62-.19-.62-.4s.19-.31.57-.25l.64.14.69.14c.6.09.89-.1.89-.56a3.08,3.08,0,0,0-.21-.92l-.43-1.26-.78-2.16a1.74,1.74,0,0,0-.18-.37.94.94,0,0,0-.37-.1l-5.9-.88a1.05,1.05,0,0,0-.38,0,.67.67,0,0,0-.19.32c-.42,1-.83,2-1.24,3a3.5,3.5,0,0,1-.18.45.87.87,0,0,0-.09.42c0,.46.39.75,1.16.87.14,0,.37.05.69.09a3.51,3.51,0,0,1,.46,0h0c.35.05.52.18.53.37s-.16.3-.48.25c-.06,0-.41-.09-1-.24s-1.28-.29-2-.4a12.42,12.42,0,0,0-1.53-.15,6.81,6.81,0,0,1-.83,0c-.31-.05-.45-.18-.45-.4s.15-.3.48-.24a4,4,0,0,1,.46.1,4,4,0,0,0,.45.11C538.44,305.11,539,304.68,539.38,303.69Zm8.37-3.45L544.87,292l-3,7.41a.91.91,0,0,0-.09.33c0,.18.16.3.5.35l5.1.76c.34.05.51,0,.51-.2A1.23,1.23,0,0,0,547.75,300.24Z"/><path class="cls-4" d="M568.17,294.48l3.21.33c.43,0,.65.23.65.6v1.11a12.08,12.08,0,0,0-.07,1.74,6.86,6.86,0,0,0,.07.95v1.14c0,.34-.11.5-.32.47s-.35-.21-.35-.54l0,0c0-.44.07-.88.1-1.32a12.67,12.67,0,0,0,.09-1.67,3.48,3.48,0,0,0-.23-1.65,2.41,2.41,0,0,0-1.39-.43l-3-.37c-.4-.05-.65,0-.74.06a1.37,1.37,0,0,0-.14.8c0,4,0,7.92,0,11.87a2.91,2.91,0,0,0,.19,1.18,1.21,1.21,0,0,0,1,.53,4.29,4.29,0,0,0,.71,0,5.2,5.2,0,0,1,.55.05c.33,0,.48.16.48.36s-.15.28-.46.24h-.06l-.53-.11-.67-.13-1.21-.24-.64-.08c-.14,0-.36,0-.65,0l-.57,0-.64,0-.51,0H563c-.32,0-.48-.16-.48-.34s.17-.3.51-.26a4.84,4.84,0,0,1,.57.1,4.86,4.86,0,0,0,.71.13.86.86,0,0,0,.94-.33,3.22,3.22,0,0,0,.16-1.09c0-.56,0-1.11.05-1.67V295.59a1.66,1.66,0,0,0-.14-.87,1.56,1.56,0,0,0-.8-.24l-2.73-.35a3,3,0,0,0-1.19,0c-.28.12-.43.48-.44,1.07,0,.44,0,1,0,1.68,0,.17,0,.39,0,.67,0,.44.05.88.07,1.32s-.1.53-.3.51-.32-.25-.32-.66v-.07c0-.42,0-.84.07-1.26v-2.6c0-.31-.05-.62-.07-.93s.27-.56.76-.49c.15,0,.54.08,1.17.2,1.25.22,3,.48,5.26.76Z"/><path class="cls-4" d="M581.58,309.25l0-.19a1.19,1.19,0,0,1-.09.15,4.8,4.8,0,0,1-.84,1,4.36,4.36,0,0,1-3.53,1,4.45,4.45,0,0,1-2.68-1.18,3.23,3.23,0,0,1-1-2.4,2.7,2.7,0,0,1,.74-1.94,3,3,0,0,1,2-.87,15.73,15.73,0,0,1,2,0,5.39,5.39,0,0,0,2.71-.35,1.65,1.65,0,0,0,.83-1.58,2.53,2.53,0,0,0-.9-2,4.88,4.88,0,0,0-4.94-.59,1.69,1.69,0,0,0-1,1.56c0,.25.06.38.2.39s.08,0,.14-.07a.3.3,0,0,1,0-.13.53.53,0,0,1,.62-.32.71.71,0,0,1,.68.81.77.77,0,0,1-.31.64,1,1,0,0,1-.74.21,1.37,1.37,0,0,1-.91-.51,1.52,1.52,0,0,1-.38-1,2.14,2.14,0,0,1,1.19-1.93,4.62,4.62,0,0,1,2.94-.49,4.79,4.79,0,0,1,2.83,1.16,4,4,0,0,1,1.13,3.07v5.73c0,1.24.45,1.91,1.21,2s1.27-.43,1.27-1.57v-1.12c0-.45.08-.66.29-.64s.28.18.28.49v.92c0,1.71-.66,2.51-1.86,2.38s-1.71-.86-1.79-2.22Zm-4.39,1.48a3.79,3.79,0,0,0,3.11-.93,3.83,3.83,0,0,0,1.28-3V304.6q0-.23-.09-.24a1.36,1.36,0,0,0-.26.25c-.49.54-1.57.78-3.26.69a8.56,8.56,0,0,0-2.19.1,2.24,2.24,0,0,0-1.2.71,2.3,2.3,0,0,0-.56,1.59,2.69,2.69,0,0,0,.9,2A3.73,3.73,0,0,0,577.19,310.73Z"/><path class="cls-4" d="M586.47,296.27l1.06.11.6.06.2,0a.47.47,0,0,1,.42.25,1.52,1.52,0,0,1,0,.48V307.9a15,15,0,0,0,.19,3.24c.12.39.48.61,1.08.67l.48.05.48.05h.12c.32,0,.48.14.48.3s-.14.27-.41.24h-.07l-.81-.15-.94-.16-.67-.07-.46-.05-.66-.06-1,0-.8,0h-.09q-.42,0-.42-.3c0-.18.17-.25.51-.22h.09l.5.05.49.06c.6.06,1-.09,1.08-.44a16,16,0,0,0,.19-3.22v-8a12.42,12.42,0,0,0-.14-2.51c-.1-.29-.37-.45-.81-.5l-.76-.05-.69,0c-.3,0-.45-.14-.46-.32s.13-.27.39-.24h.07Z"/><path class="cls-4" d="M602.86,307c0,.32-.07.51-.21.56a1.76,1.76,0,0,1-.68,0q-4.08-.36-8.14-.75c-.22,0-.35,0-.41.06a.77.77,0,0,0-.08.45,5.83,5.83,0,0,0,1.26,3.83,4.58,4.58,0,0,0,3.27,1.72,3.77,3.77,0,0,0,3.43-1.23,3.42,3.42,0,0,0,.69-1.25s0-.23.11-.56.18-.38.35-.36.28.13.28.34a2.92,2.92,0,0,1-.26,1,3.9,3.9,0,0,1-1.76,2,4.87,4.87,0,0,1-2.81.52,5.35,5.35,0,0,1-3.78-1.94,6.64,6.64,0,0,1-1.42-4.33,5.93,5.93,0,0,1,1.48-4.24,4.48,4.48,0,0,1,3.83-1.33,5.11,5.11,0,0,1,3.45,1.77A5.39,5.39,0,0,1,602.86,307Zm-9.43-1.07q0,.35.51.39c2.64.26,5.27.5,7.91.73q.39,0,.39-.33a4.93,4.93,0,0,0-1-2.9A4.29,4.29,0,0,0,598,302a4,4,0,0,0-2.72.63,4.22,4.22,0,0,0-1.62,2.34A3.48,3.48,0,0,0,593.43,305.89Z"/><path class="cls-4" d="M615.91,303a5.53,5.53,0,0,1,3.93,1.94,6.53,6.53,0,0,1,1.51,4.42,5.6,5.6,0,0,1-1.51,4.13,4.75,4.75,0,0,1-3.93,1.36,5.32,5.32,0,0,1-3.84-2,6.82,6.82,0,0,1-1.5-4.49,5.43,5.43,0,0,1,1.5-4A4.68,4.68,0,0,1,615.91,303Zm0,11.39a4.13,4.13,0,0,0,3.46-1.24,5.2,5.2,0,0,0,1.33-3.76,6.39,6.39,0,0,0-1.32-4.13,4.69,4.69,0,0,0-3.44-1.79,4,4,0,0,0-3.42,1.22,5.29,5.29,0,0,0-1.3,3.78,6.48,6.48,0,0,0,1.29,4.14A4.6,4.6,0,0,0,615.91,314.35Z"/><path class="cls-4" d="M628.61,315.42l-.81-.12-.95-.13-.66,0-.44,0-.65-.05h-1l-.81,0h-.07c-.29,0-.43-.11-.44-.28s.17-.26.51-.24h.12l.49,0,.5,0c.58,0,.93-.12,1.06-.48a15.84,15.84,0,0,0,.18-3.24v-6c0-.41-.14-.63-.42-.65s-.38,0-.73,0l-.67,0c-.35,0-.53-.14-.53-.36s.13-.27.39-.25h.07l.67.09a2.42,2.42,0,0,0,.69.09h.05c.22,0,.37,0,.42-.09a1.3,1.3,0,0,0,.08-.62c0-2.61,1.23-3.83,3.6-3.69a3.3,3.3,0,0,1,1.83.61,1.6,1.6,0,0,1,.72,1.31c0,.68-.31,1-.94,1a.72.72,0,0,1-.76-.81c0-.46.2-.67.62-.65.12,0,.18,0,.19-.1s-.15-.34-.44-.51a2.87,2.87,0,0,0-1.31-.38c-2-.11-2.93,1-2.93,3.46a.79.79,0,0,0,.09.47.82.82,0,0,0,.46.12h.26l2.12.06c.38,0,.57.12.57.31s-.21.31-.62.28l-.92-.1-1.09-.06s-.07,0-.13-.08h-.17a.63.63,0,0,0-.47.08.88.88,0,0,0-.1.53V311a16.1,16.1,0,0,0,.18,3.26c.13.37.48.58,1.06.61l.49,0,.48,0h.12c.34,0,.5.11.5.28s-.13.27-.41.25Z"/><path class="cls-4" d="M645.47,300.86l3.24.05c.42,0,.64.19.64.56v1.11a14,14,0,0,0-.07,1.74,6.75,6.75,0,0,0,.07.95v1.14c0,.34-.11.5-.32.5s-.35-.18-.35-.52l0-.05.09-1.33a12.78,12.78,0,0,0,.09-1.67,3.29,3.29,0,0,0-.23-1.63c-.16-.19-.63-.29-1.4-.32l-3-.12c-.41,0-.66,0-.75.11a1.44,1.44,0,0,0-.14.81c0,4,0,7.92.05,11.87a2.61,2.61,0,0,0,.18,1.16,1.09,1.09,0,0,0,1,.46,5.67,5.67,0,0,0,.72,0,4.89,4.89,0,0,1,.55,0c.33,0,.49.12.48.32s-.16.29-.46.28h-.07l-.53-.07-.67-.08c-.72-.09-1.12-.14-1.22-.14l-.64,0c-.15,0-.36,0-.65,0l-.58,0-.64,0-.51,0h-.09q-.48,0-.48-.3c0-.21.17-.31.5-.29a5.2,5.2,0,0,1,.58.05c.25,0,.49.06.71.08a1,1,0,0,0,.95-.42,3.34,3.34,0,0,0,.16-1.1c0-.56,0-1.12,0-1.68V302.19a1.56,1.56,0,0,0-.14-.86c-.09-.1-.36-.15-.81-.17l-2.74-.13a2.89,2.89,0,0,0-1.2.08c-.28.14-.42.51-.44,1.1s0,1,0,1.68c0,.17,0,.39,0,.67,0,.44.05.88.07,1.31s-.1.55-.3.54-.32-.22-.32-.63v-.07c0-.42,0-.85.07-1.27v-2.6c0-.31-.05-.61-.07-.92s.27-.59.76-.56l1.18.1c1.26.13,3,.24,5.29.34Z"/><path class="cls-4" d="M662.82,316.21q-1.43-4.79-2.86-9.58c0-.1-.07-.17-.12-.18s-.09.06-.13.18a1.59,1.59,0,0,0-.07.2L657,316c-.15.53-.38.79-.67.78s-.54-.29-.69-.85l-2.52-9a3.31,3.31,0,0,0-.34-.91,1,1,0,0,0-.83-.35l-.37,0a1.22,1.22,0,0,1-.41.06c-.34,0-.51-.13-.51-.34s.17-.27.51-.26l.71,0,.83.1a7.76,7.76,0,0,0,.78.07c.39,0,.92,0,1.6,0a7.47,7.47,0,0,1,.83,0c.3,0,.46.1.46.28s-.22.32-.65.31h-.07l-.81-.06-.55-.06c-.45,0-.67.14-.67.47a4.77,4.77,0,0,0,.14.7c.78,2.82,1.55,5.64,2.33,8.46.09.34.17.51.23.51s.12-.07.16-.22l.05-.21,2.67-9.31c.13-.43.32-.63.58-.63s.4.2.51.57q1.47,4.89,2.95,9.78c.08.23.14.34.19.34s.08-.05.11-.18l.09-.27c.72-2.67,1.43-5.34,2.15-8a4.92,4.92,0,0,0,.21-1.1c0-.39-.38-.6-1.13-.62l-.67,0a5.44,5.44,0,0,1-.65,0c-.26,0-.39-.1-.39-.28s.16-.32.48-.31c.14,0,.37,0,.69.07a15.81,15.81,0,0,0,1.73.12c.4,0,.7,0,.88,0l.85-.08h.63c.32,0,.48.1.48.29s-.15.32-.46.31a3.15,3.15,0,0,1-.46,0,3.15,3.15,0,0,0-.46,0,.68.68,0,0,0-.61.2,6.27,6.27,0,0,0-.45,1.29c-.79,2.85-1.57,5.71-2.36,8.56-.15.58-.37.86-.64.86S663,316.71,662.82,316.21Z"/><path class="cls-4" d="M674.33,305.41a5.07,5.07,0,0,1,3.93,1.69,6.18,6.18,0,0,1,1.51,4.33,5.93,5.93,0,0,1-1.51,4.22,5,5,0,0,1-3.93,1.6,5,5,0,0,1-3.85-1.75,6.47,6.47,0,0,1-1.5-4.4,5.75,5.75,0,0,1,1.5-4.13A5,5,0,0,1,674.33,305.41Zm0,11.38a4.37,4.37,0,0,0,3.46-1.45,5.5,5.5,0,0,0,1.34-3.85,6,6,0,0,0-1.33-4,4.38,4.38,0,0,0-3.45-1.58,4.25,4.25,0,0,0-3.42,1.44,5.56,5.56,0,0,0-1.31,3.85,6.09,6.09,0,0,0,1.3,4.06A4.26,4.26,0,0,0,674.33,316.79Z"/><path class="cls-4" d="M698.83,303.75c0,.1.1.19.14.29V302.3c0-.45.1-.67.32-.68s.24.12.23.37,0,.41,0,.87c0,1.17-.08,2-.08,2.6,0,.75,0,1.28,0,1.59s.07.7.07.71c0,.28-.1.42-.3.42s-.34-.17-.34-.52,0-.5,0-.72c0-.41.07-.66.07-.73a4.38,4.38,0,0,0-1.29-3.33,4.67,4.67,0,0,0-3.45-1.21,5,5,0,0,0-4.39,2.19,9.74,9.74,0,0,0-1.57,5.67,8.27,8.27,0,0,0,1.59,5.39,5.29,5.29,0,0,0,4.4,1.92,5,5,0,0,0,3.6-1.29,4.85,4.85,0,0,0,1.43-3.46c0-.62.16-.92.4-.93s.34.15.34.46a5.44,5.44,0,0,1-1.64,4.1,6.41,6.41,0,0,1-9-.51,10.63,10.63,0,0,1,0-11.82,6,6,0,0,1,4.82-2.25,5,5,0,0,1,3.59,1.2A6.75,6.75,0,0,1,698.83,303.75Z"/><path class="cls-4" d="M707.39,305.19a5,5,0,0,1,3.93,1.55,6,6,0,0,1,1.51,4.28,6.13,6.13,0,0,1-1.51,4.28,5.22,5.22,0,0,1-3.93,1.74,4.8,4.8,0,0,1-3.85-1.62,6.21,6.21,0,0,1-1.5-4.34,6,6,0,0,1,1.5-4.2A5.17,5.17,0,0,1,707.39,305.19Zm0,11.39a4.56,4.56,0,0,0,3.46-1.58,5.72,5.72,0,0,0,1.34-3.89,5.89,5.89,0,0,0-1.33-4,4.24,4.24,0,0,0-3.45-1.46,4.43,4.43,0,0,0-3.42,1.56,5.77,5.77,0,0,0-1.31,3.9,6,6,0,0,0,1.3,4A4.13,4.13,0,0,0,707.39,316.58Z"/><path class="cls-4" d="M717.81,305.71v1.38a4.23,4.23,0,0,1,3.81-2.35,3.59,3.59,0,0,1,3,1,4.32,4.32,0,0,1,.76,1.39,6.08,6.08,0,0,1,1-1.49,4.8,4.8,0,0,1,5.27-.76,2.47,2.47,0,0,1,1.26,1.49,5.27,5.27,0,0,1,.18,1.25c0,.49,0,1,0,1.63v2.28a15.33,15.33,0,0,0,.19,3.22c.12.37.47.54,1.06.51l.48,0,.49,0h.11c.34,0,.51.06.51.23s-.14.28-.42.3h-.09l-.81,0-.94,0-.65,0-.46,0-.67,0-.94.11-.81.11H730c-.29,0-.43-.06-.43-.23s.16-.28.5-.3h.12l.48,0,.49,0c.59,0,1-.23,1.08-.6a15.14,15.14,0,0,0,.18-3.26v-2.48a16.84,16.84,0,0,0-.07-2.2,2.12,2.12,0,0,0-.46-.95,3,3,0,0,0-2.74-1,3.5,3.5,0,0,0-3.07,1.75,6.5,6.5,0,0,0-.59,3.2v2a15.26,15.26,0,0,0,.17,3.25c.11.36.48.52,1.09.49l.49,0,.48,0h.09c.34,0,.51.06.51.23s-.14.28-.41.29h-.1l-.78,0-.95,0-.69,0-.44,0-.64,0-1,.11-.81.1h-.06c-.3,0-.45-.06-.44-.23s.17-.28.5-.3h.12l.5,0,.49,0c.59,0,.94-.23,1.06-.6a15.57,15.57,0,0,0,.19-3.25V309c0-.76,0-1.25,0-1.48a2.74,2.74,0,0,0-.6-1.33,3.18,3.18,0,0,0-2.7-1,3.81,3.81,0,0,0-3.06,1.54,4.64,4.64,0,0,0-.7,2.74v2.69a15.7,15.7,0,0,0,.18,3.24c.12.36.47.54,1.07.52l.5,0,.5,0h.12c.35,0,.52.07.52.24s-.15.28-.44.29h-.07l-.81,0-1,0-.6,0-.48,0-.65,0-1,.1-.8.1h-.07c-.3,0-.44-.07-.44-.24s.17-.28.51-.29h.6l.48,0c.6,0,1-.22,1.09-.59a15.9,15.9,0,0,0,.18-3.25v-5.06c0-.79-.15-1.25-.37-1.36a1,1,0,0,0-.58-.1l-.76.07-.62.07h-.07c-.31,0-.46-.08-.46-.28s.13-.31.39-.32h.07l.67.05,1,0,.44-.05a3.43,3.43,0,0,1,.44-.05C717.69,305.12,717.81,305.31,717.81,305.71Z"/><path class="cls-4" d="M740.06,304.67v1.38a4.3,4.3,0,0,1,3.8-2.43,3.47,3.47,0,0,1,3,.91,4.19,4.19,0,0,1,.76,1.37,6.16,6.16,0,0,1,1-1.51,4.37,4.37,0,0,1,3-1.28,4.32,4.32,0,0,1,2.31.39,2.41,2.41,0,0,1,1.26,1.46,5.43,5.43,0,0,1,.18,1.25c0,.49,0,1,0,1.64v2.27a16,16,0,0,0,.19,3.22c.12.37.47.53,1.06.48l.48,0,.48,0h.12c.34,0,.5.05.5.22s-.13.28-.41.3h-1.84l-.64,0-.47,0-.66,0-1,.14-.8.12h-.07c-.29,0-.44-.06-.44-.23s.17-.28.51-.31h.11l.49,0,.48,0c.6-.05,1-.25,1.08-.62a16.56,16.56,0,0,0,.19-3.27v-2.49a21.69,21.69,0,0,0-.07-2.19,2.15,2.15,0,0,0-.46-.94,3,3,0,0,0-2.74-1,3.63,3.63,0,0,0-3.07,1.82,6.74,6.74,0,0,0-.6,3.22v2a15.69,15.69,0,0,0,.18,3.25c.11.35.48.51,1.09.46l.48,0,.49,0h.09c.34,0,.51,0,.51.22s-.14.28-.42.3h-1.82l-.69.05-.44,0-.64,0-1,.13-.81.12h-.06c-.29,0-.45-.05-.44-.22s.17-.29.5-.31h.12l.5,0,.49,0c.59,0,.94-.24,1.06-.62a15,15,0,0,0,.19-3.26v-2.87a14.08,14.08,0,0,0,0-1.47,2.66,2.66,0,0,0-.6-1.32,3.05,3.05,0,0,0-2.69-.95,3.88,3.88,0,0,0-3.06,1.61,4.61,4.61,0,0,0-.7,2.76v2.69a15.64,15.64,0,0,0,.18,3.23c.11.36.46.52,1.06.49l.5,0,.51,0h.11c.35,0,.52,0,.52.22s-.15.29-.44.3h-.07l-.8,0h-1l-.6,0-.48,0-.65,0-1,.12-.8.12h-.07c-.3,0-.44-.06-.44-.23s.17-.28.51-.3h.11l.49,0,.48,0c.6,0,1-.24,1.08-.62a15.64,15.64,0,0,0,.19-3.25v-3.61c0-1.14,0-1.62,0-1.45,0-.8-.16-1.25-.37-1.36a1,1,0,0,0-.58-.08c-.09,0-.34,0-.76.09l-.62.08h-.07c-.31,0-.46-.07-.46-.27s.13-.31.39-.32h.07l.67,0,1,0,.43-.06a2.56,2.56,0,0,1,.44-.06C739.93,304.08,740.06,304.28,740.06,304.67Z"/><path class="cls-4" d="M769.3,312v-.88a5,5,0,0,1-.95,1.37,4.83,4.83,0,0,1-3.12,1.4,3.77,3.77,0,0,1-3.32-1,3.31,3.31,0,0,1-.76-1.61,15.5,15.5,0,0,1-.09-1.88V306a12.43,12.43,0,0,0-.14-2.5c-.09-.28-.36-.4-.81-.37-.22,0-.46.06-.74.11l-.68.12c-.29,0-.43-.07-.44-.29s.12-.28.35-.3h.07l.64,0,1.34-.1.23-.05.37-.07c.27,0,.41.25.41.82v6a10.23,10.23,0,0,0,.11,1.76,2.67,2.67,0,0,0,.76,1.48,3.33,3.33,0,0,0,2.72.76,4,4,0,0,0,3.34-1.92,7.19,7.19,0,0,0,.71-3.56v-2.6a9.75,9.75,0,0,0-.18-2.62c-.11-.19-.37-.28-.76-.24-.23,0-.49.06-.77.11l-.68.13c-.29,0-.44-.06-.44-.26s.12-.31.37-.33h.07l.62,0,1.15-.1a2.3,2.3,0,0,0,.48-.08,1.33,1.33,0,0,1,.3-.06c.29,0,.44.26.44.88v7a10.19,10.19,0,0,0,.16,2.62c.1.2.36.28.76.24l.73-.09a3.48,3.48,0,0,1,.71-.15c.3,0,.44,0,.44.25s-.14.31-.41.34h-.71l-.53,0-.28,0-.23.09-.28,0-.39,0a.46.46,0,0,1-.46-.15,1.67,1.67,0,0,1-.11-.77Z"/><path class="cls-4" d="M777,302.14v1.24a4.9,4.9,0,0,1,2-2.18,6.17,6.17,0,0,1,2.18-.66,4.43,4.43,0,0,1,2.71.44,2.72,2.72,0,0,1,1.33,1.9,16.22,16.22,0,0,1,.19,2.81v1.7a14.72,14.72,0,0,0,.18,3.22c.12.36.48.51,1.06.44l.49-.05.49-.06h.12c.33,0,.5,0,.5.2s-.14.29-.43.32h-.07l-.8,0-1,0-.64.07-.44.05-.67.07-.94.17-.8.15h-.09q-.42,0-.42-.21c0-.19.17-.29.51-.33h.09l.49-.05.5-.05c.6-.06.95-.28,1.07-.66a17.32,17.32,0,0,0,.17-3.27v-1.72c0-2-.22-3.2-.64-3.75a3.19,3.19,0,0,0-3.08-1,4.29,4.29,0,0,0-3.7,2.46,6.71,6.71,0,0,0-.44,2.78v2a15.57,15.57,0,0,0,.18,3.23c.13.35.48.5,1.06.45l.48-.05.49-.05h.11c.33,0,.51,0,.51.2s-.14.29-.42.32h-.89l-1,0-.69.07-.41,0-.64.06-1,.17-.8.14H774c-.29,0-.44-.05-.44-.22s.17-.29.51-.32h.11l.48-.05.49,0q.89-.09,1.08-.66a16.1,16.1,0,0,0,.18-3.26v-5.06c0-.79-.15-1.24-.34-1.34a1.05,1.05,0,0,0-.6-.06l-.76.12-.69.11c-.3,0-.46-.06-.46-.26s.14-.31.41-.34l.72,0,.53,0,.43-.05.44-.07.44-.08c.21,0,.35,0,.4.12A2.28,2.28,0,0,1,777,302.14Z"/><path class="cls-4" d="M792.46,306.61a15.05,15.05,0,0,0,.19,3.22c.12.36.47.5,1.05.43l.48-.05.49-.06h.11c.34,0,.51,0,.51.19s-.14.29-.42.33h-.09l-.8,0-.94,0-.67.08-.43.05-.65.07-1,.18-.81.16h-.06c-.3,0-.44,0-.44-.2s.17-.29.5-.33h.12l.49-.06.5-.06c.58-.06.93-.28,1-.67a15.09,15.09,0,0,0,.19-3.26v-5.06c0-.8-.15-1.24-.35-1.34a1.13,1.13,0,0,0-.59,0l-.76.13-.62.12h-.07c-.31,0-.46,0-.46-.24s.13-.31.39-.35h.76l1.1-.12a2.89,2.89,0,0,0,.41-.09l.42-.08c.24,0,.36.14.36.49Zm-.52-10.43a.71.71,0,0,1,.58.19.75.75,0,0,1,.24.57.84.84,0,0,1-.24.61.86.86,0,0,1-.56.31.75.75,0,0,1-.61-.17.71.71,0,0,1-.24-.56.95.95,0,0,1,.83-.95Z"/><path class="cls-4" d="M798.55,299.66c0,.1,0,.35,0,.76v4.83a13.86,13.86,0,0,0,.28,3.24,1.56,1.56,0,0,0,1.88,1.24,2.05,2.05,0,0,0,1.65-1,5.92,5.92,0,0,0,.48-2.76v-.92c0-.32.1-.5.31-.52s.31.12.31.44v.58a10.86,10.86,0,0,1-.23,2.55,2.65,2.65,0,0,1-2.52,2.09c-1.84.23-2.75-1-2.75-3.62V300.5a2.37,2.37,0,0,0-.11-.9c-.07-.11-.25-.14-.56-.1l-.69.12-.53.11c-.29,0-.43-.05-.43-.27s.14-.29.41-.32a3.72,3.72,0,0,1,.55,0l.55,0c.47-.06.77-.24.87-.55a3,3,0,0,0,.1-.9v-.12a9,9,0,0,1,0-1.21.32.32,0,0,1,.27-.28c.16,0,.25.1.25.34v.05c0,.37,0,.74-.07,1.11a5.5,5.5,0,0,0-.07.88c0,.34.23.48.68.43l.76-.1c.17,0,.43-.06.78-.13l.78-.13c.31,0,.47,0,.47.24s-.17.32-.51.36h0l-.72.06a6.45,6.45,0,0,1-.75.05l-.76.07C798.8,299.31,798.58,299.44,798.55,299.66Z"/><path class="cls-4" d="M807.9,304.72a14.49,14.49,0,0,0,.19,3.22c.12.35.47.49,1,.41l.48-.06.48-.07h.12c.34,0,.5,0,.5.18s-.14.3-.41.33l-.09,0-.8,0-.94.06-.67.09-.43.05-.65.09-1,.19-.8.17h-.07c-.29,0-.44,0-.44-.2s.17-.3.51-.34h.11l.5-.07.49-.06q.87-.11,1-.69a15.09,15.09,0,0,0,.19-3.26v-5.06c0-.8-.15-1.24-.35-1.34a1.13,1.13,0,0,0-.59,0l-.76.15-.62.12h-.07c-.3,0-.46,0-.46-.24s.13-.31.39-.35h.07l.69,0,1.1-.14a2.62,2.62,0,0,0,.41-.09l.42-.09c.24,0,.36.13.36.49Zm-.52-10.42a.71.71,0,0,1,.82.74.91.91,0,0,1-.24.62.86.86,0,0,1-.56.31.71.71,0,0,1-.61-.16.69.69,0,0,1-.24-.55.93.93,0,0,1,.24-.64A.87.87,0,0,1,807.38,294.3Z"/><path class="cls-4" d="M821.92,300.52c0,.32-.07.53-.22.61a2.1,2.1,0,0,1-.67.19q-4,.58-8.11,1.14a.63.63,0,0,0-.4.15.9.9,0,0,0-.08.47,4.79,4.79,0,0,0,1.25,3.54,3.63,3.63,0,0,0,3.26,1,4.86,4.86,0,0,0,3.42-2,4.38,4.38,0,0,0,.68-1.41,5.53,5.53,0,0,1,.12-.59c.06-.27.17-.41.34-.44s.27.07.27.28a3.24,3.24,0,0,1-.25,1.07,5.44,5.44,0,0,1-1.75,2.41A5.75,5.75,0,0,1,817,308a4.22,4.22,0,0,1-3.76-1.07,5.33,5.33,0,0,1-1.42-4,7.19,7.19,0,0,1,1.48-4.58,5.67,5.67,0,0,1,3.81-2.22,4.06,4.06,0,0,1,3.44,1A4.31,4.31,0,0,1,821.92,300.52Zm-9.39,1.12q0,.35.51.27c2.62-.35,5.25-.72,7.87-1.1a.4.4,0,0,0,.39-.43,4.06,4.06,0,0,0-1-2.66,3.41,3.41,0,0,0-3.26-1.08,4.89,4.89,0,0,0-2.71,1.27,5.77,5.77,0,0,0-1.61,2.71A3.6,3.6,0,0,0,812.53,301.64Z"/><path class="cls-4" d="M828.8,306.3a3.82,3.82,0,0,1-4-1.33c0,.28,0,.47,0,.58,0,.62,0,.9,0,.82,0,.34-.1.53-.3.56s-.34-.1-.34-.41a7.6,7.6,0,0,1,.07-.87,13.56,13.56,0,0,0,.07-1.59,14.41,14.41,0,0,0-.07-1.67c-.05-.39-.07-.59-.07-.61,0-.26.1-.4.31-.43s.33.14.33.52l0,.22a2.77,2.77,0,0,0,0,.42c0,.22,0,.43,0,.65a2.47,2.47,0,0,0,1.1,2.2,3.88,3.88,0,0,0,2.86.48,4.93,4.93,0,0,0,2.65-1.19,2.93,2.93,0,0,0,1-2.21,1.61,1.61,0,0,0-.75-1.56,5.68,5.68,0,0,0-2.65-.35,11.7,11.7,0,0,1-3-.12,1.83,1.83,0,0,1-1-.75,2.26,2.26,0,0,1-.38-1.31,3.4,3.4,0,0,1,1.11-2.49,4.81,4.81,0,0,1,2.77-1.37,3.34,3.34,0,0,1,3.48,1.35v-1.1c0-.45.09-.69.27-.71s.28.08.28.32a5,5,0,0,1-.07.59s0,.13,0,.3,0,.32,0,.46l0,.86c0,.62,0,1,0,1.13s0,.25,0,.37v.21c0,.26-.1.41-.3.44s-.27-.08-.27-.33v0l.06-.54c0-.19,0-.24,0-.17a2.61,2.61,0,0,0-1-2.17,3.1,3.1,0,0,0-2.49-.51,4.2,4.2,0,0,0-2.35,1.1,2.75,2.75,0,0,0-.93,2.06,1.55,1.55,0,0,0,.72,1.52,5.72,5.72,0,0,0,2.64.3,10,10,0,0,1,3,.17,1.87,1.87,0,0,1,1.41,2,3.62,3.62,0,0,1-1.19,2.71A5.56,5.56,0,0,1,828.8,306.3Z"/><path class="cls-4" d="M591.55,412.77a.91.91,0,0,0-.09-.17V413c0,.21,0,.41,0,.62,0,.42,0,.64,0,.65v.05c0,.32-.09.47-.29.45s-.35-.23-.35-.62V414c.06-.93.1-1.83.09-2.7s0-1.35,0-1.8-.05-.72-.05-.81c0-.29.11-.43.34-.4s.3.15.3.4a4.72,4.72,0,0,1,0,.64,5.16,5.16,0,0,0,1.22,4.2,5.55,5.55,0,0,0,3.61,1.6,4.47,4.47,0,0,0,3.35-.77,3.37,3.37,0,0,0,1.26-2.81,3.21,3.21,0,0,0-2.34-3.34,13.73,13.73,0,0,0-2.21-.52c-3.44-.62-5.15-2.13-5.16-4.51a3.52,3.52,0,0,1,1.39-2.92,4.64,4.64,0,0,1,3.48-.86,5.09,5.09,0,0,1,3.78,1.95,3.73,3.73,0,0,1,.53,1.13c0-.19,0-.41,0-.64a4.35,4.35,0,0,0,0-.53c0-.16,0-.32,0-.49v-.09c0-.37.11-.54.33-.52s.31.17.32.45c0,0,0,.25-.09.82a17.29,17.29,0,0,0-.1,2.08c0,.63,0,1.11,0,1.43,0,.48.07.74.07.77,0,.29-.1.42-.3.4s-.35-.18-.34-.49a2.24,2.24,0,0,1,0-.48,3.18,3.18,0,0,0,0-.48,4.79,4.79,0,0,0-1.12-3.31,4.63,4.63,0,0,0-3.1-1.47,4.07,4.07,0,0,0-3,.72,3.07,3.07,0,0,0-1.16,2.56,3.19,3.19,0,0,0,1.08,2.52,7.4,7.4,0,0,0,3.42,1.39,14.18,14.18,0,0,1,3,.81,3.56,3.56,0,0,1,1.51,1.23,4.21,4.21,0,0,1,.73,2.51,3.73,3.73,0,0,1-1.42,3.12,5,5,0,0,1-3.73.87,7.37,7.37,0,0,1-2.87-.88,5.08,5.08,0,0,1-1.92-1.77C591.66,413,591.61,412.86,591.55,412.77Z"/><path class="cls-4" d="M606,405.74c0,.09,0,.34,0,.76v4.83a14.18,14.18,0,0,0,.27,3.29,2,2,0,0,0,1.89,1.64,1.62,1.62,0,0,0,1.65-.64,5.17,5.17,0,0,0,.48-2.66V412c0-.33.11-.48.31-.46s.31.19.31.51v.58a10.32,10.32,0,0,1-.23,2.51c-.29,1.15-1.13,1.67-2.52,1.54-1.84-.16-2.76-1.57-2.76-4.2v-6.08a2.41,2.41,0,0,0-.1-.92c-.07-.12-.26-.19-.56-.22l-.69,0h-.53c-.29,0-.43-.15-.44-.37s.14-.26.42-.23l.55.08a4.66,4.66,0,0,0,.55.09c.47,0,.76-.07.87-.36a2.86,2.86,0,0,0,.09-.88v-.12a6.87,6.87,0,0,1,.06-1.2c0-.16.12-.23.26-.22s.25.15.26.39v.05c0,.36,0,.73-.07,1.1a4.33,4.33,0,0,0-.07.86c0,.34.22.53.67.57l.77.07c.18,0,.43,0,.78,0l.78,0c.31,0,.46.15.47.34s-.17.29-.51.26h-.05l-.71-.08-.76-.12-.75-.09C606.26,405.44,606,405.53,606,405.74Z"/><path class="cls-4" d="M622.35,411.08c0,.32-.08.5-.22.55a1.86,1.86,0,0,1-.68.05c-2.71-.21-5.42-.42-8.13-.65-.22,0-.35,0-.41.06a.81.81,0,0,0-.08.45,5.81,5.81,0,0,0,1.25,3.82,4.54,4.54,0,0,0,3.28,1.68,3.82,3.82,0,0,0,3.42-1.27,3.54,3.54,0,0,0,.69-1.26c0-.05,0-.24.12-.57s.18-.38.34-.36.28.12.28.34a2.77,2.77,0,0,1-.25,1,4,4,0,0,1-1.76,2,4.85,4.85,0,0,1-2.82.56,5.29,5.29,0,0,1-3.77-1.9,6.54,6.54,0,0,1-1.42-4.31,5.91,5.91,0,0,1,1.48-4.25,4.51,4.51,0,0,1,3.83-1.38,5,5,0,0,1,3.44,1.73A5.3,5.3,0,0,1,622.35,411.08Zm-9.42-.95c0,.23.17.35.5.38q3.95.33,7.91.63a.31.31,0,0,0,.39-.34,5,5,0,0,0-1-2.88,4.23,4.23,0,0,0-3.27-1.79,4,4,0,0,0-2.72.66,4.31,4.31,0,0,0-1.62,2.36A3.1,3.1,0,0,0,612.93,410.13Z"/><path class="cls-4" d="M626.94,409a4,4,0,0,1,4.12-2.33,4.73,4.73,0,0,1,3.54,1.76,6.53,6.53,0,0,1,1.31,4.26A6.31,6.31,0,0,1,634.5,417a4.3,4.3,0,0,1-3.71,1.46,4.36,4.36,0,0,1-3.85-2.44V418a16.22,16.22,0,0,0,.19,3.29c.12.38.47.59,1.06.63h1a.28.28,0,0,1,.14,0q.48,0,.48.33c0,.19-.14.27-.43.25h-.07l-.81-.17-1.6-.11-.46,0-.64,0-1-.07-.81.06h-.07c-.29,0-.44-.12-.44-.31s.17-.28.51-.26l.12,0,.5.06.5.06c.58,0,.94-.12,1.06-.48a14.66,14.66,0,0,0,.19-3.24v-9.42c0-.8-.15-1.27-.35-1.4a1.2,1.2,0,0,0-.6-.16c-.09,0-.35,0-.77,0h-.69c-.31,0-.47-.13-.47-.33s.13-.29.39-.27h.07l.67.1.53,0,.27,0,.54,0h.55a.45.45,0,0,1,.45.52.88.88,0,0,1,0,.23Zm3.94,9.05a3.64,3.64,0,0,0,3.2-1.3,6,6,0,0,0,1.19-3.93,6.73,6.73,0,0,0-1.09-4.08,3.91,3.91,0,0,0-3.1-1.6,3.51,3.51,0,0,0-3,1.11,3.76,3.76,0,0,0-.9,1.54,10.19,10.19,0,0,0-.23,2.41c0,1.14,0,1.88.07,2.24a3.88,3.88,0,0,0,.83,2.05A4.07,4.07,0,0,0,630.88,418Z"/><path class="cls-4" d="M640.49,409.48a5.3,5.3,0,0,1,1.2-1.3,4.75,4.75,0,0,1,3-.79A4.8,4.8,0,0,1,647,408a3,3,0,0,1,1.4,1.83,9.61,9.61,0,0,1,.19,2.33v2.67a15.9,15.9,0,0,0,.18,3.25c.12.37.48.57,1.06.6l.49,0,.48,0h.11c.34,0,.51.11.51.28s-.15.27-.44.25h-.07l-.8-.1-1-.11-.64,0-.46,0-.62,0-.92,0-.76,0h-.09c-.29,0-.44-.11-.44-.28s.17-.27.51-.25h.11l.46,0,.44,0c.58,0,.93-.15,1.06-.51a15.64,15.64,0,0,0,.18-3.23v-2.56a12.54,12.54,0,0,0-.07-1.7,3,3,0,0,0-.67-1.57,3.48,3.48,0,0,0-2.64-1.16,3.85,3.85,0,0,0-2.77.9,4.06,4.06,0,0,0-1.31,3.27v2.46a14.92,14.92,0,0,0,.19,3.24c.12.38.46.59,1,.62l.45,0,.45,0h.12c.34,0,.5.11.5.28s-.15.26-.44.25h-.06l-.79-.11-.92-.12-.6,0-.46,0-.64,0-1,0-.8,0h-.07c-.29,0-.44-.11-.44-.28s.17-.26.51-.24h.11l.5,0,.49,0c.59,0,.94-.14,1.06-.5a15.37,15.37,0,0,0,.19-3.24c0-2.69,0-5.37,0-8.06a9.94,9.94,0,0,0-.18-2.61c-.11-.22-.37-.34-.77-.37a5.21,5.21,0,0,0-.76,0,6.17,6.17,0,0,1-.69.05c-.3,0-.46-.12-.46-.32s.14-.29.42-.28h0l.67,0,.92,0,.43,0,.42,0a.51.51,0,0,1,.55.58Z"/><path class="cls-4" d="M660.5,417.4l0-.19-.09.16a5,5,0,0,1-.85,1,4.63,4.63,0,0,1-3.53,1.29,4.08,4.08,0,0,1-2.69-1,3,3,0,0,1-1-2.31,2.85,2.85,0,0,1,.74-2,3.28,3.28,0,0,1,2-1,16.66,16.66,0,0,1,2-.17,5.48,5.48,0,0,0,2.7-.57,1.78,1.78,0,0,0,.84-1.64,2.29,2.29,0,0,0-.91-1.88,3.89,3.89,0,0,0-2.38-.77,4.41,4.41,0,0,0-2.56.58,1.86,1.86,0,0,0-1,1.64c0,.25.06.37.2.37s.08,0,.14-.08a.81.81,0,0,1,0-.14.57.57,0,0,1,.62-.37.66.66,0,0,1,.69.76.88.88,0,0,1-.31.67,1,1,0,0,1-.75.26,1.29,1.29,0,0,1-.91-.43,1.43,1.43,0,0,1-.38-1,2.36,2.36,0,0,1,1.19-2,5,5,0,0,1,3-.73,4.52,4.52,0,0,1,2.83.94,3.74,3.74,0,0,1,1.13,3v5.73c0,1.24.45,1.87,1.22,1.89s1.27-.53,1.26-1.67v-1.12q0-.67.3-.66c.19,0,.28.16.28.47v.92c0,1.71-.67,2.55-1.87,2.52s-1.72-.72-1.79-2.07Zm-4.4,1.84a4.22,4.22,0,0,0,4.4-4.26v-2.23c0-.15,0-.23-.09-.23a1.56,1.56,0,0,0-.26.27c-.49.58-1.57.9-3.27.95a9,9,0,0,0-2.2.27,2.5,2.5,0,0,0-1.76,2.44,2.5,2.5,0,0,0,.9,1.95A3.61,3.61,0,0,0,656.1,419.24Z"/><path class="cls-4" d="M668.14,409.35v1.24a4.2,4.2,0,0,1,2.05-1.94,5.67,5.67,0,0,1,2.19-.4,4.83,4.83,0,0,1,2.72.76,3.2,3.2,0,0,1,1.34,2.05,16.92,16.92,0,0,1,.18,2.83v1.7a15.9,15.9,0,0,0,.18,3.25c.13.37.48.56,1.06.56H679c.34,0,.51.09.51.26s-.15.27-.44.27H679l-.81-.08-1-.07h-1.75l-1,.05-.8.06h-.1c-.28,0-.41-.09-.41-.26s.17-.27.51-.27h1.08c.59,0,1-.17,1.07-.53a16.1,16.1,0,0,0,.17-3.25v-1.73c0-1.95-.22-3.22-.64-3.82a3.58,3.58,0,0,0-3.09-1.33,3.72,3.72,0,0,0-3.71,2,6.29,6.29,0,0,0-.44,2.73v2a15.51,15.51,0,0,0,.19,3.24c.12.37.47.56,1.06.58h1.08q.51,0,.51.27c0,.18-.14.27-.42.26h-.09l-.81-.08-.94-.09H667l-1,.05-.8.05h-.07c-.3,0-.44-.09-.44-.26s.16-.27.51-.26h1.08c.6,0,1-.16,1.08-.53a15,15,0,0,0,.18-3.24v-3.61c0-1.1,0-1.58,0-1.45,0-.79-.14-1.26-.34-1.38a1.11,1.11,0,0,0-.6-.13l-.76,0-.69,0c-.31,0-.46-.11-.46-.31s.14-.3.41-.29l.72.06.53,0h.43l.44,0a2.5,2.5,0,0,1,.44,0c.22,0,.35.06.4.16A2.14,2.14,0,0,1,668.14,409.35Z"/><path class="cls-4" d="M683.67,415.64a15.84,15.84,0,0,0,.18,3.24c.13.37.48.55,1.06.55H686c.33,0,.5.09.5.26s-.14.27-.41.27H686l-.81-.07-1-.07h-1.75l-1,.06-.81.07h-.07c-.29,0-.44-.09-.44-.26s.17-.27.51-.27h1.11c.58,0,.93-.19,1.06-.55a15.9,15.9,0,0,0,.18-3.25v-5.06c0-.79-.15-1.25-.35-1.38a1.12,1.12,0,0,0-.59-.11l-.76,0-.63,0h-.07c-.3,0-.46-.1-.46-.3s.13-.3.39-.3h.07l.7.08h1.1l.42,0a2.61,2.61,0,0,1,.41,0c.24,0,.37.18.37.53Zm-.53-10.49a.79.79,0,0,1,.59.25.85.85,0,0,1,.24.6.82.82,0,0,1-.24.59.78.78,0,0,1-.57.24.89.89,0,0,1-.61-.25.84.84,0,0,1,.59-1.43Z"/><path class="cls-4" d="M697.76,413.29c0,.32-.07.52-.21.58a1.87,1.87,0,0,1-.68.1q-4.08.06-8.16.07a.57.57,0,0,0-.4.1c-.06.06-.08.21-.08.46a5.41,5.41,0,0,0,1.25,3.71,4.55,4.55,0,0,0,6.72-.19,3.8,3.8,0,0,0,.69-1.32,5.19,5.19,0,0,1,.12-.57c0-.27.17-.4.34-.4s.28.1.28.32a3.11,3.11,0,0,1-.26,1,4.44,4.44,0,0,1-1.76,2.17,5.15,5.15,0,0,1-2.82.8A4.81,4.81,0,0,1,689,418.6a6,6,0,0,1-1.43-4.18,6.46,6.46,0,0,1,1.49-4.39,5,5,0,0,1,3.83-1.72,4.6,4.6,0,0,1,3.46,1.43A4.86,4.86,0,0,1,697.76,413.29Zm-9.44-.12c0,.23.17.34.51.34q4,0,7.92-.06c.26,0,.39-.13.39-.38a4.42,4.42,0,0,0-1-2.79,3.84,3.84,0,0,0-3.27-1.51,4.34,4.34,0,0,0-2.73.91,4.8,4.8,0,0,0-1.62,2.5A3.32,3.32,0,0,0,688.32,413.17Z"/><path class="cls-4" d="M710,418.92l5.23-.17a3.49,3.49,0,0,0,2-.43,2.26,2.26,0,0,0,.43-1.66,3.06,3.06,0,0,1,0-.32v-1.28c0-.29-.05-.57-.07-.85v-.09c0-.5.12-.74.35-.75s.32.19.32.61v.09c0,.3,0,.6-.07.9-.05.6-.07,1.23-.07,1.91,0,.47,0,.9.05,1.28,0,.19,0,.35,0,.49,0,.32-.07.51-.2.58a1.47,1.47,0,0,1-.61.11l-.32,0c-.25,0-.72,0-1.45,0l-2.76,0-2.47.08-2.6.07-.53,0a5.92,5.92,0,0,0-.67,0l-.57.06h-.09c-.44,0-.65-.09-.65-.31s.19-.35.58-.36l.14,0,.62,0a4.17,4.17,0,0,0,.76,0,.84.84,0,0,0,.87-.53,3.58,3.58,0,0,0,.09-1.1V406.2A2.25,2.25,0,0,0,708,405a1,1,0,0,0-.86-.31l-.72.06-.57,0c-.34,0-.51-.09-.51-.29s.16-.3.48-.31h.1l.5,0c.2,0,.51,0,.93.05s.74.05.94,0l.64,0,1.25-.12.64-.07.53-.06h.07c.31,0,.46.07.46.26s-.16.33-.49.34h-.55a7.36,7.36,0,0,0-.75,0,1,1,0,0,0-1,.46,2.41,2.41,0,0,0-.19,1.13v11.76c0,.52.13.83.37.93A2.37,2.37,0,0,0,710,418.92Z"/><path class="cls-4" d="M721.32,417.21a1.1,1.1,0,0,1,.8.27,1,1,0,0,1,.33.74,1.06,1.06,0,0,1-.32.78,1.12,1.12,0,0,1-.79.34,1,1,0,0,1-1.1-1,1.08,1.08,0,0,1,.31-.76A1.06,1.06,0,0,1,721.32,417.21Z"/><path class="cls-4" d="M733.77,408.43v3.82q4.4-4.26,8.79-8.57a.69.69,0,0,0,.23-.38c0-.19-.19-.27-.55-.24h-.12l-.71.09-.71.07-.07,0c-.45,0-.67-.06-.67-.27s.18-.32.53-.34l.9,0a18.42,18.42,0,0,0,1.93,0,24.29,24.29,0,0,0,2.57-.36c.37,0,.56.07.55.28s-.18.31-.52.34a2.77,2.77,0,0,1-.51,0h-.62a2.81,2.81,0,0,0-1.47.89c-.23.2-.45.41-.67.62l-4.3,4.21c-.17.16-.25.29-.25.38a.76.76,0,0,0,.18.33l2.44,3.21q2.25,3,2.87,3.67a3.58,3.58,0,0,0,1.2,1,2.17,2.17,0,0,0,.94.08l.39,0a5,5,0,0,0,.51-.1h0c.29,0,.43.07.43.27s-.17.31-.5.33a8.32,8.32,0,0,1-.85,0,15.72,15.72,0,0,0-1.82,0l-.83.1-1,.16a6.19,6.19,0,0,1-.9.13c-.4,0-.6-.05-.6-.23s.2-.34.6-.37h.11l.65,0,.66,0c.49,0,.74-.16.74-.37a1,1,0,0,0-.28-.54l-.73-1c-1.5-1.94-3-3.88-4.51-5.83-.15-.19-.28-.28-.37-.27a.7.7,0,0,0-.34.22l-3.08,3c-.16.15-.24.27-.24.38a1.13,1.13,0,0,0,0,.23v3.13a2.36,2.36,0,0,0,.19,1.14,1,1,0,0,0,1,.36q.38,0,.72-.09l.57-.06c.34,0,.51.08.51.29s-.16.29-.48.31h-.6c-.14,0-.35,0-.65,0a10.89,10.89,0,0,0-1.24,0l-.64,0c-.16,0-.56.07-1.2.16s-1,.15-1.17.16h-.1c-.31,0-.48-.07-.48-.25s.17-.33.5-.35a5.14,5.14,0,0,1,.56,0q.25,0,.69,0a1,1,0,0,0,.92-.52,2.79,2.79,0,0,0,.19-1.11V405.18a2.68,2.68,0,0,0-.19-1.09.86.86,0,0,0-.92-.41c-.09,0-.32,0-.68.1a5.51,5.51,0,0,1-.57.06c-.33,0-.5-.08-.5-.29s.16-.32.48-.33h.1l.5,0,.67.07h1.2l.55,0q.71,0,1.35-.15l.65-.11.53-.07h0c.33,0,.49.07.49.26s-.17.35-.49.37a5.4,5.4,0,0,1-.57,0,7.45,7.45,0,0,0-.75,0,1.07,1.07,0,0,0-1,.49,2.48,2.48,0,0,0-.19,1.14Z"/><path class="cls-4" d="M751.32,413.1a15.57,15.57,0,0,0,.18,3.23c.13.36.47.52,1.06.47l.48,0,.48,0h.12c.34,0,.5.05.5.22s-.13.28-.41.31h-1.84l-.66.05-.44,0-.64.05-1,.14-.8.13h-.07c-.29,0-.44,0-.44-.22s.17-.29.51-.31h.11l.49,0,.5,0c.59-.05.93-.26,1.06-.64a16,16,0,0,0,.18-3.25v-5.06c0-.8-.15-1.25-.34-1.36a1.26,1.26,0,0,0-.6-.07c-.09,0-.35,0-.76.11l-.62.09h-.07c-.31,0-.46-.06-.46-.26s.13-.31.39-.33H749l1.1-.08a2.39,2.39,0,0,0,.42-.07l.41-.06c.25,0,.37.15.37.5Zm-.53-10.45a.77.77,0,0,1,.83.79.94.94,0,0,1-.24.61.84.84,0,0,1-.57.28.8.8,0,0,1-.61-.19.75.75,0,0,1-.24-.57.88.88,0,0,1,.24-.63A.9.9,0,0,1,750.79,402.65Z"/><path class="cls-4" d="M758.42,407.44a4.43,4.43,0,0,1,3.6-2.52,3.17,3.17,0,0,1,2.27.56,2.55,2.55,0,0,1,.48,3.3,1.39,1.39,0,0,1-1,.63c-.55,0-.83-.18-.83-.68a.69.69,0,0,1,.69-.76.61.61,0,0,1,.37.11c.12.08.2.12.25.11s.3-.3.3-.85a1.79,1.79,0,0,0-.71-1.51,2.6,2.6,0,0,0-1.86-.44,3.45,3.45,0,0,0-2.88,1.72,7.17,7.17,0,0,0-.66,3.46v2a14.72,14.72,0,0,0,.18,3.22c.12.36.48.52,1.06.46l.48,0,.48,0h.12c.33,0,.51,0,.5.21s-.14.29-.43.31H759l-.69.06-.41,0-.67.05-.94.15-.8.14h-.07c-.29,0-.44-.05-.44-.22s.17-.29.51-.31h.11l.49,0,.48,0c.6-.05,1-.27,1.08-.65a16,16,0,0,0,.18-3.25v-5.06c0-.8-.14-1.25-.34-1.35a1.13,1.13,0,0,0-.6-.07l-.76.11-.69.1c-.31,0-.46-.06-.46-.26s.13-.31.39-.33.38,0,.74,0l.53,0,.34,0,.74-.12.11,0h.12c.32,0,.47.12.48.45Z"/><path class="cls-4" d="M769.3,410.79c1.93-1.9,3.86-3.82,5.78-5.74a.55.55,0,0,0,.21-.39c0-.18-.15-.26-.44-.23l-.32,0-.5.07-.6.11c-.32,0-.48,0-.48-.25s.16-.31.46-.35h.71a17.41,17.41,0,0,0,1.93-.11,16.83,16.83,0,0,0,1.88-.32,6.75,6.75,0,0,1,.69-.12c.3,0,.46,0,.46.23s-.16.31-.49.35H778l-.46.05a3.8,3.8,0,0,0-2.11,1.24L772.88,408q-.27.28-.27.42s.06.15.18.31l3.81,5a1.5,1.5,0,0,0,1.49.67l.6-.11.55-.1q.48-.06.48.24c0,.2-.19.32-.58.36a5.9,5.9,0,0,1-.82,0c-.17,0-.48,0-.94,0l-.74.06-.94.17-.87.16-.73.12H774c-.32,0-.49,0-.49-.2s.17-.27.49-.3l.57-.06.48,0c.66-.07,1-.24,1-.5a1,1,0,0,0-.23-.48l-.74-1-2.68-3.49c-.14-.19-.27-.27-.39-.26s-.19.09-.34.24l-2.37,2.37v1.2a9,9,0,0,0,.09,1.67,1,1,0,0,0,1.22.73l1-.1h.12c.33,0,.5,0,.5.19s-.14.28-.43.31h-.07l-.8,0-.95.05-.71,0-.46,0-.64.1-1,.13-.81.14h-.06c-.3,0-.44,0-.44-.21s.17-.27.5-.31h.12l1-.09c.6-.06,1-.27,1.08-.64a15.71,15.71,0,0,0,.19-3.25v-8a9.3,9.3,0,0,0-.18-2.62c-.11-.19-.37-.27-.77-.23-.23,0-.48.06-.75.11a4.22,4.22,0,0,0-.69.16c-.31,0-.46-.06-.46-.28s.13-.28.39-.31h.06l.67-.06,1-.1.4,0,.4,0a.39.39,0,0,1,.48.29c0,.08,0,.32,0,.71v9.64Z"/><path class="cls-2" d="M917.92,16.18H487L458,39.55C491.12,115,763.28,86.77,906.71,76.16,916,53.65,917.18,28.3,917.92,16.18Z"/><path class="cls-2" d="M917.92,16.18c-1.21,24.71-4.83,44.93-11.21,60l4.72,527c6.41-19,10.57-38.18,10.46-57.72Z"/><path class="cls-4" d="M607.69,530.3v6.86a7.92,7.92,0,0,1-.24,2.26,2.9,2.9,0,0,1-.93,1.33,5.37,5.37,0,0,1-4.18,1.11,6.45,6.45,0,0,1-4.11-1.91,5.51,5.51,0,0,1-1.31-4c0-2.82,0-5.65,0-8.47a3.15,3.15,0,0,0-.18-1.12,1.06,1.06,0,0,0-1-.56,6.93,6.93,0,0,0-.71,0,4.1,4.1,0,0,1-.57,0c-.32,0-.48-.15-.48-.35s.15-.28.48-.24h.07l.5.1c.22,0,.53.09.94.18s.73.14.94.17l.67.07q.3,0,.93,0a8.05,8.05,0,0,1,.93,0H600c.32,0,.48.14.48.32s-.16.31-.49.27l-.58-.08-.72-.12c-.48,0-.8.06-1,.34a2.24,2.24,0,0,0-.18,1.1v8.08a13.49,13.49,0,0,0,.09,1.94,4.16,4.16,0,0,0,.87,1.81,5.31,5.31,0,0,0,3.76,1.93,5.49,5.49,0,0,0,2.57-.32,3.09,3.09,0,0,0,1.89-1.61,6.07,6.07,0,0,0,.3-2.28v-6.9c0-.57,0-1.14-.07-1.7a2.28,2.28,0,0,0-.26-1.25,1.11,1.11,0,0,0-.89-.43l-.69,0-.55,0c-.32,0-.48-.15-.48-.34s.15-.29.46-.26h.09l.5.09c.2,0,.51.08.92.16a8.55,8.55,0,0,0,.92.16l.69.06c.18,0,.8,0,1.86,0h.59c.32,0,.49.14.49.32s-.17.31-.49.28l-.59-.07-.74-.12a.92.92,0,0,0-1,.37,3,3,0,0,0-.16,1.09Z"/><path class="cls-4" d="M614,532.18v1.24a3.81,3.81,0,0,1,2-1.8,5.35,5.35,0,0,1,2.18-.26,5,5,0,0,1,2.71.94,3.46,3.46,0,0,1,1.34,2.13,16.18,16.18,0,0,1,.18,2.84V539a16,16,0,0,0,.18,3.25c.13.38.48.59,1.06.63l.5,0,.49,0h.11c.34,0,.51.13.51.29s-.15.27-.44.25h-.07l-.8-.12-1-.14-.64-.05-.44,0-.66,0h-1.84c-.28,0-.41-.12-.41-.29s.17-.26.5-.23h.09l.5,0,.49,0c.6,0,1-.11,1.07-.46a15.91,15.91,0,0,0,.17-3.24v-1.72a7.71,7.71,0,0,0-.64-3.87,3.84,3.84,0,0,0-3.08-1.53,3.47,3.47,0,0,0-3.7,1.79,6.08,6.08,0,0,0-.44,2.7v2a15.09,15.09,0,0,0,.19,3.26c.12.37.47.59,1,.64l.49,0,.48,0h.11c.34,0,.51.12.51.29s-.14.27-.41.24h-.1l-.8-.14-.94-.15-.69-.06-.42,0-.64-.06H611c-.29,0-.43-.13-.43-.29s.17-.26.5-.23h.12l.48,0,.48,0c.6.05,1-.1,1.08-.46a15.89,15.89,0,0,0,.19-3.22v-3.61c0-1.11,0-1.59,0-1.45,0-.8-.15-1.27-.35-1.41a1.16,1.16,0,0,0-.6-.17c-.08,0-.34,0-.75,0l-.69,0c-.31,0-.46-.14-.46-.34s.14-.28.41-.26l.71.11.53.07.44,0h.87c.22,0,.35.08.4.19A2.44,2.44,0,0,1,614,532.18Z"/><path class="cls-4" d="M629.5,539.47a14.64,14.64,0,0,0,.18,3.26c.12.38.48.58,1.06.62l.48,0,.48,0h.12c.33,0,.51.12.5.29s-.14.26-.41.25h-.09l-.81-.12-.94-.13-.67-.05-.43,0-.65,0h-1l-.81,0h-.07c-.29,0-.43-.11-.43-.28s.17-.27.5-.24h.12l.49,0,.5,0q.87.06,1.05-.48a14.66,14.66,0,0,0,.19-3.24v-5.06c0-.79-.15-1.26-.35-1.4a1.21,1.21,0,0,0-.6-.15h-1.44c-.31,0-.47-.14-.46-.33s.13-.29.39-.28h.07l.69.12,1.1.07h.41a3.21,3.21,0,0,1,.42,0c.24,0,.37.2.37.55ZM629,529a.9.9,0,0,1,.58.29.87.87,0,0,1,.24.62.75.75,0,0,1-.24.57.74.74,0,0,1-.56.2.9.9,0,0,1-.61-.28.85.85,0,0,1-.24-.6.76.76,0,0,1,.83-.8Z"/><path class="cls-4" d="M633.47,533.2l-.41,0-.39,0c-.39,0-.58-.14-.58-.34s.15-.29.44-.27l.67,0a12,12,0,0,0,1.68.22l.8,0h1.08l.76,0c.29,0,.44.11.44.3s-.15.31-.46.29h-.07q-.51,0-.9-.09a4.13,4.13,0,0,0-.53-.06c-.58,0-.87.12-.87.45a4.18,4.18,0,0,0,.34,1.13l3.39,8.47a.59.59,0,0,0,.13.19c.07,0,.17-.16.3-.49q1.77-4.23,3.52-8.46a1.84,1.84,0,0,0,.1-.39c0-.35-.31-.54-.92-.57h-1.43c-.28,0-.42-.11-.41-.3s.16-.31.48-.29.72,0,1.3.12,1,.11,1.3.12c.47,0,1,0,1.63,0a4,4,0,0,1,.6,0c.26,0,.39.1.39.26s-.21.27-.62.25h-.46a1.17,1.17,0,0,0-.89.25,4.27,4.27,0,0,0-.7,1.29L639.55,544c-.16.37-.34.56-.53.55s-.42-.27-.62-.75q-1.85-4.57-3.68-9.16a6.07,6.07,0,0,0-.6-1.19A.81.81,0,0,0,633.47,533.2Z"/><path class="cls-4" d="M655.91,538.55c0,.32-.07.5-.22.56a1.72,1.72,0,0,1-.67.07q-4.08-.13-8.16-.33c-.21,0-.34,0-.4.08a.81.81,0,0,0-.08.45,5.62,5.62,0,0,0,1.26,3.78,4.39,4.39,0,0,0,3.28,1.55,4,4,0,0,0,3.43-1.41A3.67,3.67,0,0,0,655,542a4.05,4.05,0,0,1,.11-.57c.06-.26.18-.39.35-.38s.28.12.27.33a3,3,0,0,1-.25,1,4.21,4.21,0,0,1-1.76,2.09,5.43,5.43,0,0,1-6.6-1.09,6.22,6.22,0,0,1-1.42-4.25,6.13,6.13,0,0,1,1.48-4.31,4.71,4.71,0,0,1,3.84-1.53,4.79,4.79,0,0,1,3.45,1.59A5.16,5.16,0,0,1,655.91,538.55Zm-9.44-.59c0,.23.17.35.51.37,2.64.12,5.28.22,7.92.32q.39,0,.39-.36a4.74,4.74,0,0,0-1-2.84,4.06,4.06,0,0,0-3.27-1.66,4.13,4.13,0,0,0-2.73.77,4.5,4.5,0,0,0-1.62,2.42A3.54,3.54,0,0,0,646.47,538Z"/><path class="cls-4" d="M661.09,535.88a3.86,3.86,0,0,1,3.62-2.12,3.39,3.39,0,0,1,2.27.82,2.52,2.52,0,0,1,.88,2,2.12,2.12,0,0,1-.4,1.33,1.18,1.18,0,0,1-1,.52c-.56,0-.83-.27-.83-.77a.6.6,0,0,1,.69-.68.61.61,0,0,1,.37.15.58.58,0,0,0,.25.14c.2,0,.3-.27.3-.82a2,2,0,0,0-.71-1.59,2.79,2.79,0,0,0-1.87-.65,3,3,0,0,0-2.88,1.4,6.67,6.67,0,0,0-.67,3.38v2a15,15,0,0,0,.19,3.25c.12.37.47.56,1.06.58h1.08q.51,0,.51.27c0,.18-.16.27-.44.26h-.07l-.81-.09-.94-.09-.69,0h-.42l-.66,0-.95,0-.8.05h-.07c-.29,0-.44-.09-.44-.26s.17-.27.51-.26h.59l.49,0c.6,0,1-.16,1.08-.52a15.77,15.77,0,0,0,.18-3.24v-5.06c0-.8-.14-1.26-.34-1.39a1.27,1.27,0,0,0-.6-.13l-.76,0-.69,0c-.31,0-.46-.12-.46-.32s.12-.29.39-.28a6,6,0,0,1,.74.07,4.45,4.45,0,0,0,.53,0h.34a5.32,5.32,0,0,0,.74,0,.22.22,0,0,0,.11,0h.12a.45.45,0,0,1,.48.52Z"/><path class="cls-4" d="M673.91,545.76a4.52,4.52,0,0,1-4-2c0,.28.05.48.06.59a5.3,5.3,0,0,0,0,.82c0,.35-.1.52-.3.51s-.35-.15-.35-.46a7.16,7.16,0,0,1,.07-.86,13.26,13.26,0,0,0,.07-1.58,14.61,14.61,0,0,0-.07-1.68c0-.4-.07-.6-.07-.62,0-.26.11-.39.31-.39s.34.2.34.58c0,0,0,.09,0,.22a1.41,1.41,0,0,0,0,.42,4.49,4.49,0,0,0,0,.64,3,3,0,0,0,1.11,2.38,4.4,4.4,0,0,0,2.88.95,4.19,4.19,0,0,0,2.67-.75,2.43,2.43,0,0,0,1-2,1.87,1.87,0,0,0-.76-1.68,6.26,6.26,0,0,0-2.67-.79,13.07,13.07,0,0,1-3-.61,2.27,2.27,0,0,1-1-.93,2.56,2.56,0,0,1-.39-1.37,2.88,2.88,0,0,1,1.12-2.31,4.09,4.09,0,0,1,2.8-.9,4,4,0,0,1,3.5,1.92v-1.11q0-.66.27-.66c.19,0,.28.12.28.37a4.62,4.62,0,0,1-.07.57s0,.13,0,.3a3.93,3.93,0,0,0,0,.46c0,.29,0,.57,0,.85,0,.63,0,1,0,1.14s0,.26,0,.38v.21q0,.39-.3.39c-.18,0-.27-.13-.28-.37v0c0-.18.05-.35.07-.53s0-.23,0-.16a3.07,3.07,0,0,0-1-2.33,3.58,3.58,0,0,0-2.51-.92,3.64,3.64,0,0,0-2.37.71,2.33,2.33,0,0,0-.93,1.91,1.85,1.85,0,0,0,.72,1.63,6.33,6.33,0,0,0,2.66.74,10.93,10.93,0,0,1,3,.67,2.28,2.28,0,0,1,1.43,2.27,3.06,3.06,0,0,1-1.21,2.51A4.71,4.71,0,0,1,673.91,545.76Z"/><path class="cls-4" d="M683.5,541.27a14.79,14.79,0,0,0,.19,3.24c.12.37.47.55,1.06.55h1.08c.34,0,.51.08.51.25s-.14.28-.42.28h-.09l-.81-.07-.94-.07h-1.75l-1,.07-.8.07h-.07c-.29,0-.44-.09-.44-.26s.17-.27.51-.27h1.1c.58,0,.94-.18,1.06-.55a15.84,15.84,0,0,0,.18-3.24v-5.06c0-.8-.14-1.26-.34-1.38a1.15,1.15,0,0,0-.6-.12l-.76,0-.62,0h-.07c-.31,0-.46-.1-.46-.3s.13-.3.39-.3h.07l.69.07h1.11a2.35,2.35,0,0,0,.41,0l.42,0c.24,0,.37.17.36.53ZM683,530.78a.76.76,0,0,1,.59.25.86.86,0,0,1,0,1.19.76.76,0,0,1-.56.24.82.82,0,0,1-.61-.24.78.78,0,0,1-.25-.59.83.83,0,0,1,.25-.61A.78.78,0,0,1,683,530.78Z"/><path class="cls-4" d="M689.61,535a4.53,4.53,0,0,0,0,.76v4.83a13.86,13.86,0,0,0,.27,3.27,1.79,1.79,0,0,0,1.89,1.45,1.82,1.82,0,0,0,1.66-.81,5.47,5.47,0,0,0,.48-2.71v-.92c0-.32.11-.48.31-.49s.31.16.31.48v.58a10.56,10.56,0,0,1-.23,2.53,2.3,2.3,0,0,1-2.53,1.8q-2.76,0-2.76-3.93v-6.07a2.24,2.24,0,0,0-.11-.91c-.06-.12-.25-.17-.56-.17l-.69,0-.53,0c-.3,0-.44-.11-.44-.32s.14-.28.41-.28l.56,0,.55,0c.47,0,.77-.15.88-.44a3.06,3.06,0,0,0,.09-.9v-.11a7.39,7.39,0,0,1,.05-1.21c0-.16.13-.24.27-.24s.26.12.25.36v0c0,.37,0,.73-.07,1.1a5.61,5.61,0,0,0-.06.88c0,.33.22.5.67.5H691c.17,0,.44,0,.78,0s.62,0,.79,0,.46.09.46.29-.17.3-.5.31h0l-.71,0-.76,0c-.32,0-.58,0-.76,0C689.86,534.69,689.64,534.8,689.61,535Z"/><path class="cls-4" d="M706,535.28c-.15.34-.29.69-.44,1l-3.87,9.4a11.67,11.67,0,0,1-1.47,2.61,3.73,3.73,0,0,1-3,1.48,3.13,3.13,0,0,1-2.07-.62,2,2,0,0,1-.83-1.63,1.25,1.25,0,0,1,.33-.86,1,1,0,0,1,.77-.38.82.82,0,0,1,.57.22.74.74,0,0,1,.24.55c0,.48-.26.72-.76.73a.58.58,0,0,1-.28-.07l-.09,0c-.09,0-.14.08-.14.23a1.23,1.23,0,0,0,.7,1,2.81,2.81,0,0,0,1.56.42,3.82,3.82,0,0,0,3.39-2.46,2.91,2.91,0,0,0,.39-1.11,2.14,2.14,0,0,0-.16-.62q-1.78-4.44-3.55-8.89a6.07,6.07,0,0,0-.51-1.12,1.14,1.14,0,0,0-1-.47h-.48c-.31,0-.46-.08-.47-.25s.16-.3.47-.31l.62.06a7.81,7.81,0,0,0,1.49.07c.36,0,.86,0,1.5-.12.43,0,.74-.08.92-.08.39,0,.58.08.58.28s-.17.26-.51.27H698.5c-.61,0-.92.17-.92.45a1.48,1.48,0,0,0,.09.44l.23.71,3.27,8.29c.07.19.14.29.18.29s.11-.1.19-.3l3.71-9.18a1.4,1.4,0,0,0,.09-.34c0-.34-.32-.5-1-.49l-.66.07c-.3,0-.51.06-.65.06-.31,0-.46-.09-.46-.3s.15-.34.44-.35l.67,0a2.27,2.27,0,0,0,.71.08l.88,0a10.85,10.85,0,0,0,1.72-.16l.65-.07c.27,0,.41.07.41.24s-.19.31-.55.32h-.62a.83.83,0,0,0-.59.18A2.23,2.23,0,0,0,706,535.28Z"/><path class="cls-4" d="M721.85,537.84l-3.43.15c-.32,0-.49.18-.49.49v4.25a2.35,2.35,0,0,0,.27,1.24,1,1,0,0,0,.9.3,6,6,0,0,0,.64-.08,5.83,5.83,0,0,1,.65-.07q.51,0,.51.3c0,.2-.16.3-.48.32s-.65,0-1.24,0l-1.25-.06-.64,0-1.2.16c-.6.09-1,.13-1.24.14s-.51-.07-.51-.26.17-.35.5-.36l.57,0a6.52,6.52,0,0,0,.7,0A1,1,0,0,0,717,544a2.54,2.54,0,0,0,.26-1.27V531.48a2.31,2.31,0,0,0-.18-1.11.9.9,0,0,0-.93-.4l-.7,0-.57,0c-.33,0-.5-.08-.5-.27s.17-.29.49-.3h.09l.5,0,.67,0,.28,0a2.79,2.79,0,0,0,.5,0l.26,0h.16l1.17,0c.16,0,.89-.08,2.19-.22.68-.07,1.27-.12,1.79-.14a5.31,5.31,0,0,1,3.8,1,3.94,3.94,0,0,1,1.31,3.17,4.1,4.1,0,0,1-1.45,3.36,5,5,0,0,1-2,1A15.29,15.29,0,0,1,721.85,537.84Zm-3.89-7.3a3.51,3.51,0,0,0,0,.53v5.82a.53.53,0,0,0,.44.58,7.4,7.4,0,0,0,.88,0h.23l2-.09.41,0a6.25,6.25,0,0,0,3.82-1.08,3.67,3.67,0,0,0,1.17-2.88,3.41,3.41,0,0,0-1.26-2.92,5.24,5.24,0,0,0-3.41-.74c-.78,0-1.73.11-2.85.22l-.88.06A.56.56,0,0,0,718,530.54Z"/><path class="cls-4" d="M732.41,534.72a4.29,4.29,0,0,1,3.61-2.43,3.16,3.16,0,0,1,2.26.62,2.36,2.36,0,0,1,.89,1.93,2.39,2.39,0,0,1-.4,1.38,1.32,1.32,0,0,1-1,.6c-.55,0-.82-.19-.82-.7a.66.66,0,0,1,.69-.74.58.58,0,0,1,.36.12.6.6,0,0,0,.26.12c.2,0,.3-.3.3-.85a1.85,1.85,0,0,0-.72-1.53,2.63,2.63,0,0,0-1.86-.48,3.35,3.35,0,0,0-2.88,1.65,7.05,7.05,0,0,0-.66,3.44v2a14.9,14.9,0,0,0,.18,3.23c.12.36.48.52,1.06.49l.48,0,.49,0h.11c.34,0,.51,0,.51.22s-.15.29-.44.3h-.07l-.8,0H733l-.69,0-.41,0-.67,0-.94.13-.81.11h-.07c-.29,0-.43-.07-.43-.23s.17-.29.5-.31h.12l.48,0,.48,0c.6,0,1-.24,1.09-.61a17,17,0,0,0,.18-3.26v-5.06c0-.79-.15-1.25-.35-1.36a1.17,1.17,0,0,0-.59-.08l-.76.09-.69.09c-.31,0-.46-.08-.46-.28s.13-.3.39-.32h1.26l.35,0c.17,0,.41,0,.73-.09l.12,0h.11c.33,0,.49.14.49.48Z"/><path class="cls-4" d="M750.68,536.25c0,.32-.07.52-.21.59a1.71,1.71,0,0,1-.68.15c-2.71.22-5.43.43-8.14.62a.64.64,0,0,0-.4.12.81.81,0,0,0-.08.47,5.11,5.11,0,0,0,1.25,3.63A3.88,3.88,0,0,0,745.7,543a4.56,4.56,0,0,0,3.42-1.81,4,4,0,0,0,.69-1.37,5.11,5.11,0,0,1,.12-.58c.06-.27.17-.41.34-.42s.28.08.28.3a2.92,2.92,0,0,1-.26,1,4.88,4.88,0,0,1-1.75,2.29,5.44,5.44,0,0,1-2.82,1,4.47,4.47,0,0,1-3.77-1.3,5.63,5.63,0,0,1-1.42-4.09,6.82,6.82,0,0,1,1.48-4.49,5.31,5.31,0,0,1,3.83-2,4.27,4.27,0,0,1,3.44,1.19A4.53,4.53,0,0,1,750.68,536.25Zm-9.42.52c0,.23.17.33.51.31,2.63-.19,5.27-.39,7.9-.61.27,0,.4-.15.39-.4a4.2,4.2,0,0,0-1-2.72,3.58,3.58,0,0,0-3.26-1.29,4.65,4.65,0,0,0-2.72,1.09,5.37,5.37,0,0,0-1.63,2.62A3.66,3.66,0,0,0,741.26,536.77Z"/><path class="cls-4" d="M757.59,542.46a4,4,0,0,1-4-1.58c0,.28,0,.48.06.59,0,.62,0,.9,0,.82,0,.34-.09.52-.29.54s-.35-.12-.35-.43,0-.47.07-.87a15.81,15.81,0,0,0,.07-1.58c0-.72,0-1.28-.07-1.67s-.07-.6-.07-.62c0-.26.1-.4.31-.41s.33.16.33.54a1,1,0,0,1,0,.22,2.77,2.77,0,0,0,0,.42c0,.22,0,.43,0,.64a2.68,2.68,0,0,0,1.11,2.28,4.05,4.05,0,0,0,2.87.65,4.56,4.56,0,0,0,2.66-1,2.74,2.74,0,0,0,1-2.14,1.73,1.73,0,0,0-.76-1.61,6,6,0,0,0-2.66-.51,11.4,11.4,0,0,1-3-.31,2,2,0,0,1-1-.81,2.41,2.41,0,0,1-.39-1.34,3.23,3.23,0,0,1,1.11-2.42,4.58,4.58,0,0,1,2.79-1.19,3.54,3.54,0,0,1,3.49,1.56v-1.1c0-.45.09-.68.28-.69s.27.09.27.34a4,4,0,0,1-.06.58s0,.13,0,.3,0,.32,0,.46,0,.57,0,.85c0,.63,0,1,0,1.14s0,.26,0,.38v.2q0,.39-.3.42c-.18,0-.28-.09-.28-.34v0l.06-.54c0-.19,0-.24,0-.16a2.77,2.77,0,0,0-.95-2.24,3.27,3.27,0,0,0-2.5-.66,3.9,3.9,0,0,0-2.36,1,2.58,2.58,0,0,0-.94,2,1.66,1.66,0,0,0,.73,1.56,5.92,5.92,0,0,0,2.65.46,10.09,10.09,0,0,1,3,.36,2,2,0,0,1,1.42,2.12,3.45,3.45,0,0,1-1.2,2.64A5.22,5.22,0,0,1,757.59,542.46Z"/><path class="cls-4" d="M768.88,541.35a4,4,0,0,1-4-1.52c0,.28,0,.48.05.58,0,.63,0,.9,0,.83q0,.51-.3.54c-.23,0-.34-.12-.34-.42a7.29,7.29,0,0,1,.07-.87c0-.4.07-.92.07-1.58s0-1.28-.07-1.68-.07-.59-.07-.61c0-.26.1-.4.31-.42s.33.16.33.53c0,0,0,.09,0,.22a3,3,0,0,0,0,.43c0,.21,0,.43,0,.64a2.64,2.64,0,0,0,1.1,2.26,4,4,0,0,0,2.87.62,4.72,4.72,0,0,0,2.66-1.07,2.78,2.78,0,0,0,1-2.16,1.68,1.68,0,0,0-.76-1.59,5.76,5.76,0,0,0-2.66-.48,12,12,0,0,1-3-.26,1.92,1.92,0,0,1-1-.81,2.38,2.38,0,0,1-.39-1.33,3.22,3.22,0,0,1,1.11-2.43,4.66,4.66,0,0,1,2.79-1.23,3.48,3.48,0,0,1,3.48,1.51V530c0-.45.1-.68.28-.7s.27.09.27.34a4.92,4.92,0,0,1-.07.58,2.48,2.48,0,0,1,0,.3c0,.17,0,.33,0,.46l0,.86a11.26,11.26,0,0,0,0,1.13c0,.13,0,.26,0,.38v.2c0,.27-.1.41-.3.43s-.27-.09-.27-.34v-.05l.06-.53c0-.19,0-.24,0-.17a2.75,2.75,0,0,0-1-2.22,3.3,3.3,0,0,0-2.5-.63,4.08,4.08,0,0,0-2.36,1,2.65,2.65,0,0,0-.93,2,1.64,1.64,0,0,0,.72,1.55,5.9,5.9,0,0,0,2.65.43,10,10,0,0,1,3,.32,2,2,0,0,1,1.42,2.1,3.5,3.5,0,0,1-1.2,2.65A5.22,5.22,0,0,1,768.88,541.35Z"/><path class="cls-4" d="M638.17,560.31a5.37,5.37,0,0,1,3.92,1.87,6.48,6.48,0,0,1,1.51,4.4,5.78,5.78,0,0,1-1.51,4.15,4.81,4.81,0,0,1-3.92,1.43,5.19,5.19,0,0,1-3.85-1.93,6.75,6.75,0,0,1-1.49-4.46,5.57,5.57,0,0,1,1.49-4.07A4.81,4.81,0,0,1,638.17,560.31Zm0,11.39a4.19,4.19,0,0,0,3.45-1.3,5.34,5.34,0,0,0,1.33-3.79,6.29,6.29,0,0,0-1.32-4.1,4.61,4.61,0,0,0-3.44-1.74,4.13,4.13,0,0,0-3.42,1.29,5.36,5.36,0,0,0-1.3,3.8,6.35,6.35,0,0,0,1.29,4.11A4.5,4.5,0,0,0,638.17,571.7Z"/><path class="cls-4" d="M650.85,572.54l-.81-.11-.94-.1-.67,0-.44,0-.64,0-1,0-.8,0h-.07c-.3,0-.44-.1-.44-.27s.17-.27.51-.25h.11l.5,0,.49,0c.59,0,.94-.14,1.06-.51a15.7,15.7,0,0,0,.18-3.24v-6c0-.41-.14-.63-.41-.64s-.38,0-.74,0a6,6,0,0,1-.66,0c-.36,0-.54-.13-.53-.34s.13-.27.39-.26H646l.66.08a2.7,2.7,0,0,0,.7.08h0c.23,0,.37,0,.43-.1a1.6,1.6,0,0,0,.08-.62c0-2.6,1.22-3.85,3.59-3.76a3.24,3.24,0,0,1,1.83.58,1.58,1.58,0,0,1,.72,1.29c0,.69-.31,1-.94,1a.69.69,0,0,1-.76-.79c0-.46.21-.68.62-.66.13,0,.19,0,.19-.11s-.15-.34-.44-.5a2.86,2.86,0,0,0-1.31-.35c-2-.08-2.92,1.09-2.93,3.51a.79.79,0,0,0,.09.47.81.81,0,0,0,.46.11h2.38q.57,0,.57.3c0,.22-.2.32-.62.3l-.92-.08-1.08-.05a.23.23,0,0,1-.14-.07h-.16c-.25,0-.41,0-.47.1a.82.82,0,0,0-.11.52v5.93a15,15,0,0,0,.19,3.26c.12.37.47.57,1,.59l.49,0,.48,0h.12c.33,0,.5.1.5.27s-.14.27-.41.26Z"/><path class="cls-4" d="M661.85,570.79V559.63a4.33,4.33,0,0,0-.09-1.13.85.85,0,0,0-.87-.53,4.94,4.94,0,0,0-.75,0l-.62,0h-.11c-.4,0-.6-.13-.6-.34s.21-.34.63-.33h.11c.72.1,1.31.15,1.75.17H662l1.91.05c2.33.06,4.07,0,5.23,0l1.84-.06c.53,0,.79.19.78.56,0,.21,0,.48,0,.78V563c0,.45-.1.67-.31.66s-.17-.07-.24-.21a1,1,0,0,1-.1-.34c0-.17,0-.41.05-.71a15.9,15.9,0,0,0,.07-1.66A7,7,0,0,0,671,559a1.25,1.25,0,0,0-1.32-.83l-5.6-.11a2.61,2.61,0,0,0-1.31.14c-.15.11-.22.44-.22,1v5.34a.53.53,0,0,0,.13.3,1.27,1.27,0,0,0,.58.08l2.81.07c1.2,0,1.8-.48,1.8-1.48,0,0,0-.27,0-.67s0-.69,0-.88c0-.44.12-.66.34-.66s.33.26.33.77c0,.18,0,.54-.07,1.08,0,.35-.06.7-.1,1.05s0,.72,0,1.11.05,1.17.14,2.14l.09,1v.13c0,.45-.12.67-.35.67s-.34-.26-.34-.75v-.14c0-.19,0-.39,0-.59a4.65,4.65,0,0,0,0-.69,1.6,1.6,0,0,0-.38-1.24,2.18,2.18,0,0,0-1.41-.36l-2.89-.07a.58.58,0,0,0-.51.16,1.11,1.11,0,0,0-.13.65v4.63a2.59,2.59,0,0,0,.18,1.15,1.08,1.08,0,0,0,1,.44,5.94,5.94,0,0,0,.72,0,4.43,4.43,0,0,1,.55,0c.34,0,.51.11.5.31s-.16.3-.48.29H665l-.53-.06a5.34,5.34,0,0,1-.64-.06c-.6-.08-1-.12-1.25-.13h-.64a11.29,11.29,0,0,0-1.2.06,5.75,5.75,0,0,1-.67,0l-.5,0h-.09c-.33,0-.49-.1-.49-.29s.16-.32.51-.31a5.32,5.32,0,0,1,.57,0,6.25,6.25,0,0,0,.72.07.94.94,0,0,0,.94-.43A3.13,3.13,0,0,0,661.85,570.79Z"/><path class="cls-4" d="M673.85,557.42l1.06,0h.81a.42.42,0,0,1,.41.22,1.4,1.4,0,0,1,0,.48v10.71a15.73,15.73,0,0,0,.18,3.22c.13.38.49.57,1.09.57h1.08c.32,0,.48.08.48.25s-.14.28-.41.28h-.07l-.81-.08-.94-.07H675l-.94.06-.81.06h-.09c-.28,0-.42-.09-.42-.26s.17-.28.51-.27h1.08c.6,0,1-.17,1.09-.54a15.64,15.64,0,0,0,.18-3.23v-8a12.29,12.29,0,0,0-.14-2.5c-.09-.28-.36-.42-.8-.42-.24,0-.49,0-.76,0l-.7,0c-.31,0-.46-.1-.46-.28s.13-.28.39-.27h.74Z"/><path class="cls-4" d="M685.42,561.57a5.08,5.08,0,0,1,3.92,1.64,6.82,6.82,0,0,1,0,8.56,5.07,5.07,0,0,1-3.92,1.65,4.88,4.88,0,0,1-3.85-1.7,6.4,6.4,0,0,1-1.5-4.38,5.85,5.85,0,0,1,1.5-4.16A5.07,5.07,0,0,1,685.42,561.57Zm0,11.39a4.41,4.41,0,0,0,3.45-1.5,5.61,5.61,0,0,0,1.34-3.86,5.94,5.94,0,0,0-1.33-4,4.64,4.64,0,0,0-6.86-.05,5.65,5.65,0,0,0-1.3,3.87,6.06,6.06,0,0,0,1.29,4A4.23,4.23,0,0,0,685.42,573Z"/><path class="cls-4" d="M695.87,563.69a4.07,4.07,0,0,1,3.62-2.27,3.24,3.24,0,0,1,2.27.73,2.44,2.44,0,0,1,.88,2,2.17,2.17,0,0,1-.4,1.36,1.25,1.25,0,0,1-1,.56c-.56,0-.83-.24-.83-.74a.62.62,0,0,1,.69-.7.58.58,0,0,1,.37.13.52.52,0,0,0,.25.13q.3,0,.3-.84a2,2,0,0,0-.71-1.56,2.8,2.8,0,0,0-1.87-.57,3.19,3.19,0,0,0-2.88,1.53,6.85,6.85,0,0,0-.67,3.41v2a14.79,14.79,0,0,0,.19,3.24c.12.36.47.54,1.06.53h1.08c.34,0,.51.08.51.25s-.15.28-.44.28h-.07l-.81,0-.94-.06h-1.77l-.95.08-.81.08h-.07c-.29,0-.43-.08-.43-.25s.17-.28.5-.28H694c.6,0,1-.2,1.08-.57a15.14,15.14,0,0,0,.18-3.25v-5.06c0-.79-.14-1.25-.34-1.37a1.16,1.16,0,0,0-.6-.11l-.76.06-.69.05c-.31,0-.46-.09-.46-.29s.13-.3.39-.31l.74,0a4.52,4.52,0,0,0,.53,0h.34a6.47,6.47,0,0,0,.74-.06.23.23,0,0,0,.11,0h.12a.43.43,0,0,1,.48.49Z"/><path class="cls-4" d="M707.2,568.53a15.32,15.32,0,0,0,.19,3.23c.12.37.47.54,1.06.52h.48l.48,0h.12q.51,0,.51.24c0,.18-.15.28-.42.29h-.09l-.81,0-.94,0h-.67l-.44,0-.64,0-1,.09-.8.09h-.07c-.3,0-.44-.07-.44-.24s.17-.28.51-.29h.61l.49,0c.59,0,.94-.21,1.06-.58a15.14,15.14,0,0,0,.18-3.25v-5.06c0-.79-.14-1.25-.34-1.37a1.27,1.27,0,0,0-.6-.1l-.76.07-.62.06h-.07c-.31,0-.46-.08-.46-.28s.13-.3.39-.31h.07l.69.05,1.11,0a2.93,2.93,0,0,0,.41-.05,2.71,2.71,0,0,1,.41,0c.25,0,.37.16.37.51Zm-.53-10.48a.81.81,0,0,1,.59.24.74.74,0,0,1,.24.59.81.81,0,0,1-.24.59.76.76,0,0,1-.56.26.81.81,0,0,1-.61-.22.76.76,0,0,1-.25-.58.83.83,0,0,1,.25-.62A.86.86,0,0,1,706.67,558.05Z"/><path class="cls-4" d="M720.05,571.2v-.92a4.55,4.55,0,0,1-3.93,2.49,4.4,4.4,0,0,1-3.63-1.47,6,6,0,0,1-1.4-4.11,6.58,6.58,0,0,1,1.5-4.4,5,5,0,0,1,3.76-1.87,3.58,3.58,0,0,1,3.7,2.12v-3a10.11,10.11,0,0,0-.17-2.62c-.11-.21-.36-.3-.77-.29l-.79.08c-.36,0-.59.08-.7.08-.3,0-.45-.07-.45-.26s.13-.28.4-.29h.07l.67,0,1.13-.05.4,0h.3a.59.59,0,0,1,.36.07c.07.06.1.22.1.46v11.79a10.36,10.36,0,0,0,.16,2.63c.11.21.36.3.76.28.11,0,.36-.05.76-.13a6.85,6.85,0,0,1,.69-.12c.31,0,.46.08.46.27s-.12.31-.38.32H723l-.66,0-1.18,0-.36,0h-.28a.33.33,0,0,1-.35-.18A2.51,2.51,0,0,1,720.05,571.2Zm0-4.18v-.3a8.41,8.41,0,0,0-.62-3.77,3.19,3.19,0,0,0-3.16-1.57A4.2,4.2,0,0,0,713,563.1a6.43,6.43,0,0,0-1.29,4.09A5.58,5.58,0,0,0,713,571a3.78,3.78,0,0,0,3.19,1.36,3.73,3.73,0,0,0,2.76-1.31,4.11,4.11,0,0,0,.89-1.58A9.22,9.22,0,0,0,720.05,567Z"/><path class="cls-4" d="M732.64,569.51l0-.18-.09.16a5.88,5.88,0,0,1-.85,1.11,5.1,5.1,0,0,1-3.53,1.61,3.8,3.8,0,0,1-2.68-.74,2.68,2.68,0,0,1-1-2.22,3.14,3.14,0,0,1,.74-2.06,3.66,3.66,0,0,1,2-1.21,17.65,17.65,0,0,1,2-.34,6,6,0,0,0,2.7-.81,2,2,0,0,0,.84-1.71,2.1,2.1,0,0,0-.91-1.8,3.66,3.66,0,0,0-2.38-.57,4.77,4.77,0,0,0-2.56.81,2.1,2.1,0,0,0-1,1.73q0,.38.21.36s.08,0,.14-.1,0-.06,0-.14a.63.63,0,0,1,.62-.42c.46,0,.69.2.69.7a.92.92,0,0,1-.31.69,1.15,1.15,0,0,1-.75.33,1.11,1.11,0,0,1-.9-.36,1.25,1.25,0,0,1-.39-.93,2.63,2.63,0,0,1,1.19-2.13,5.19,5.19,0,0,1,3-1,4.19,4.19,0,0,1,2.83.68,3.44,3.44,0,0,1,1.12,2.88v5.73c0,1.24.46,1.83,1.22,1.79s1.27-.65,1.27-1.79v-1.12c0-.45.09-.67.3-.69s.27.14.27.44v.92c0,1.72-.67,2.62-1.86,2.7s-1.72-.57-1.79-1.92Zm-4.4,2.23a4.5,4.5,0,0,0,3.12-1.46,4.57,4.57,0,0,0,1.28-3.19v-2.23c0-.15,0-.23-.1-.22a3.63,3.63,0,0,0-.25.29c-.49.63-1.58,1.05-3.27,1.25a9,9,0,0,0-2.19.46,2.75,2.75,0,0,0-1.21.92,2.54,2.54,0,0,0-.55,1.68,2.24,2.24,0,0,0,.89,1.86A3.24,3.24,0,0,0,728.24,571.74Z"/></g></g></svg>