<svg xmlns="http://www.w3.org/2000/svg" viewBox="0 0 488.5 707.41"><defs><style>.cls-1{fill:#666;}.cls-1,.cls-2{stroke:#fff;stroke-linecap:round;stroke-linejoin:round;stroke-width:3px;}.cls-2{fill:none;}.cls-3{font-size:37px;}.cls-11,.cls-3{fill:#fff;font-family:AmericanTypewriter-Light, American Typewriter;font-weight:300;}.cls-4{letter-spacing:-0.03em;}.cls-5{letter-spacing:-0.05em;}.cls-11,.cls-6{font-size:23px;}.cls-7{letter-spacing:-0.02em;}.cls-8{letter-spacing:0.02em;}.cls-9{letter-spacing:-0.03em;}.cls-10{letter-spacing:0em;}</style></defs><title>Monograph1</title><g id="Layer_2" data-name="Layer 2"><g id="Layer_1-2" data-name="Layer 1"><path class="cls-1" d="M30.5,150.91v555L5.35,685.1a10.63,10.63,0,0,1-3.85-8.19V131.56a1.76,1.76,0,0,1,2.86-1.38Z"/><path class="cls-1" d="M398,1.71,2.82,129.85c1.05-.46,3.45,1.73,5.19,3.22L384.76,11.18,403.64,22.4V5.83A4.32,4.32,0,0,0,398,1.71Z"/><path class="cls-1" d="M384.76,11.18,8.1,133.15l22.4,17.76H467C467,85.46,442.62,41.7,384.76,11.18Z"/><path class="cls-1" d="M30.5,150.91H480a7,7,0,0,1,7,7V699a7,7,0,0,1-7,7H30.5Z"/><rect class="cls-2" x="101.82" y="209.31" width="319.41" height="182.65" rx="12"/><rect class="cls-2" x="147.65" y="544.07" width="217.34" height="56.09" rx="12"/><text class="cls-3" transform="translate(151.16 248.13)">Con<tspan class="cls-4" x="68.71" y="0">v</tspan><tspan x="88.54" y="0">ent Li</tspan><tspan class="cls-5" x="190.07" y="0">f</tspan><tspan x="201.2" y="0">e</tspan><tspan x="92.18" y="44.4">in</tspan><tspan x="-28.6" y="88.8">Colonial Mexico</tspan><tspan class="cls-6"><tspan x="-38.58" y="126.8">A </tspan><tspan class="cls-7" x="-16.08" y="126.8">T</tspan><tspan x="-2.21" y="126.8">ale of </tspan><tspan class="cls-8" x="61.2" y="126.8">T</tspan><tspan class="cls-9" x="75.96" y="126.8">w</tspan><tspan class="cls-10" x="93.21" y="126.8">o Communities</tspan></tspan></text><text class="cls-11" transform="translate(160.83 579.16)">Stephanie L. Kirk</text></g></g></svg>