<svg xmlns="http://www.w3.org/2000/svg" viewBox="0 0 817.52 462.23"><defs><style>.cls-1{fill:#a9ff9d;}.cls-2,.cls-4{font-size:57px;fill:#fff;font-family:AmericanTypewriter-Light, American Typewriter;font-weight:300;}.cls-2{letter-spacing:-0.03em;}.cls-3{letter-spacing:0em;}.cls-5{letter-spacing:-0.03em;}</style></defs><title>process</title><g id="Layer_2" data-name="Layer 2"><g id="Layer_1-2" data-name="Layer 1"><path class="cls-1" d="M759.84,106.82c-.38.09-.15.3.84.2a4.56,4.56,0,0,0,.67-.4A12.73,12.73,0,0,1,759.84,106.82Z"/><path class="cls-1" d="M766.43,105.44c.94-.83,1.69-2,.93-1.69a4.46,4.46,0,0,1-.84,1c-.25.28-.56.51-1,1a5.57,5.57,0,0,1-1.14.5c-.3.06-.46,0-.4,0-.3.23-1.49.43-2,.71a6.9,6.9,0,0,0,4.39-1.74C766.71,105.05,766.47,105.35,766.43,105.44Z"/><path class="cls-1" d="M769.54,5.69l.37.57A6.62,6.62,0,0,0,769.54,5.69Z"/><path class="cls-1" d="M707.39.84a2.09,2.09,0,0,0,.71-.07C707.65.79,707.29.81,707.39.84Z"/><path class="cls-1" d="M696.61.48l.64,0A2.38,2.38,0,0,0,696.61.48Z"/><path class="cls-1" d="M769.54,5.69a13.24,13.24,0,0,0-1.13-1.35C768.26,4.32,769,5,769.54,5.69Z"/><path class="cls-1" d="M771,93.25a7.7,7.7,0,0,0,.08.92l0-.87A.12.12,0,0,1,771,93.25Z"/><path class="cls-1" d="M772.57,33.21v.51a4.38,4.38,0,0,0,.13.43Z"/><path class="cls-1" d="M772.62,54.58a1.2,1.2,0,0,0-.39-.84,3.3,3.3,0,0,1,.19,1.06C772.48,54.8,772.54,54.74,772.62,54.58Z"/><path class="cls-1" d="M772.13,88.46l0,.6C772.15,88.9,772.14,88.64,772.13,88.46Z"/><path class="cls-1" d="M772.63,17.92a.47.47,0,0,0,.1-.2S772.66,17.8,772.63,17.92Z"/><path class="cls-1" d="M735.07,106.17s0,0,0,0S735.23,106.17,735.07,106.17Z"/><path class="cls-1" d="M759.84,107.56l-.35,0a.34.34,0,0,0-.07.15Z"/><path class="cls-1" d="M676.87.12H677C677.48.09,677.19.1,676.87.12Z"/><path class="cls-1" d="M506.93,19.05c.26-2.06.33,3.34.61.25C507.43,19.59,507.1,16.49,506.93,19.05Z"/><path class="cls-1" d="M771,92.7v-.88C771,92.22,771,92.49,771,92.7Z"/><path class="cls-1" d="M507.54,19.3h0l0-.32C507.55,19.11,507.55,19.18,507.54,19.3Z"/><path class="cls-1" d="M631.4.29a2.42,2.42,0,0,0,.47.12S631.75.34,631.4.29Z"/><path class="cls-1" d="M665.28.69l-.84,0Z"/><path class="cls-1" d="M613.81.68a8,8,0,0,0-1.23,0l.19,0A4.77,4.77,0,0,1,613.81.68Z"/><path class="cls-1" d="M595.51.68l.33.06h.59Z"/><path class="cls-1" d="M679.43,106.3a3.79,3.79,0,0,1,.85.26C680,106.36,682.69,106.29,679.43,106.3Z"/><path class="cls-1" d="M771.15,93.24a1,1,0,0,1-.13-.54c0,.21,0,.41,0,.6S771.12,93.37,771.15,93.24Z"/><path class="cls-1" d="M613.07,2.9l-2.91,0C611,2.89,612,2.9,613.07,2.9Z"/><path class="cls-1" d="M548.1,106.34l.66,0A3.32,3.32,0,0,0,548.1,106.34Z"/><path class="cls-1" d="M601.53,2.9a12.08,12.08,0,0,0-1.64-.19,2.24,2.24,0,0,0-.34.07Z"/><path class="cls-1" d="M680.28,106.56Z"/><path class="cls-1" d="M699.44,105.89c-2.77,0-1.3.36-1.89.58-3.31.1-1.53-.28-2.65-.47-2.07.1-3.65.44-5.19.43-.12-.06-.42-.09-.07-.16-2.18.29-6.48,0-9,.38a1.06,1.06,0,0,1-.34-.09c.42.18.48.37.39.51a10.13,10.13,0,0,1-2.77,0,3,3,0,0,0,1.18-.17l-1.3.11c-1.17-.35,1.78-.12,1.78-.38-2.54.11-5.5.4-7.44.3-.41-.34,4.54-.11,2-.41l3,.13c-2.3-.54,1.83,0-.29-.54-4-.1-4.43.17-8.38.07-.89.19.3.28-.59.47-5.62.34-4.42-.85-8.55-.4a9.52,9.52,0,0,1-4.43.43l1-.38c-3.84,0-2.19.55-6.21.29.72-.15,3-.13,2.44-.17-2.61-.31-1.85.21-3.85.21l-.41-.34c-4.08.06-8.58.3-13.1.36.25-.1,1-.2,0-.31-5.71.17-12.18,0-17.68-.24l-2.1.29c-.49,0-.91-.13-.38-.19-2.14-.11-.11.19-1.14.31-1.22,0-1.61-.17-.84-.26a129.13,129.13,0,0,1-14.76.22l.78-.09c-3.11-.12-3.51.6-6.39.33l.56,0c-6.74-.13-14.19.14-19.33-.3-1,.42-6.66-.19-7.1.4-3.84-.29-2.74-.4-8.16-.6-1.45,0-2.16.37-3.94.43l-.05-.3-2.43.32-1.29-.37-1.68.08c.67,0,1.42.14,1.32.23a28.34,28.34,0,0,1-6.45-.38l-6.2.27a9.41,9.41,0,0,1,2-.25c-3.31.31-.61-.32-3.64,0,.41.07-.22.19-.29.25a65.1,65.1,0,0,0-7.5-.11l.49-.21c-2.3,0-4.72,0-7.22,0a15.5,15.5,0,0,1-3.47-.21,10.07,10.07,0,0,1-3.17-1.26c.68.48,1,.67.84.76a1.69,1.69,0,0,1-1.17-.37c-.1-.19-.2-.37-.29-.56-.85-.35,1.14.92-.53.06-.72-.54-.84-.86-.75-.88s.46.16.9.4a7.44,7.44,0,0,1-.84-.64,6.67,6.67,0,0,1-.79-.71c0-.16.36.17.54.18a3.47,3.47,0,0,1-.66-.67,10.34,10.34,0,0,1-.7-1.12c-.47-.82-.77-1.74-1.15-2.26l.06-.14a11.29,11.29,0,0,1-.51-2.93c0-.94,0-1.9-.05-2.76,0-1.76,0-3.39-.07-5.5-.28-.08-.22-1.72-.45-3,.09-3.09.31-6.52.29-10.24-.14-2.62-.24-.77-.41-1.94.26-.19.23-3.91.42-2,0-4.47-.05-5.71-.26-11.36-.11.62-.15,1.31-.24,1,0-1,.11-2.33.23-2.19l0,.27c-.39-6.34.74-14.63.21-19.68l0,.28L509,33.4c0-2.41.19,1.44.35-.34-.43-5.65.06-8.93-.22-13.58a21.72,21.72,0,0,0,.32-3.59c0-.72,0-1.49,0-2.29,0-.36,0-.72,0-1.09s.1-.72.14-1.09a10,10,0,0,1,1.7-4,8.27,8.27,0,0,1,2.8-2.55h-.3c.82-.79,1.19-.65,1.93-1-.15-.08-1.16.38-.57,0a9.77,9.77,0,0,1,3.42-1.12,7,7,0,0,1,.92-.08c.3,0,.6,0,1,0h2c2.73,0,5.48.06,8.24.11l16.54.35c4,0,2.26-.92,7.29-.49l-1.43.33c8-.4,16.47,0,24.35-.32a4.78,4.78,0,0,1-1.25.17,25.77,25.77,0,0,0,6.18-.18c1.23,0,.28.17,1,.27,1.67.14,4.19-.3,5.08-.06.15,0-.47.07-.78.09,1.09-.11,5.08,0,4-.25,3,.14,5.66-.12,8,0,1.54-.31,5.07.14,5.55-.29-.21.45,5.19.36,7.06.15-.62.14,1.63.14.89.33,2.14,0,4.1-.09,3.72-.32,3.94.54,7.91-.44,10.12.26,6.34-.25,12.21-.41,17.91-.52-.2.45-6.3.05-6.06.52,5.42-.19,8.54-.57,13.9-.46,1.39.06-.79.19-1.26.27,5.41-.19,10.46,0,15.27-.21a4.65,4.65,0,0,1-1,.13c.95,0,2.21.06,2.1-.14l-.92,0c-1.52-.29,3.76-.62,3.93-.78-1.61.59,4.75.15,2.2.89.62,0,1.4-.13,1.26-.27.93,0,1.22.12.28.28,3.4-.11,2.19-.33,5.27-.33,0,.1-.63.14-1,.26a32,32,0,0,1,5.72-.31c-.16.06.15.14-.63.14,4.46,0,7.61-.52,12.51-.33-1.45.43,1.66.14,1.92.52l2.64-.11-1.06-.19c2.31,0,4.35-.26,6.33-.14l-1.71.15,4.32-.07-2.45-.14c2.34-.19-.25-.47,2.82-.37-.62,0,2.31,0,3.51.23h0a23.13,23.13,0,0,1,4-.15c.44.12-.36.41-.07.49,1.13-.31,5.4-.09,6.83-.42-.48.08-.5.28-.34.32l.94-.26c1.07.08,1.23.12,1.05.28,3.22.05-1-.47,2.8-.27-.3,0-.16.06-.78.1,3.83.1,7.4-.16,10.92,0,1,.38-3.07.09-1.89.41C741.61,2.3,747.05,1.92,752,2l-.91,0c.68-.53,3.66.26,6.14,0-.61,0-.8.29-.63.23,1.68.08,3.44-.1,5.21.13a11.27,11.27,0,0,1,5.73,2.51c-.19-.1-.36-.21-.55-.29a14.83,14.83,0,0,1,2.27,2.57,11,11,0,0,1,1.46,3.2,8.07,8.07,0,0,1,.37.95c.08.27.14.38.19,0,0,.4,0,.8,0,1.19l0,1.17c0,.81-.07,1.61-.07,2.4,0,1.58.05,3.13.11,4.66a59.3,59.3,0,0,1-.07,9c0-.7-.12-1.67-.12-1.11l.13,5c.23-.4.14-.66.32-1.71a20.45,20.45,0,0,1,.24,3.28c-.15-2.24-.37,0-.5,1,.07-.16.15.17.22.09-.41,2.61.47.44.19,4l-.12-.19c.06,1.33.22,2.56.19,4-.27.6-.13-1.41-.35-1.51,0,2,.51,4,.24,5.81-.07-.85-.07-2.09-.15-2.94a20.49,20.49,0,0,0-.28,3.69V48.9l-.15,3.41.09-.87c.7,2.53.13,5.15.58,8.55-.43-3.31-.25-.55-.55-.8-.09.87-.18,2.19-.26,1.81.24,1.61-.2,2.69.16,5-.1.11,0,1.72-.25,1.36.07,2.09.17-.49.29-.32.33,3.23-.41,7.58.05,12.21.19,4,.52,4.74.68,8.45-.15,1.25-.35-1-.35-1a38,38,0,0,0,0,5.44c-.08-.38-.16,0-.27.6,0,1.52.37,1,.21,3a9.71,9.71,0,0,1-.39-1.51l.08,1.34c0,.42,0,.85,0,1.28a10.1,10.1,0,0,1-.43,2.59c-.16.2-.13-.08,0-.47s.14-.94.15-1.25a13,13,0,0,1-1,3.2c-.49,1-1,1.81-1.12,2.13.31-.31.59-.65.87-1-.44.6-.39.18-.15-.3a7.33,7.33,0,0,1,1.33-2.23,8.34,8.34,0,0,1-.45,1.21,5.29,5.29,0,0,0,1.23-3.21c.17-1.47-.09-3.12,0-4.46l.42,1.11-.35-2.74c.11-.58.34-1,.4.34.21-1.91-.15-1.69.08-3.34,0-.18.06-.1.08.07L772,86.59c.09.37.3-.31.24.84.24-3.36-.32-5.42,0-6.68l0,.28c-.14-4.66-.3-.45-.66-4l.75-2.35-.3-.46c0-.48,0-1.43.15-1.25-.2-1.79-.13.3-.33-.74.28-2.31-.13-6.37.36-6.9-.23-.83-.18,2.22-.34-.25.52-.71-.09-2.86.15-5,.27.65.13,2.65.37.53-.46-1.27.1-4.11,0-5.89-.36-.09-.15-3.88-.27-6.87.12.19.2-5.63.33-8.41l.06.08c-.37-.54-.3-3.41-.37-5.5.22.08.3.46.4,1.59v-2a11.14,11.14,0,0,1-.22-2.35l.27.5c0-2.62-.32-5.27-.14-8.63-.25-.19-.71,2.67-.88-.89.14-.13.37-.26.43.67a10.64,10.64,0,0,1,0-1.7l.23,1.42c.1-1.53-.2-.8-.17-2,.19,0,.14-.9.29-.73a13.12,13.12,0,0,0,0,1.54,22.45,22.45,0,0,1,.3-3.6c-.11.12-.27,0-.29-1,0-2.62.24-.9.34-2.43-.12-.59,0-2.39-.38-2.4a4.2,4.2,0,0,1,0-1.29,16.12,16.12,0,0,0-1.39-3.4c-.67-1.11-1.3-1.75-.94-1a3,3,0,0,1,.19.3,1.79,1.79,0,0,0-.14-.18h0A17.7,17.7,0,0,0,767.61,4a15.22,15.22,0,0,0-3-1.88,13.1,13.1,0,0,0-3.4-1,24.59,24.59,0,0,0-3.41-.08V1c-2.63.12-5.85.07-7.73.28-.77,0-1.83-.18-1.5-.3a35.22,35.22,0,0,1-5.13,0c2-.18-.7-.16,2.07-.13a33.58,33.58,0,0,0-6,0c1-.26-2-.32-3.2-.25l1.83.18c-1.4,0-2.62,0-3.86,0L735,.46c-5.34-.4-9.63.69-13.69,0-1.42.23,2.9.16,1.63.43-2.45,0-5-.52-5.78-.52-3.37-.19-3.14.48-6.66.36.45.12.87.43-1.76.55-2.46-.05-3-.5-1.47-.6.59,0,.87,0,.85.07.79,0,1.84-.09.86-.22l-.32.12c-1.22-.12-4.6-.11-3.8-.31-1.86.12-.8.2.58.26-3.16-.17-4.93,0-8.17-.12.51.06,1,.2.47.2C693,.56,695.63.93,692.4,1c-1.83-.18.66-.43-2.59-.28-2-.12-.42-.32.37-.41A56.4,56.4,0,0,1,683,.1l1.56-.1c-.93.06-1.7.06-2.47.05l.89.24a5.79,5.79,0,0,1-1.68-.14c-.94.16.73.4-1.14.61C678.9.64,676.4.89,676,.57c3.84.11-.42-.31,2.82-.36-.62,0-1.39,0-2.31,0-.13,0,.13-.07.38-.08-3.67-.28-1.68.35-5.49.35.49-.18-.88-.34-1.5-.3,1.53,0,.73.29-.67.43a31.34,31.34,0,0,0-3.93.09l1.46.06a18.91,18.91,0,0,1-3.42.21c-.14-.14,1.55-.09.94-.16-1.89.32-4.27-.32-6.9-.11-1.22-.12-.12-.33-1.19-.41C653.22.51,653,0,649.87.22c.9.24,1,.18-1.13.42l5.1-.17-3.27.35c1.54,0,3.24-.15,4.17-.11-1.56.19-1.4.13-.67.33-2.1-.36-4.17.21-6.6,0l.07-.59c-3.66-.27-6.5.3-11.25.15l1.52.1c-.63.24-2.93,0-4.47.13.14-.2-.82-.27-1.47-.39.08.15-3.48,0-3.91.38L625.84.53c-3.84-.11-4.38.56-8.07.49,1.11-.21-.57-.35,1.91-.5a7.91,7.91,0,0,0-2.36.1c-.72-.13-3.42.26-4.55.07A6,6,0,0,1,610.7,1c-.15,0,0-.1,0-.1s-2.16.14-1,.35c-3.79-.61-10.6.05-13.91-.48-2.68.07-5.92.13-8.36.14.16-.05,0-.09.47-.07-3.37-.19-2.07.56-5.9.36-1.95-.32,2-.17.82-.29-.54-.65-4.63.08-7.2-.3l.62,0c-2-.22-4.81.24-8,.2,0,0,.15-.06,0-.1-2.21.33-6.37.44-9.47.53,1-.25,1.41-.13.82-.39-1.39,0,.41.41-2.36.49a14.49,14.49,0,0,1-3.17-.54l2.62,0c-1.34-.35-3.39,0-4.76,0l.17-.15c-4,0-4.06.44-8.36.41l.44.12c-2.35.39-2-.22-4.32.07l-.71-.39c-1.55.09-5.43.38-8.21.45,1.57-.29,4.83-.44,6.84-.61a53.3,53.3,0,0,0-6,.22,13.69,13.69,0,0,1,2-.07,46.84,46.84,0,0,1-7.44.45c.27-.38-1.72-.43-4.07-.45-1.17,0-2.41,0-3.62,0s-2.19.29-2.81.36a14.36,14.36,0,0,0-6.82,5.49,13,13,0,0,0-1.84,4.3c-.06.4-.13.8-.2,1.2s-.06.82-.08,1.24c0,.79,0,1.54,0,2.34.6-2.24,0,1.84.63,1.46a14.16,14.16,0,0,1,0,2.16l-.37,4.46c-.17,1.06-.13-1.4-.27-1.26,0,3.22-.26,1.35-.42,3.48.22-.44.31,1.12.23,3l.28-2.59c.33,4.5-.51,3.89-.19,8.43l-.19-1.43c.11,2.33,0,8.59.49,10.87-.08.41-.24,1-.29-.07-.07,5.57.53,12.39.22,16.72l-.15-.42a14.5,14.5,0,0,1,.13,3.1c-.06-.06-.14-.41-.15.07a32.12,32.12,0,0,1,.17,4.13l-.17-1.17c-.19,5.42.41,8.33.52,12.88-.44,0-.59,4.26-.66,6.39l-.06-.07c0,3.16.06,5.84.18,8.47a17.77,17.77,0,0,0,.53,4.16,13.16,13.16,0,0,0,1.91,4.08,10.2,10.2,0,0,0,2.35,3,12.8,12.8,0,0,0,4.44,2.56c.44.14.9.24,1.35.37s.93.15,1.4.21l1.4.08h1.28c1.69,0,3.33.05,4.79.12-.89-.08.14-.35,1.18-.39,1.37.09,3.79-.31,3.57.1h-.48c1,.4,3.85.29,6,.3l.37-.53c5.75.77,15.07-.28,18.21.41,1.39-.13,3.11-.13,4.48-.26l-.07.28c3.85.07,5.77.11,10.52,0l-1,.2c2.68,0,3.39-.81,5.86-.83l.75.42c4.68,0,9.41.37,14,0-.07.07-.21.19-1,.21,2.21,0,8.52.28,7.72-.3.06.38,4.83,0,7.36-.13l-.4.28a25.76,25.76,0,0,1,5.18-.55c.71,0,.62.22-.32.15,2.36.15,1.84-.26,4.69-.12l-1.07.18a12.89,12.89,0,0,0,3.56-.28,18.39,18.39,0,0,1,5,.32,9.11,9.11,0,0,1,3.08-.28c.19.09-.33.15-.59.18,4,.19,6-.32,8.8,0a.72.72,0,0,0,.47.17c-3.21,0-5.8,0-5.56,0,0,.26,2.6.31.53.66a66.63,66.63,0,0,1,8.18-.49,1.44,1.44,0,0,1,.33.09l-.26,0a10.35,10.35,0,0,0,1.6,0c.81,0,1.32.08,2.1.08a26.87,26.87,0,0,0,4.27.13c-.11-.29,1.59-.24,0-.47.21,0-.24,0-1.11,0l-.55,0,.09,0-3.22,0a12.86,12.86,0,0,1,3.53-.11c.66-.18,1.39-.37,1.8-.45,1.78.39,5.19.6,5.67.84,4-.16,9.31-.1,11.79-.63a3.83,3.83,0,0,1,1.72.23c-.65.06-1.42,0-1.78.12,2.25-.13,6.66,0,7.2-.42,2.83.17-1.59.34,2.3.28l-.53.11c7.66.59,12.45-.94,20.94-.18a4.25,4.25,0,0,1-1-.13c9.68.33,19.94-.31,29.49.22a20.38,20.38,0,0,0,4.67-.31l.58.3,2.84-.35c4-.25,6.95.74,12,.26l-.66-.2c1.83,0,5.79-.12,5.48.11a2.83,2.83,0,0,1,1.31-.1l.06.15,4.49-.27c3.47.12-.55.63,4.53.66,1.88-.06,5.37-.46,4.66-.57a5.22,5.22,0,0,1-2-.25l1.72-.08c.32-.47,1.64-1-2.59-1.27l-2.95.28-1-.22,2.48,0a10.26,10.26,0,0,0-3.3.11,3.51,3.51,0,0,0-1.24-.25l-2.9.44c-.35-.18,1.3-.36-.64-.46-1.36.21,1.3.41-.95.55a5.7,5.7,0,0,0-2.65-.21c-.24-.12.11-.19.77-.25-1.47.15-3.9.06-4.66.31-1.48-.26-5,.07-4.84-.37a31.81,31.81,0,0,1-4,.36c2.47-.52-5.07,0-4.42-.59-1.83.47-6.62.21-9.86.47a3.21,3.21,0,0,1,.82-.09c-1.82,0-2.36-.18-3.53-.27-.23.39-3.08.48-4.61.72-2.24-.38,1.36-.46.66-.82.11.32-3.89.32-3.13.58a7.25,7.25,0,0,1-2.36-.44c-.3.49-1.59.08-3,.39-2.48-.25-.64-.46-3.36-.31C697,106.07,699.44,105.89,699.44,105.89Zm-64.73.85h1.34Zm-5.44,0h2.36c.19.1,0,.2-.56.2C631.36,106.88,630.08,106.83,629.27,106.74Zm11.51,2a3.16,3.16,0,0,1-1.27-.07l1.51,0,.1,0A1.24,1.24,0,0,1,640.78,108.69Z"/><path class="cls-1" d="M642.32,108.32l.36,0-.51-.06-.31.09Z"/><path class="cls-1" d="M770,6.36l-.07-.1a1.24,1.24,0,0,1,.12.22A.78.78,0,0,1,770,6.36Z"/><polygon class="cls-1" points="554.15 106.2 554.16 106.28 554.64 106.21 554.15 106.2"/><path class="cls-1" d="M771.29,36.1a1.69,1.69,0,0,0-.07.39A1.77,1.77,0,0,0,771.29,36.1Z"/><path class="cls-1" d="M771.23,49l-.1,1.83C771.18,50.08,771.21,49.5,771.23,49Z"/><path class="cls-1" d="M771.09,59a.49.49,0,0,0,.12.2v0Z"/><path class="cls-1" d="M666,2.57h-.38C664.68,2.63,665.29,2.61,666,2.57Z"/><path class="cls-1" d="M713.05,1.91c-.5.05-1,.1-1.52.13C712.37,2.06,713,2.07,713.05,1.91Z"/><path class="cls-1" d="M613.39,2.9Z"/><path class="cls-1" d="M709.34,2a17.71,17.71,0,0,0,2.19,0C710.85,2,710,2,709.34,2Z"/><path class="cls-1" d="M769.28,101.32l-.24.37s0,0,0,.07C769.13,101.62,769.2,101.46,769.28,101.32Z"/><path class="cls-1" d="M769.05,101.76l-.27.41A2.43,2.43,0,0,0,769.05,101.76Z"/><path class="cls-1" d="M768.16,103a5.87,5.87,0,0,0,.62-.86A9.27,9.27,0,0,0,768.16,103Z"/><path class="cls-1" d="M771.09,89l-.1-.15C771,88.88,771,88.93,771.09,89Z"/><path class="cls-1" d="M771.06,85c0,1-.22,2.39-.15,3.72l.08.13C770.84,88.17,771.23,85.85,771.06,85Z"/><path class="cls-1" d="M772.32,68.24l-.08,3.35c.11-.58.25-1.36.28.17C772.84,67.53,772.28,72.63,772.32,68.24Z"/><path class="cls-1" d="M772.48,57.84c0,1.8.16,0,.22.07C772.6,56.77,772.57,56.49,772.48,57.84Z"/><path class="cls-1" d="M747.86.84,748,.59C746.65.63,748,.69,747.86.84Z"/><polygon class="cls-1" points="733.49 2.17 734.84 2.33 735.48 2.09 733.49 2.17"/><polygon class="cls-1" points="725 0.34 725.61 0.31 723.29 0.4 725 0.34"/><path class="cls-1" d="M598.76.44l.42.31C600.12.69,600.32.34,598.76.44Z"/><path class="cls-1" d="M544.27.76A9.77,9.77,0,0,0,541.2.65C542.42.67,543.64.8,544.27.76Z"/><polygon class="cls-1" points="539.7 108.73 538.61 108.84 540.67 108.75 539.7 108.73"/><path class="cls-1" d="M804.65,460.05c-.43.09-.17.3,1,.2a6.93,6.93,0,0,0,.75-.43A12.18,12.18,0,0,1,804.65,460.05Z"/><path class="cls-1" d="M811.94,458.15c1-1,1.75-2.34,1-1.9a12.52,12.52,0,0,1-1.94,2.38,4.72,4.72,0,0,1-1.26.63c-.32.1-.49.11-.43,0a5.37,5.37,0,0,1-1,.41,5.51,5.51,0,0,0-1.19.45,7.61,7.61,0,0,0,4.81-2.21C812.26,457.73,812,458,811.94,458.15Z"/><path class="cls-1" d="M801.78,354.25l.74,0Z"/><path class="cls-1" d="M730.75,354.07a2.51,2.51,0,0,0,.79-.07C731,354,730.62,354,730.75,354.07Z"/><path class="cls-1" d="M718.62,353.71l.71,0A2.92,2.92,0,0,0,718.62,353.71Z"/><path class="cls-1" d="M801.78,354.25l-1.9-.1C799.75,354.26,800.85,354.23,801.78,354.25Z"/><path class="cls-1" d="M815.8,443.85a9.2,9.2,0,0,0,.09,1c0-.32,0-.64,0-1C815.83,443.9,815.82,443.88,815.8,443.85Z"/><path class="cls-1" d="M817.38,376.33v.58a3.79,3.79,0,0,0,.14.48Z"/><path class="cls-1" d="M817.43,400.36a1.4,1.4,0,0,0-.39-.94,3.83,3.83,0,0,1,.19,1.18C817.29,400.61,817.35,400.54,817.43,400.36Z"/><path class="cls-1" d="M816.94,438.47l0,.67C817,439,817,438.67,816.94,438.47Z"/><path class="cls-1" d="M814.94,359.16a.52.52,0,0,0-.06-.24S814.88,359,814.94,359.16Z"/><path class="cls-1" d="M776.79,459.4s0,0,0,.05S777,459.4,776.79,459.4Z"/><path class="cls-1" d="M804.65,460.79l-.39,0a.28.28,0,0,0-.08.15Z"/><path class="cls-1" d="M696.42,353.35h.1C697.1,353.32,696.77,353.33,696.42,353.35Z"/><path class="cls-1" d="M506.93,375.32c.26-2.31.33,3.76.61.28C507.43,375.92,507.1,372.44,506.93,375.32Z"/><path class="cls-1" d="M815.84,443.23c0-.32,0-.65,0-1A9.71,9.71,0,0,0,815.84,443.23Z"/><path class="cls-1" d="M507.54,375.6h0l0-.36C507.55,375.39,507.55,375.47,507.54,375.6Z"/><path class="cls-1" d="M645.28,353.52a2.9,2.9,0,0,0,.52.12S645.67,353.58,645.28,353.52Z"/><path class="cls-1" d="M683.38,353.92l-.94,0Z"/><path class="cls-1" d="M625.5,353.91a10.17,10.17,0,0,0-1.39,0l.22,0A6,6,0,0,1,625.5,353.91Z"/><path class="cls-1" d="M604.91,353.91l.38.06h.65Z"/><path class="cls-1" d="M714.22,459.53a4.48,4.48,0,0,1,.95.26C714.85,459.59,717.88,459.52,714.22,459.53Z"/><path class="cls-1" d="M816,443.84a1.28,1.28,0,0,1-.12-.61c0,.24,0,.46,0,.68C815.89,444,815.93,444,816,443.84Z"/><path class="cls-1" d="M624.66,356.13l-3.27,0C622.31,356.12,623.49,356.13,624.66,356.13Z"/><path class="cls-1" d="M566.51,459.57l.75,0A4.24,4.24,0,0,0,566.51,459.57Z"/><path class="cls-1" d="M611.68,356.13a15.06,15.06,0,0,0-1.84-.19,2.9,2.9,0,0,0-.38.07Z"/><path class="cls-1" d="M715.18,459.79h0Z"/><path class="cls-1" d="M736.72,459.12c-3.11,0-1.46.36-2.12.58-3.72.1-1.72-.28-3-.46-2.32.09-4.1.43-5.84.42-.13-.06-.46-.09-.07-.16-2.45.29-7.29,0-10.15.38a1.17,1.17,0,0,1-.37-.09c.46.19.53.37.44.51a12.82,12.82,0,0,1-3.12,0,3.93,3.93,0,0,0,1.33-.17l-1.47.11c-1.32-.35,2-.12,2-.38-2.85.11-6.18.4-8.37.3-.46-.34,5.12-.11,2.2-.41l3.38.13c-2.58-.54,2.06,0-.32-.54-4.45-.1-5,.17-9.42.07-1,.19.33.28-.67.47-6.32.34-5-.85-9.62-.4a11.88,11.88,0,0,1-5,.43l1.12-.38c-4.31,0-2.46.55-7,.29.81-.15,3.39-.13,2.74-.17-2.93-.31-2.07.21-4.32.21l-.46-.34c-4.6.06-9.65.3-14.74.37.28-.11,1.15-.21,0-.32-6.41.17-13.69,0-19.88-.24l-2.36.29c-.55,0-1-.13-.42-.19-2.42-.11-.13.19-1.29.31-1.37,0-1.81-.17-.94-.26a160.46,160.46,0,0,1-16.6.22l.87-.09c-3.49-.11-3.94.61-7.18.33l.62-.05c-7.57-.13-16,.14-21.73-.3-1.1.42-7.5-.19-8,.4-4.33-.29-3.09-.4-9.18-.59-1.63,0-2.43.36-4.44.43l0-.31-2.73.32-1.46-.37-1.88.08c.75,0,1.6.14,1.48.23a37,37,0,0,1-7.26-.37l-7,.26a11.79,11.79,0,0,1,2.25-.25c-3.73.32-.68-.32-4.09,0,.46.07-.25.19-.33.25a82.27,82.27,0,0,0-8.43-.11l.55-.21c-5.17-.06-10.9.1-16.71.1,2.08.1,1.6.46-.1.5l-.68-.33c-1.1.2,1.78.13-.48.37-2.17,0-1.46-.37-.21-.47l-2.64.11c-.15-.1.47-.15.63-.27a17,17,0,0,1-2.88-.05c-1.26-.06-2.29-.1-3-.08l-.11-.12a10.66,10.66,0,0,1-5.42-2.67,10.44,10.44,0,0,1-2.93-4.54c-.14,0-.31-.41-.5-1-.07-.29-.14-.61-.22-.94s-.11-.68-.19-1c.07-3.43.31-7.32.28-11.49-.14-2.95-.24-.86-.41-2.19.26-.21.23-4.39.42-2.22,0-5-.05-6.42-.26-12.77-.11.69-.15,1.46-.24,1.06a6.2,6.2,0,0,1,.23-2.46l0,.31c-.39-7.14.74-16.46.21-22.14l0,.32-.28-5.89c0-2.71.19,1.62.35-.38-.43-6.36.06-10-.22-15.27a62.46,62.46,0,0,0,.33-9.35,10.52,10.52,0,0,1,1.21-4.78,9,9,0,0,1,2.85-3.16l-.33,0a4.68,4.68,0,0,1,2.1-1.22c-.2-.11-1.25.56-.63.05a10.29,10.29,0,0,1,3.8-1.39,5.79,5.79,0,0,1,1-.11c.34,0,.69,0,1.08,0h2.3l9.27.11,18.6.36c4.48,0,2.54-.93,8.2-.5l-1.61.33c9.06-.4,18.52,0,27.38-.32a5.84,5.84,0,0,1-1.4.17,32.53,32.53,0,0,0,6.95-.18c1.38,0,.32.17,1.17.27,1.88.15,4.72-.3,5.71-.06.17,0-.52.07-.87.09,1.23-.11,5.7,0,4.53-.24,3.33.13,6.37-.13,9,0,1.73-.31,5.7.15,6.25-.29-.24.45,5.83.36,7.93.15-.7.14,1.83.14,1,.33,2.4,0,4.6-.09,4.18-.32,4.42.54,8.89-.44,11.38.26,7.13-.25,13.73-.41,20.14-.52-.23.45-7.09.05-6.81.52,6.09-.18,9.6-.57,15.63-.46,1.56.06-.89.19-1.41.27,6.08-.19,11.75,0,17.16-.21a5.58,5.58,0,0,1-1.15.13c1.07,0,2.48.06,2.36-.14l-1,0c-1.7-.29,4.23-.62,4.43-.77-1.81.58,5.34.14,2.46.89.71,0,1.59-.14,1.43-.28,1,0,1.37.12.31.28,3.82-.11,2.46-.33,5.92-.33,0,.1-.71.14-1.06.26a40.43,40.43,0,0,1,6.43-.31c-.17.06.16.14-.71.14,5,0,8.56-.51,14.07-.33-1.62.43,1.87.14,2.17.52l3-.11-1.19-.18c2.6,0,4.89-.27,7.12-.15l-1.93.16,4.86-.08-2.75-.14c2.63-.19-.28-.47,3.17-.37-.7,0,2.6,0,4,.23h0a29.41,29.41,0,0,1,4.53-.15c.5.12-.4.41-.08.49,1.27-.31,6.08-.09,7.68-.42-.53.08-.56.28-.39.32l1.07-.26c1.2.08,1.38.12,1.18.28,3.62.05-1.15-.47,3.14-.27-.33,0-.17.06-.87.1,4.31.1,8.32-.16,12.28,0,1.17.38-3.46.09-2.12.41,5.71-.07,11.83-.45,17.35-.36l-1,0c.77-.53,4.12.26,6.91,0-.68,0-.9.29-.71.23,3.78.09,7.74-.13,13.47-.29l-.71.13c1.11.06,2.58.08,4.07.09a18.47,18.47,0,0,1,4.06.28c.33,0,.82.11,1.14.16s.44.08.09-.16a13.82,13.82,0,0,1,7.15,6.92,11.51,11.51,0,0,1,.92,4.78,45.66,45.66,0,0,1-.2,5c0-.78-.12-1.87-.12-1.25l.13,5.62a6.93,6.93,0,0,0,.32-1.92,24.37,24.37,0,0,1,.24,3.69c-.15-2.53-.37,0-.5,1.11.07-.18.15.19.22.1-.41,2.93.47.49.19,4.49l-.12-.21c.06,1.5.22,2.88.19,4.5-.27.67-.13-1.6-.35-1.7,0,2.27.51,4.48.24,6.53-.07-1-.07-2.35-.15-3.31a25.84,25.84,0,0,0-.28,4.15V394l-.15,3.84.09-1c.7,2.84.13,5.78.58,9.6-.43-3.71-.25-.61-.55-.89-.08,1-.18,2.46-.26,2,.24,1.81-.2,3,.16,5.57-.1.12,0,1.94-.25,1.53.07,2.35.17-.55.29-.36.33,3.63-.4,8.52,0,13.73.19,4.5.52,5.33.68,9.5-.15,1.41-.35-1.15-.35-1.15a48.09,48.09,0,0,0,0,6.12c-.08-.43-.15,0-.26.67,0,1.71.35,1.14.21,3.41a9.39,9.39,0,0,1-.39-1.72l.18,3a13.58,13.58,0,0,1,0,3c-.26.49,0-1.24-.17-1.93a11.52,11.52,0,0,1-.58,3.72c-.17.61-.44,1.13-.6,1.57a5.63,5.63,0,0,0-.38,1,13.69,13.69,0,0,0,.82-1.22c-.37.75-.38.27-.17-.3a9.22,9.22,0,0,1,1.13-2.68c-.11.47-.18,1-.33,1.41a6,6,0,0,0,.79-3.78c-.09-1.69-.25-3.55-.23-5.06l.42,1.26-.35-3.08c.11-.66.34-1.11.4.38.21-2.16-.14-1.91.09-3.76,0-.2,0-.11.07.08l-.13-2.11c.09.41.3-.35.24.94.24-3.77-.31-6.09,0-7.51l0,.32c-.14-5.24-.31-.51-.67-4.44l.76-2.64-.31-.52c0-.54,0-1.61.16-1.41-.21-2-.14.34-.33-.83.27-2.6-.13-7.17.35-7.76-.23-.93-.18,2.49-.34-.29.53-.79-.09-3.21.15-5.58.27.73.13,3,.37.6-.46-1.44.1-4.63,0-6.64-.36-.09-.15-4.35-.27-7.72.12.21.2-6.33.33-9.46l.06.09c-.36-.6-.3-3.83-.37-6.18.22.09.3.51.4,1.79v-2.21a14.26,14.26,0,0,1-.22-2.65l.27.56c0-1.47-.08-2.95-.14-4.54,0-.79,0-1.61,0-2.47s0-1.78-.07-2.78c-.13-.09-.21.71-.38,1s-.16.16-.25-.09-.18-.79-.41-1.75c.07-.16.34-.39.55.66,0-.35-.34-1.19-.49-1.88a15.78,15.78,0,0,1,.62,1.53c-.31-1.75-.36-.87-.81-2.19.22-.06-.28-1-.06-.9.2.32.41,1.18.66,1.68a19.84,19.84,0,0,0-1.66-3.93c0,.2-.18.13-1-.74-.5-.58-.84-.87-1-1.07s-.23-.29-.24-.35.07-.15-.64-.75c-.33-.18-.93-.52-1.46-.8s-1-.44-1.11-.31a5.8,5.8,0,0,1-1.27-.67,17.83,17.83,0,0,0-1.8-.32,8.94,8.94,0,0,0-1.17-.09,10.26,10.26,0,0,0-1.11,0c-1.37,0-2.34.08-1.48.24l.39,0h-.25c-5,.3-10.37-.16-15.32,0v-.1c-3,.12-6.58.07-8.69.28-.87,0-2.06-.18-1.69-.3a44.55,44.55,0,0,1-5.77,0c2.27-.18-.79-.16,2.33-.13a43.68,43.68,0,0,0-6.76,0c1.08-.26-2.21-.32-3.6-.25l2.06.19c-1.57,0-2.94,0-4.34,0l.76-.33c-6-.41-10.84.68-15.41,0-1.59.23,3.26.16,1.84.43-2.76,0-5.64-.52-6.51-.52-3.78-.18-3.53.49-7.49.36.51.12,1,.43-2,.55-2.77,0-3.4-.5-1.66-.6.67,0,1,0,1,.07.89,0,2.06-.09,1-.22l-.36.12c-1.37-.12-5.17-.11-4.28-.31-2.09.12-.89.2.65.26-3.54-.17-5.54,0-9.19-.12.58.07,1.12.2.54.2-5.35-.14-2.36.23-6,.28-2.06-.18.74-.43-2.91-.28-2.23-.12-.47-.31.41-.41a71.18,71.18,0,0,1-8.11-.19l1.75-.1c-1,.06-1.91.06-2.78.06l1,.23a7.15,7.15,0,0,1-1.88-.14c-1.06.16.81.4-1.29.61-1.37-.12-4.18.13-4.65-.19,4.31.11-.48-.31,3.17-.36-.7,0-1.56,0-2.6,0-.15,0,.15-.06.43-.08-4.13-.28-1.9.35-6.17.35.54-.18-1-.34-1.69-.3,1.72,0,.82.29-.76.43a39.58,39.58,0,0,0-4.42.09L685,354a22.61,22.61,0,0,1-3.84.21c-.16-.14,1.74-.09,1.05-.15-2.12.31-4.79-.33-7.76-.12-1.37-.12-.13-.33-1.33-.41-3.32.23-3.6-.25-7.09-.06,1,.24,1.19.18-1.27.42l5.73-.17-3.68.35c1.73,0,3.66-.15,4.69-.11-1.75.19-1.57.13-.74.33-2.37-.36-4.7.21-7.43,0l.08-.59c-4.12-.27-7.31.3-12.66.15l1.72.1c-.72.24-3.3,0-5,.13.16-.2-.92-.27-1.66-.39.09.15-3.91,0-4.39.38l-2.39-.26c-4.32-.11-4.92.56-9.07.5,1.25-.22-.64-.36,2.14-.51a10.51,10.51,0,0,0-2.65.1c-.81-.13-3.84.26-5.11.07a7.51,7.51,0,0,1-2.33.28c-.17,0,0-.1,0-.1s-2.43.14-1.07.36c-4.27-.62-11.93,0-15.64-.49-3,.07-6.66.13-9.41.15.18-.06,0-.1.53-.08-3.79-.19-2.33.56-6.63.36-2.2-.32,2.28-.17.91-.29-.6-.65-5.2.08-8.09-.29l.7,0c-2.22-.22-5.41.24-9,.2,0,0,.18-.06,0-.1-2.47.33-7.16.44-10.64.53,1.08-.25,1.58-.13.92-.39-1.56,0,.46.41-2.66.49-1-.14-3.26-.26-3.56-.54l2.94,0c-1.5-.35-3.8,0-5.35-.05l.2-.15c-4.51.05-4.57.44-9.41.41l.5.12c-2.64.39-2.22-.22-4.86.07l-.79-.39c-1.75.09-6.12.38-9.25.45,1.77-.29,5.44-.44,7.7-.61a67.11,67.11,0,0,0-6.78.22,17.27,17.27,0,0,1,2.27-.07,59.25,59.25,0,0,1-8.37.45c.31-.38-1.94-.43-4.57-.45-1.32,0-2.72-.07-4.08,0s-2.44.43-3.13.53a14.25,14.25,0,0,0-7.11,6.74,13,13,0,0,0-1.29,5.09c-.06,1.72-.05,3.38-.05,5.17.6-2.52,0,2.08.63,1.64a17.9,17.9,0,0,1,0,2.43l-.37,5c-.17,1.19-.13-1.57-.27-1.42,0,3.62-.26,1.52-.42,3.92.22-.5.31,1.26.23,3.32l.28-2.91c.33,5.07-.51,4.38-.19,9.48l-.19-1.61c.11,2.62,0,9.66.49,12.23-.08.46-.24,1.08-.29-.08-.07,6.26.53,13.94.22,18.8l-.15-.47a18.4,18.4,0,0,1,.13,3.49c-.06-.07-.14-.47-.15.07a40.72,40.72,0,0,1,.17,4.65l-.17-1.32c-.19,6.11.41,9.37.52,14.49-.22,0-.37,1.19-.47,2.69-.05.75-.09,1.58-.12,2.37,0,.37,0,.82,0,1.22a7.37,7.37,0,0,0,.08,1.1l-.07-.08a12.67,12.67,0,0,0,5.4,8.79,13.35,13.35,0,0,0,4.43,2,17.1,17.1,0,0,0,4.94.32c4.08.48,13.84.2,20.41.47-1-.08.16-.34,1.33-.39,1.54.09,4.26-.3,4,.1h-.55c1.16.4,4.33.29,6.8.3l.41-.53c6.47.77,17-.28,20.49.41,1.56-.13,3.49-.13,5-.26l-.09.28c4.33.07,6.49.11,11.84,0l-1.09.2c3,0,3.81-.81,6.59-.83l.84.42c5.26,0,10.58.37,15.78,0-.08.07-.24.19-1.09.21,2.48,0,9.58.28,8.68-.3.06.38,5.43,0,8.27-.13l-.44.28a33.4,33.4,0,0,1,5.83-.55c.79,0,.69.22-.36.15,2.64.15,2.06-.26,5.27-.11l-1.2.17a16.19,16.19,0,0,0,4-.28,23.21,23.21,0,0,1,5.57.32,11.82,11.82,0,0,1,3.46-.28c.22.09-.37.15-.66.18,4.55.19,6.76-.32,9.89,0a.88.88,0,0,0,.53.17c-3.61,0-6.52,0-6.25-.05,0,.26,2.92.31.6.66a83.91,83.91,0,0,1,9.19-.49,1.77,1.77,0,0,1,.38.09l-.29,0a14.91,14.91,0,0,0,1.8-.05c.9.05,1.48.08,2.35.08a32.56,32.56,0,0,0,4.81.13c-.12-.29,1.78-.24,0-.47.23,0-.28,0-1.25,0l-.62,0,.1,0-3.62,0a16.24,16.24,0,0,1,4-.11c.74-.18,1.57-.37,2-.45,2,.39,5.83.6,6.37.84,4.44-.16,10.47-.1,13.27-.63a4.73,4.73,0,0,1,1.92.23c-.73.06-1.6.05-2,.12,2.53-.13,7.49-.05,8.09-.42,3.19.17-1.79.34,2.59.28l-.59.12c8.61.58,14-.95,23.54-.19a5.25,5.25,0,0,1-1.12-.13c10.88.33,22.43-.31,33.17.22a25.59,25.59,0,0,0,5.24-.31l.67.3,3.18-.35c4.52-.25,7.82.74,13.54.26l-.73-.2c2,0,6.5-.12,6.16.11a3.56,3.56,0,0,1,1.48-.1l.06.15,5-.27c3.91.12-.61.63,5.1.66,2.12-.06,6-.46,5.24-.56a6.77,6.77,0,0,1-2.25-.26l1.94-.08c.35-.47,1.85-.95-2.92-1.27l-3.32.28L797,459.6l2.8,0a13,13,0,0,0-3.72.11,4.3,4.3,0,0,0-1.39-.25l-3.26.44c-.39-.18,1.47-.36-.72-.46-1.53.21,1.46.41-1.06.55a7.22,7.22,0,0,0-3-.21c-.26-.12.13-.19.87-.25-1.66.15-4.39.06-5.25.31-1.65-.26-5.6.07-5.44-.37a37.75,37.75,0,0,1-4.44.36c2.78-.52-5.71,0-5-.59-2.06.47-7.44.21-11.09.47a4,4,0,0,1,.93-.09c-2.06,0-2.66-.18-4-.27-.26.39-3.46.48-5.18.72-2.52-.38,1.53-.46.74-.82.12.32-4.38.32-3.52.58a9,9,0,0,1-2.65-.44c-.34.49-1.8.09-3.39.39-2.79-.25-.72-.46-3.78-.31C734,459.3,736.72,459.12,736.72,459.12Zm-72.8.85h1.5Zm-6.12,0,2.66,0c.21.09,0,.19-.64.19C660.16,460.11,658.72,460.06,657.8,460Zm12.94,1.95a3.92,3.92,0,0,1-1.42-.07l1.69,0,.12,0A1.41,1.41,0,0,1,670.74,461.92Z"/><path class="cls-1" d="M672.48,461.55l.4,0-.57-.06-.35.09Z"/><path class="cls-1" d="M802.65,354.3h-.13l.27,0Z"/><polygon class="cls-1" points="573.32 459.44 573.33 459.51 573.86 459.44 573.32 459.44"/><path class="cls-1" d="M816.1,379.58a2,2,0,0,0-.07.44A2.51,2.51,0,0,0,816.1,379.58Z"/><path class="cls-1" d="M816,394.13l-.1,2.06C816,395.3,816,394.65,816,394.13Z"/><path class="cls-1" d="M815.9,405.33a.64.64,0,0,0,.12.22v0Z"/><path class="cls-1" d="M684.15,355.8h-.43C682.71,355.86,683.39,355.84,684.15,355.8Z"/><path class="cls-1" d="M737.1,355.14c-.56.05-1.11.1-1.7.13C736.34,355.29,737.08,355.3,737.1,355.14Z"/><path class="cls-1" d="M625,356.14h0Z"/><path class="cls-1" d="M732.94,355.27a22.34,22.34,0,0,0,2.46,0C734.63,355.25,733.72,355.23,732.94,355.27Z"/><path class="cls-1" d="M814.76,453.31l-.23.44s0,0,0,.08Z"/><path class="cls-1" d="M814.55,453.83a4.59,4.59,0,0,1-.24.5A1.4,1.4,0,0,0,814.55,453.83Z"/><path class="cls-1" d="M813.72,455.35a9.33,9.33,0,0,0,.59-1C814.1,454.68,813.83,455.1,813.72,455.35Z"/><path class="cls-1" d="M815.9,439l-.1-.17C815.82,438.94,815.85,439,815.9,439Z"/><path class="cls-1" d="M815.87,434.51c0,1.08-.21,2.7-.15,4.2l.08.14C815.65,438.14,816,435.53,815.87,434.51Z"/><path class="cls-1" d="M817.13,415.72l-.08,3.77c.11-.65.26-1.52.28.19C817.66,414.93,817.09,420.67,817.13,415.72Z"/><path class="cls-1" d="M817.29,404c.05,2,.16,0,.22.09C817.41,402.82,817.39,402.51,817.29,404Z"/><path class="cls-1" d="M776.25,354.08l.21-.26C774.9,353.86,776.44,353.92,776.25,354.08Z"/><polygon class="cls-1" points="760.09 355.4 761.61 355.56 762.34 355.32 760.09 355.4"/><polygon class="cls-1" points="750.55 353.58 751.23 353.54 748.62 353.63 750.55 353.58"/><path class="cls-1" d="M608.57,353.67l.47.31C610.1,353.92,610.32,353.57,608.57,353.67Z"/><path class="cls-1" d="M547.28,354a12.3,12.3,0,0,0-3.45-.11C545.2,353.9,546.58,354,547.28,354Z"/><polygon class="cls-1" points="557.07 461.96 555.83 462.07 558.16 461.98 557.07 461.96"/><path class="cls-1" d="M288.55,283.52c-.41.08-.16.3.93.19a4.77,4.77,0,0,0,.73-.42A13,13,0,0,1,288.55,283.52Z"/><path class="cls-1" d="M295.7,281.73c1-.93,1.74-2.27,1-1.85a12.49,12.49,0,0,1-1.93,2.29,4.22,4.22,0,0,1-1.24.61c-.31.1-.48.11-.42,0a5.93,5.93,0,0,1-1,.4,4.55,4.55,0,0,0-1.16.43,7.39,7.39,0,0,0,4.72-2.12C296,281.31,295.74,281.62,295.7,281.73Z"/><path class="cls-1" d="M288.6,177.72l.75.08C289.14,177.77,288.89,177.74,288.6,177.72Z"/><path class="cls-1" d="M219.26,177.54a2.43,2.43,0,0,0,.77-.07C219.54,177.49,219.14,177.51,219.26,177.54Z"/><path class="cls-1" d="M207.42,177.17l.69,0A3.45,3.45,0,0,0,207.42,177.17Z"/><path class="cls-1" d="M288.6,177.72l-1.85-.1A7.52,7.52,0,0,0,288.6,177.72Z"/><path class="cls-1" d="M299.7,267.88c0,.39.05.71.09,1l0-.95Z"/><path class="cls-1" d="M301.29,202v.57a3.62,3.62,0,0,0,.13.47Z"/><path class="cls-1" d="M301.34,225.42a1.31,1.31,0,0,0-.39-.91,3.93,3.93,0,0,1,.19,1.15C301.19,225.67,301.26,225.6,301.34,225.42Z"/><path class="cls-1" d="M300.84,262.62l0,.66C300.87,263.11,300.85,262.82,300.84,262.62Z"/><path class="cls-1" d="M300.23,185a.43.43,0,0,0,0-.25S300.2,184.86,300.23,185Z"/><path class="cls-1" d="M261.36,282.87s0,0,0,.05S261.54,282.87,261.36,282.87Z"/><path class="cls-1" d="M288.55,284.26h-.37a.34.34,0,0,0-.08.16Z"/><path class="cls-1" d="M185.75,176.81h.09C186.41,176.79,186.09,176.79,185.75,176.81Z"/><path class="cls-1" d="M.45,198.13c.26-2.25.33,3.67.61.28C1,198.72.62,195.32.45,198.13Z"/><path class="cls-1" d="M299.74,267.27v-1C299.73,266.75,299.73,267.05,299.74,267.27Z"/><path class="cls-1" d="M1.06,198.41h0l0-.35C1.07,198.2,1.07,198.28,1.06,198.41Z"/><path class="cls-1" d="M135.82,177a2.64,2.64,0,0,0,.51.13S136.2,177,135.82,177Z"/><path class="cls-1" d="M173,177.38l-.92,0C172.46,177.37,172.76,177.38,173,177.38Z"/><path class="cls-1" d="M116.51,177.38a9.61,9.61,0,0,0-1.35,0l.21,0A4.46,4.46,0,0,1,116.51,177.38Z"/><path class="cls-1" d="M96.41,177.38l.37.06.64,0Z"/><path class="cls-1" d="M200.28,283a4.88,4.88,0,0,1,.92.25C200.89,283.05,203.85,283,200.28,283Z"/><path class="cls-1" d="M299.86,267.87a1.4,1.4,0,0,1-.12-.6c0,.24,0,.46,0,.67S299.84,268,299.86,267.87Z"/><path class="cls-1" d="M115.7,179.6l-3.2,0C113.39,179.58,114.56,179.6,115.7,179.6Z"/><path class="cls-1" d="M56.08,283l.73,0A4.05,4.05,0,0,0,56.08,283Z"/><path class="cls-1" d="M103,179.6a16.6,16.6,0,0,0-1.79-.2,2.23,2.23,0,0,0-.37.07Z"/><path class="cls-1" d="M201.21,283.26h0Z"/><path class="cls-1" d="M222.24,282.59c-3,0-1.42.36-2.07.57-3.63.11-1.68-.27-2.92-.46-2.26.1-4,.44-5.7.42-.12-.06-.45-.08-.06-.16-2.4.3-7.12,0-9.92.39l-.36-.09c.45.18.52.37.43.5-1.36,0-2.53.24-3,0a4,4,0,0,0,1.3-.16l-1.43.1c-1.28-.34,1.95-.12,1.95-.37-2.78.11-6,.4-8.17.3-.44-.34,5-.12,2.15-.42l3.3.13c-2.52-.53,2,0-.31-.53-4.35-.1-4.87.17-9.2.07-1,.19.32.28-.66.47-6.16.34-4.85-.86-9.38-.4a11.74,11.74,0,0,1-4.86.43l1.1-.39c-4.21,0-2.4.55-6.81.3.78-.16,3.31-.13,2.67-.18-2.86-.3-2,.22-4.22.22l-.45-.34c-4.49,0-9.42.3-14.39.36.28-.1,1.13-.21,0-.31-6.27.17-13.37,0-19.41-.24l-2.31.29c-.53,0-1-.13-.41-.19-2.36-.11-.12.19-1.26.3-1.33,0-1.76-.17-.92-.25a158.33,158.33,0,0,1-16.2.22l.85-.09c-3.41-.12-3.85.6-7,.33l.61,0c-7.4-.13-15.57.14-21.21-.31-1.08.43-7.33-.18-7.8.41-4.22-.3-3-.4-9-.6-1.59,0-2.37.37-4.33.43l0-.31-2.67.33-1.42-.37-1.84.08c.73,0,1.56.14,1.45.22a34.49,34.49,0,0,1-7.09-.37l-6.8.26a12.5,12.5,0,0,1,2.19-.24c-3.64.31-.66-.33-4,0,.44.07-.24.18-.32.25A78.43,78.43,0,0,0,34,283l.53-.22c-5-.05-10.64.11-16.31.1,2,.1,1.57.47-.09.5l-.67-.32c-1.07.2,1.74.12-.47.37-2.11,0-1.42-.37-.2-.48l-2.58.11c-.15-.09.46-.14.61-.27a5.66,5.66,0,0,1-1.16,0,10,10,0,0,1-1.45-.19c-1-.16-2-.58-2.69-.65a.64.64,0,0,1-.08-.14,11.06,11.06,0,0,1-4.59-3.74A10.36,10.36,0,0,1,3,273.16c-.14,0-.22-.45-.3-1s-.09-1.43-.2-2.12c.09-3.39.31-7.15.29-11.24-.14-2.87-.24-.84-.41-2.13.26-.21.23-4.29.42-2.17,0-4.91-.05-6.27-.26-12.47-.11.67-.15,1.43-.24,1a5.87,5.87,0,0,1,.23-2.4l0,.3c-.39-7,.75-16.07.21-21.62l0,.32-.28-5.75c0-2.65.19,1.58.35-.37-.43-6.21.06-9.8-.22-14.91A26.13,26.13,0,0,0,3,194.67c0-.79,0-1.64,0-2.52,0-.43,0-.88,0-1.33v-.68l0-.61a10,10,0,0,1,1.33-4.62,8.76,8.76,0,0,1,2.84-3l-.33,0A4.63,4.63,0,0,1,9,180.75c-.19-.1-1.24.52-.63,0a10.35,10.35,0,0,1,3.73-1.33,5.47,5.47,0,0,1,1-.1c.33,0,.66,0,1,0h2.24l9.05.12,18.16.35c4.38,0,2.48-.92,8-.49l-1.56.33c8.84-.4,18.07,0,26.73-.33a5.16,5.16,0,0,1-1.38.18,30.25,30.25,0,0,0,6.79-.19c1.35,0,.31.18,1.14.28,1.84.14,4.61-.31,5.58-.07.17,0-.51.08-.85.1,1.19-.12,5.57,0,4.42-.25,3.25.13,6.22-.12,8.81,0,1.69-.31,5.56.15,6.09-.29-.23.46,5.7.37,7.75.16-.69.13,1.79.14,1,.33,2.35,0,4.49-.09,4.08-.33,4.32.55,8.68-.43,11.11.26,7-.24,13.41-.41,19.67-.51-.23.45-6.92,0-6.65.52,5.94-.19,9.36-.58,15.26-.47,1.52.06-.87.2-1.39.28,5.94-.19,11.48,0,16.76-.21a5.6,5.6,0,0,1-1.12.12c1,0,2.42.07,2.3-.14l-1,.06c-1.66-.3,4.13-.62,4.32-.78-1.77.59,5.21.15,2.41.89.68,0,1.54-.13,1.38-.27,1,0,1.34.12.31.27,3.73-.11,2.41-.33,5.78-.32,0,.1-.69.14-1,.25a40,40,0,0,1,6.28-.3c-.17.06.16.14-.69.14,4.9,0,8.36-.52,13.74-.33-1.59.43,1.83.14,2.11.51l2.89-.11-1.16-.18c2.54,0,4.77-.26,7-.14l-1.88.15,4.75-.07-2.69-.14c2.56-.19-.28-.47,3.1-.37-.69,0,2.53,0,3.85.23h0a27.81,27.81,0,0,1,4.42-.16c.48.12-.39.42-.08.5,1.24-.31,5.94-.09,7.5-.42-.52.08-.55.27-.38.31l1-.25c1.18.08,1.35.12,1.16.28,3.53,0-1.12-.48,3.06-.27-.32,0-.17.05-.85.09,4.21.11,8.13-.16,12,0,1.14.37-3.37.09-2.07.41,5.58-.07,11.54-.45,16.94-.37l-1,0c.75-.53,4,.26,6.75,0-.67,0-.88.3-.7.24,3.7.08,7.56-.13,13.15-.3l-.69.14c.55,0,1.18.05,1.85.06l1,0,1,.06a11,11,0,0,1,3.7,1.06c.67.13,1.74.87,1.18.28a13.73,13.73,0,0,1,5.35,8.11,28.78,28.78,0,0,1,.3,4.86,46,46,0,0,1-.2,4.86c0-.77-.12-1.83-.12-1.22l.12,5.48c.24-.43.14-.72.32-1.87a23,23,0,0,1,.25,3.6c-.16-2.46-.37,0-.5,1.09.07-.18.15.18.22.09-.41,2.87.46.48.19,4.39l-.12-.21c.06,1.47.22,2.82.18,4.39-.26.66-.12-1.55-.34-1.65,0,2.21.5,4.37.24,6.37-.08-.94-.08-2.29-.15-3.23a23.78,23.78,0,0,0-.29,4.06v-.16l-.14,3.75.08-1c.7,2.78.13,5.65.59,9.38-.43-3.63-.25-.6-.55-.87-.09.95-.18,2.4-.27,2,.25,1.76-.19,2.94.17,5.43-.1.12,0,1.89-.26,1.49.08,2.3.17-.54.29-.34.34,3.53-.4,8.31.06,13.4.19,4.39.51,5.2.68,9.27-.16,1.38-.36-1.12-.36-1.12a47.56,47.56,0,0,0,0,6c-.09-.42-.16,0-.27.65,0,1.68.36,1.12.21,3.33a9.71,9.71,0,0,1-.39-1.67c0,1,.11,2,.18,3,0,.5,0,.95,0,1.44a12.29,12.29,0,0,1-.16,1.46c-.27.46,0-1.21-.1-1.89a11.71,11.71,0,0,1-.68,3.62c-.42,1.14-.92,2.07-1,2.42.31-.36.56-.77.84-1.16-.42.71-.39.25-.17-.3a9.63,9.63,0,0,1,1.17-2.59,9.62,9.62,0,0,1-.35,1.38,5.76,5.76,0,0,0,.89-3.67c-.05-1.64-.24-3.47-.21-4.93l.41,1.22-.34-3c.1-.63.34-1.07.4.38.2-2.11-.15-1.87.08-3.67,0-.2.06-.11.07.07l-.12-2.05c.09.4.29-.34.23.92.24-3.69-.31-6,0-7.33l0,.3c-.14-5.11-.3-.49-.66-4.33l.75-2.58-.3-.5c0-.53,0-1.57.15-1.38-.21-2-.13.33-.33-.81.28-2.54-.13-7,.36-7.57-.23-.91-.18,2.43-.34-.28.52-.78-.09-3.14.15-5.46.27.71.12,2.91.37.59-.46-1.4.1-4.52,0-6.48-.37-.09-.15-4.25-.27-7.54.12.21.2-6.18.33-9.23l.06.09c-.37-.59-.3-3.75-.38-6,.22.09.31.5.41,1.75v-2.16a13.49,13.49,0,0,1-.22-2.58l.27.54c0-2.87-.32-5.78-.14-9.48-.26-.2-.71,2.94-.89-1,.12-.15.39-.3.44.73,0-.34-.14-1.2-.13-1.88.11.51.23,1,.3,1.57a3,3,0,0,0-.1-1.26,3.82,3.82,0,0,1-.24-1c.1,0,.09-.26.09-.5s-.06-.44,0-.37c.13.34.14,1.22.28,1.74a21.46,21.46,0,0,0-.76-4.09c-.05.17-.23.09-.78-.92-.76-1.28-.95-1.47-.93-1.61s.13-.16-.44-.85c-.54-.52-2-1.83-2.21-1.6a5.44,5.44,0,0,1-1.05-.94,14.9,14.9,0,0,0-3.81-1.31c-1.41-.23-2.4-.14-1.53,0,.13,0,.26,0,.39.05h-.25c-1.28,0-2.48.06-3.75.05s-2.51,0-3.78-.06c-2.52-.06-5-.14-7.46-.08v-.1c-2.88.11-6.42.07-8.48.28-.85,0-2-.18-1.65-.3a42.84,42.84,0,0,1-5.64,0c2.22-.17-.76-.15,2.28-.12a40.45,40.45,0,0,0-6.6,0c1-.25-2.15-.32-3.52-.24l2,.18c-1.53,0-2.87,0-4.23,0l.74-.33c-5.87-.4-10.58.69-15,0-1.55.24,3.18.17,1.8.44-2.7-.05-5.51-.52-6.36-.52-3.69-.19-3.44.48-7.31.36.49.11,1,.43-1.93.54-2.7,0-3.32-.5-1.61-.59.65,0,1,0,.93.07.87-.05,2-.1.95-.23l-.35.12c-1.34-.12-5.06-.1-4.18-.3-2,.11-.88.2.64.26-3.47-.18-5.41,0-9-.12.57.06,1.09.2.53.2-5.23-.15-2.3.22-5.85.28-2-.18.73-.44-2.84-.28-2.18-.13-.46-.32.41-.42a68,68,0,0,1-7.93-.19l1.71-.09c-1,.05-1.86.05-2.71.05l1,.24a6.8,6.8,0,0,1-1.83-.14c-1,.15.79.39-1.26.6-1.34-.12-4.08.13-4.54-.18,4.21.11-.47-.32,3.1-.37-.69,0-1.53,0-2.54,0-.15,0,.14-.07.42-.09-4-.28-1.85.36-6,.35.53-.18-1-.33-1.65-.3,1.68,0,.8.3-.74.44a41,41,0,0,0-4.31.08l1.6.07a23.89,23.89,0,0,1-3.75.21c-.16-.14,1.69-.1,1-.16-2.08.31-4.69-.32-7.58-.11-1.34-.12-.13-.34-1.3-.42-3.24.23-3.51-.24-6.92-.05,1,.24,1.16.18-1.24.41l5.6-.16-3.6.34c1.69,0,3.57-.15,4.58-.11-1.71.2-1.53.14-.73.34-2.31-.36-4.58.2-7.25,0l.08-.59c-4-.26-7.14.31-12.35.16l1.67.1c-.7.23-3.22,0-4.91.13.16-.2-.9-.27-1.62-.39.09.14-3.82,0-4.29.38l-2.33-.26c-4.21-.11-4.81.56-8.85.49,1.21-.21-.63-.35,2.09-.51a10.59,10.59,0,0,0-2.59.1c-.79-.12-3.75.27-5,.08a7.47,7.47,0,0,1-2.28.28c-.16,0,0-.1,0-.1s-2.38.13-1,.35c-4.17-.61-11.64.05-15.27-.48-3,.06-6.5.13-9.18.14.17-.06,0-.1.51-.08-3.69-.18-2.27.57-6.47.37-2.15-.32,2.23-.18.89-.3-.58-.65-5.07.09-7.9-.29l.68,0c-2.16-.22-5.27.25-8.81.2,0,0,.18-.05,0-.1-2.41.34-7,.45-10.39.54,1.06-.26,1.55-.14.9-.4-1.52,0,.45.42-2.59.49-1-.14-3.18-.26-3.48-.53l2.87,0c-1.47-.36-3.71,0-5.22,0l.19-.16c-4.4.06-4.46.45-9.18.42l.49.12c-2.59.39-2.17-.22-4.75.07l-.77-.4c-1.71.1-6,.39-9,.46,1.73-.29,5.31-.44,7.52-.62a63.66,63.66,0,0,0-6.62.23,16.39,16.39,0,0,1,2.21-.08,56.09,56.09,0,0,1-8.16.46c.29-.38-1.9-.43-4.47-.46-1.28,0-2.65-.06-4,0s-2.39.39-3.06.49a14.28,14.28,0,0,0-7.06,6.47,12.92,12.92,0,0,0-1.42,4.92c-.08.92-.06,1.7-.08,2.54v2.56c.6-2.47,0,2,.63,1.59a17.16,17.16,0,0,1,0,2.38l-.37,4.9c-.17,1.16-.13-1.54-.27-1.39,0,3.54-.26,1.48-.42,3.82.22-.48.31,1.23.23,3.25l.28-2.84c.33,4.94-.51,4.27-.19,9.26l-.19-1.58c.11,2.56,0,9.43.49,11.94-.07.45-.24,1.05-.29-.07C.26,231.8.86,239.29.55,244l-.15-.47A17.65,17.65,0,0,1,.53,247c-.06-.08-.14-.46-.15.07a38.6,38.6,0,0,1,.17,4.54l-.17-1.3c-.19,6,.41,9.15.52,14.15-.44,0-.59,4.68-.66,7l-.06-.08a15.72,15.72,0,0,0,.15,2.71,9.21,9.21,0,0,0,.27,1.31,10.54,10.54,0,0,0,.4,1.24,12.72,12.72,0,0,0,2.58,4.15A13.22,13.22,0,0,0,12.1,285a11.9,11.9,0,0,0,1.85.24c.65,0,1.37.07,2.15.09,1.56.05,3.32.07,5.16.08,3.68,0,7.67,0,10.87.15-1-.08.16-.34,1.3-.38,1.51.09,4.16-.31,3.93.1h-.54c1.13.39,4.23.29,6.64.3l.4-.53c6.32.77,16.55-.28,20,.41,1.52-.14,3.41-.13,4.92-.27l-.08.29c4.22.07,6.33.1,11.55,0l-1.07.2c2.95,0,3.72-.82,6.44-.83l.82.42c5.13,0,10.33.36,15.41,0-.09.06-.24.18-1.07.2,2.42,0,9.36.29,8.48-.29.06.38,5.3,0,8.07-.13l-.43.28a30.78,30.78,0,0,1,5.69-.56c.77,0,.67.23-.35.16,2.58.14,2-.27,5.14-.12l-1.17.18a15.49,15.49,0,0,0,3.91-.28,22.09,22.09,0,0,1,5.43.32,11.14,11.14,0,0,1,3.38-.29c.21.1-.36.16-.64.19,4.44.19,6.6-.33,9.66-.05.06.09.26.13.51.16-3.53,0-6.37,0-6.1,0,0,.26,2.85.3.58.66a77.71,77.71,0,0,1,9-.5,2.87,2.87,0,0,1,.37.09l-.29,0a14.34,14.34,0,0,0,1.76,0c.88,0,1.45.07,2.3.08a31.28,31.28,0,0,0,4.69.12c-.12-.28,1.74-.23,0-.47.22,0-.27,0-1.22,0-.21,0-.46,0-.6,0l.09,0-3.53,0a16,16,0,0,1,3.87-.1c.73-.19,1.53-.37,2-.46,1.95.39,5.7.61,6.22.85,4.34-.16,10.23-.11,12.95-.63a4.52,4.52,0,0,1,1.88.23c-.71.05-1.56,0-1.94.12,2.47-.13,7.31-.05,7.9-.42,3.11.17-1.75.34,2.52.28l-.57.11c8.4.59,13.66-.94,23-.18a5.31,5.31,0,0,1-1.1-.13c10.63.33,21.9-.32,32.38.21a23.84,23.84,0,0,0,5.13-.31l.64.31,3.11-.35c4.41-.26,7.64.74,13.22.26l-.72-.21c2,0,6.35-.12,6,.12a3.5,3.5,0,0,1,1.44-.11l.06.16,4.93-.27c3.81.11-.6.63,5,.66,2.07-.06,5.9-.46,5.12-.57a6.49,6.49,0,0,1-2.2-.26l1.9-.08c.34-.46,1.8-.94-2.85-1.27l-3.24.29-1-.23h2.73a12.8,12.8,0,0,0-3.63.1,4.18,4.18,0,0,0-1.35-.24l-3.18.44c-.39-.18,1.42-.36-.71-.46-1.49.2,1.43.41-1,.54a7.06,7.06,0,0,0-2.92-.2c-.25-.12.13-.2.85-.25-1.62.14-4.28.06-5.12.31-1.61-.26-5.47.07-5.31-.37a38.26,38.26,0,0,1-4.34.36c2.72-.53-5.57,0-4.85-.6-2,.48-7.26.21-10.83.48a3.41,3.41,0,0,1,.91-.09c-2,0-2.59-.19-3.88-.28-.26.4-3.38.49-5.06.73-2.46-.38,1.49-.46.72-.83.12.32-4.27.32-3.44.59a9.19,9.19,0,0,1-2.58-.44c-.33.49-1.75.08-3.31.38-2.72-.24-.7-.46-3.69-.31C219.59,282.76,222.24,282.59,222.24,282.59Zm-71.07.85h0l1.47,0Zm-6,0h2.59c.21.1,0,.2-.62.19A10,10,0,0,0,145.2,283.44Zm12.63,1.95a3.63,3.63,0,0,1-1.39-.08l1.66,0,.11,0A1.33,1.33,0,0,1,157.83,285.39Z"/><path class="cls-1" d="M159.53,285l.39,0-.56-.06L159,285Z"/><path class="cls-1" d="M289.48,177.81h-.13l.27,0Z"/><polygon class="cls-1" points="62.73 282.9 62.74 282.97 63.26 282.91 62.73 282.9"/><path class="cls-1" d="M300,205.14a1.41,1.41,0,0,0-.07.43S300,205.36,300,205.14Z"/><path class="cls-1" d="M299.94,219.35l-.1,2C299.9,220.49,299.93,219.85,299.94,219.35Z"/><path class="cls-1" d="M299.81,230.27a.42.42,0,0,0,.12.22v0Z"/><path class="cls-1" d="M173.77,179.26l-.42,0C172.36,179.33,173,179.31,173.77,179.26Z"/><path class="cls-1" d="M225.46,178.61c-.55,0-1.09.1-1.66.13C224.72,178.76,225.44,178.77,225.46,178.61Z"/><path class="cls-1" d="M116.05,179.6Z"/><path class="cls-1" d="M221.4,178.73a19.3,19.3,0,0,0,2.4,0C223.05,178.72,222.16,178.69,221.4,178.73Z"/><path class="cls-1" d="M298.54,277.05l-.23.43s0,0,0,.07C298.4,277.39,298.46,277.21,298.54,277.05Z"/><path class="cls-1" d="M298.32,277.55l-.25.48A2,2,0,0,0,298.32,277.55Z"/><path class="cls-1" d="M297.47,279a7.67,7.67,0,0,0,.6-1A11.42,11.42,0,0,0,297.47,279Z"/><path class="cls-1" d="M299.81,263.16l-.1-.17C299.73,263.09,299.76,263.14,299.81,263.16Z"/><path class="cls-1" d="M299.78,258.77c0,1-.22,2.63-.16,4.09l.09.13C299.55,262.31,300,259.76,299.78,258.77Z"/><path class="cls-1" d="M301,240.42,301,244.1c.11-.64.25-1.49.28.19C301.56,239.65,301,245.25,301,240.42Z"/><path class="cls-1" d="M301.2,229c.05,2,.15,0,.21.08C301.32,227.83,301.29,227.52,301.2,229Z"/><path class="cls-1" d="M263.68,177.54l.2-.25C262.35,177.32,263.87,177.38,263.68,177.54Z"/><polygon class="cls-1" points="247.91 178.86 249.39 179.02 250.1 178.79 247.91 178.86"/><polygon class="cls-1" points="238.59 177.04 239.25 177 236.71 177.1 238.59 177.04"/><path class="cls-1" d="M100,177.13l.46.32C101.48,177.39,101.7,177,100,177.13Z"/><path class="cls-1" d="M40.15,177.45a11.76,11.76,0,0,0-3.37-.1C38.13,177.37,39.47,177.49,40.15,177.45Z"/><polygon class="cls-1" points="46.86 285.43 45.66 285.53 47.92 285.45 46.86 285.43"/><path class="cls-1" d="M659.61,187.63c-.09-.3-.28-.13-.24.7l.33.59Z"/><path class="cls-1" d="M659,193.19c.17,1,.45,2.09.75,1.46-.32-1-.18-1.19-.56-2.23,0-.83.1-1.44.23-1.3-.09-.29.07-1.29-.14-1.73a10.3,10.3,0,0,0,0,3.86C659.14,193.55,659.06,193.26,659,193.19Z"/><path class="cls-1" d="M658.48,273.9l0-.52A3.67,3.67,0,0,0,658.48,273.9Z"/><path class="cls-1" d="M673.23,294.55c.23-.3.31-.45.29-.48C673.32,294.36,673.15,294.6,673.23,294.55Z"/><path class="cls-1" d="M667.59,301c.13-.13.23-.25.34-.37A1.81,1.81,0,0,0,667.59,301Z"/><path class="cls-1" d="M658.48,273.9l-.11,1.33C658.48,275.33,658.45,274.55,658.48,273.9Z"/><path class="cls-1" d="M659.79,204.32a4.79,4.79,0,0,0-.08-.73l0,.68Z"/><path class="cls-1" d="M658.21,251.85v-.4a2.68,2.68,0,0,0-.13-.34Z"/><path class="cls-1" d="M658.16,234.93c0,.39.27.52.39.67a2.17,2.17,0,0,1-.19-.84C658.3,234.76,658.24,234.81,658.16,234.93Z"/><path class="cls-1" d="M658.65,208.11l0-.48C658.63,207.76,658.64,208,658.65,208.11Z"/><path class="cls-1" d="M658.15,264a.32.32,0,0,0-.1.16S658.12,264.05,658.15,264Z"/><path class="cls-1" d="M678.55,189s0,0,0,0S678.42,189,678.55,189Z"/><path class="cls-1" d="M658.94,187.56h.27a.4.4,0,0,0,.06-.16Z"/><path class="cls-1" d="M657.52,312.92l.05-.05C657.8,312.53,657.66,312.72,657.52,312.92Z"/><path class="cls-1" d="M624.63,262.62c-.25,1.63-.32-2.64-.6-.19C624.14,262.2,624.47,264.65,624.63,262.62Z"/><path class="cls-1" d="M659.76,204.76v.69C659.77,205.13,659.77,204.92,659.76,204.76Z"/><path class="cls-1" d="M624,262.43h0l0,.25C624,262.57,624,262.52,624,262.43Z"/><path class="cls-1" d="M636.59,326.42a1.38,1.38,0,0,0,.15.36S636.73,326.67,636.59,326.42Z"/><path class="cls-1" d="M652.21,320.44l-.44.49C652,320.74,652.09,320.58,652.21,320.44Z"/><path class="cls-1" d="M627.08,316.24a4.61,4.61,0,0,0-.63-.74.66.66,0,0,0,.08.13A3,3,0,0,1,627.08,316.24Z"/><path class="cls-1" d="M617.49,305.38l.13.24.32.33Z"/><path class="cls-1" d="M661.06,157a2.47,2.47,0,0,1,.22.68C661.3,157.35,662.69,159,661.06,157Z"/><path class="cls-1" d="M659.64,204.32a.8.8,0,0,1,.12.44c0-.17,0-.33,0-.49S659.66,204.22,659.64,204.32Z"/><path class="cls-1" d="M625,317.27l-1.49-1.75C623.94,316,624.48,316.65,625,317.27Z"/><path class="cls-1" d="M600.86,188.78l-.53,0A2.16,2.16,0,0,0,600.86,188.78Z"/><path class="cls-1" d="M619,310.42a8.9,8.9,0,0,0-.71-1.1,1.11,1.11,0,0,0-.23-.15Z"/><path class="cls-1" d="M661.28,157.65Z"/><path class="cls-1" d="M671.31,169.06c-1.37-1.72-.93-.58-1.39-.81-1.72-2-.54-1.12-1-1.93-1.1-1.21-2.15-2-2.9-2.94,0-.11-.14-.3.09-.13-1.31-1.17-3.22-4-4.77-5.33a.75.75,0,0,1-.1-.27c.06.37,0,.53-.2.56-.62-.76-1.33-1.27-1.37-1.71a2,2,0,0,0,.72.62l-.73-.74c-.31-.94,1,1,1.17.86-1.34-1.49-3-3.14-3.92-4.4.06-.46,2.34,2.74,1.29.95l1.39,1.93c-.72-1.75.88,1.16.28-.51-1.89-2.5-2.34-2.62-4.22-5.12-.59-.43-.07.35-.66-.08-3-3.25-1.53-3.26-3.93-5.52a6.22,6.22,0,0,1-2.53-2.46l.8.38c-1.87-2.39-1.52-1-3.31-3.65.47.35,1.6,1.78,1.34,1.39-1-1.79-1.08-1-2.07-2.23l.06-.47-3.33-3.94-5,6c0-.22.38-.75-.25-.19-2.86,3.5-6.41,7.2-9.44,10.33l-.88,1.44c-.26.29-.58.45-.34.1-1.21,1.2.08.19-.38.88-.62.74-1,.84-.63.33a79.56,79.56,0,0,1-7.57,8.91l.35-.52c-1.72,1.76-1.39,2.48-3.1,4l.25-.36c-3.63,3.92-7.32,8.51-10.35,11.27-.19.86-3.63,3.84-3.42,4.48-1.12,1.05-1.55,1.39-2.08,1.86-.26.23-.55.49-1,.89-.2.2-.43.44-.71.71l-.45.46-.93,1a12.09,12.09,0,0,0-1.38,1.81c-.34.52-.61,1-1.13,1.66l.49,0-.57.31,3.63-.33c.43.13.93.25,1.51.37l.58,0,.33,0,.67,0c-.54,0-1.11-.14-1.07-.23a18.33,18.33,0,0,1,5.13.38l4.91-.26a6.65,6.65,0,0,1-1.58.24c2.62-.31.48.33,2.88,0-.32-.07.17-.19.23-.25a40.84,40.84,0,0,0,5.94.11l-.39.21c1.12,0,2.27,0,3.45,0l1.8,0H622l.15,0,0,.17V190c0,.78,0,1.57,0,2.36.1-1.47.47-1.13.51.07l-.33.48c.2.77.12-1.26.37.33,0,1.53-.37,1-.48.15l.12,1.86c-.1.11-.15-.33-.27-.44.2.76-.33,3.2,0,4.3l-.1.11c0,4.08.11,5.93.13,9.26.28.07.22,1.37.44,2.36-.09,2.44-.31,5.16-.28,8.11.14,2.07.24.6.4,1.53-.25.15-.23,3.1-.41,1.57,0,3.54,0,4.52.26,9,.1-.49.15-1,.23-.75,0,.81-.1,1.85-.23,1.73l0-.21c.38,5-.75,11.58-.22,15.58l0-.22.28,4.14c0,1.91-.2-1.14-.36.27.43,4.47-.06,7.07.23,10.75-.76,2.85.05,10.11-.43,14l.18-.22A5.52,5.52,0,0,1,622,278c.14-.11.16-1.08.26-.46,0,1.08,0,2.18.06,3.29l-4.22-.05-5.41-.13-10.81-.29a6.1,6.1,0,0,0-2.59.39,11,11,0,0,1-1.73.2c-.78,0-1.8,0-3.68-.09.42-.11.91-.22,1.49-.33l-2.69.07,2.81,3.09,2.23,2.47,3,3.36c2,2.25,3.92,4.47,5.94,6.53a2.83,2.83,0,0,1-.78-.63,16,16,0,0,0,3.37,3.55c.63.74,0,.28.34.8.77,1.08,2.43,2.28,2.71,3,.05.11-.3-.23-.48-.4.66.57,2.64,3,2.3,2.23,1.45,1.84,3.06,3.28,4.17,4.79,1,.71,2.54,3.1,3.13,3.1-.45.18,2.44,3.32,3.58,4.29-.43-.28.74,1.06.22.75,1.12,1.27,2.21,2.37,2.19,2,1.65,2.69,4.47,4.4,5.11,6.17l4.59,4.78,2.17,2.3,2.79,3,1.25-1.6a6.67,6.67,0,0,1-1.24,1.91l-2.42-2.67c-.48-.51-.86-.85-.94-.7l3.36,3.5,1.84-2.48,1.08-1.51c.71-1,1.49-2,2.45-3.1.73-.82-.24.61-.42.95,2.54-3.45,5.22-6.42,7.42-9.55a3.4,3.4,0,0,1-.41.71c.46-.59,1.14-1.32.93-1.38l-.42.61c-1,.74,1.39-2.72,1.35-2.92-.34,1.36,2.47-2.84,1.78-.8.28-.41.59-.95.42-.95.49-.54.7-.67.35,0,1.6-2.16.83-1.55,2.36-3.45.07.07-.21.48-.27.75a20.22,20.22,0,0,1,2.6-3.72c0,.13.18,0-.21.47,2.2-2.77,3.38-5,6-7.92-.39,1.16.93-.94,1.35-.87l1.22-1.69-.66.53c1.15-1.42,2-2.84,3-4l-.73,1.15,2.09-2.71-1.33,1.42c1-1.56-.49-.14,1.11-2-.28.41,1.15-1.42,1.92-2h0a14,14,0,0,1,1.88-2.57c.31-.2.14.47.34.35.32-.89,2.62-3.39,3.07-4.48-.18.34,0,.48.07.41.1-.26.16-.46.3-.77.73-.79.91-.95,1-.78,1.18-1.42.8-1.14.53-1s-.46.29.9-1.24c-.15.22,0,.07-.31.55l.69-.83c-.89,0-1.81,0-2.7,0l-2.41,0c-1.31,0-2.59.06-3.86,0-.82-.37,2.44-.09,1.49-.4-4,.06-8.32.45-12.21.36l.73,0c-.54.53-2.9-.26-4.87,0,.48,0,.63-.3.5-.24l-1.45,0-.87,0-.06-.78c0-.46,0-.94-.07-1.44,0-1.07-.1-2.22-.16-3.51l.14.5c.12-1.57.07-4.13.13-5.83-.14-.5-.11-1.47-.31-.88.77-5.23-.42-10,.23-14.61,0,.55.12,1.32.12.88l-.13-4c-.23.32-.14.52-.32,1.35a12.78,12.78,0,0,1-.24-2.59c.15,1.77.37,0,.5-.79-.07.13-.15-.13-.22-.07.41-2.06-.47-.34-.19-3.16l.12.15c-.06-1.06-.22-2-.19-3.16.27-.48.13,1.12.35,1.19,0-1.6-.51-3.15-.24-4.6.07.68.07,1.66.15,2.33a12.89,12.89,0,0,0,.28-2.92v.11l.15-2.7-.09.69c-.69-2-.13-4.07-.58-6.77.43,2.62.25.43.55.63.09-.68.18-1.73.26-1.43-.24-1.27.2-2.13-.16-3.92.1-.08,0-1.36.25-1.08-.07-1.65-.17.39-.29.26-.33-2.56.41-6,0-9.67-.19-3.17-.52-3.75-.68-6.69.15-1,.35.81.35.81a23.77,23.77,0,0,0,0-4.3c.08.3.16,0,.27-.47,0-1.21-.36-.81-.22-2.41a5.61,5.61,0,0,1,.4,1.21c-.09-1.42-.28-2.83-.36-4.31.17-.39.25.89.37,1.41a25.86,25.86,0,0,0-.43-4.8L659.2,197c0-.6.23-.31.28.14.21,1.42-.1,2-.2,2.13l-.06-1.06c-.57,1.08.09,4.22.06,6.34l-.41-.88.34,2.17c-.11.46-.34.77-.4-.27-.21,1.52.15,1.34-.08,2.64,0,.15-.06.08-.08,0l.13,1.48c-.09-.29-.3.25-.24-.66-.24,2.66.32,4.28,0,5.29l0-.23c.14,3.69.3.36.66,3.13l-.75,1.86.3.36c0,.38,0,1.13-.15,1,.2,1.41.13-.25.33.58-.28,1.83.13,5.05-.36,5.46.23.66.18-1.75.34.2-.52.56.09,2.26-.15,3.94-.27-.52-.13-2.1-.37-.43.46,1-.1,3.26,0,4.67.36.07.15,3.07.27,5.44-.12-.15-.2,4.46-.33,6.66l-.06-.06c.37.42.3,2.69.37,4.35-.22-.07-.3-.36-.4-1.26v1.56a7.05,7.05,0,0,1,.22,1.86l-.27-.39c0,2.07.32,4.17.14,6.83.25.15.71-2.12.88.7-.14.1-.37.21-.43-.53a6.71,6.71,0,0,1,0,1.35l-.23-1.13c-.1,1.22.2.64.18,1.61-.2,0-.15.71-.3.58a8.24,8.24,0,0,0,0-1.22,14.24,14.24,0,0,1-.3,2.85c.11-.09.27,0,.29.8,0,2.07-.24.71-.34,1.92.14.5,0,1.82.29,1.86a1.9,1.9,0,0,1-.22.95c.13,1.07,0,5,.35,3.8l0-.28,0,.18h0a39.27,39.27,0,0,1,.07,4.35l-.07,2.21-.06,2.63h1.3l1.17,0v.1c2.08-.11,4.63-.07,6.11-.28.62,0,1.46.18,1.19.3a23.29,23.29,0,0,1,4.07,0c-1.6.17.55.15-1.64.12a21,21,0,0,0,4.75,0c-.75.25,1.56.32,2.54.24l-1.45-.18c1.11,0,2.07,0,3.05,0l-.53.33c.47,0,.92.07,1.37.08h.68c.28,0,.62-.08,1.08-.14a4.11,4.11,0,0,1-.58,1c-.08.11-.48.6-.77.9a9,9,0,0,1-1,.95c-.52,1,1.57-1.69,1.15-.74-1.25,1.49-2.9,2.77-3.28,3.24-1.81,2-1.18,2.25-3,4.34.31-.2.77-.27-.45,1.43-1.25,1.49-1.89,1.55-1.19.53.29-.37.46-.52.47-.48.37-.52.84-1.19.26-.67l-.07.27c-.7.68-2.36,2.77-2.12,2.16-.84,1.22-.24.61.49-.2-1.7,1.84-2.45,3-4.15,5,.3-.28.65-.49.39-.17-2.47,2.84-.86,1.43-2.42,3.46-1,1,0-.68-1.51,1.42-1.07,1.15-.45.06-.13-.49a35.75,35.75,0,0,1-3.73,4.34l.69-1a17.08,17.08,0,0,1-1.18,1.56l.63-.4c-.49.54-.87,1-.94.95-.35.68.66-.2-.1,1.09-.7.67-1.74,2.37-2.2,2.43,2-2.3-.45.07,1.12-2a13.57,13.57,0,0,1-1.15,1.42c-.1.06,0-.12.12-.29-2,2.09-.56,1.27-2.45,3.61.1-.41-.7.33-1,.74.76-.94.59-.27,0,.69a20.88,20.88,0,0,0-1.88,2.48l.77-.86a11.77,11.77,0,0,1-1.53,2.24c-.18,0,.7-1,.35-.68-.7,1.36-2.37,2.43-3.51,4.18-.7.68-.32-.13-.92.48-1.28,2-1.77,1.82-3.16,3.85.63-.4.66-.53-.24,1l2.4-3.25L645,329.59c.77-.94,1.5-2.09,2-2.64-.63,1.09-.59.95-.07.62-1.33,1.08-1.91,2.71-3.31,4.06l-.42-.42c-.2.2-.38.41-.56.61l-.37.43a3.73,3.73,0,0,0-.29.44l-.31-.23-.2-.16-.48-.49c-.64-.67-1.33-1.41-2-2.3l.72,1a25.85,25.85,0,0,1-2.44-2.57c.22-.05-.23-.67-.48-1.14-.07.14-1.81-2.07-2.33-2.07l-.92-1.43c-1.93-2.35-2.71-2.23-4.59-4.46.74.52,0-.57,1.38.79-.65-.73-1.2-1.41-1.31-1.33-.29-.51-2-1.85-2.44-2.65a3.86,3.86,0,0,1-1.3-1c-.05-.12.08-.06.08-.06s-1.24-1.2-.77-.34c-1.52-2.66-5.58-6.26-6.92-8.57-1.45-1.56-3.2-3.44-4.49-4.87.13.05.08-.07.31.22-1.63-2.12-1.51-.85-3.36-3.26-.79-1.37,1.19,1.09.64.29.21-.75-2.48-2.69-3.55-4.47l.35.35c-.86-1.32-2.7-2.69-4.35-4.63,0,0,.13.05.08-.06a30.45,30.45,0,0,1-2.57-2.37L598,284c.6.3.75.65.64.14-.21-.22-.29-.15-.42-.13s-.33,0-1-.77a5.37,5.37,0,0,1-.39-.84,3.58,3.58,0,0,1,1,.27h-.42l.47.51c.08-.09,0-.19-.1-.34a5.67,5.67,0,0,1,1-.11,1.42,1.42,0,0,0,.05.16l1.16-.09,1.33-.15a23.83,23.83,0,0,1,3.4-.18l-.35-.12c1.86-.39,1.56.22,3.41-.07l.57.4c1.23-.1,4.3-.38,6.5-.46-1.24.29-3.82.44-5.42.62a33.31,33.31,0,0,0,4.78-.23,8.58,8.58,0,0,1-1.6.08,29.41,29.41,0,0,1,5.89-.46c-.14.25.49.36,1.46.41.48,0,1,0,1.66,0l2.65,0q0-.74,0-1.41c0-.23,0-.46,0-.68s0-.22,0-.32v-.21a6.39,6.39,0,0,1,.22-1.3c-.28-4.3.12-8.52.07-13.52-.59,1.77,0-1.46-.62-1.16a8.94,8.94,0,0,1,0-1.71l.36-3.53c.18-.84.14,1.11.27,1,.05-2.55.26-1.07.43-2.76-.22.35-.32-.88-.23-2.34l-.29,2.05c-.32-3.57.52-3.08.19-6.68l.2,1.14c-.12-1.84,0-6.8-.49-8.61.07-.33.24-.76.28.06.08-4.41-.52-9.81-.22-13.24l.15.33a10.07,10.07,0,0,1-.13-2.46c.06.06.15.34.16,0a21.08,21.08,0,0,1-.18-3.27l.17.93c.2-4.3-.41-6.6-.51-10.2.44,0,.58-3.37.65-5.06l.07.06c.05-5-.37-8.5-.54-13.14a30.48,30.48,0,0,0,.27-3.89c0-.79,0-1.63,0-2.49,0-1.27,0-2.58,0-3.88l-4,0c-.9,0-1.77-.05-2.57-.1.71.08-.11.35-.93.39-1.09-.09-3,.31-2.83-.1h.38c-.81-.39-3-.29-4.78-.3l-.29.53a42.36,42.36,0,0,0-7.51-.25l-3.15.09c-.42,0-.79,0-.73-.14l.3-.19c-.05,0,0-.17.1-.31l.13-.23a1.47,1.47,0,0,1,.09-.15l.24-.35.18.23c2.07-2.23,3.1-3.35,5.54-6.21l-.36.7c1.42-1.58,1.17-2.55,2.45-4l.71-.16c2.44-2.78,5.2-5.34,7.34-8.34,0,.08,0,.25-.36.71,1.16-1.3,4.68-4.87,3.82-4.78.31.22,2.56-2.84,3.76-4.45v.42a16,16,0,0,1,2.3-3.44c.4-.4.49-.22,0,.29,1.34-1.3.76-1.27,2.36-2.86l-.42.75a8.26,8.26,0,0,0,1.65-2.3,11.64,11.64,0,0,1,2.84-2.73,5.75,5.75,0,0,1,1.39-2c.18-.05,0,.29-.17.47,2.27-2.28,2.91-3.79,4.58-5.26.1,0,.22,0,.37-.17-1.69,1.91-3.06,3.43-3,3.27.19.17,1.59-1.34.77.12a41.55,41.55,0,0,1,3.92-5.18,1.49,1.49,0,0,1,.24-.14l-.12.18a7.62,7.62,0,0,0,.81-1c.45-.45.75-.74,1.16-1.19a.91.91,0,0,0,.34-.24l.24-.24.23-.24a4,4,0,0,0,.26-.32l.06.07c0-.2.09-.2.15-.21s.11,0-.06-.42c0,.07,0,0-.13-.11l-.15.19a1.3,1.3,0,0,0-.13.19v-.05l-1.3,1.5a10.47,10.47,0,0,1,.72-1.06,3.06,3.06,0,0,1,.32-.38,1.52,1.52,0,0,1,.32-.26L642,136a1.54,1.54,0,0,1,.43.17c.16.35.26.61.45,1l.7,1.22a8.58,8.58,0,0,1,.88,1.67c2.08,2.34,4.7,5.68,6.35,6.89a2.37,2.37,0,0,1,.66,1.2c-.36-.37-.74-.85-1-1,1.22,1.3,3.35,4.08,3.9,4.18,1.27,1.85-1.06-.77.92,1.59l-.35-.25c3.34,5.09,6.91,7.09,10.54,12.8a2.47,2.47,0,0,1-.4-.7c4.54,6.18,10.14,12.11,14.47,18.33a11.28,11.28,0,0,0,1.39,1.66c.35.33.71.61,1.06.9a.71.71,0,0,1-.15.3c.4.31.9.74,1.49,1.29l0,0a9.92,9.92,0,0,1-1.72,0l-1.91-.22a21.51,21.51,0,0,0-5,0l.52.21c-1.45,0-4.58.12-4.34-.12a1.86,1.86,0,0,1-1,.11l0-.16-3.56.27c-2.75-.11.44-.63-3.58-.66-1.5.06-4.26.46-3.7.57s1.55.1,1.59.25l-1.37.09c-.24.46-1.29.94,2.06,1.26l2.34-.28.75.22-2,0a6.5,6.5,0,0,0,2.62-.11,2.23,2.23,0,0,0,1,.25l2.29-.44c.28.18-1,.36.51.46,1.08-.21-1-.41.75-.54,1.12.21.79.38,2.1.2.19.12-.09.2-.61.25a28.71,28.71,0,0,0,3.69-.31c1.17.26,3.95-.07,3.83.37a11.55,11.55,0,0,1,1.3-.21l.94-.1c.46,0,1-.05,1.37-.05-2.08.36,1.88.24,4.59.31-.66-.87-1.08-1.5-.59-1.18-.64-.61-1.33-1.35-2-2.17l-1.78-2.09c-.93-1.11-1.92-2.35-2.83-3.27a2,2,0,0,1,.48.46,25.52,25.52,0,0,1-1.54-2.35c-.43.1-1.91-1.6-2.86-2.39-.81-1.62,1,.55,1-.12-.19.27-2.18-2.2-2-1.56-.67-1.2-.65-1-.83-1.73-.53.12-.86-.93-1.8-1.62-1-1.68,0-.68-1.42-2.27C670,167.67,671.31,169.06,671.31,169.06Zm-34.15-29.5h0l.69-.81Zm-2.85,3.23,1.24-1.39c.18-.05.14.14-.15.46C635.51,141.64,634.8,142.37,634.31,142.79Zm7.38-5.41a.31.31,0,0,0,0,.06l-.13.14a2.12,2.12,0,0,1-.2.21.7.7,0,0,1-.24.17l.34-.41a1.93,1.93,0,0,0,.17-.21l.07-.09v-.05A1.13,1.13,0,0,1,641.69,137.38Z"/><path class="cls-1" d="M641.84,136.65a.77.77,0,0,1,.09-.13.51.51,0,0,0-.15.07l-.06.2Z"/><path class="cls-1" d="M658.52,273.29v.09a.69.69,0,0,1,0-.19Z"/><polygon class="cls-1" points="593.48 188.92 593.61 188.85 592.93 188.9 592.97 188.84 592.91 188.91 593.48 188.92"/><path class="cls-1" d="M659.49,249.56a1,1,0,0,0,.07-.31A1.43,1.43,0,0,0,659.49,249.56Z"/><path class="cls-1" d="M659.55,239.32l.1-1.45C659.6,238.5,659.57,239,659.55,239.32Z"/><path class="cls-1" d="M659.69,231.44a.38.38,0,0,0-.12-.16v0Z"/><path class="cls-1" d="M654,321.19a3,3,0,0,0-.18.25C653.43,322,653.72,321.63,654,321.19Z"/><path class="cls-1" d="M676.87,291.73c-.21.34-.42.68-.65,1C676.65,292.25,677,291.85,676.87,291.73Z"/><path class="cls-1" d="M625.19,317.46h0l-.17-.19Z"/><path class="cls-1" d="M675.13,294.1a11.33,11.33,0,0,0,1.09-1.35A14.29,14.29,0,0,0,675.13,294.1Z"/><path class="cls-1" d="M659.82,197.29v-.38s0,0,0,0Z"/><path class="cls-1" d="M659.79,196.87l0-.42A1.09,1.09,0,0,0,659.79,196.87Z"/><path class="cls-1" d="M659.68,195.56l.07.89A3,3,0,0,0,659.68,195.56Z"/><path class="cls-1" d="M659.69,207.72l.1.12C659.77,207.78,659.74,207.73,659.69,207.72Z"/><path class="cls-1" d="M659.72,210.89a27.53,27.53,0,0,0,.15-2.95l-.08-.1C659.94,208.34,659.55,210.17,659.72,210.89Z"/><path class="cls-1" d="M658.46,224.12l.08-2.66c-.11.47-.25,1.08-.28-.13C657.94,224.68,658.5,220.64,658.46,224.12Z"/><path class="cls-1" d="M658.3,232.36c0-1.43-.16,0-.22-.06C658.18,233.2,658.21,233.42,658.3,232.36Z"/><path class="cls-1" d="M668.87,282.58l-.14.26C669.83,282.8,668.74,282.74,668.87,282.58Z"/><polygon class="cls-1" points="680.25 281.26 679.18 281.1 678.67 281.33 680.25 281.26"/><path class="cls-1" d="M681.31,283.71l0-.11-.11.22-.2.27-.27.38.41-.55C681.27,283.79,681.26,283.78,681.31,283.71Z"/><path class="cls-1" d="M619.38,307.15l0,.45C619.9,308.12,620.27,308,619.38,307.15Z"/><path class="cls-1" d="M604.33,282.67a6,6,0,0,0,2.43.1C605.79,282.75,604.83,282.63,604.33,282.67Z"/><polygon class="cls-1" points="607.5 186.39 608.37 186.28 606.74 186.37 607.5 186.39"/><path class="cls-1" d="M354.94,311.1c-.3-.07-.25.18.49.55h.67Z"/><path class="cls-1" d="M359.5,314.33c.92.33,2,.63,1.64.06-1-.19-1.14-.42-2.23-.59-.74-.37-1.2-.79-1-.83-.3-.07-1.09-.69-1.58-.72a10.66,10.66,0,0,0,3.35,1.92C359.89,314.38,359.59,314.31,359.5,314.33Z"/><path class="cls-1" d="M429.77,354l-.43-.28C429.45,353.82,429.6,353.92,429.77,354Z"/><path class="cls-1" d="M455,351.17c-.15-.35-.24-.48-.27-.49C454.87,351,455,351.26,455,351.17Z"/><path class="cls-1" d="M457.87,359.22c-.06-.17-.12-.32-.17-.47A1.41,1.41,0,0,0,457.87,359.22Z"/><path class="cls-1" d="M429.77,354l1.12.74C431,354.71,430.33,354.36,429.77,354Z"/><path class="cls-1" d="M369.61,319.05a4.47,4.47,0,0,0-.68-.28l.62.3Z"/><path class="cls-1" d="M410.38,343.54l-.36-.2a2.2,2.2,0,0,0-.36,0Z"/><path class="cls-1" d="M395.57,335.36c.33.2.58,0,.77,0a1.89,1.89,0,0,1-.82-.24S395.5,335.23,395.57,335.36Z"/><path class="cls-1" d="M372.37,321.89l-.44-.2Z"/><path class="cls-1" d="M420.93,349.48a.33.33,0,0,0,.09.16S421,349.55,420.93,349.48Z"/><path class="cls-1" d="M365.3,295.18s0,0,0,0S365.24,295.3,365.3,295.18Z"/><path class="cls-1" d="M354.55,311.64l.12-.24a.35.35,0,0,0-.11-.13Z"/><path class="cls-1" d="M463.41,373.83l0-.06C463.21,373.4,463.3,373.61,463.41,373.83Z"/><path class="cls-1" d="M403.47,378.12c1.29,1-2.47-1-.47.43C402.85,378.34,405.16,379.25,403.47,378.12Z"/><path class="cls-1" d="M370,319.29l.61.34A5.47,5.47,0,0,0,370,319.29Z"/><path class="cls-1" d="M403,378.55h0l.21.15Z"/><path class="cls-1" d="M465,398.69a1.87,1.87,0,0,0,.39,0S465.31,398.68,465,398.69Z"/><path class="cls-1" d="M467.39,382.13l.22.63C467.53,382.5,467.46,382.3,467.39,382.13Z"/><path class="cls-1" d="M451.51,402.05a4.17,4.17,0,0,0-.95.19h.15A2.31,2.31,0,0,1,451.51,402.05Z"/><path class="cls-1" d="M437.35,405.15h.28l.44-.12Z"/><path class="cls-1" d="M328.85,294.92a2.84,2.84,0,0,1,.7.14C329.3,294.9,331.38,294.47,328.85,294.92Z"/><path class="cls-1" d="M369.54,319.19a.74.74,0,0,1,.43.1l-.42-.22C369.49,319.09,369.46,319.12,369.54,319.19Z"/><path class="cls-1" d="M451.41,404.34l-2.26.45C449.79,404.68,450.61,404.52,451.41,404.34Z"/><path class="cls-1" d="M327.38,363l-.23.48A2.29,2.29,0,0,0,327.38,363Z"/><path class="cls-1" d="M442.49,406.29a8.41,8.41,0,0,0-1.31.09,1.17,1.17,0,0,0-.25.13Z"/><path class="cls-1" d="M329.56,295.06h0Z"/><path class="cls-1" d="M344.39,291.84c-2.16.36-.95.53-1.37.82-2.57.54-1.24-.07-2.16-.1-1.59.37-2.77.92-4,1.11-.1-.05-.34,0-.08-.15-1.65.58-5.06.88-7,1.58a.64.64,0,0,1-.27,0c.35.13.43.3.39.45-1,.17-1.76.53-2.17.36a2.12,2.12,0,0,0,.89-.32l-1,.27c-1-.18,1.36-.35,1.32-.6-2,.45-4.22,1.13-5.76,1.29-.37-.28,3.53-.72,1.46-.67l2.37-.28c-1.89-.22,1.43-.21-.32-.49-3.1.44-3.42.77-6.52,1.2-.67.3.27.23-.39.54-4.32,1.08-3.59-.25-6.74.74a6.11,6.11,0,0,1-3.38,1l.72-.51c-3,.47-1.62.83-4.79,1.11.53-.24,2.33-.52,1.87-.49-2.09.05-1.4.46-3,.73l-.38-.28-5.07,1,2.82,7.25c-.17-.15-.47-.69-.29.13,1.67,4.2,3.18,9.1,4.44,13.27l.83,1.48c.13.36.11.72-.08.34.46,1.64.21,0,.59.75.34.91.26,1.26,0,.71A80.22,80.22,0,0,1,311.5,335l-.28-.55c.7,2.35,1.49,2.41,2,4.65l-.19-.39c1.66,5.07,3.87,10.53,4.81,14.52.66.59,1.59,5,2.26,5.17.37,1.48.45,2,.61,2.71.07.35.16.73.31,1.28l.28,1c0,.19.11.39.18.61l.42,1.3a12.45,12.45,0,0,0,.91,2.09,19.67,19.67,0,0,1,.9,1.79l.22-.44v.65L325.4,366q.47-.46,1.05-1.14l.27-.52.14-.3.29-.6c-.28.46-.66.9-.72.82a18.75,18.75,0,0,1,2.82-4.3l2.16-4.42a6.18,6.18,0,0,1-.55,1.5c1-2.44.51-.25,1.43-2.49-.22.24-.08-.24-.11-.32a41.12,41.12,0,0,0,3-5.14v.44c.56-1,1.12-2,1.69-3l.85-1.59.1-.19v0l0-.06.06-.14.16.07,0,0,.13.06.51.28,2.07,1.14c-1.23-.8-.76-1,.31-.41l.26.52c.77.2-1-.72.47-.16,1.32.77.72.82-.1.49l1.68.8c0,.14-.36,0-.52,0,.76.19,2.64,1.84,3.77,2.07l.05.13c3.56,2,5.24,2.79,8.15,4.4.2-.22,1.3.47,2.28.75,2.09,1.27,4.36,2.78,6.94,4.2,1.88.88.65.08,1.54.39,0,.3,2.6,1.71,1.17,1.12,3.11,1.69,4,2.16,8,4.15-.37-.33-.82-.63-.53-.57.73.36,1.56,1,1.4,1l-.2-.08c4.57,2.1,9.76,6.28,13.51,7.76l-.21-.08,3.76,1.77c1.65,1-1.09-.39.06.43,4.12,1.81,6.15,3.49,9.5,5,2.13,2,8.87,4.87,12,7.16l-.11-.26c.95.33,1,.67,1.62,1.06,0-.17-.86-.66-.28-.45l2.91,1.56-2.09,3.65-2.75,4.67c-1.84,3.12-3.69,6.24-5.51,9.31a6,6,0,0,0-.92,2.45,10.38,10.38,0,0,1-.66,1.61c-.35.69-.87,1.58-1.87,3.17.1-.42.25-.91.43-1.46l-1.24,2.38,4.07-1,3.24-.74,4.38-1c2.92-.62,5.82-1.25,8.59-2a2.82,2.82,0,0,1-.93.38,16.36,16.36,0,0,0,4.75-1.22c1-.19.25.12.86.09,1.32-.14,3.18-1,3.91-.93.13,0-.34.16-.58.23.82-.3,3.93-.83,3.07-.92,2.31-.37,4.35-1.08,6.21-1.32,1.12-.56,3.95-.71,4.23-1.22-.07.48,4.09-.52,5.49-1.05-.45.24,1.29-.13.76.18,1.65-.37,3.15-.78,2.81-1,3.16-.14,6-1.76,7.88-1.46l6.4-1.69,3.07-.78,4-1c-.29-.68-.54-1.28-.8-1.87a6.39,6.39,0,0,1,1.07,2l-3.5.82c-.68.17-1.17.34-1.07.48l4.69-1.23-1.28-2.82-.79-1.68c-.5-1.09-1-2.25-1.52-3.64-.35-1,.42.51.63.82-1.78-3.9-3.07-7.68-4.74-11.12a3.05,3.05,0,0,1,.42.71c-.29-.69-.59-1.65-.75-1.49l.33.66c.17,1.22-1.7-2.53-1.9-2.6,1,1-1.28-3.54.17-1.94-.22-.45-.54-1-.63-.83-.23-.69-.25-.94.18-.31-1.12-2.45-1-1.48-1.87-3.74.09,0,.31.41.51.6a20.73,20.73,0,0,1-2-4.08c.1.09.08-.16.31.41-1.35-3.26-2.74-5.39-4-9.05.83.9-.36-1.28-.09-1.61l-.89-1.89.15.85c-.69-1.7-1.55-3.09-2-4.59l.65,1.2-1.35-3.15.59,1.85c-.87-1.64-.36.36-1.18-1.93.22.44-.68-1.7-.83-2.66h0a14.13,14.13,0,0,1-1.34-2.89c0-.37.49.11.48-.13-.63-.71-1.69-3.94-2.43-4.86.22.32.41.27.4.14-.18-.22-.33-.36-.53-.64-.33-1-.39-1.26-.2-1.22-.68-1.72-.62-1.26-.59-.94s0,.55-.65-1.38a3.07,3.07,0,0,1,.33.54l-.39-1c-.44.77-.88,1.58-1.31,2.36s-.75,1.43-1.13,2.13c-.6,1.16-1.2,2.29-1.87,3.37-.73.54,1.1-2.17.37-1.5-1.9,3.54-3.65,7.49-5.62,10.85l.39-.62c.2.73-1.64,2.41-2.38,4.25.2-.44.05-.7,0-.55-.25.4-.51.86-.72,1.26l-.4.77-.71-.33-1.3-.64L431.6,354l.51.12c-1.32-.87-3.58-2.07-5-2.95-.5-.12-1.34-.61-.92-.15-4.19-3.22-8.92-4.49-12.66-7.31.49.27,1.22.54.83.32l-3.51-1.81c.16.36.38.38,1,.94a13.13,13.13,0,0,1-2.39-1.05c1.63.73.17-.33-.44-.82.08.12-.19.06-.17.16-1.6-1.36-.53.24-2.85-1.38l.19,0c-1-.46-1.88-.79-2.86-1.37-.28-.47,1,.43,1.21.28-1.4-.77-3-1.09-4.13-2,.62.27,1.48.74,2.11,1a13.28,13.28,0,0,0-2.42-1.67l.09.07-2.29-1.44.56.41c-2.09-.37-3.62-1.87-6.19-2.78,2.49.89.49,0,.82-.18-.56-.41-1.43-1-1.13-.93-1.23-.4-1.76-1.2-3.51-1.76,0-.12-1.18-.67-.81-.74-1.49-.74.26.33.08.37-2.39-1-5.05-3.27-8.48-4.65-2.85-1.37-3.52-1.37-6.17-2.66-.79-.61.88.09.88.09a24.26,24.26,0,0,0-3.76-2.1c.31.07.07-.14-.28-.46-1.07-.57-.88-.08-2.2-1a5.54,5.54,0,0,1,1.24.25c-1.29-.61-2.6-1.14-3.94-1.78-.26-.34.91.21,1.42.36a25.35,25.35,0,0,0-4.41-2l.88.6c-.53-.29-.16-.36.26-.18,1.34.5,1.74,1.08,1.76,1.2l-.94-.46c.66,1,3.73,2,5.56,3l-1-.06,2.06.75c.35.32.51.68-.43.22,1.22.92,1.24.53,2.27,1.36.11.1,0,.09-.08,0l1.35.61c-.29-.07.08.37-.69-.12,2.21,1.5,3.9,1.81,4.62,2.57l-.21-.08c3.3,1.67.46-.1,3.06.94l1.26,1.56.46-.09c.33.19,1,.58.79.62,1.34.5-.14-.24.67,0,1.47,1.14,4.48,2.34,4.6,3,.69.12-1.44-1,.35-.2.23.73,2,1,3.36,2-.58,0-1.89-.91-.55.11,1.11.09,2.8,1.67,4.08,2.28.23-.28,2.75,1.36,4.88,2.41-.19,0,3.8,2.34,5.66,3.52l-.09,0c.55-.12,2.51,1.05,4,1.79-.16.16-.47.09-1.3-.26l1.36.75a7.59,7.59,0,0,1,1.74.71l-.48.05c1.82,1,3.8,1.75,6,3.2.26-.15-1.5-1.65,1-.43,0,.17,0,.43-.67.12a6.79,6.79,0,0,1,1.21.61l-1.1-.35c1,.68.65.14,1.49.63-.12.17.55.48.36.54a8.42,8.42,0,0,0-1.07-.59,14.71,14.71,0,0,1,2.35,1.65c0-.14.13-.23.84.13,1.82,1,.51.56,1.51,1.23.51.13,1.59.89,1.77.65a1.86,1.86,0,0,1,.72.66c1,.4,4.39,2.4,3.49,1.54l-.23-.16.16.08h0a37.45,37.45,0,0,1,3.84,2.05l1.9,1.14,2.27,1.33.63-1.14c.19-.34.37-.69.55-1l.09.05c.91-1.87,2.19-4.08,2.73-5.48.3-.54.86-1.18.84-.89a21.58,21.58,0,0,1,1.95-3.57c-.62,1.48.4-.4-.68,1.5a21.29,21.29,0,0,0,2.28-4.17c-.14.78,1-1.2,1.45-2.1l-.86,1.18c.5-1,1-1.82,1.49-2.66l0,.62c.26-.38.51-.77.74-1.15l.24-.42.09-.18c.12-.25.23-.58.4-1a4.39,4.39,0,0,1,.59,1c.06.12.29.71.42,1.11a12.52,12.52,0,0,1,.34,1.34c.63.95-.72-2.19-.09-1.37.69,1.82,1,3.88,1.24,4.45.83,2.53,1.39,2.12,2.32,4.75,0-.38.14-.81,1,1.08.69,1.82.44,2.4-.11,1.3-.19-.43-.24-.65-.19-.65-.28-.56-.64-1.31-.47-.55l.21.19c.25.94,1.27,3.42.85,2.91.66,1.32.42.51.07-.52.78,2.37,1.46,3.61,2.32,6-.09-.41-.11-.81.05-.43,1.28,3.55.83,1.45,1.84,3.8.38,1.41-.6-.32.51,2,.48,1.51-.17.43-.49-.11a34.76,34.76,0,0,1,2,5.37l-.55-1.11c.33.66.55,1.22.78,1.79l0-.74c.23.69.46,1.26.37,1.28.42.63.15-.68.9.61.25.94,1.23,2.68,1.06,3.11-1-2.86-.17.43-1.18-1.93a13.05,13.05,0,0,1,.68,1.69c0,.11-.1-.07-.19-.25.84,2.8.84,1.11,2,3.9-.31-.29-.05.77.17,1.22-.45-1.13.06-.65.6.33a22.34,22.34,0,0,0,1.25,2.85L467,381a12,12,0,0,1,1.21,2.43c-.08.16-.55-1.1-.42-.63.85,1.27,1,3.25,1.95,5.1.25.94-.28.21,0,1,1.09,2.08.73,2.44,1.83,4.64-.05-.75-.15-.84.72.68l-1.68-3.68,1.3,2.27c-.46-1.13-1.11-2.33-1.35-3,.65,1.07.55,1,.51.36.3,1.68,1.44,3,1.94,4.86l-.57.17c.08.27.17.53.26.79l.2.53c.06.14.14.28.24.47l-.35.15-.24.1-.66.18c-.9.24-1.88.48-3,.68l1.2-.16c-.44.34-2.26.53-3.43.88.07-.22-.69-.12-1.22-.13.09.13-2.69.57-2.94,1l-1.7.11c-3,.54-3.27,1.29-6.13,1.84.81-.39-.52-.25,1.36-.81-.95.2-1.82.35-1.8.49-.58,0-2.59.84-3.5.85a4,4,0,0,1-1.54.62c-.13,0,0-.1,0-.1s-1.65.5-.66.51c-3.07,0-8.19,1.83-10.86,1.88-2.07.51-4.56,1.12-6.44,1.55.11-.08,0-.1.35-.15-2.65.39-1.48.9-4.49,1.35-1.58,0,1.54-.52.57-.43-.55-.54-3.56.87-5.63.94l.47-.15c-1.57.12-3.66,1.06-6.16,1.56,0,0,.11-.09,0-.1a30.12,30.12,0,0,1-3.32,1.09l-3.76,1c.55-.38.92-.34.43-.49-.3.08-.27.18-.32.3s-.2.27-1.17.52a4.78,4.78,0,0,1-.92-.07,3.94,3.94,0,0,1,.73-.77l-.19.37.67-.16c-.05-.11-.15-.13-.35-.08a5.78,5.78,0,0,1,.4-.93l.16,0,.48-1.06c.21-.46.36-.84.52-1.23a23.54,23.54,0,0,1,1.5-3.06l-.28.25c.57-1.82.95-1.26,1.6-3l.62-.3c.51-1.12,1.76-3.95,2.77-5.91-.36,1.23-1.48,3.56-2.1,5a32.81,32.81,0,0,0,2.12-4.28,8.28,8.28,0,0,1-.71,1.43,29.74,29.74,0,0,1,2.47-5.37c.15.25.55-.25,1.06-1.07.26-.42.55-.91.85-1.43l1.32-2.3-1.22-.72-.58-.34-.28-.18-.17-.11a5.56,5.56,0,0,1-1-.82c-3.89-1.84-7.39-4.25-11.78-6.64,1.26,1.38-1.29-.7-1.31,0a9.58,9.58,0,0,1-1.5-.85l-2.9-2c-.65-.56,1,.42,1,.25-2.2-1.28-.81-.75-2.2-1.71.19.36-.93-.16-2.16-.94l1.65,1.24c-3.27-1.45-2.44-1.94-5.74-3.41l1.09.39c-1.67-.8-5.94-3.32-7.76-3.76-.25-.23-.55-.58.18-.22-3.81-2.21-8.82-4.32-11.67-6.25l.36,0a10.47,10.47,0,0,1-2.21-1.09c.08,0,.36,0,0-.16a20.48,20.48,0,0,1-2.94-1.44l.89.31c-3.66-2.26-6-2.85-9.16-4.51.22-.38-2.66-2.15-4.1-3l.08,0c-4.35-2.48-7.61-3.82-11.74-5.92a31.9,31.9,0,0,0-3.27-2.13l-2.16-1.25-3.38-1.9-2,3.49c-.46.78-.91,1.52-1.34,2.19.42-.58.25.27-.11,1-.61.91-1.19,2.77-1.46,2.42l.19-.33c-.74.52-1.73,2.52-2.59,4l.32.51a40.91,40.91,0,0,0-3.86,6.44l-1.46,2.79c-.2.37-.4.68-.48.57s0-.23,0-.35-.13-.1-.22-.24l-.14-.23-.09-.15-.18-.38.29,0c-.95-2.89-1.42-4.34-2.74-7.86l.45.65c-.7-2-1.67-2.25-2.34-4.09l.2-.7c-1.24-3.49-2.14-7.15-3.72-10.47.08,0,.23.1.45.66-.58-1.65-2-6.46-2.32-5.67.34-.17-1.24-3.61-2.06-5.44l.36.2a16.63,16.63,0,0,1-1.89-3.69c-.15-.53.05-.53.23.19-.48-1.8-.73-1.28-1.34-3.46l.44.74a7.8,7.8,0,0,0-1.2-2.56,11.24,11.24,0,0,1-1-3.81,5.79,5.79,0,0,1-1.09-2.2c0-.17.24.2.33.38-.89-3.08-1.89-4.38-2.37-6.55.07-.07.07-.22,0-.41.85,2.41,1.52,4.34,1.43,4.17.24-.09-.4-2,.48-.62a41.05,41.05,0,0,1-2.62-5.94,1.34,1.34,0,0,1,0-.28l.1.19a7.26,7.26,0,0,0-.46-1.18c-.18-.62-.28-1-.48-1.59a1.14,1.14,0,0,0,0-.41l-.1-.34c0-.09-.06-.2-.1-.31s-.1-.26-.14-.38l.09,0c-.17-.11-.14-.18-.12-.24s0-.1-.4-.15c.08,0,0,0-.15.07l.09.22a2.09,2.09,0,0,0,.1.21l0,0c.18.49.42,1.13.68,1.87a12.32,12.32,0,0,1-.58-1.15,3.12,3.12,0,0,1-.17-.46,1.53,1.53,0,0,1-.07-.41l-.41-.48a2.86,2.86,0,0,1,.36-.29c.39,0,.67.07,1.07.08l1.41,0a8.63,8.63,0,0,1,1.89.05c3.06-.69,7.25-1.35,9.1-2.2a2.35,2.35,0,0,1,1.37,0,13.23,13.23,0,0,0-1.36.36c1.73-.44,5.19-.95,5.55-1.38,2.23-.22-1.19.55,1.84,0l-.39.18c6.07-.44,9.55-2.59,16.3-3a2.38,2.38,0,0,1-.8,0c7.61-1,15.51-3,23-3.73a11.18,11.18,0,0,0,2.12-.41c.47-.15.89-.32,1.31-.49a.7.7,0,0,1,.19.28c.46-.2,1.08-.42,1.86-.67l.05,0a9,9,0,0,1-.85,1.51l-1.11,1.55a21.6,21.6,0,0,0-2.49,4.4l.43-.35c-.74,1.24-2.12,4.06-2.21,3.73a1.8,1.8,0,0,1-.41,1l-.16,0-1.49,3.24c-1.44,2.35-.34-.68-2.32,2.81-.67,1.34-1.67,3.94-1.3,3.51s.83-1.3,1-1.27l-.59,1.24c.29.44.19,1.59,2.11-1.18l.89-2.18.56-.55-.94,1.73a6.86,6.86,0,0,0,1.18-2.34,2.57,2.57,0,0,0,.69-.73l.73-2.23c.29-.15-.19,1.08.65-.22.34-1-.86.7-.11-.92.72-.87.72-.5,1.2-1.74.19-.1.12.18-.08.66a28.83,28.83,0,0,0,1.52-3.38c.8-.89,1.86-3.47,2.19-3.16a11.9,11.9,0,0,1,.44-1.24l.37-.87c.2-.42.43-.86.63-1.22-.7,2,1.12-1.53,2.5-3.86-1.08.15-1.84.21-1.32-.06-.85.27-1.82.51-2.89.74l-2.69.54c-1.42.27-3,.54-4.24.88a2,2,0,0,1,.63-.19,27.43,27.43,0,0,1-2.8.2c-.12.42-2.32.89-3.48,1.33-1.81-.07,1-.64.38-.9.14.3-3,.83-2.35,1-1.37,0-1.17.09-1.91-.12-.15.53-1.23.3-2.29.79-2,.09-.57-.37-2.67.14C342.53,292.33,344.39,291.84,344.39,291.84ZM302,307.35h0c-.15-.42-.28-.77-.37-1Zm1.44,4.06c-.18-.5-.39-1.12-.62-1.77.05-.17.19-.05.33.36C303,309.8,303.32,310.77,303.46,311.41Zm-1.15-9.09a.49.49,0,0,1,0,.07,1.34,1.34,0,0,1,.07.18,2.9,2.9,0,0,1,.09.28.79.79,0,0,1,0,.29l-.19-.5-.1-.25-.05-.1,0,0Z"/><path class="cls-1" d="M301.75,301.84a.61.61,0,0,1-.07-.14.42.42,0,0,0,0,.16l.14.15Z"/><path class="cls-1" d="M429.26,353.69l.08.05a1.08,1.08,0,0,1-.15-.13C429.24,353.65,429.23,353.66,429.26,353.69Z"/><polygon class="cls-1" points="323.91 369.51 323.91 369.36 323.63 369.98 323.59 369.91 323.63 370 323.91 369.51"/><path class="cls-1" d="M409,341.31a.92.92,0,0,0-.24-.21A1.6,1.6,0,0,0,409,341.31Z"/><path class="cls-1" d="M400.08,336.27l-1.22-.79C399.38,335.84,399.77,336.08,400.08,336.27Z"/><path class="cls-1" d="M393.26,332.32a.38.38,0,0,0-.19,0h0Z"/><path class="cls-1" d="M468.93,380.92c.05.09.09.19.13.27C469.38,381.83,469.18,381.39,468.93,380.92Z"/><path class="cls-1" d="M454.3,346.62c.19.35.39.69.57,1.06C454.64,347.06,454.45,346.58,454.3,346.62Z"/><path class="cls-1" d="M451.66,404.29h0l-.25,0Z"/><path class="cls-1" d="M455.52,349.29a11.43,11.43,0,0,0-.65-1.61A15,15,0,0,0,455.52,349.29Z"/><path class="cls-1" d="M363.48,315.61l-.32-.2a0,0,0,0,1-.06,0Z"/><path class="cls-1" d="M363.1,315.43l-.39-.17A1.36,1.36,0,0,0,363.1,315.43Z"/><path class="cls-1" d="M361.9,314.89l.81.37A2.71,2.71,0,0,0,361.9,314.89Z"/><path class="cls-1" d="M372.53,320.79l.16,0A.2.2,0,0,0,372.53,320.79Z"/><path class="cls-1" d="M375.32,322.31a27.67,27.67,0,0,0-2.51-1.57l-.12,0C373.19,320.87,374.61,322.11,375.32,322.31Z"/><path class="cls-1" d="M386.27,329.84,384,328.48c.36.32.82.74-.25.18C386.5,330.57,383.25,328.11,386.27,329.84Z"/><path class="cls-1" d="M393.39,334c-1.28-.65-.07.15-.16.16C394.07,334.5,394.27,334.58,393.39,334Z"/><path class="cls-1" d="M442.41,349.16l.16.25C443.07,348.43,442.49,349.35,442.41,349.16Z"/><polygon class="cls-1" points="446.79 338.58 446.13 339.44 446.09 340 446.79 338.58"/><path class="cls-1" d="M449.45,338.84l-.08-.09.14.21.15.3.19.42-.28-.62C449.5,338.92,449.49,338.92,449.45,338.84Z"/><path class="cls-1" d="M439.82,404.35l.39.24C440.93,404.38,441,404,439.82,404.35Z"/><path class="cls-1" d="M411.11,405.6a6,6,0,0,0,1.28-2.07C411.9,404.37,411.32,405.15,411.11,405.6Z"/><polygon class="cls-1" points="328.52 356.02 328.85 355.21 328.13 356.69 328.52 356.02"/><path class="cls-1" d="M336.52,135.23c-.24.2,0,.31.73,0l.41-.53Z"/><path class="cls-1" d="M341.87,133.61c.83-.52,1.75-1.22,1.05-1.26-.76.67-1,.64-1.83,1.4-.74.36-1.37.47-1.29.3-.23.19-1.21.44-1.53.8a10.49,10.49,0,0,0,3.57-1.46C342.15,133.34,341.91,133.53,341.87,133.61Z"/><path class="cls-1" d="M416.3,102.41l-.49.17Z"/><path class="cls-1" d="M429.51,80.73a1.39,1.39,0,0,0-.56-.08C429.3,80.73,429.58,80.78,429.51,80.73Z"/><path class="cls-1" d="M437.63,83.39l-.48-.15A1.43,1.43,0,0,0,437.63,83.39Z"/><path class="cls-1" d="M416.3,102.41l1.27-.43C417.61,101.84,416.91,102.17,416.3,102.41Z"/><path class="cls-1" d="M351.79,128.51a6.61,6.61,0,0,0-.63.37l.61-.3A.25.25,0,0,1,351.79,128.51Z"/><path class="cls-1" d="M396.13,111.31l-.37.16a3.13,3.13,0,0,0-.26.25Z"/><path class="cls-1" d="M380.59,118c.36-.14.37-.45.46-.62a2.12,2.12,0,0,1-.69.5C380.37,117.93,380.44,118,380.59,118Z"/><path class="cls-1" d="M355.73,128.07l-.43.22Z"/><path class="cls-1" d="M407.29,106.61a.27.27,0,0,0,.18,0S407.39,106.6,407.29,106.61Z"/><path class="cls-1" d="M330.3,117.29s0,0-.05,0S330.35,117.41,330.3,117.29Z"/><path class="cls-1" d="M336.71,135.87l-.12-.24a.32.32,0,0,0-.17,0Z"/><path class="cls-1" d="M452.57,88l-.06,0C452.1,87.86,452.33,87.92,452.57,88Z"/><path class="cls-1" d="M419.22,138c1.59-.4-2.31,1.34,0,.64C419,138.58,421.15,137.32,419.22,138Z"/><path class="cls-1" d="M352.21,128.37l.63-.27C352.55,128.21,352.36,128.3,352.21,128.37Z"/><path class="cls-1" d="M419.27,138.6h0l.25-.08Z"/><path class="cls-1" d="M473.2,101.92a1.21,1.21,0,0,0,.27-.28S473.37,101.7,473.2,101.92Z"/><path class="cls-1" d="M461.57,89.91l.62.21A5.69,5.69,0,0,0,461.57,89.91Z"/><path class="cls-1" d="M467.57,114.66a5.79,5.79,0,0,0-.44.87.4.4,0,0,0,.1-.12A2.83,2.83,0,0,1,467.57,114.66Z"/><path class="cls-1" d="M461.35,127.75c0-.06.11-.14.16-.22l.19-.42Z"/><path class="cls-1" d="M307.75,145.93a2.53,2.53,0,0,1,.53-.47C308,145.57,308.94,143.65,307.75,145.93Z"/><path class="cls-1" d="M351.86,128.65a.76.76,0,0,1,.35-.28l-.44.21S351.76,128.67,351.86,128.65Z"/><path class="cls-1" d="M469.32,116.15l-1,2.06C468.6,117.64,469,116.89,469.32,116.15Z"/><path class="cls-1" d="M360.63,188.82l.24.47A1.71,1.71,0,0,0,360.63,188.82Z"/><path class="cls-1" d="M465.4,124.4a8.67,8.67,0,0,0-.74,1.09,1.57,1.57,0,0,0-.05.27Z"/><path class="cls-1" d="M308.29,145.46h0Z"/><path class="cls-1" d="M314.84,131.76c-1,1.93-.17,1.08-.2,1.59-1.14,2.36-.81.94-1.4,1.64-.68,1.49-1,2.76-1.56,3.83-.09.05-.23.25-.16,0-.56,1.67-2.4,4.54-3,6.49a.74.74,0,0,1-.2.19c.31-.2.5-.16.59,0-.46.87-.65,1.72-1,1.93a2,2,0,0,0,.29-.9l-.39.95c-.74.66.56-1.29.33-1.41-.84,1.82-1.69,4-2.51,5.34-.45.12,1.6-3.23.37-1.56l1.23-2.05c-1.33,1.36.72-1.26-.58,0-1.56,2.72-1.5,3.18-3.06,5.89-.16.71.36-.07.2.64-1.8,4.08-2.41,2.68-3.55,5.78a6,6,0,0,1-1.27,3.29l0-.88c-1.46,2.66-.33,1.79-2.05,4.47.13-.56,1-2.16.75-1.78-1.24,1.68-.49,1.39-1.24,2.79L296,168l-2.32,4.61,7.45,2.22c-.22,0-.83-.06-.07.3,4.34,1.26,9.14,3.07,13.21,4.63l1.67.25c.37.12.64.35.23.27,1.57.64.14-.15.95,0s1.16.56.55.45a79.6,79.6,0,0,1,11.16,3.46l-.61-.11c2.3.89,2.82.3,4.9,1.28l-.43-.09c5,1.8,10.7,3.39,14.43,5.09.87-.16,4.95,1.84,5.46,1.39,1.4.62,1.89.88,2.52,1.18.32.16.68.32,1.2.53l.94.38.6.24,1.28.46a12.49,12.49,0,0,0,2.21.56,19.22,19.22,0,0,1,2,.39l-.21-.45.51.41-1.72-3.22c-.06-.44-.14-1-.26-1.53l-.24-.53-.15-.29-.3-.6c.2.5.31,1.07.21,1.07a18.13,18.13,0,0,1-1.67-4.87l-2.17-4.41a6.15,6.15,0,0,1,.85,1.36c-1.32-2.29.11-.57-1.1-2.66.07.32-.23-.09-.31-.12a42.34,42.34,0,0,0-2.23-5.5l.34.27q-.63-1.55-1.35-3.18l-.73-1.64-.09-.2v0l0-.06-.07-.13.15-.08,0,0,.14-.06.53-.24,2.16-.94c-1.38.49-1.22,0-.13-.49l.57.11c.63-.48-1.2.38.16-.47,1.42-.56,1.09-.06.33.38l1.66-.83c.14,0-.24.26-.3.42.62-.48,3.08-.95,3.95-1.71l.13.05c3.76-1.6,5.42-2.43,8.48-3.75-.05-.29,1.17-.74,2-1.34,2.28-.88,4.87-1.74,7.57-2.92,1.85-.94.46-.45,1.25-1,.24.17,2.94-1,1.61-.24,3.23-1.42,4.13-1.82,8.16-3.76-.48.09-1,.26-.78.07.73-.36,1.74-.62,1.68-.47l-.18.11c4.46-2.32,10.95-3.86,14.42-5.92l-.2.11,3.7-1.88c1.77-.71-1,.63.39.22,3.94-2.15,6.52-2.72,9.8-4.43,2.91-.42,9.28-4,13-5.08l-.28-.08c.85-.55,1.15-.38,1.84-.63-.15-.08-1.06.28-.53,0l3-1.35,1.6,3.9q1,2.51,2,5c1.34,3.37,2.67,6.74,4,10.06a6.17,6.17,0,0,0,1.38,2.23,10.87,10.87,0,0,1,.86,1.51c.33.7.72,1.65,1.36,3.42-.27-.34-.56-.76-.89-1.24.38.81.75,1.62,1.13,2.44l1.73-3.8,1.4-3,1.93-4c1.29-2.69,2.57-5.36,3.66-8a2.86,2.86,0,0,1-.26,1,16,16,0,0,0,1.93-4.5c.44-.87.26-.13.61-.63.69-1.13,1.15-3.13,1.67-3.66.08-.09-.09.37-.18.6.26-.83,1.75-3.62,1.15-3,1.12-2.06,1.81-4.1,2.76-5.71.25-1.24,1.86-3.56,1.63-4.1.34.35,2.1-3.55,2.54-5-.09.51.68-1.1.6-.49.72-1.53,1.31-3,1-2.8,1.83-2.58,2.3-5.84,3.68-7.12l2.58-6.1,1.26-2.9,1.69-3.75-2-.52a6.43,6.43,0,0,1,2.25.39l-1.5,3.26c-.28.65-.45,1.14-.28,1.15l1.9-4.46-3-.72-1.81-.41c-1.18-.27-2.4-.59-3.81-1-1-.36.65,0,1,0-4.17-1-8-2.28-11.69-3.07a3,3,0,0,1,.81.1c-.73-.19-1.66-.54-1.64-.32l.72.15c1.08.61-3-.21-3.21-.1,1.39-.22-3.58-1.16-1.43-1.32-.48-.1-1.11-.17-1,0-.7-.24-.9-.38-.14-.33-2.62-.62-1.76-.15-4.11-.81,0-.1.52,0,.8,0a20.55,20.55,0,0,1-4.45-.94c.14,0-.07-.16.52,0-3.41-.93-5.94-1.14-9.62-2.37,1.22-.1-1.23-.49-1.33-.91l-2-.45.76.4c-1.76-.5-3.39-.68-4.87-1.22l1.35.22-3.31-.86,1.82.66c-1.83-.31.07.51-2.24-.25.48.1-1.76-.5-2.62-1h0a14.66,14.66,0,0,1-3.11-.71c-.31-.21.38-.32.18-.46-.94.06-4.14-1.07-5.31-1.06.38,0,.45-.16.34-.23-.28,0-.48,0-.83,0-1-.37-1.22-.47-1.09-.59-1.77-.52-1.36-.29-1.1-.11s.46.31-1.48-.34a2.88,2.88,0,0,1,.62.08l-1-.31c.34.82.7,1.66,1.06,2.47l1,2.2c.54,1.19,1.06,2.36,1.51,3.55,0,.9-1-2.2-1-1.21,1.64,3.67,3.68,7.48,5.12,11.09l-.24-.69c.7.29.89,2.77,1.9,4.48-.23-.42-.52-.46-.42-.37.18.45.38.93.56,1.35.11.25.24.51.36.79l-.69.35-1.3.64L417.42,101l.41-.32c-1.5.5-3.83,1.56-5.42,2.17-.41.32-1.31.68-.69.63-5.11,1.34-9,4.3-13.53,5.52.51-.21,1.17-.62.76-.45l-3.58,1.67c.38.09.53-.08,1.36-.24a12,12,0,0,1-2.29,1.24c1.58-.84-.16-.33-.91-.15.14,0-.07.19,0,.23-2.06.43-.14.56-2.84,1.42l.09-.17c-.95.47-1.78,1-2.84,1.41-.53-.06,1-.55,1-.79-1.47.65-2.7,1.71-4.14,2,.6-.33,1.49-.72,2.09-1a12.92,12.92,0,0,0-2.8.88l.1,0-2.54.93.67-.19c-1.57,1.42-3.7,1.71-6,3.19,2.23-1.43.3-.4.36-.76-.66.19-1.66.52-1.42.32-1.08.73-2,.66-3.55,1.69-.11-.06-1.25.53-1.08.19-1.5.72.42,0,.34.17-2.21,1.31-5.67,2-8.87,3.84-2.83,1.42-3.24,2-5.88,3.25-1,.25.61-.64.61-.64a24.4,24.4,0,0,0-4,1.68c.25-.19-.07-.14-.53-.06-1.1.5-.61.65-2.13,1.14a5.28,5.28,0,0,1,1-.83c-1.28.64-2.5,1.36-3.82,2-.43,0,.71-.59,1.15-.89a25.75,25.75,0,0,0-4.26,2.27l1-.33c-.55.25-.38-.09,0-.31,1.23-.75,1.93-.72,2-.66l-.94.47c1.21.1,3.84-1.74,5.8-2.54l-.65.73,1.86-1.17c.47-.08.85,0-.09.48,1.48-.41,1.18-.67,2.47-1,.14,0,.09,0,0,.09l1.31-.69c-.23.19.34.17-.52.47,2.54-.82,3.82-2,4.87-2.07l-.2.11c3.34-1.58.21-.42,2.61-1.84l2,0,.22-.42c.35-.14,1.05-.41,1-.25,1.22-.74-.27,0,.41-.53,1.79-.46,4.59-2.1,5.16-1.81.51-.48-1.68.52.05-.4.72.26,2.05-1,3.68-1.4-.37.45-1.88.94-.24.5.74-.81,3-1.19,4.3-1.82-.09-.36,2.76-1.34,4.89-2.38-.09.17,4.18-1.57,6.25-2.31l0,.08c.25-.51,2.36-1.34,3.86-2.06,0,.23-.22.43-1,.87l1.43-.61a7.49,7.49,0,0,1,1.62-.94l-.25.41c1.9-.83,3.71-1.93,6.23-2.81,0-.3-2.23.17.3-1.09.15.09.34.26-.32.61a5.84,5.84,0,0,1,1.22-.58l-.95.65c1.16-.38.51-.43,1.41-.79.06.19.72-.15.65,0a8.53,8.53,0,0,0-1.12.47,15.64,15.64,0,0,1,2.74-.84c-.13-.06-.1-.24.62-.58,1.9-.83.75-.06,1.9-.44.41-.32,1.68-.71,1.59-1a2,2,0,0,1,1-.17c.93-.54,4.59-2,3.35-1.81l-.26.09.16-.09h0a41.92,41.92,0,0,1,4-1.77l2.06-.8,2.45-1-.51-1.2-.48-1.07.09,0c-.92-1.87-1.88-4.23-2.66-5.52-.24-.56-.4-1.4-.19-1.21a23.14,23.14,0,0,1-1.62-3.73c.79,1.4-.07-.57.76,1.46a20.86,20.86,0,0,0-1.89-4.36c.53.59-.31-1.56-.77-2.43l.4,1.4c-.46-1-.82-1.9-1.19-2.81l.52.36c-.15-.45-.3-.87-.46-1.29l-.18-.44-.09-.19c-.13-.25-.32-.54-.55-.93a4.61,4.61,0,0,1,1.14.13,11.83,11.83,0,0,1,1.13.36,11.06,11.06,0,0,1,1.27.55c1.14.08-2.17-.78-1.13-.77,1.86.57,3.68,1.58,4.27,1.74,2.51.9,2.52.21,5.17,1.08-.31-.21-.55-.6,1.49-.15,1.86.57,2.17,1.13,1,.89-.45-.12-.66-.22-.63-.25-.62-.13-1.43-.3-.72,0l.28-.05c.89.38,3.47,1.09,2.82,1.11,1.44.29.65,0-.38-.37,2.36.84,3.76,1.06,6.2,1.87-.38-.18-.7-.41-.31-.3,3.59,1.16,1.66.23,4.13.87,1.35.57-.62.28,1.9.83,1.48.54.23.39-.39.31a35.38,35.38,0,0,1,5.45,1.74l-1.22-.25c.73.15,1.31.31,1.9.48L448,86.5c.68.24,1.27.4,1.24.5.76,0-.45-.54,1-.34.89.37,2.86.67,3.1,1.06-2.9-.92.24.4-2.25-.25a13.75,13.75,0,0,1,1.75.5c.1.06-.11,0-.31,0,2.72,1.06,1.38,0,4.28.84-.41.07.58.51,1.07.61-1.17-.33-.48-.44.63-.27a21.75,21.75,0,0,0,3,.76l-1.1-.38a12,12,0,0,1,2.66.53c.07.16-1.2-.24-.76,0,1.53.1,3.17,1.22,5.23,1.58.9.38,0,.35.8.66,2.31.41,2.37.92,4.78,1.4-.62-.42-.75-.4,1-.16l-3.93-.93,2.58.37c-1.17-.33-2.51-.55-3.2-.79,1.24.15,1.1.17.59-.18,1.51.8,3.24.7,5,1.45L475,94c.27.11.53.2.79.28l.54.17a3.14,3.14,0,0,0,.51.09l-.09.38-.07.24c-.08.21-.17.42-.26.64-.36.85-.77,1.77-1.31,2.79l.61-1c0,.56-1,2.11-1.4,3.25-.13-.18-.52.47-.86.89.16,0-1.19,2.48-1,3l-1,1.4c-1.4,2.7-1,3.38-2.3,6,.18-.88-.51.25.19-1.58-.42.88-.83,1.66-.71,1.73-.36.46-.93,2.56-1.48,3.28a4,4,0,0,1-.45,1.6c-.09.09-.09,0-.09,0s-.62,1.6,0,.83c-1.85,2.45-3.57,7.6-5.17,9.73-.85,1.95-1.9,4.3-2.72,6.05,0-.14-.08-.05.09-.37-1.31,2.32-.19,1.72-1.68,4.37-.95,1.26.54-1.53,0-.71-.77.1-1.5,3.34-2.72,5l.18-.46c-.87,1.31-1.41,3.54-2.55,5.82,0,0,0-.14-.08-.05a31.39,31.39,0,0,1-1.18,3.29l-1.51,3.59c0-.67.3-.94-.13-.65-.11.29,0,.33,0,.44s.09.32-.31,1.24a4.41,4.41,0,0,1-.62.69,4,4,0,0,1-.16-1.05l.17.38.29-.63c-.12,0-.19,0-.28.22a5.42,5.42,0,0,1-.49-.88l.12-.1c-.22-.44-.39-.76-.54-1-.23-.44-.44-.8-.65-1.16a22.91,22.91,0,0,1-1.5-3.06l0,.37c-1.09-1.56-.41-1.52-1.41-3.12l.14-.67c-.57-1.09-2-3.81-3-5.8.76,1,1.91,3.34,2.7,4.74a35,35,0,0,0-2.08-4.3,9.89,9.89,0,0,1,.69,1.43,29.33,29.33,0,0,1-2.73-5.23c.28,0,.14-.59-.2-1.5-.16-.46-.38-1-.6-1.55-.34-.79-.68-1.63-1-2.45l-1.31.53-.63.24-.3.12-.2.06a5.78,5.78,0,0,1-1.28.31c-3.84,2-7.88,3.24-12.47,5.24,1.87-.15-1.33.59-.81,1a9.6,9.6,0,0,1-1.58.67l-3.39,1.05c-.84.16,1-.56.81-.65-2.36,1-1.08.18-2.7.7.4.06-.69.63-2.06,1.13l2-.55c-3.15,1.7-3,.74-6.21,2.45l1-.62c-1.66.82-6.26,2.66-7.73,3.82-.33.07-.79.08-.06-.28-4.08,1.66-8.82,4.33-12.09,5.4l.25-.27a10.34,10.34,0,0,1-2.21,1.09c0-.08.24-.27-.11-.13a20,20,0,0,1-2.94,1.45l.79-.52c-4,1.5-5.91,3-9.18,4.47-.17-.41-3.33.79-4.91,1.39l0-.08c-4.63,1.91-7.68,3.67-11.88,5.65a31,31,0,0,0-3.68,1.27l-2.31.95-3.57,1.5,1.54,3.7c.33.84.64,1.65.91,2.4-.2-.68.36,0,.73.71.34,1,1.46,2.64,1,2.64l-.15-.36c0,.91.93,2.92,1.61,4.53l.59.05a42.4,42.4,0,0,0,2.72,7l1.32,2.86c.17.38.29.73.16.73a3.06,3.06,0,0,1-.29-.21c0,.07-.16.06-.32,0l-.27,0a.56.56,0,0,1-.17,0l-.42-.09.15-.25c-2.87-1-4.3-1.54-7.9-2.65l.79,0c-2-.69-2.8-.07-4.66-.67l-.43-.59c-3.52-1.16-7-2.69-10.56-3.47.08,0,.22-.12.8.05-1.65-.56-6.32-2.39-5.9-1.64.08-.38-3.61-1.24-5.57-1.71l.39-.17a16.13,16.13,0,0,1-4.07-.76c-.52-.21-.39-.37.29-.07-1.72-.72-1.46-.2-3.56-1l.86.09a8.45,8.45,0,0,0-2.77-.62,11.43,11.43,0,0,1-3.62-1.53,5.83,5.83,0,0,1-2.4-.5c-.11-.13.3-.06.5,0-3-1.19-4.62-1.19-6.63-2.14,0-.11-.13-.2-.3-.28,2.41.81,4.36,1.46,4.17,1.42.08-.24-1.86-.93-.2-.75a41.65,41.65,0,0,1-6.3-1.57,1,1,0,0,1-.22-.17l.2,0a8.51,8.51,0,0,0-1.21-.36c-.6-.24-1-.39-1.55-.59a.86.86,0,0,0-.35-.22l-.32-.13-.32-.12c-.11,0-.26-.08-.38-.12l0-.08c-.2.07-.23,0-.26-.05s-.06-.09-.36.22c.05-.06,0,0-.05.16l.23.07a1.11,1.11,0,0,0,.23,0h-.05l1.89.61a10.38,10.38,0,0,1-1.26-.25,3.83,3.83,0,0,1-.48-.14,1.75,1.75,0,0,1-.36-.19l-.62,0a1.83,1.83,0,0,1,0-.46c.27-.29.47-.48.72-.8l.85-1.12a9.34,9.34,0,0,1,1.19-1.47c1.34-2.83,3.38-6.55,3.84-8.53a2.41,2.41,0,0,1,.85-1.09c-.2.48-.49,1-.56,1.29.72-1.63,2.44-4.67,2.31-5.22,1.21-1.9-.29,1.27,1.11-1.48l-.1.42c3.37-5.07,3.81-9.13,7.64-14.71a2.42,2.42,0,0,1-.49.64c3.9-6.6,7.16-14.08,11.18-20.5a10.44,10.44,0,0,0,1-1.93c.17-.46.29-.9.41-1.33a.64.64,0,0,1,.34,0c.12-.49.33-1.11.6-1.88l0-.05a9.05,9.05,0,0,1,.67,1.59c.18.61.36,1.21.55,1.83a21.27,21.27,0,0,0,1.94,4.67V121c.53,1.34,1.9,4.16,1.59,4a1.85,1.85,0,0,1,.51.92l-.13.1,1.64,3.16c1,2.58-.74-.15.81,3.56.64,1.35,2.09,3.73,2,3.17s-.52-1.45-.39-1.56l.61,1.23c.53,0,1.38.82.36-2.39l-1.18-2-.09-.78.79,1.8a6.49,6.49,0,0,0-1.12-2.36,2.53,2.53,0,0,0-.16-1l-1.31-1.93c.06-.33.74.8.23-.65-.62-.91,0,1.1-.8-.48-.24-1.11,0-.88-.64-2,0-.22.22,0,.47.46a30.67,30.67,0,0,0-1.73-3.27c-.22-1.18-1.61-3.6-1.16-3.67-.12-.15-.4-.59-.71-1.11l-.46-.83c-.2-.41-.42-.86-.58-1.24,1.15,1.77-.52-1.82-1.51-4.34-.54.95-1,1.58-.86,1-.31.83-.72,1.75-1.19,2.73-.36.74-.78,1.58-1.22,2.46-.66,1.29-1.41,2.69-1.9,3.89a2.07,2.07,0,0,1,.23-.62,24,24,0,0,1-1.56,2.34c.26.35-.72,2.38-1.08,3.56-1.16,1.39.1-1.17-.48-.85.32.08-1.17,2.87-.65,2.46-.84,1.09-.65,1-1.27,1.44.32.44-.52,1.16-.78,2.29-1.14,1.62-.64.23-1.53,2.2C314.09,133.53,314.84,131.76,314.84,131.76Zm-13.72,43h0l-1-.32Zm4.09,1.35-1.77-.6c-.11-.14.07-.18.48,0C303.68,175.45,304.63,175.82,305.21,176.1Zm-7.88-4.66h.07l.19.06a1.86,1.86,0,0,1,.27.11.61.61,0,0,1,.24.15l-.51-.15-.25-.08-.12,0,0,0A.65.65,0,0,1,297.33,171.44Z"/><path class="cls-1" d="M296.6,171.59l-.15,0a.65.65,0,0,0,.12.11l.21,0Z"/><path class="cls-1" d="M415.72,102.61l.09,0-.19,0A.33.33,0,0,1,415.72,102.61Z"/><polygon class="cls-1" points="363.66 195.55 363.54 195.46 363.86 196.06 363.78 196.04 363.87 196.08 363.66 195.55"/><path class="cls-1" d="M393.53,111a1.14,1.14,0,0,0-.32.06A1.43,1.43,0,0,0,393.53,111Z"/><path class="cls-1" d="M384.08,115l-1.38.48C383.3,115.28,383.73,115.12,384.08,115Z"/><path class="cls-1" d="M376.78,118a.31.31,0,0,0-.1.17h0Z"/><path class="cls-1" d="M461.55,88l.3.07C462.55,88.16,462.08,88.05,461.55,88Z"/><path class="cls-1" d="M425.49,78.49c.39.06.78.12,1.19.2C426,78.49,425.55,78.35,425.49,78.49Z"/><path class="cls-1" d="M469.44,115.92h0l-.11.23Z"/><path class="cls-1" d="M428.34,79.16a10.71,10.71,0,0,0-1.66-.47A13.15,13.15,0,0,0,428.34,79.16Z"/><path class="cls-1" d="M345.32,131.25l-.35.13s0,0,0,.06Z"/><path class="cls-1" d="M344.94,131.44l-.37.2A1.15,1.15,0,0,0,344.94,131.44Z"/><path class="cls-1" d="M343.78,132.05l.79-.41A2.89,2.89,0,0,0,343.78,132.05Z"/><path class="cls-1" d="M355,127.27l.07-.14A.19.19,0,0,0,355,127.27Z"/><path class="cls-1" d="M357.87,126a27.68,27.68,0,0,0-2.78,1l-.06.11C355.43,126.8,357.27,126.44,357.87,126Z"/><path class="cls-1" d="M370.53,122l-2.48,1c.47-.08,1.09-.18,0,.31C371.25,122.23,367.31,123.29,370.53,122Z"/><path class="cls-1" d="M378.16,118.88c-1.29.6.08.14,0,.22C379,118.66,379.18,118.55,378.16,118.88Z"/><path class="cls-1" d="M420.21,89.44l.29,0C420,88.48,420.4,89.5,420.21,89.44Z"/><polygon class="cls-1" points="414.53 79.5 414.8 80.55 415.22 80.92 414.53 79.5"/><path class="cls-1" d="M416.37,77.56h-.12l.24,0,.33.07.45.1-.66-.15A1.12,1.12,0,0,0,416.37,77.56Z"/><path class="cls-1" d="M462.23,125.32l.43-.17C462.93,124.46,462.67,124.16,462.23,125.32Z"/><path class="cls-1" d="M445.62,148.77a6.05,6.05,0,0,0-.86-2.28C445.12,147.39,445.39,148.33,445.62,148.77Z"/><polygon class="cls-1" points="355.83 183.64 355.39 182.88 356.11 184.35 355.83 183.64"/><text class="cls-2" transform="translate(543.4 70.37)">W<tspan class="cls-3" x="45.71" y="0">riting</tspan></text><text class="cls-4" transform="translate(527.08 426.37)">Sear<tspan class="cls-5" x="122.43" y="0">c</tspan><tspan x="149.96" y="0">hing</tspan></text><text class="cls-4" transform="translate(36.6 244.49)">Reading</text></g></g></svg>