<svg xmlns="http://www.w3.org/2000/svg" viewBox="0 0 528.4 91"><defs><style>.cls-1{fill:#9dc4ff;}</style></defs><title>textbox</title><g id="Layer_2" data-name="Layer 2"><g id="Layer_1-2" data-name="Layer 1"><path class="cls-1" d="M515.62,88.82c-.64.07-.26.33,1.42.15a10.2,10.2,0,0,0,1.1-.54,10.28,10.28,0,0,1-1.25.27C516.47,88.76,516,88.78,515.62,88.82Z"/><path class="cls-1" d="M525.55,84.11a8.47,8.47,0,0,0,1-2.62c.11-.67,0-.92-.31-.39a7.81,7.81,0,0,1-.66,2.09,23.49,23.49,0,0,1-1.13,2.07c-1.12,1.32-2.32,1.88-2.14,1.62a6.5,6.5,0,0,1-1.39.88c-.62.32-1.3.58-1.7.83a9.59,9.59,0,0,0,6.25-4.71C525.82,83.37,525.57,83.94,525.55,84.11Z"/><path class="cls-1" d="M434.29,1l1.1,0Z"/><path class="cls-1" d="M328.2.84a5.59,5.59,0,0,0,1.19-.07A4.86,4.86,0,0,0,328.2.84Z"/><path class="cls-1" d="M310.09.48l1.07,0A6.62,6.62,0,0,0,310.09.48Z"/><path class="cls-1" d="M434.29,1l-2.84-.1A15.26,15.26,0,0,0,434.29,1Z"/><path class="cls-1" d="M526.77,60.93c0,.59,0,1.08.08,1.54l0-1.45Z"/><path class="cls-1" d="M481.05.75h.86a7.13,7.13,0,0,0,.72-.13Z"/><path class="cls-1" d="M517,.79a2.44,2.44,0,0,0-1.49.31A5.72,5.72,0,0,1,517.38,1C517.4,1,517.3.91,517,.79Z"/><path class="cls-1" d="M527.91,52.88l0,1C527.93,53.63,527.92,53.19,527.91,52.88Z"/><path class="cls-1" d="M455.36.69a1.21,1.21,0,0,0-.32-.1S455.16.66,455.36.69Z"/><path class="cls-1" d="M474,88.17s0,0,0,0C474.23,88.19,474.29,88.17,474,88.17Z"/><path class="cls-1" d="M515.62,89.56H515c-.06.06-.12.11-.12.16Z"/><path class="cls-1" d="M276.94.12h.15C278,.09,277.47.1,276.94.12Z"/><path class="cls-1" d="M.45,35.63c.26-3.45.33,5.61.61.42C1,36.53.62,31.33.45,35.63Z"/><path class="cls-1" d="M526.8,60V58.53C526.79,59.2,526.79,59.65,526.8,60Z"/><path class="cls-1" d="M1.06,36.05h0l0-.54C1.07,35.73,1.07,35.86,1.06,36.05Z"/><path class="cls-1" d="M200.57.29a5.67,5.67,0,0,0,.78.12A2.39,2.39,0,0,0,200.57.29Z"/><path class="cls-1" d="M257.47.69l-1.41,0Z"/><path class="cls-1" d="M171,.68c-.77,0-1-.06-2.07,0l.31,0A13.55,13.55,0,0,1,171,.68Z"/><path class="cls-1" d="M140.28.68l.56.06h1Z"/><path class="cls-1" d="M380.57,88.3a9.5,9.5,0,0,1,1.42.26C381.51,88.36,386,88.28,380.57,88.3Z"/><path class="cls-1" d="M526.93,60.91a2.68,2.68,0,0,1-.13-.91c0,.35,0,.69,0,1C526.86,61.11,526.9,61.13,526.93,60.91Z"/><path class="cls-1" d="M169.78,2.9l-4.89,0C166.26,2.89,168,2.9,169.78,2.9Z"/><path class="cls-1" d="M160,88.34l1.12,0A9.49,9.49,0,0,0,160,88.34Z"/><path class="cls-1" d="M150.39,2.9c-.87-.1-1.79-.16-2.75-.19-.2,0-.43,0-.57.07Z"/><path class="cls-1" d="M382,88.56h0Z"/><path class="cls-1" d="M414.18,87.89c-4.66,0-2.19.36-3.18.57-5.55.11-2.57-.27-4.46-.46-3.47.1-6.13.44-8.72.43-.19-.07-.69-.09-.1-.16-3.67.29-10.89,0-15.16.38a2.55,2.55,0,0,1-.56-.09c.69.18.8.37.65.51-2.08,0-3.87.23-4.65,0a9,9,0,0,0,2-.17l-2.19.11c-2-.35,3-.12,3-.38-4.26.11-9.23.4-12.5.3-.68-.34,7.64-.11,3.28-.41l5.06.12c-3.87-.53,3.07,0-.48-.53-6.66-.1-7.44.17-14.08.07-1.49.19.49.28-1,.47-9.43.34-7.43-.85-14.36-.4a26.14,26.14,0,0,1-7.43.43l1.68-.39c-6.44,0-3.67.56-10.42.3,1.2-.15,5.06-.13,4.09-.17-4.37-.31-3.09.21-6.45.21l-.7-.34-22,.36c.42-.1,1.72-.2-.06-.31-9.58.17-20.45,0-29.69-.24l-3.53.29c-.82,0-1.52-.13-.63-.19-3.6-.11-.19.19-1.92.3-2.05,0-2.71-.16-1.41-.25-6.35.25-18.1.53-24.79.22l1.3-.09c-5.21-.12-5.88.6-10.72.33l.93,0c-11.31-.13-23.82.14-32.45-.3-1.64.42-11.2-.19-11.93.4-6.46-.29-4.61-.4-13.71-.6-2.43,0-3.62.37-6.62.43l-.08-.3-4.08.32-2.17-.37-2.82.08a6.69,6.69,0,0,1,2.22.23c-2.2.07-4.88,0-7-.08a26.17,26.17,0,0,1-3.81-.3l-10.41.26a28.82,28.82,0,0,1,3.35-.24c-5.56.31-1-.33-6.1,0,.68.07-.37.19-.49.25-2.54-.19-8.32-.19-12.59-.11l.82-.21c-7.73-.06-16.29.1-25,.09,3.11.1,2.4.47-.14.51l-1-.33c-1.64.2,2.65.12-.72.37-3.23,0-2.17-.37-.31-.48L96,88.35c-.23-.1.69-.15.93-.28-1.61.21-6.79-.32-9.12,0l-.23-.1c-8.66,0-12.59.11-19.65.13-.14.28-2.9.22-5,.44-5.19-.09-11-.31-17.2-.28-4.39.14-1.28.24-3.26.4-.32-.25-6.57-.23-3.33-.41-7.5,0-9.58,0-19.07.26,1,.1,2.19.15,1.59.23-1.72,0-3.92-.1-3.67-.23l.45,0c-1.33,0-2.71.07-4.13.08a12,12,0,0,1-4-.55A10.92,10.92,0,0,1,3,79.21a13.09,13.09,0,0,1-.11-1.88q0-1,0-2c0-2.66,0-5.13-.14-7.25l0,.48-.28-8.79c0-4,.19,2.42.35-.57-.43-9.49.06-15-.22-22.8a132,132,0,0,0,.31-14c0-2.82,0-5.7-.05-8.38A9.79,9.79,0,0,1,4.75,7.89l-.37.26a4.7,4.7,0,0,1,.6-1,3.29,3.29,0,0,1,.56-.64L6.11,6a8.37,8.37,0,0,0,.69-.54A3.42,3.42,0,0,0,6,6c-.25.23-.39.34,0-.14A12,12,0,0,1,8.38,4a11.18,11.18,0,0,1,2.84-1.11,11.15,11.15,0,0,1,1.52-.23c.51,0,1-.06,1.62-.05h3.42l13.85.11L59.4,3.1c6.7,0,3.81-.92,12.25-.49l-2.39.33c13.52-.4,27.65,0,40.89-.32a13.08,13.08,0,0,1-2.11.17c1.4.12,4,.12,6.23.07a28.18,28.18,0,0,0,4.16-.25c2.06,0,.48.17,1.75.27,2.8.14,7-.3,8.53-.06a7.36,7.36,0,0,1-1.3.09c1.83-.11,8.51,0,6.76-.25,5,.14,9.51-.12,13.47,0,2.59-.31,8.51.14,9.33-.29-.36.45,8.71.36,11.85.15-1,.14,2.73.14,1.5.33,3.59,0,6.87-.09,6.25-.32,6.6.54,13.27-.44,17,.26,10.65-.25,20.51-.41,30.09-.52-.35.45-10.59.05-10.18.52,9.09-.19,14.33-.57,23.34-.46,2.34.06-1.32.19-2.11.27,9.08-.19,17.56,0,25.64-.21a12.61,12.61,0,0,1-1.72.13c1.59,0,3.7.06,3.52-.14l-1.55,0c-2.54-.29,6.32-.62,6.61-.78-2.71.59,8,.15,3.68.89,1.05,0,2.37-.13,2.13-.27,1.55,0,2.05.12.47.28,5.7-.11,3.68-.33,8.84-.33a13.07,13.07,0,0,1-1.59.26,89.91,89.91,0,0,1,9.61-.31c-.26.06.24.14-1.06.14,7.5,0,12.78-.52,21-.33-2.43.43,2.8.14,3.23.52L318,2.44l-1.78-.19c3.88,0,7.3-.26,10.64-.14l-2.88.15,7.26-.07-4.11-.14c3.92-.19-.42-.47,4.74-.37-1.05,0,3.87,0,5.89.23h0a65.16,65.16,0,0,1,6.75-.15c.75.12-.6.41-.11.49,1.89-.31,9.07-.09,11.47-.42-.8.08-.84.28-.58.32l1.59-.26c1.8.08,2.06.12,1.77.28,5.4.05-1.72-.47,4.69-.27-.5,0-.26.06-1.31.1,6.44.1,12.44-.16,18.35,0,1.75.38-5.17.09-3.17.41,8.53-.07,17.66-.45,25.91-.36l-1.54,0c1.15-.53,6.15.26,10.32,0-1,0-1.34.29-1.06.23,5.65.09,11.55-.13,20.12-.29l-1.06.13c3.33.12,8.77.07,12.37.13,1.06-.13,3.12-.11,1.87-.31,11.09.78,21.16-.41,31,.23-1.17,0-2.8.12-1.87.12l8.39-.12a14.92,14.92,0,0,0-2.86-.32,53.43,53.43,0,0,1,5.5-.25c-3.77.16,0,.37,1.66.5-.27-.07.29-.15.15-.22,4.38.41.73-.46,6.71-.19l-.31.13c2.24-.07,4.3-.23,6.71-.19,1,.27-2.38.12-2.54.34,3.39,0,6.69-.5,9.76-.24l-4.95.15a55.54,55.54,0,0,0,6.21.29h-.24l5.74.14-1.47-.08a26.37,26.37,0,0,1,3.23-.32,11.24,11.24,0,0,1,3.31.24,13.53,13.53,0,0,1,6.49,3.72,9.16,9.16,0,0,0-1.22-1,3.76,3.76,0,0,0-.71-.47c-.3-.17-.28-.12-.13,0,.31.25,1,1,.76,1,1,1,2,2.82,1.61,2.36a7.46,7.46,0,0,1,1.4,3.16,27.52,27.52,0,0,1,.48,4.33c-.1.17,0,2.89-.25,2.28.07,3.51.17-.83.29-.53.33,5.41-.41,12.72.05,20.5.19,6.72.52,8,.68,14.19-.15,2.1-.35-1.72-.35-1.72-.15,3.39-.12,5.94,0,9.14-.08-.65-.16,0-.27,1,0,2.57.36,1.72.22,5.1a21.55,21.55,0,0,1-.4-2.56c.12,3,.24,6,.36,9.13-.17.83-.25-1.88-.37-3,0,1.76.1,4,.14,6,0,1,.07,1.9.12,2.63s0,1.25.09,1.52c.09-.72.15-1.46.17-2.22,0,1.29-.23.66-.28-.28-.21-3,.1-4.35.2-4.52l.06,2.23c.57-2.29-.09-9-.06-13.44l.42,1.87-.35-4.6c.11-1,.34-1.65.4.57.21-3.22-.15-2.85.08-5.61,0-.31.06-.17.08.11l-.13-3.14c.09.62.3-.52.24,1.41.24-5.64-.32-9.1,0-11.22l0,.47c-.14-7.82-.3-.75-.66-6.62l.75-4-.3-.76c0-.81,0-2.41.15-2.11-.2-3-.13.51-.33-1.24.28-3.88-.13-10.71.36-11.59-.23-1.39-.18,3.72-.34-.43a5.55,5.55,0,0,0-.23-3.31,16.52,16.52,0,0,0-2.34-4.54c1,.65,2.52,3.84.85.52a26.86,26.86,0,0,0-3.52-3.26,11.27,11.27,0,0,0-5-2.06c-.25.15-6.58,0-11.61.14.32-.13-9.46-.2-14.13-.34l.14-.06c-.91.37-5.73.3-9.24.38.14-.22.77-.31,2.67-.41h-3.3A32.76,32.76,0,0,1,478,1l.83-.28c-4.39,0-8.84.32-14.5.14-.31.26,4.5.71-1.48.89-.22-.14-.44-.38,1.13-.44-.52,0-1.83.12-2.86.06l2.38-.23c-2.57-.11-1.34.19-3.4.17,0-.2-1.52-.14-1.23-.3.53,0,1.8.08,2.59,0-2.33,0-5.13-.16-6.06-.31.2.12,0,.27-1.7.3-4.39,0-1.5-.24-4.06-.34-1.07.13-3.87,0-3.94.29a7.62,7.62,0,0,1-2-.22c-2.28.13-10.62,0-8.06.35l.58,0h-.37c-7.45.3-15.48-.16-22.87,0V1c-4.41.12-9.82.07-13,.28-1.31,0-3.08-.18-2.52-.3-3.38.08-3.76.19-8.63,0,3.39-.18-1.17-.16,3.48-.13a94.53,94.53,0,0,0-10.09,0c1.61-.26-3.3-.32-5.38-.25l3.07.18c-2.34,0-4.39,0-6.47,0l1.12-.34c-9-.4-16.17.69-23,0-2.38.23,4.87.16,2.75.43-4.13,0-8.43-.52-9.72-.52-5.65-.19-5.27.48-11.19.36.76.12,1.47.43-2.95.55-4.13-.05-5.07-.5-2.47-.6a4.88,4.88,0,0,1,1.43.07c1.33,0,3.08-.09,1.45-.22l-.54.12c-2.05-.12-7.73-.11-6.39-.31-3.12.12-1.34.2,1,.26-5.29-.17-8.27,0-13.72-.12.86.06,1.66.2.8.2-8-.14-3.52.23-8.94.28-3.08-.18,1.1-.43-4.35-.28-3.33-.12-.7-.32.62-.41-5,.23-9.29-.15-12.12-.19l2.61-.1c-1.56.06-2.84.06-4.15.05l1.5.24a15.82,15.82,0,0,1-2.81-.14c-1.59.16,1.21.4-1.93.61-2.05-.12-6.24.13-6.95-.19,6.44.11-.71-.31,4.74-.36-1.05,0-2.33,0-3.87,0-.24,0,.21-.07.63-.08-6.16-.28-2.83.35-9.22.35.81-.18-1.48-.34-2.52-.3,2.57,0,1.23.29-1.14.43-4.09-.14-4.45.1-6.59.09l2.45.06a52.73,52.73,0,0,1-5.74.21c-.24-.14,2.59-.09,1.57-.16-3.17.32-7.16-.32-11.58-.11-2-.12-.2-.33-2-.41-5,.23-5.37-.25-10.58-.06,1.5.24,1.77.18-1.9.42l8.56-.17-5.49.35c2.58,0,5.45-.15,7-.11-2.62.19-2.35.13-1.11.33-3.54-.36-7,.21-11.1,0l.12-.59c-6.14-.27-10.92.3-18.9.15l2.57.1c-1.07.24-4.93,0-7.51.13.24-.2-1.38-.27-2.48-.39.13.15-5.84,0-6.57.38L191.22.53c-6.45-.11-7.36.56-13.55.49,1.87-.21-.95-.35,3.2-.5a22.16,22.16,0,0,0-4,.1c-1.21-.13-5.74.26-7.64.07a16.24,16.24,0,0,1-3.48.28c-.25,0,0-.1,0-.1s-3.63.14-1.6.35c-6.37-.61-17.81.05-23.36-.48l-14,.14c.26-.05,0-.09.78-.07-5.65-.19-3.47.56-9.9.36C114.39.85,121.09,1,119,.88c-.89-.65-7.76.08-12.09-.3l1,0c-3.31-.22-8.07.24-13.48.2,0,0,.27-.06,0-.1-3.7.33-10.7.44-15.9.53C80.28.93,81,1.05,80,.79c-2.33,0,.69.41-4,.49C74.55,1.14,71.2,1,70.75.74l4.39,0c-2.25-.35-5.68,0-8,0l.29-.15c-6.73,0-6.82.44-14,.41l.75.12c-4,.39-3.31-.22-7.25.07L45.69.73c-2.6.09-9.13.38-13.8.45C34.54.89,40,.74,43.39.57c-2.58,0-8.78,0-10.13.22,1.05,0,2.36-.13,3.39-.07q-4.76.47-12.49.45c.45-.38-2.9-.43-6.84-.45l-3,0a17.47,17.47,0,0,0-3.07.19A17,17,0,0,0,6.76,2.35,13,13,0,0,0,4,4.78a12.63,12.63,0,0,0-2,3.07A12.19,12.19,0,0,0,.79,11.4,13,13,0,0,0,.6,13.28c0,.61,0,1.17,0,1.77C.51,19.75.42,24.65.44,30c.6-3.76,0,3.1.63,2.45,0,2.47,0,3.41,0,3.63l-.37,7.5C.52,45.3.56,41.17.42,41.4c0,5.41-.26,2.27-.42,5.85.22-.73.31,1.89.23,5l.28-4.34C.84,55.44,0,54.41.32,62L.13,59.63C.25,63.55.1,74,.64,77.92c0,.75-.15,1.79-.29-.11A12.7,12.7,0,0,0,3,85.31a13.2,13.2,0,0,0,6.65,4.63,13.89,13.89,0,0,0,3.91.56l3.48,0c2.24,0,4.32,0,6.14.08l-.71.15a45.1,45.1,0,0,1,5.22-.13c-.11.06-.7.15.11.16s4.63-.26,6.94-.18l-2,.17c9.11.2,14-.41,21.64-.51,0,.44,7.15.58,10.73.65l-.12.07c10.62,0,18-.37,27.87-.54,6.1.48,20.68.2,30.49.47-1.5-.08.24-.35,2-.39,2.31.09,6.37-.31,6,.1h-.82c1.74.4,6.47.29,10.16.3l.61-.53c9.66.77,25.32-.28,30.59.41,2.33-.13,5.22-.13,7.53-.26l-.12.28c6.46.07,9.69.11,17.67,0l-1.63.2c4.51,0,5.69-.81,9.85-.83l1.25.42c7.85,0,15.81.37,23.57,0a3.53,3.53,0,0,1-1.63.2c3.7,0,14.31.29,13-.29.09.38,8.11,0,12.35-.13l-.66.28a71.58,71.58,0,0,1,8.7-.55c1.18,0,1,.22-.54.15,3.95.15,3.08-.26,7.87-.12l-1.78.18a35.84,35.84,0,0,0,6-.28,51.43,51.43,0,0,1,8.31.32,25.32,25.32,0,0,1,5.17-.28c.33.09-.55.15-1,.18,6.79.19,10.1-.32,14.77,0a1.67,1.67,0,0,0,.79.16c-5.39,0-9.74,0-9.34,0,0,.26,4.37.3.9.66,3.5-.19,9.48-.62,13.73-.49l.57.08-.44,0c1,0,1.85,0,2.68,0,1.36,0,2.22.08,3.52.08.51.21,5,.11,7.18.12-.18-.28,2.67-.23,0-.46a11.44,11.44,0,0,1-1.86,0c-.33,0-.71,0-.93,0l.15,0h-5.4a37.18,37.18,0,0,1,5.91-.1c1.12-.18,2.35-.37,3-.46,3,.4,8.71.61,9.51.85,6.64-.16,15.64-.1,19.82-.63a10.3,10.3,0,0,1,2.87.23c-1.09.06-2.38,0-3,.12,3.77-.13,11.18,0,12.08-.42,4.76.17-2.67.34,3.87.28l-.89.11c12.86.59,20.91-.94,35.17-.18a12.12,12.12,0,0,1-1.69-.13c16.26.33,33.5-.31,49.54.22a57,57,0,0,0,7.84-.31l1,.3,4.75-.35c6.75-.25,11.69.74,20.23.26l-1.11-.2c3.07,0,9.72-.12,9.21.11a8.07,8.07,0,0,1,2.2-.11l.1.16,7.53-.27c5.84.12-.91.63,7.61.66,3.17-.06,9-.46,7.84-.57a14.44,14.44,0,0,1-3.37-.25l2.9-.09c.53-.46,2.76-.94-4.36-1.26l-5,.28-1.59-.22,4.17,0a28.87,28.87,0,0,0-5.55.11,9.38,9.38,0,0,0-2.08-.25l-4.86.44c-.59-.18,2.18-.36-1.09-.46-2.28.21,2.19.41-1.58.54a16.34,16.34,0,0,0-4.47-.2c-.39-.12.2-.2,1.31-.25-2.48.15-6.56.06-7.84.31-2.47-.26-8.37.07-8.12-.37-.78.1-4.36.34-6.64.36,4.16-.53-8.52,0-7.42-.59-3.08.47-11.12.21-16.57.47a8,8,0,0,1,1.39-.09c-3.07,0-4-.18-5.93-.27-.4.39-5.17.48-7.75.72-3.76-.38,2.29-.46,1.1-.82.19.31-6.53.31-5.25.58a20.27,20.27,0,0,1-4-.44c-.5.49-2.68.08-5.06.38-4.16-.24-1.07-.45-5.64-.31C410.11,88.06,414.18,87.89,414.18,87.89Zm-108.73.85h2.25Zm-9.14,0h4c.32.1,0,.2-.95.2A20.09,20.09,0,0,0,296.31,88.74Zm19.33,2a9.43,9.43,0,0,1-2.13-.07l2.53,0,.17,0A2.6,2.6,0,0,1,315.64,90.69Z"/><path class="cls-1" d="M318.24,90.32l.6,0-.87-.06-.51.09Z"/><path class="cls-1" d="M435.58,1.07h-.19a3.14,3.14,0,0,1,.4,0Z"/><polygon class="cls-1" points="170.15 88.2 170.16 88.28 170.96 88.21 170.15 88.2"/><path class="cls-1" d="M485.9,2a4.13,4.13,0,0,0,.66.08A4.27,4.27,0,0,0,485.9,2Z"/><path class="cls-1" d="M507.64,2.1l3.08.1Z"/><path class="cls-1" d="M523.09,5.11a.82.82,0,0,0,.31.12l0,0Z"/><path class="cls-1" d="M258.62,2.57H258C256.46,2.63,257.49,2.61,258.62,2.57Z"/><path class="cls-1" d="M337.7,1.91,335.16,2A7.34,7.34,0,0,0,337.7,1.91Z"/><path class="cls-1" d="M170.31,2.9h0Z"/><path class="cls-1" d="M331.48,2c1.41,0,2.58,0,3.68,0C334,2,332.64,2,331.48,2Z"/><path class="cls-1" d="M526.74,75.83v.8s0,0,0,.1Z"/><path class="cls-1" d="M526.77,76.73c0,.29,0,.61,0,.89A5.07,5.07,0,0,0,526.77,76.73Z"/><path class="cls-1" d="M526.71,79.37a11.4,11.4,0,0,0,.09-1.75c0,.3,0,.64,0,.95A4.93,4.93,0,0,0,526.71,79.37Z"/><path class="cls-1" d="M526.87,53.7l-.1-.25C526.79,53.59,526.82,53.68,526.87,53.7Z"/><path class="cls-1" d="M526.84,47c0,1.6-.22,4-.15,6.26l.08.21C526.62,52.4,527,48.5,526.84,47Z"/><path class="cls-1" d="M528.1,18.92,528,24.55c.11-1,.25-2.28.28.28C528.62,17.73,528.06,26.3,528.1,18.92Z"/><path class="cls-1" d="M522.39,2.84c2.62,1.83.09-.18.23-.12A7,7,0,0,0,521.05,2C521,2,521.41,2.16,522.39,2.84Z"/><path class="cls-1" d="M396.17.84l.3-.25C394.14.63,396.45.69,396.17.84Z"/><polygon class="cls-1" points="372.03 2.17 374.3 2.33 375.38 2.09 372.03 2.17"/><polygon class="cls-1" points="357.78 0.34 358.8 0.31 354.9 0.4 357.78 0.34"/><path class="cls-1" d="M145.75.44l.7.31C148,.69,148.36.34,145.75.44Z"/><path class="cls-1" d="M54.21.76A27.37,27.37,0,0,0,49.05.65C51.11.67,53.17.8,54.21.76Z"/><polygon class="cls-1" points="145.87 90.73 144.03 90.84 147.5 90.75 145.87 90.73"/></g></g></svg>