<svg xmlns="http://www.w3.org/2000/svg" viewBox="0 0 541.2 97.01"><defs><style>.cls-1{fill:#333;}.cls-2{fill:#9dc4ff;}.cls-3{font-size:44px;fill:#8fbcff;font-family:AmericanTypewriter-Semibold, American Typewriter;font-weight:600;}.cls-4{letter-spacing:-0.06em;}.cls-5{letter-spacing:0em;}.cls-6{letter-spacing:-0.01em;}</style></defs><title>Woohoo</title><g id="Layer_2" data-name="Layer 2"><g id="Layer_1-2" data-name="Layer 1"><rect class="cls-1" x="4.85" y="4.46" width="534" height="88" rx="12"/><path class="cls-2" d="M526.85,90.46c-.65.25-.22.9,1.33.64a8,8,0,0,0,.88-1.17A10,10,0,0,1,526.85,90.46Z"/><path class="cls-2" d="M536.78,86.89a5.56,5.56,0,0,0,.33-2.84c-.13-.73-.55-1-1.13-.64a4.39,4.39,0,0,1-.07,2.09c-.08.28-.15.58-.22,1s-.17.81-.31,1.38c-1,1.37-2.37,1.68-2.34,1.22-.14.29-.7.56-1.27.87a6.86,6.86,0,0,0-.85.46,1.79,1.79,0,0,0-.66.55,5.78,5.78,0,0,0,3.49-1.15,7,7,0,0,0,2.53-3.36C536.79,86,536.7,86.66,536.78,86.89Z"/><path class="cls-2" d="M443.1,3.07l1.11.12A6.49,6.49,0,0,0,443.1,3.07Z"/><path class="cls-2" d="M335.61,2.52c.82,0,1.16-.12,1.2-.21C336.05,2.38,335.42,2.44,335.61,2.52Z"/><path class="cls-2" d="M317.26,1.43l1.08.07A2.61,2.61,0,0,0,317.26,1.43Z"/><path class="cls-2" d="M443.1,3.07l-2.88-.31C440,3.08,441.7,3,443.1,3.07Z"/><path class="cls-2" d="M536.3,63.43a9,9,0,0,0,.26,1.56c0-.49-.08-1-.1-1.46A.7.7,0,0,1,536.3,63.43Z"/><path class="cls-2" d="M490.48,2.26h.87a4.68,4.68,0,0,0,.73-.4Z"/><path class="cls-2" d="M526.84,2.11c-.82,0-1.1.81-1.42,1.18a3.2,3.2,0,0,1,1.85-.56C527.29,2.57,527.17,2.37,526.84,2.11Z"/><path class="cls-2" d="M539.72,55.28l.11,1C539.8,56,539.75,55.59,539.72,55.28Z"/><path class="cls-2" d="M464.45,2.08a.75.75,0,0,0-.33-.3C464.12,1.89,464.25,2,464.45,2.08Z"/><path class="cls-2" d="M484.7,88.5c0,.06,0,.1,0,.15C484.91,88.57,485,88.51,484.7,88.5Z"/><path class="cls-2" d="M526.85,92.68l-.58,0a1.43,1.43,0,0,0-.13.48Z"/><path class="cls-2" d="M283.67.35l.15,0C284.7.27,284.2.29,283.67.35Z"/><path class="cls-2" d="M1.36,39.14c.76-3.49,1,5.69,1.81.43C2.84,40.06,1.85,34.79,1.36,39.14Z"/><path class="cls-2" d="M536.41,62.49c0-.49,0-1,0-1.49A13.79,13.79,0,0,0,536.41,62.49Z"/><path class="cls-2" d="M3.17,39.57h0L3.26,39Z"/><path class="cls-2" d="M206.28.86a2.43,2.43,0,0,0,.79.37C207,1.14,206.87,1,206.28.86Z"/><path class="cls-2" d="M263.93,2.06l-1.42-.12A12,12,0,0,0,263.93,2.06Z"/><path class="cls-2" d="M176.35,2.05a7.74,7.74,0,0,0-2.1-.07l.32.1A4,4,0,0,1,176.35,2.05Z"/><path class="cls-2" d="M145.19,2.05a4.41,4.41,0,0,0,.58.17l1,0Z"/><path class="cls-2" d="M390,88.91a4.7,4.7,0,0,1,1.44.76C391,89.07,395.55,88.85,390,88.91Z"/><path class="cls-2" d="M536.77,63.42a1.32,1.32,0,0,1-.36-.93l.05,1C536.58,63.62,536.7,63.64,536.77,63.42Z"/><path class="cls-2" d="M175.08,8.7l-5-.12C171.52,8.66,173.31,8.7,175.08,8.7Z"/><path class="cls-2" d="M166.5,89l1.13-.1A3.23,3.23,0,0,0,166.5,89Z"/><path class="cls-2" d="M155.44,8.7a13.28,13.28,0,0,0-2.79-.58,2.35,2.35,0,0,0-.57.21Z"/><path class="cls-2" d="M391.46,89.67h0Z"/><path class="cls-2" d="M424.07,87.67c-4.72,0-2.22,1.09-3.22,1.72-5.63.32-2.6-.81-4.52-1.38-3.51.29-6.21,1.31-8.83,1.27-.2-.19-.71-.25-.11-.48-3.72.88-11,0-15.36,1.15a1.32,1.32,0,0,1-.57-.28c.7.56.81,1.12.67,1.53-2.12,0-3.93.7-4.72,0a3.43,3.43,0,0,0,2-.5L387.2,91c-2-1,3-.36,3-1.13-4.32.34-9.36,1.2-12.67.9-.69-1,7.74-.34,3.33-1.24l5.12.38c-3.92-1.6,3.11.12-.49-1.6-6.74-.3-7.54.52-14.26.22-1.51.57.5.84-1,1.4-9.56,1-7.53-2.56-14.55-1.2-1.82.68-2.53,2-7.53,1.28l1.7-1.15c-6.52-.11-3.72,1.66-10.56.88,1.22-.45,5.13-.38,4.15-.52-4.43-.9-3.14.66-6.54.66l-.71-1c-6.94.16-14.6.9-22.29,1.08.42-.3,1.74-.62-.06-.93-9.71.51-20.72-.13-30.08-.73l-3.58.88c-.83,0-1.54-.4-.64-.57-3.65-.33-.19.56-1.94.9-2.08.07-2.75-.5-1.43-.77-6.44.75-18.34,1.61-25.12.67l1.32-.26c-5.28-.36-6,1.8-10.86,1l.94-.16c-11.47-.38-24.14.43-32.89-.9-1.66,1.27-11.34-.57-12.08,1.2-6.55-.87-4.67-1.19-13.89-1.78-2.46-.08-3.67,1.11-6.72,1.29l-.07-.92-4.13,1-2.2-1.11-2.86.24c1.14,0,2.42.41,2.25.68-4.46.42-10.88-.65-11-1.12l-10.55.78c.24-.37,2-.5,3.4-.73-5.63.94-1-1-6.18-.11.69.21-.38.55-.5.73-2.57-.55-8.43-.56-12.76-.32l.83-.64c-7.82-.16-16.5.3-25.28.29,3.15.3,2.43,1.4-.15,1.51l-1-1c-1.66.61,2.69.37-.72,1.11-3.29-.11-2.21-1.11-.33-1.43l-4,.34c-.23-.29.71-.44,1-.82-1.64.61-6.89-1-9.25.08L93.11,88c-8.78,0-12.77.32-19.92.37-.14.85-2.94.66-5.07,1.34-5.25-.27-11.09-.93-17.42-.86-4.45.42-1.3.72-3.3,1.22-.33-.77-6.66-.7-3.38-1.25-7.6.12-9.71.15-19.32.78,1,.31,2.22.45,1.61.71-1.75.13-4-.32-3.72-.69l.46-.08c-1.35.14-2.75.22-4.18.24-.71,0-1.49,0-2.14,0l-.86-.07L15,89.53a8.42,8.42,0,0,1-5.15-4.08,9,9,0,0,1-1.11-4.36v-.74c0-.34,0-.68,0-1A36,36,0,0,0,8.4,72l.08.48-.83-8.91c.13-4.1.58,2.46,1-.57C7.42,53.37,8.89,47.8,8,39.88c1.14-3.06,1.1-8.5,1-14.2-.07-2.85-.16-5.77-.15-8.49a12.12,12.12,0,0,1,.08-1.58,6.5,6.5,0,0,1,.32-1.21,4.66,4.66,0,0,1,1.21-1.85H9.82a1.66,1.66,0,0,1,.86-1.28,8.4,8.4,0,0,0,1.19-.56c-.18-.1-.56.05-.81.18s-.41.16-.2-.28a8,8,0,0,1,4.08-2.47,8.48,8.48,0,0,1,1.21-.2l.62,0h.83l3.47,0c4.65,0,9.33.18,14,.35,9.4.34,18.86.81,28.15,1.05C70,9.46,67.1,6.55,75.66,7.83l-2.43,1c13.7-1.19,28,0,41.43-1a4.49,4.49,0,0,1-2.13.52c2.83.72,10.48,0,10.53-.55,2.08.07.48.53,1.77.83,2.84.42,7.13-.92,8.64-.2.26.11-.8.23-1.32.29,1.85-.35,8.63.08,6.86-.75,5,.4,9.63-.36,13.64.13,2.62-.93,8.62.44,9.45-.87-.36,1.36,8.83,1.09,12,.46-1.06.41,2.77.42,1.52,1,3.64,0,7-.27,6.33-1,6.69,1.62,13.45-1.31,17.22.78C210,7.78,220,7.28,229.67,7c-.35,1.35-10.73.13-10.32,1.55C228.56,8,233.87,6.8,243,7.13c2.36.18-1.35.59-2.14.82,9.2-.56,17.78.12,26-.62a4.79,4.79,0,0,1-1.74.37c1.61,0,3.75.2,3.57-.42l-1.57.17c-2.58-.89,6.4-1.87,6.69-2.34-2.74,1.77,8.09.45,3.74,2.67,1.06-.11,2.39-.4,2.15-.81,1.58.11,2.08.35.48.82,5.78-.33,3.72-1,9-1,0,.3-1.08.41-1.62.76a31.84,31.84,0,0,1,9.74-.91c-.26.18.25.41-1.07.41,7.6-.09,12.95-1.55,21.29-1-2.46,1.3,2.83.43,3.27,1.55l4.49-.33-1.8-.55c3.93,0,7.4-.79,10.77-.43l-2.92.46,7.36-.21-4.16-.42c4-.58-.43-1.42,4.8-1.11-1.06.12,3.93,0,6,.68h0a22.51,22.51,0,0,1,6.84-.46c.76.36-.6,1.24-.11,1.48,1.91-.93,9.19-.26,11.62-1.26-.81.24-.85.83-.58,1l1.6-.76c1.82.24,2.09.36,1.79.83,5.47.14-1.73-1.42,4.76-.81a9.59,9.59,0,0,1-1.33.29c6.52.32,12.6-.48,18.6-.11,1.76,1.13-5.24.28-3.22,1.23,8.64-.21,17.9-1.35,26.26-1.09L409.9,5.9c1.16-1.59,6.23.78,10.46,0-1,.12-1.36.89-1.08.71,5.72.25,11.71-.39,20.38-.89l-1.07.41c3.37.36,8.88.21,12.53.39,1.08-.41,3.17-.34,1.9-.93,11.24,2.32,21.44-1.25,31.41.69-1.19,0-2.84.36-1.89.36l8.5-.38c-.68-.69-1.12-.42-2.9-1a19.27,19.27,0,0,1,5.58-.73c-3.83.46,0,1.11,1.68,1.5-.28-.21.29-.45.15-.66,4.43,1.23.74-1.4,6.8-.57l-.32.37a49.63,49.63,0,0,1,6.8-.56c1,.8-2.41.37-2.57,1,3.44,0,6.78-1.52,9.89-.72-1.46.22-3.56.23-5,.45a20.05,20.05,0,0,0,6.29.85l-.24,0L523,6.7l-1.48-.26a10.64,10.64,0,0,1,3.27-1,14.48,14.48,0,0,1,3.34-.11A18.53,18.53,0,0,1,535,8l-.82-.45-.67-.26a3.17,3.17,0,0,0-.82-.23c-.36,0-.36,0-.24.2s.95,1,.52,1.19c.89.94,1.75,2.57,1.22,2.32a3.75,3.75,0,0,1,1.53,2.52c.07.25.13.5.18.76s.14.53.19.82.17.59.24.93.21.66.33,1.18c-.29.17,0,2.93-.76,2.31.23,3.56.51-.84.87-.54,1,5.48-1.21,12.89.16,20.78.57,6.8,1.55,8.06,2,14.37-.47,2.13-1.07-1.75-1.07-1.75a37.76,37.76,0,0,0,0,9.26c-.25-.65-.47,0-.8,1,.08,2.6,1.07,1.74.64,5.17a9.77,9.77,0,0,1-1.18-2.6c.27,3.06.82,6.09,1.08,9.26-.51.84-.77-1.91-1.11-3,.12,1.78.24,4.09.42,6.09.1,1,.21,1.92.35,2.66.07.39.14.68.2.92a2.6,2.6,0,0,0,.25.57l.2-1,.14-1.14c0,1.29-.69.66-.84-.29-.63-3.06.28-4.41.58-4.58l.18,2.26c1.72-2.32-.27-9.07-.17-13.62l1.25,1.9-1-4.67c.32-1,1-1.67,1.21.58.61-3.26-.45-2.89.24-5.69.11-.3.17-.16.22.12l-.37-3.18c.26.62.88-.53.7,1.42.72-5.71-.94-9.21,0-11.36l.07.47c-.42-7.92-.91-.76-2-6.71l2.26-4-.91-.78c0-.82.1-2.44.46-2.14-.62-3-.39.52-1-1.25.83-3.95-.36-10.81,1-11.79-.4-.75-.45.3-.57.88s-.14.84-.47-1.28c.75-.66.51-2-.21-3.47a44.56,44.56,0,0,0-3-4.48c1.46.2,3.3,3.72,1.49,0-1.31-.5-2.6-1.83-4.35-3a10.1,10.1,0,0,0-5.68-1.91c-.25,1-6.63.44-11.74.8.32-.37-9.58-.6-14.32-1l.14-.18c-.92,1.1-5.8.89-9.36,1.12.14-.66.78-.92,2.71-1.21h-3.35a11.43,11.43,0,0,1-4,.67l.84-.83c-4.45,0-9,1-14.69.42-.32.77,4.56,2.14-1.5,2.66-.22-.42-.45-1.13,1.14-1.3a10.26,10.26,0,0,1-2.9.17l2.42-.7c-2.61-.31-1.36.58-3.45.52,0-.59-1.54-.42-1.24-.89a13.24,13.24,0,0,0,2.61,0,23,23,0,0,1-6.13-.91c.21.34,0,.8-1.72.88-4.45,0-1.52-.72-4.12-1-1.08.41-3.92,0-4,.87a3.2,3.2,0,0,1-2.05-.66c-2.3.39-10.76.11-8.16,1.06l.59.06-.38,0h0c-7.55.88-15.68-.5-23.17-.12v-.3c-4.47.34-9.95.2-13.15.84-1.32,0-3.12-.54-2.55-.9-3.42.22-3.8.56-8.74.07,3.43-.52-1.19-.46,3.52-.38-4.44-.26-5.45-.73-10.22.08,1.63-.76-3.34-1-5.45-.73l3.11.54c-2.37.11-4.45,0-6.56,0l1.14-1c-9.09-1.21-16.39,2.07-23.31,0-2.4.7,4.94.49,2.79,1.31-4.18-.14-8.54-1.57-9.85-1.57-5.73-.56-5.34,1.45-11.34,1.08.77.35,1.49,1.3-3,1.64-4.18-.13-5.14-1.5-2.5-1.78,1,0,1.49.08,1.45.2,1.35-.13,3.12-.28,1.47-.67l-.55.36c-2.07-.36-7.83-.32-6.48-.91-3.16.34-1.35.59,1,.77-5.36-.52-8.38,0-13.9-.36.88.19,1.68.61.81.61-8.1-.44-3.57.67-9.06.83-3.12-.54,1.12-1.3-4.41-.84-3.37-.37-.71-1,.63-1.24-5,.69-9.41-.45-12.28-.57L296.68,0a34.83,34.83,0,0,1-4.21.16L294,.88c-1.56-.13-2.88-.13-2.85-.43-1.6.47,1.23,1.19-2,1.82-2.07-.36-6.32.39-7-.55,6.52.32-.73-.95,4.8-1.1A21.53,21.53,0,0,1,283,.6c-.23-.11.22-.2.65-.25-6.25-.84-2.87,1.07-9.35,1,.82-.54-1.5-1-2.55-.9,2.6,0,1.24.89-1.15,1.3-4.15-.42-4.51.3-6.69.26l2.48.19c-.84.53-2.91.46-5.81.63-.24-.41,2.63-.28,1.6-.47-3.21.94-7.26-1-11.74-.33-2.08-.36-.2-1-2-1.25-5,.69-5.43-.73-10.71-.16,1.52.72,1.78.54-1.93,1.24l8.67-.5-5.56,1c2.61,0,5.52-.45,7.09-.33-2.65.58-2.38.4-1.13,1-3.58-1.08-7.1.62-11.24-.1l.12-1.77c-6.22-.79-11.06.91-19.15.46l2.6.31c-1.08.7-5,.1-7.61.38.24-.59-1.39-.81-2.51-1.17.14.44-5.92,0-6.65,1.14l-3.61-.78c-6.53-.32-7.45,1.69-13.73,1.48,1.89-.64-1-1.06,3.24-1.52-2.09,0-4-.11-4,.3-1.23-.37-5.81.79-7.74.23-.88.26-1.17.88-3.52.83-.26-.12,0-.29,0-.29,0,.29-3.69.4-1.63,1-6.46-1.84-18,.14-23.66-1.45-4.58.2-10.09.39-14.24.43.27-.17,0-.29.8-.23-5.73-.55-3.52,1.7-10,1.09-3.33-1,3.46-.52,1.39-.88-.91-1.95-7.87.26-12.25-.88l1.06-.11c-3.35-.66-8.18.74-13.66.6,0,0,.27-.17,0-.3-3.74,1-10.83,1.33-16.1,1.6,1.64-.76,2.39-.4,1.39-1.18-2.36.11.69,1.25-4,1.47C78.6,3.41,75.19,3,74.74,2.22l4.45-.05c-2.28-1.07-5.76,0-8.1-.15l.3-.47c-6.82.16-6.91,1.34-14.23,1.25l.75.36c-4,1.16-3.35-.66-7.35.21L49.35,2.18c-2.64.29-9.25,1.15-14,1.37C38.05,2.67,43.59,2.22,47,1.7c-2.62,0-8.9.09-10.26.67a13.72,13.72,0,0,1,3.43-.22A46.26,46.26,0,0,1,27.53,3.52c.46-1.15-2.94-1.29-6.92-1.37l-3.05-.07-.78,0-.9,0a16.53,16.53,0,0,0-1.75.14A43.74,43.74,0,0,0,8.74,3.51a17.27,17.27,0,0,0-5.48,6.64A15.88,15.88,0,0,0,2,14.32a16.38,16.38,0,0,0-.21,2.19c0,.59-.05,1.19-.07,1.78C1.52,23.06,1.26,28,1.32,33.4c1.79-3.82.05,3.13,1.89,2.47a13.87,13.87,0,0,1,0,3.69l-1.1,7.59c-.53,1.8-.4-2.38-.82-2.15C1.12,50.48.49,47.3,0,50.92c.66-.74.94,1.91.69,5l.85-4.4C2.51,59.22,0,58.18,1,65.9L.39,63.46c.17,2,.16,5.64.3,9.28C.76,74.57.87,76.39,1,78c.09.81.2,1.56.34,2.23,0,.19.07.38.11.56l.14.57a5,5,0,0,0,.35,1c-.08.88-.38,2.22-.87,0A14.64,14.64,0,0,0,5.2,91a15.39,15.39,0,0,0,8.58,4.44,20.35,20.35,0,0,0,4.34.11c1.21-.06,2.38-.1,3.52-.12a48.29,48.29,0,0,1,6.22.25l-.72.45c1.77-.13,3.08-.84,5.29-.39-.11.18-.71.45.11.47a31.7,31.7,0,0,1,7-.52l-2,.5c9.24.59,14.18-1.23,21.93-1.53,0,1.32,7.25,1.75,10.88,2l-.13.19c10.76.16,18.28-1.1,28.24-1.62,6.19,1.44,21,.6,30.89,1.41-1.52-.24.25-1,2-1.16,2.33.26,6.45-.92,6.08.29l-.84,0c1.76,1.19,6.56.87,10.3.9l.62-1.58c9.79,2.3,25.65-.85,31,1.22,2.36-.4,5.29-.39,7.63-.79l-.12.85c6.54.22,9.81.32,17.9.12l-1.65.61c4.57,0,5.77-2.45,10-2.5l1.26,1.27c8,0,16,1.09,23.89-.06-.13.18-.36.55-1.65.6,3.75,0,14.5.86,13.14-.88.09,1.13,8.21.11,12.51-.39l-.67.84c3.63-1.07,3.75-1.36,8.82-1.66,1.2.11,1.05.67-.54.46,4,.43,3.11-.79,8-.35l-1.81.53c4.12.07,3.79-.22,6.06-.84,2.59-.34,7.81.21,8.42,1a9.26,9.26,0,0,1,5.24-.86c.32.28-.56.46-1,.55,6.89.57,10.24-1,15-.15.1.27.41.41.8.49-5.47,0-9.88-.06-9.46-.12,0,.77,4.41.9.9,2,3.55-.58,9.61-1.85,13.92-1.48a2.3,2.3,0,0,1,.57.26l-.45.09a11.39,11.39,0,0,0,2.72-.12c1.38.12,2.25.22,3.57.23.51.64,5.07.34,7.27.37-.18-.84,2.71-.71,0-1.4.35.06-.41.1-1.88.13-.33,0-.72,0-.94.09l.15-.07-5.47,0a13.18,13.18,0,0,1,6-.32c1.13-.54,2.38-1.1,3.08-1.36,3,1.18,8.82,1.81,9.63,2.54,6.73-.47,15.85-.31,20.08-1.9,1.92-.2,2.2.46,2.92.71a23.41,23.41,0,0,0-3,.36c3.83-.41,11.33-.16,12.25-1.27,4.82.5-2.71,1,3.91.84l-.89.34c13,1.77,21.18-2.82,35.63-.55a4.32,4.32,0,0,1-1.71-.39c16.47,1,33.94-.94,50.2.65,4.62.32,5.12-.39,7.94-.93l1,.91,4.82-1c6.83-.76,11.83,2.22,20.49.78l-1.12-.61c3.11.11,9.85-.36,9.33.34a3,3,0,0,1,2.23-.32l.1.48,7.63-.82c5.92.35-.92,1.89,7.71,2,3.21-.18,9.15-1.38,7.94-1.7-1.3,0-3.31-.29-3.41-.77l2.94-.25c.53-1.39,2.79-2.82-4.42-3.8l-5,.86-1.62-.68,4.23,0c-2.4-.64-3.92-.08-5.62.31a4.1,4.1,0,0,0-2.11-.75L506.78,90c-.6-.55,2.21-1.09-1.1-1.39-2.31.62,2.22,1.23-1.61,1.63-2.4-.63-1.7-1.15-4.52-.61-.39-.36.2-.59,1.32-.74-2.51.43-6.64.18-7.94.92-2.5-.78-8.47.2-8.23-1.12a30.19,30.19,0,0,1-6.72,1.1c4.21-1.59-8.64-.1-7.52-1.79-3.12,1.42-11.26.63-16.79,1.42a3,3,0,0,1,1.41-.27,40.19,40.19,0,0,1-6-.82c-.4,1.18-5.24,1.45-7.85,2.17-3.81-1.13,2.31-1.38,1.12-2.47.19,1-6.62,1-5.33,1.75-2.91-.71-2.51-.34-4-1.32-.51,1.47-2.71.25-5.13,1.15-4.22-.72-1.09-1.37-5.72-.93C420,88.19,424.07,87.67,424.07,87.67ZM313.9,90.21h0l2.28,0Zm-9.26,0c1.13,0,2.53,0,4,0,.32.29,0,.59-1,.58C308.21,90.64,306,90.47,304.64,90.23Zm19.59,5.84c-1.47.12-2,0-2.16-.22.69,0,1.5,0,2.56-.1l.18-.1A1.41,1.41,0,0,1,324.23,96.07Z"/><path class="cls-2" d="M326.86,95c.21,0,.33,0,.61-.06l-.88-.19-.52.27Z"/><path class="cls-2" d="M444.41,3.21l-.2,0a1.25,1.25,0,0,1,.41.12A1.41,1.41,0,0,1,444.41,3.21Z"/><polygon class="cls-2" points="176.81 88.61 176.82 88.83 177.63 88.64 176.81 88.61"/><path class="cls-2" d="M495.4,6.1a1.6,1.6,0,0,0,.67.22A2.08,2.08,0,0,0,495.4,6.1Z"/><path class="cls-2" d="M517.42,6.29l3.12.3C519.19,6.42,518.21,6.34,517.42,6.29Z"/><path class="cls-2" d="M532.55,8.57a.92.92,0,0,0,.43-.12v0Z"/><path class="cls-2" d="M265.1,7.7a6.48,6.48,0,0,0-.65,0C262.91,7.9,264,7.84,265.1,7.7Z"/><path class="cls-2" d="M345.23,5.73c-.85.15-1.69.3-2.58.4C344.08,6.19,345.19,6.21,345.23,5.73Z"/><path class="cls-2" d="M175.62,8.71s0,0,0,0h0Z"/><path class="cls-2" d="M338.93,6.11a16.56,16.56,0,0,0,3.72,0A24.31,24.31,0,0,0,338.93,6.11Z"/><path class="cls-2" d="M536.22,78.53l0,.82s.1,0,.13.09Z"/><path class="cls-2" d="M536.32,79.44l.1.91A2,2,0,0,0,536.32,79.44Z"/><path class="cls-2" d="M536.51,81.92a10.48,10.48,0,0,0-.09-1.57A4.35,4.35,0,0,0,536.51,81.92Z"/><path class="cls-2" d="M536.61,56.11l-.3-.25A.38.38,0,0,0,536.61,56.11Z"/><path class="cls-2" d="M536.52,49.3c-.07,1.63-.65,4.08-.46,6.35l.25.21C535.85,54.79,537,50.84,536.52,49.3Z"/><path class="cls-2" d="M540.3,20.87l-.24,5.7c.33-1,.76-2.31.84.29C541.87,19.66,540.17,28.34,540.3,20.87Z"/><path class="cls-2" d="M533.05,4c1.6.78,1.63.75,1.33.39s-1-.88-.9-.91a5.33,5.33,0,0,0-2-.47c-.06,0,0,.11.29.26S532.49,3.65,533.05,4Z"/><path class="cls-2" d="M404.47,2.53l.31-.76C402.41,1.88,404.76,2.06,404.47,2.53Z"/><polygon class="cls-2" points="380.02 6.5 382.32 6.98 383.41 6.27 380.02 6.5"/><polygon class="cls-2" points="365.57 1.03 366.61 0.92 362.66 1.2 365.57 1.03"/><path class="cls-2" d="M150.73,1.31l.72.94C153.05,2.08,153.38,1,150.73,1.31Z"/><path class="cls-2" d="M58,2.27A9.52,9.52,0,0,0,52.76,2C54.85,2,56.92,2.39,58,2.27Z"/><polygon class="cls-2" points="152.21 96.19 150.34 96.51 153.86 96.25 152.21 96.19"/><text class="cls-3" transform="translate(23.14 65.59)"><tspan class="cls-4">W</tspan><tspan class="cls-5" x="38.19" y="0">oohoo! I</tspan><tspan class="cls-6" x="208.56" y="0">v</tspan><tspan x="234.38" y="0">e got a topic!</tspan></text></g></g></svg>