<svg xmlns="http://www.w3.org/2000/svg" viewBox="0 0 206.51 91"><defs><style>.cls-1{fill:#9dc4ff;}.cls-2{fill:#9cff8f;}</style></defs><title>Yes</title><g id="Layer_2" data-name="Layer 2"><g id="Layer_1-2" data-name="Layer 1"><path class="cls-1" d="M193.62,88.82c-.3.09-.12.3.66.21.18-.12.36-.23.52-.36Z"/><path class="cls-1" d="M198.9,88.18c.79-.57,1.5-1.4.84-1.33a16.78,16.78,0,0,1-1.6,1.49c-.74.32-1.35.37-1.25.2-.25.16-1.19.24-1.59.48A5.28,5.28,0,0,0,198.85,88C199.15,87.9,198.93,88.1,198.9,88.18Z"/><path class="cls-1" d="M205.79,10.86a4.52,4.52,0,0,1,.06.53A2.1,2.1,0,0,0,205.79,10.86Z"/><path class="cls-1" d="M160.4.84c.38,0,.53,0,.55-.07C160.6.79,160.32.81,160.4.84Z"/><path class="cls-1" d="M152,.48l.5,0A1.45,1.45,0,0,0,152,.48Z"/><path class="cls-1" d="M205.79,10.86a12.58,12.58,0,0,0-.27-1.36C205.41,9.44,205.66,10.2,205.79,10.86Z"/><path class="cls-1" d="M204.55,79.63c0,.25-.06.46-.07.67l.12-.62Z"/><path class="cls-1" d="M206.35,32.75v.41a3.24,3.24,0,0,0,.13.33Z"/><path class="cls-1" d="M206.4,49.5c0-.38-.27-.51-.39-.66a2.16,2.16,0,0,1,.19.83C206.26,49.68,206.32,49.63,206.4,49.5Z"/><path class="cls-1" d="M205.91,76.05l0,.47C205.93,76.4,205.92,76.2,205.91,76.05Z"/><path class="cls-1" d="M206.41,20.77a.33.33,0,0,0,.1-.15S206.44,20.68,206.41,20.77Z"/><path class="cls-1" d="M174.21,88.17s0,0,0,0S174.34,88.17,174.21,88.17Z"/><path class="cls-1" d="M193.62,89.56h-.27a.4.4,0,0,0-.06.16Z"/><path class="cls-1" d="M136.48.12h.07C137,.09,136.73.1,136.48.12Z"/><path class="cls-1" d="M.45,13.77c.26-1.61.33,2.62.61.2C.92,14.23.69,11.66.45,13.77Z"/><path class="cls-1" d="M204.65,79.23c0-.2.06-.42.09-.63C204.69,78.89,204.66,79.08,204.65,79.23Z"/><path class="cls-1" d="M1.06,14h0l0-.25A2.42,2.42,0,0,0,1.06,14Z"/><path class="cls-1" d="M100.85.29a1.36,1.36,0,0,0,.36.12S101.12.34,100.85.29Z"/><path class="cls-1" d="M127.4.69l-.66,0Z"/><path class="cls-1" d="M87.06.68a4.86,4.86,0,0,0-1,0l.15,0A2.88,2.88,0,0,1,87.06.68Z"/><path class="cls-1" d="M72.72.68,73,.74h.46Z"/><path class="cls-1" d="M130.6,88.3a2.52,2.52,0,0,1,.67.26C131.05,88.36,133.15,88.28,130.6,88.3Z"/><path class="cls-1" d="M204.71,79.65a.69.69,0,0,1-.06-.42c0,.16,0,.3-.05.45S204.67,79.74,204.71,79.65Z"/><path class="cls-1" d="M86.48,2.9l-2.28,0C84.84,2.89,85.67,2.9,86.48,2.9Z"/><path class="cls-1" d="M27.68,88.34l.52,0A2,2,0,0,0,27.68,88.34Z"/><path class="cls-1" d="M77.44,2.9a7.56,7.56,0,0,0-1.29-.19,1.38,1.38,0,0,0-.26.07Z"/><path class="cls-1" d="M131.27,88.56Z"/><path class="cls-1" d="M146.29,87.89c-2.18,0-1,.36-1.48.57-2.6.11-1.2-.27-2.09-.46-1.62.1-2.86.44-4.06.43-.09-.07-.33-.09,0-.16-1.71.29-5.08,0-7.08.38a.65.65,0,0,1-.26-.09c.32.18.37.37.31.51-1,0-1.81.23-2.18,0a2.09,2.09,0,0,0,.93-.17l-1,.11c-.92-.35,1.39-.12,1.39-.38-2,.11-4.3.4-5.83.3-.32-.34,3.57-.11,1.53-.41l2.36.12c-1.8-.53,1.43,0-.22-.53-3.11-.1-3.48.17-6.57.07-.7.19.23.28-.47.47-4.4.34-3.46-.85-6.7-.4a5.94,5.94,0,0,1-3.46.43l.78-.39c-3,0-1.71.56-4.86.3.56-.15,2.36-.13,1.91-.17-2-.31-1.45.21-3,.21l-.33-.34c-3.2.06-6.72.3-10.27.36.2-.1.81-.2,0-.31-4.47.17-9.54,0-13.86-.24L80,88.38c-.39,0-.71-.13-.3-.19-1.68-.11-.09.19-.89.3-1,0-1.27-.16-.66-.25a79.42,79.42,0,0,1-11.57.22l.61-.09c-2.43-.12-2.75.6-5,.33l.43,0c-5.28-.13-11.11.14-15.14-.3-.77.42-5.23-.19-5.57.4-3-.29-2.15-.4-6.39-.6-1.14,0-1.69.37-3.09.43l0-.3-1.9.32-1-.37-1.31.08c.52,0,1.11.14,1,.23a17.51,17.51,0,0,1-5.05-.38l-4.86.26a6.42,6.42,0,0,1,1.56-.24c-2.59.31-.47-.33-2.85,0,.32.07-.17.19-.22.25a21,21,0,0,0-2.64-.16H13.53c-.49,0-1,0-1.42-.07l.36-.16a11.72,11.72,0,0,1-4.66-1.65,10.63,10.63,0,0,1-3.6-3.84c.58,1.15.12,1.13-.47.18l.1-.54c-.49-.55.39,1.09-.47-.12-.49-1.33,0-1,.38-.31a10.7,10.7,0,0,1-.63-1.53c.07-.12.21.24.35.3a4.26,4.26,0,0,1-.31-1.73c0-.36,0-.74,0-1.08a4.17,4.17,0,0,0-.13-1l.09-.11c0-4-.11-5.87-.12-9.17-.28-.06-.22-1.35-.45-2.33.09-2.42.31-5.11.29-8-.14-2-.24-.59-.41-1.52.26-.15.23-3.06.42-1.55,0-3.5-.05-4.47-.26-8.9-.11.48-.15,1-.24.74,0-.8.11-1.82.23-1.71l0,.21c-.39-5,.75-11.47.21-15.42l0,.22L2.55,25c0-1.89.19,1.13.35-.27-.43-4.43.06-7-.22-10.64.09-.36.16-.77.24-1.18s.16-.88.26-1.37A13.64,13.64,0,0,1,4.27,8.47a8.86,8.86,0,0,1,4.6-4.34l-.26-.07a2.09,2.09,0,0,1,.84-.42,4.85,4.85,0,0,0,.77-.12c-.12-.1-.94.17-.47-.1a10.27,10.27,0,0,1,2.74-.73c.49,0,.93-.07,1.47-.06h1.6c2.14,0,4.3.06,6.46.11L35,3.1c3.13,0,1.78-.92,5.72-.49l-1.12.33c6.31-.4,12.9,0,19.08-.32a3,3,0,0,1-1,.17,15.85,15.85,0,0,0,4.84-.18c1,0,.23.17.82.27,1.31.14,3.28-.3,4-.06.12,0-.37.07-.61.09.85-.11,4,0,3.16-.25,2.32.14,4.43-.12,6.28,0,1.21-.31,4,.14,4.35-.29-.16.45,4.07.36,5.53.15-.49.14,1.28.14.7.33,1.68,0,3.21-.09,2.92-.32,3.08.54,6.19-.44,7.93.26,5-.25,9.57-.41,14-.52-.16.45-4.94.05-4.75.52,4.24-.19,6.68-.57,10.89-.46,1.09.06-.62.19-1,.27,4.24-.19,8.19,0,12-.21a2.74,2.74,0,0,1-.8.13c.75,0,1.73.06,1.65-.14l-.73,0c-1.18-.29,3-.62,3.09-.78-1.27.59,3.72.15,1.72.89.49,0,1.1-.13,1-.27.72,0,.95.12.22.28,2.66-.11,1.71-.33,4.12-.33,0,.1-.49.14-.74.26a19.77,19.77,0,0,1,4.48-.31c-.12.06.12.14-.49.14,3.5,0,6-.52,9.8-.33-1.13.43,1.31.14,1.51.52l2.07-.11-.83-.19c1.81,0,3.4-.26,5-.14l-1.35.15,3.39-.07-1.91-.14c1.82-.19-.2-.47,2.21-.37-.49,0,1.8,0,2.75.23h0A14.3,14.3,0,0,1,168,1.76c.35.12-.28.41,0,.49.88-.31,4.23-.09,5.35-.42-.37.08-.39.28-.27.32l.74-.26c.84.08,1,.12.83.28,2.52.05-.8-.47,2.19-.27a6.11,6.11,0,0,1-.61.1c3,.1,5.8-.16,8.56,0,.81.38-2.41.09-1.48.41,2,0,4-.15,6.09-.24l3-.11a13.51,13.51,0,0,1,2.87.12,5.43,5.43,0,0,0-.68-.13.84.84,0,0,1,.7-.1,4.69,4.69,0,0,1,1.1.3c.83.28,1.71.8,2.6,1.1-.43-.16-.66,0-.53,0a14.81,14.81,0,0,1,3.23,2.22,11.44,11.44,0,0,1,2.82,4l-.29-.39a15,15,0,0,1,.62,2.61,14.39,14.39,0,0,1,.1,2.83c.14.5.11,1.46.31.87-.77,5.18.42,9.88-.23,14.47,0-.55-.12-1.31-.12-.87L205,33c.23-.31.14-.51.32-1.33a12.45,12.45,0,0,1,.24,2.56c-.15-1.76-.37,0-.5.78.07-.13.15.13.22.07-.41,2,.47.34.19,3.13l-.12-.15c.06,1,.22,2,.19,3.13-.27.47-.13-1.11-.35-1.18,0,1.58.51,3.12.24,4.55-.07-.67-.07-1.63-.15-2.31a12.73,12.73,0,0,0-.28,2.9v-.11l-.15,2.68L205,47c.7,2,.13,4,.58,6.7-.43-2.59-.25-.43-.55-.63-.08.68-.18,1.72-.26,1.42.24,1.26-.2,2.11.16,3.89-.1.07,0,1.34-.25,1.06.07,1.64.17-.39.29-.25.33,2.52-.41,5.94,0,9.57.19,3.13.52,3.71.68,6.62-.15,1-.35-.81-.35-.81-.16,1.58-.07,2.79-.09,4.23,0-.3-.16,0-.34.4a6.49,6.49,0,0,0,0,1,2.33,2.33,0,0,1-.34,1.24c0-.29,0-.65,0-1.2a11.15,11.15,0,0,1-1.37,3.81c-.33.21.26-.85.39-1.32A13,13,0,0,1,202.1,85a17.93,17.93,0,0,0-1.16,1.5c.29-.19.55-.4.83-.61-.42.4-.37,0-.1-.29.78-1.1,1.31-1.42,1.45-1.43-.18.28-.36.58-.56.85a4.09,4.09,0,0,0,1.64-2.16,15.67,15.67,0,0,0,.88-3.33,6.27,6.27,0,0,1,.22.93,6.51,6.51,0,0,0,0-1.08,7.66,7.66,0,0,0,0-1.07c.13-.43.38-.75.38.3.3-1.52-.09-1.34.14-2.63,0-.14.06-.08.08,0l-.13-1.46c.09.28.3-.25.24.65.24-2.63-.32-4.24,0-5.23l0,.22c-.14-3.65-.3-.35-.66-3.09l.75-1.85-.3-.36c0-.37,0-1.12.15-1-.2-1.4-.13.24-.33-.57.28-1.82-.13-5,.36-5.41-.23-.65-.18,1.73-.34-.2.52-.56-.09-2.24.15-3.9.27.51.13,2.08.37.42-.46-1,.1-3.22,0-4.62-.36-.07-.15-3-.27-5.38.12.15.2-4.41.33-6.59l.06.06c-.37-.42-.3-2.67-.37-4.31.22.06.3.36.4,1.25V33.16a7.09,7.09,0,0,1-.22-1.85l.27.39c0-2.05-.32-4.13-.14-6.76-.25-.15-.71,2.09-.88-.69.14-.11.37-.21.43.52a6.6,6.6,0,0,1-.05-1.34l.23,1.12c.1-1.2-.2-.63-.17-1.59.19,0,.14-.71.29-.57a8,8,0,0,0,0,1.2,13.89,13.89,0,0,1,.3-2.82c-.11.09-.27,0-.29-.79,0-2.05.24-.71.34-1.9-.14-.5,0-1.81-.29-1.84a1.81,1.81,0,0,1,.22-.94c-.08-.54,0-1.74-.16-2.78s-.33-1.68-.37-1l0,.28s0-.11,0-.17h0a16.19,16.19,0,0,0-2.05-5.06,11,11,0,0,0-3.94-3.77l.05-.08a11.08,11.08,0,0,0-6-1.42c-.62,0-1.44-.19-1.19-.32a21.64,21.64,0,0,1-4,0c1.58-.18-.55-.16,1.62-.13a20.56,20.56,0,0,0-4.7,0c.74-.26-1.54-.32-2.52-.25l1.44.18c-1.1,0-2.05,0-3,0L182,.46c-4.18-.4-7.55.69-10.73,0-1.11.23,2.27.16,1.28.43-1.92,0-3.93-.52-4.53-.52-2.64-.19-2.46.48-5.22.36.35.12.68.43-1.38.55-1.93-.05-2.37-.5-1.15-.6.46,0,.68,0,.66.07.63,0,1.44-.09.68-.22l-.25.12c-1-.12-3.61-.11-3-.31-1.46.12-.63.2.45.26-2.47-.17-3.86,0-6.4-.12.4.06.77.2.37.2-3.73-.14-1.64.23-4.17.28-1.43-.18.52-.43-2-.28-1.55-.12-.33-.32.29-.41A34.74,34.74,0,0,1,141.25.1l1.22-.1a18.55,18.55,0,0,1-1.93.05l.69.24c-.71,0-1.32,0-1.31-.14-.73.16.57.4-.9.61-1-.12-2.91.13-3.24-.19,3,.11-.33-.31,2.21-.36a15.58,15.58,0,0,1-1.8,0c-.11,0,.1-.07.29-.08-2.87-.28-1.32.35-4.3.35.38-.18-.69-.34-1.18-.3,1.2,0,.58.29-.53.43a19.13,19.13,0,0,0-3.07.09l1.14.06a11.62,11.62,0,0,1-2.68.21c-.11-.14,1.21-.09.74-.16-1.48.32-3.35-.32-5.41-.11-1-.12-.09-.33-.93-.41C118,.51,117.75,0,115.32.22c.7.24.83.18-.89.42l4-.17-2.56.35c1.2,0,2.54-.15,3.26-.11-1.22.19-1.09.13-.52.33-1.65-.36-3.27.21-5.17,0l0-.59c-2.86-.27-5.09.3-8.81.15l1.19.1c-.5.24-2.3,0-3.5.13.11-.2-.64-.27-1.16-.39.06.15-2.72,0-3.06.38L96.48.53c-3-.11-3.43.56-6.32.49.87-.21-.44-.35,1.5-.5-1,0-1.84,0-1.85.1-.57-.13-2.68.26-3.56.07A3.77,3.77,0,0,1,84.62,1c-.12,0,0-.1,0-.1s-1.7.14-.75.35c-3-.61-8.31.05-10.9-.48-2.11.07-4.64.13-6.55.14.12-.05,0-.09.36-.07-2.63-.19-1.62.56-4.62.36C60.64.85,63.76,1,62.81.88c-.42-.65-3.62.08-5.64-.3l.49,0c-1.55-.22-3.77.24-6.29.2,0,0,.12-.06,0-.1A63.34,63.34,0,0,1,44,1.18c.75-.25,1.1-.13.64-.39-1.09,0,.32.41-1.85.49A9,9,0,0,1,40.28.74l2,0c-1-.35-2.65,0-3.73,0l.14-.15c-3.14,0-3.18.44-6.55.41l.34.12c-1.84.39-1.54-.22-3.38.07L28.58.73c-1.21.09-4.26.38-6.44.45C23.38.89,25.93.74,27.51.57a32.74,32.74,0,0,0-4.73.22A8.4,8.4,0,0,1,24.36.72a28.86,28.86,0,0,1-5.83.45c.22-.38-1.35-.43-3.18-.45-.92,0-1.89,0-2.85,0s-1.72.13-2.22.12A15.44,15.44,0,0,0,4.33,4.35,13.88,13.88,0,0,0,2.06,7.24,12.77,12.77,0,0,0,.7,10.91c.52-.87.42-.48.3.09s-.19,1.34.13,1.21c0,1.22,0,1.65-.07,1.75l-.37,3.5c-.17.83-.13-1.1-.27-1C.37,19,.16,17.53,0,19.2c.22-.35.31.87.23,2.31l.28-2C.84,23,0,22.54.32,26.09L.13,25c.11,1.82,0,6.73.49,8.52-.07.32-.24.75-.29-.05-.07,4.36.53,9.71.22,13.1L.4,46.21a8.94,8.94,0,0,1,.13,2.43c-.06,0-.14-.32-.15,0a19.77,19.77,0,0,1,.17,3.24L.38,51c-.19,4.26.41,6.53.52,10.1-.44,0-.59,3.34-.66,5l-.06-.06c0,2.48.06,4.58.18,6.64.07,1,.13,2,.19,3.09l.09,1.6a16.61,16.61,0,0,0,.2,1.79,10.82,10.82,0,0,0,2.44,6.51,14.32,14.32,0,0,0,7,4.73c-.73-.29.21-.27,1.07-.16a8.55,8.55,0,0,0,1,.14h1c.63,0,1,0,1,.18h-.38c.81.4,3,.29,4.74.3l.29-.53c4.5.77,11.81-.28,14.27.41,1.09-.13,2.43-.13,3.51-.26l-.05.28c3,.07,4.51.11,8.24,0l-.76.2c2.1,0,2.65-.81,4.59-.83l.59.42c3.66,0,7.37.37,11,0-.06.06-.17.19-.76.2,1.72,0,6.67.29,6-.29,0,.38,3.78,0,5.76-.13l-.31.28a16,16,0,0,1,4.06-.55c.55,0,.48.22-.25.15,1.84.15,1.44-.26,3.67-.12l-.83.18A8,8,0,0,0,80.53,90a11.41,11.41,0,0,1,3.88.32,5.64,5.64,0,0,1,2.41-.28c.15.09-.26.15-.46.18,3.17.19,4.71-.32,6.89,0a.48.48,0,0,0,.37.16c-2.52,0-4.55,0-4.36,0,0,.26,2,.3.42.66a39.85,39.85,0,0,1,6.41-.49l.26.08-.2,0a6.38,6.38,0,0,0,1.25,0c.63,0,1,.08,1.64.08a16,16,0,0,0,3.35.12c-.08-.28,1.24-.23,0-.46.16,0-.19,0-.87,0-.15,0-.33,0-.43,0l.07,0H98.64a8.17,8.17,0,0,1,2.76-.1c.52-.18,1.09-.37,1.42-.46,1.38.4,4.06.61,4.43.85,3.1-.16,7.3-.1,9.25-.63a2.4,2.4,0,0,1,1.34.23c-.51.06-1.11,0-1.39.12,1.76-.13,5.22,0,5.64-.42,2.22.17-1.25.34,1.8.28l-.41.11c6,.59,9.76-.94,16.41-.18a2.8,2.8,0,0,1-.79-.13c7.59.33,15.63-.31,23.12.22a12.49,12.49,0,0,0,3.65-.31l.46.3,2.22-.35c3.15-.25,5.46.74,9.44.26l-.51-.2c1.43,0,4.53-.12,4.29.11a1.84,1.84,0,0,1,1-.11l0,.16,3.52-.27c2.73.12-.43.63,3.55.66,1.48-.06,4.21-.46,3.66-.57s-1.53-.09-1.57-.25l1.35-.09c.24-.46,1.28-.94-2-1.26l-2.31.28-.74-.22,1.94,0a6.37,6.37,0,0,0-2.59.11,2.21,2.21,0,0,0-1-.25l-2.28.44c-.27-.18,1-.36-.5-.46-1.06.21,1,.41-.74.54-1.11-.21-.79-.38-2.08-.2-.19-.12.09-.2.6-.25a30.06,30.06,0,0,0-3.65.31c-1.16-.26-3.91.07-3.79-.37a19.9,19.9,0,0,1-3.1.36c1.94-.53-4,0-3.46-.59-1.44.47-5.19.21-7.73.47a1.73,1.73,0,0,1,.64-.09,25.33,25.33,0,0,1-2.76-.27c-.19.39-2.42.48-3.62.72-1.75-.38,1.07-.46.52-.82.09.31-3,.31-2.45.58-1.35-.24-1.16-.11-1.85-.44-.24.49-1.25.08-2.36.38-1.94-.24-.5-.45-2.64-.31C144.39,88.06,146.29,87.89,146.29,87.89Zm-50.73.85h1Zm-4.27,0h1.85c.15.1,0,.2-.44.2C92.93,88.88,91.93,88.82,91.29,88.74Zm9,2a2.08,2.08,0,0,1-1-.07l1.18,0,.08,0A.84.84,0,0,1,100.31,90.69Z"/><path class="cls-1" d="M101.52,90.32l.28,0-.4-.06-.24.09Z"/><path class="cls-1" d="M205.86,11.48v-.09a1.15,1.15,0,0,1,0,.2A.27.27,0,0,1,205.86,11.48Z"/><polygon class="cls-1" points="32.42 88.2 32.43 88.28 32.8 88.21 32.42 88.2"/><path class="cls-1" d="M205.07,35a1,1,0,0,0-.07.31A1.43,1.43,0,0,0,205.07,35Z"/><path class="cls-1" d="M205,45.16l-.1,1.44C205,46,205,45.52,205,45.16Z"/><path class="cls-1" d="M204.87,53a.33.33,0,0,0,.12.15h0Z"/><path class="cls-1" d="M127.93,2.57h-.3C126.93,2.63,127.41,2.61,127.93,2.57Z"/><path class="cls-1" d="M164.83,1.91c-.39.05-.78.1-1.19.13C164.3,2.06,164.81,2.07,164.83,1.91Z"/><path class="cls-1" d="M86.73,2.9Z"/><path class="cls-1" d="M161.93,2a10.79,10.79,0,0,0,1.71,0A13.94,13.94,0,0,0,161.93,2Z"/><path class="cls-1" d="M201.56,85.24a2.83,2.83,0,0,1-.25.24s0,0,0,.06A3.61,3.61,0,0,0,201.56,85.24Z"/><path class="cls-1" d="M201.31,85.54l-.27.28A1.28,1.28,0,0,0,201.31,85.54Z"/><path class="cls-1" d="M200.45,86.4a4,4,0,0,0,.59-.58A5.45,5.45,0,0,0,200.45,86.4Z"/><path class="cls-1" d="M204.87,76.44l-.1-.12A.18.18,0,0,0,204.87,76.44Z"/><path class="cls-1" d="M204.84,73.3a27.08,27.08,0,0,0-.15,2.92l.08.1C204.62,75.83,205,74,204.84,73.3Z"/><path class="cls-1" d="M206.1,60.2,206,62.83c.11-.46.25-1.06.28.13C206.62,59.65,206.06,63.65,206.1,60.2Z"/><path class="cls-1" d="M206.26,52.05c.05,1.42.16,0,.22.06C206.38,51.22,206.35,51,206.26,52.05Z"/><path class="cls-1" d="M192.11.84l.14-.25C191.16.63,192.24.69,192.11.84Z"/><polygon class="cls-1" points="180.85 2.17 181.91 2.33 182.41 2.09 180.85 2.17"/><polygon class="cls-1" points="174.2 0.34 174.68 0.31 172.86 0.4 174.2 0.34"/><path class="cls-1" d="M75.27.44l.33.31C76.33.69,76.49.34,75.27.44Z"/><path class="cls-1" d="M32.56.76A6,6,0,0,0,30.15.65C31.11.67,32.07.8,32.56.76Z"/><polygon class="cls-1" points="21.1 90.73 20.24 90.84 21.86 90.75 21.1 90.73"/><path class="cls-2" d="M75.3,48.94V59.73a7.13,7.13,0,0,0,.5,3,2.6,2.6,0,0,0,2.58,1.24,15.47,15.47,0,0,0,2-.12,14.06,14.06,0,0,1,1.52-.06c.92,0,1.38.27,1.38.8s-.43.81-1.3.81h-.25l-1.36-.12c-.33,0-.91,0-1.74-.13l-2.2-.18c-.47,0-.84-.07-1.08-.07H73.19c-.29,0-.63,0-1,0s-1,.08-1.92.18a20.42,20.42,0,0,1-2.07.16l-1.37.12h-.25c-.86,0-1.3-.25-1.3-.74s.46-.87,1.39-.87a12.32,12.32,0,0,1,1.57.09,15.42,15.42,0,0,0,1.89.09,3.18,3.18,0,0,0,2.61-.89,5.78,5.78,0,0,0,.79-3.32V48.78a2.82,2.82,0,0,0-.37-1.43L61.07,27.79a12.52,12.52,0,0,0-1.29-1.85,2.69,2.69,0,0,0-2-.81H54.89c-1,0-1.54-.27-1.54-.8s.52-.81,1.55-.81a19.89,19.89,0,0,1,2,.21,31.51,31.51,0,0,0,4.34.29,49.62,49.62,0,0,0,5.09-.31c1.15-.13,1.83-.19,2-.19.83,0,1.24.26,1.24.78s-.45.83-1.36.83L65.75,25,63.45,25c-1,0-1.42.27-1.42.8a2,2,0,0,0,.25.62l.43.68L73.56,45q.5.87,1,.87t1-.87l10-16.24A9.19,9.19,0,0,0,87,26c0-.5-.41-.76-1.24-.81l-.93-.06H81.12c-1.32,0-2-.27-2-.8s.45-.81,1.36-.81c.25,0,1.08.08,2.48.25a42.54,42.54,0,0,0,4.78.25L90.49,24c.33,0,.9,0,1.73-.09s1.45-.09,1.86-.09c.79,0,1.18.27,1.18.8s-.52.81-1.55.81a1.26,1.26,0,0,1-.5-.25H91.35a2.18,2.18,0,0,0-1.48.44,12.86,12.86,0,0,0-1.68,2.23L75.73,47.51A2.62,2.62,0,0,0,75.3,48.94Z"/><path class="cls-2" d="M117.83,47.7c0,.87-.2,1.39-.59,1.55a5,5,0,0,1-1.83.25h-22c-.58,0-.94.08-1.08.25A2.11,2.11,0,0,0,92.16,51q0,6.19,3.38,10a12.25,12.25,0,0,0,18.07-.34,10,10,0,0,0,1.86-3.54,13.9,13.9,0,0,1,.31-1.55c.17-.7.47-1,.93-1s.74.29.74.87a8,8,0,0,1-.68,2.79A11.89,11.89,0,0,1,112,64a13.77,13.77,0,0,1-7.6,2.08,13,13,0,0,1-10.16-4.28q-3.85-4.27-3.85-11.28,0-7.26,4-11.81a13.11,13.11,0,0,1,10.32-4.56,12.37,12.37,0,0,1,9.3,3.94A13.36,13.36,0,0,1,117.83,47.7Zm-25.42-.56c0,.62.45.93,1.36.93H115.1q1.05,0,1.05-1a12.31,12.31,0,0,0-2.73-7.56,10.42,10.42,0,0,0-8.8-4.16,11.64,11.64,0,0,0-7.35,2.39,13,13,0,0,0-4.37,6.73A9.39,9.39,0,0,0,92.41,47.14Z"/><path class="cls-2" d="M136.46,66.05q-7.31,0-10.76-5.21.1,1.15.15,1.59c.07,1.69.1,2.44.1,2.23,0,.93-.27,1.39-.81,1.39s-.93-.41-.93-1.24a20.83,20.83,0,0,1,.19-2.32,39.51,39.51,0,0,0,.18-4.25,43.61,43.61,0,0,0-.18-4.53c-.13-1.07-.19-1.63-.19-1.67q0-1,.84-1t.9,1.53s0,.24-.08.59a6.64,6.64,0,0,0-.09,1.13c0,.58-.08,1.15-.08,1.72a7.86,7.86,0,0,0,3,6.39,11.75,11.75,0,0,0,7.75,2.46,11.42,11.42,0,0,0,7.19-2.11,6.63,6.63,0,0,0,2.73-5.51,5.12,5.12,0,0,0-2-4.53q-2-1.42-7.19-2a33.9,33.9,0,0,1-8.06-1.55,6,6,0,0,1-2.79-2.45,6.87,6.87,0,0,1-1.05-3.68,7.92,7.92,0,0,1,3-6.27,11.31,11.31,0,0,1,7.54-2.54,10.56,10.56,0,0,1,9.42,5.09v-3c0-1.2.25-1.8.74-1.8s.75.33.75,1c0,.21-.07.73-.19,1.55q0,.14-.06.81c0,.46-.06.87-.06,1.24l-.06,2.29c0,1.7,0,2.72.06,3.07s.08.7.12,1V46c0,.71-.27,1.06-.8,1.06s-.75-.33-.75-1V45.9l.17-1.42c0-.5.08-.64.08-.44a8.19,8.19,0,0,0-2.58-6.26,9.48,9.48,0,0,0-6.75-2.42,9.87,9.87,0,0,0-6.38,2,6.33,6.33,0,0,0-2.52,5.17,4.92,4.92,0,0,0,1.95,4.38c1.31.88,3.69,1.51,7.16,1.89a28.84,28.84,0,0,1,8.19,1.73,6.08,6.08,0,0,1,3.84,6.08,8.36,8.36,0,0,1-3.24,6.79A12.92,12.92,0,0,1,136.46,66.05Z"/></g></g></svg>