<?xml version="1.0" encoding="utf-8"?>
<!-- Generator: Adobe Illustrator 22.1.0, SVG Export Plug-In . SVG Version: 6.00 Build 0)  -->
<svg version="1.1" id="Layer_1" xmlns="http://www.w3.org/2000/svg" xmlns:xlink="http://www.w3.org/1999/xlink" x="0px" y="0px"
	 viewBox="0 0 1098.7 1098.7" style="enable-background:new 0 0 1098.7 1098.7;" xml:space="preserve">
<style type="text/css">
	.st0{filter:url(#Adobe_OpacityMaskFilter);}
	.st1{fill:none;stroke:#FFFFFF;stroke-width:63;stroke-linecap:round;stroke-linejoin:round;stroke-miterlimit:10;}
	.st2{mask:url(#lastChalkBoard_1_);}
	.st3{stroke:#603813;stroke-width:22;}
	.st4{fill:#B8B8B8;}
	.st5{fill:#FFFFFF;stroke:#999999;}
	.st6{fill:#FF8F8F;stroke:#999999;}
	.st7{fill:#8FBCFF;stroke:#999999;}
</style>
<defs>
	<filter id="Adobe_OpacityMaskFilter" filterUnits="userSpaceOnUse" x="174" y="52.5" width="778" height="1005">
		<feColorMatrix  type="matrix" values="1 0 0 0 0  0 1 0 0 0  0 0 1 0 0  0 0 0 1 0"/>
	</filter>
</defs>
<mask maskUnits="userSpaceOnUse" x="174" y="52.5" width="778" height="1005" id="lastChalkBoard_1_">
	<g class="st0">
		<path class="st1" d="M1129.8,317.2C813.9,129.5,558.5,0,549.3,7.3c-27.9,22.2,538.9,367.3,517.5,399.7
			c-24,36.3-812.1-423.1-844.8-373.3c-25,38.1,821.7,410.7,805.6,442.3c-16.5,32.3-794.5-449.8-845.2-361.7
			c-45.2,78.5,874.2,432.5,841.5,503.6c-19.8,43-879.7-438.2-907.2-379.7C85.2,305,1001.6,672.2,986,707.8
			c-15.4,35.3-838.4-378.2-871.7-299.7C82.1,484,980.9,754.6,970.5,783.9c-10.3,29.2-857-315.3-881.2-239
			c-22.6,71.4,912.4,297.5,900.2,342.5c-11.8,43.4-862.4-215-884.8-149.8C78.6,813.7,984.5,891,972.9,951.6
			c-10.7,55.9-809.4-97.6-825.8-37.7c-16.6,60.6,796.1,118.2,793.7,136.4c-2.4,18.3-799.9-80.9-802.7-60.6
			c-0.3,2.2,600.7,14.5,611.2,116.5c4.1,39.3-80.2,89.7-97.8,84c-279.4-91.5-489.3-120.9-563-175.1
			c-58.9-43.3,792.6,147.8,799.3,116.8C895,1099,9.5,892.4,14.9,867.7c5.5-25.1,1030.3,183.6,1031.4,177.9
			C1047.5,1039.8-4,828.6,0,806.5c4.1-22.7,1118.9,172.7,1124.2,144.6C1129.6,922.7-2.9,689.8,0,675.9
			c2.8-13.8,1107.1,204.7,1110,190.8C1112.9,852.5-16.9,608-15.6,602.2c1.2-5.7,1088.7,232.2,1094,209.9
			c5.2-22.1-1056.4-278-1050.9-297.5c2.4-8.4,1082.5,268.3,1089.8,241.9C1124.7,729.6-7.3,470.1,24.7,390.9
			c5.2-13,1044.6,286.1,1050.9,265.5C1081.7,636,69.9,318.2,76.1,297.8c6.2-20.5,1025.4,284.8,1035.6,253
			C1122,518.5,69.2,196.3,90,154.6c1.7-3.3,1038.7,369.1,1045.3,351.7C1142,488.7,93.5,85.8,102.5,61.5
			c8.8-23.9,1023.3,337.8,1031.4,315.5c7.4-20.1-808.7-338.5-806.2-344.7c2.4-6.1,778.5,299.5,788.2,276.6
			c8.4-20.1-708.9-229.4-633.9-285c40.4-29.9,695,211.3,700.6,197.4c4.7-11.6-465.1-197.1-457.3-218
			c4.6-12.3,198.2,41.9,462.9,127.6"/>
	</g>
</mask>
<g id="lastChalkBoard" class="st2">
	<path class="st3" d="M928.5,1046.5h-730c-6.6,0-12-5.4-12-12v-959c0-6.6,5.4-12,12-12h730c6.6,0,12,5.4,12,12v959
		C940.5,1041.1,935.1,1046.5,928.5,1046.5z"/>
	<path class="st4" d="M174,1016c2,12.2,8.1,20.8,25,20h731c14-0.1,20.9-7.1,22-20c0-11.2-1.8-4.9-33-2c-39.8,3.6-128,6-327,6
		c-203.8,0-308.7-1.4-362-6C174,1009.2,174.9,1001.5,174,1016z"/>
	<path class="st5" d="M549.2,1020c-6.2-3-5.2-20,0-24H669v24H549.2z"/>
	<ellipse class="st5" cx="669" cy="1008" rx="7" ry="12"/>
	<g>
		<path class="st6" d="M361.2,1019c-6.2-3-5.2-20,0-24H481v24H361.2z"/>
		<ellipse class="st6" cx="481" cy="1007" rx="7" ry="12"/>
	</g>
	<g>
		<path class="st7" d="M657.1,992.7c-5.4-4.2-0.9-20.6,5.1-23.4l117.1,25.4l-5.1,23.4L657.1,992.7z"/>
		
			<ellipse transform="matrix(0.2117 -0.9773 0.9773 0.2117 -371.3576 1552.3856)" class="st7" cx="776.7" cy="1006.4" rx="12" ry="7"/>
	</g>
</g>
</svg>
